<svg id="Layer_1" data-name="Layer 1" xmlns="http://www.w3.org/2000/svg" xmlns:xlink="http://www.w3.org/1999/xlink" viewBox="0 0 445 284"><defs><style>.cls-1{fill:none;}.cls-2{fill:#1b262f;}.cls-3{clip-path:url(#clip-path);}.cls-4{fill:#2e3f4d;}.cls-5{fill:#ba4270;}.cls-6{fill:#527695;}.cls-7{fill:#36536b;}.cls-8{fill:#fbfcfe;}</style><clipPath id="clip-path" transform="translate(-55 -55)"><rect class="cls-1" x="55" y="55" width="445" height="252"/></clipPath></defs><g id="Group_14" data-name="Group 14"><g id="Rectangle"><rect class="cls-2" width="445" height="284" rx="8"/></g><g class="cls-3"><g id="Group_13" data-name="Group 13"><g id="Group_11" data-name="Group 11"><path id="Rectangle_Copy" data-name="Rectangle Copy" class="cls-4" d="M55,63a8,8,0,0,1,8-8H492a8,8,0,0,1,8,8V95H55Z" transform="translate(-55 -55)"/><g id="Group_10" data-name="Group 10"><circle id="Oval" class="cls-5" cx="24" cy="20" r="8"/><circle id="Oval_Copy" data-name="Oval Copy" class="cls-6" cx="46.4" cy="20" r="8"/><circle id="Oval_Copy_2" data-name="Oval Copy 2" class="cls-7" cx="68.8" cy="20" r="8"/></g></g><path id="_form_id_form-id_m" data-name="&lt;form id=&quot;form-id&quot; m" class="cls-8" d="M89.58,137.79l-.34.11.34.11,3.88,1.5v1.25l-5.38-2.41v-.93l5.38-2.4v1.25ZM97.66,142v-6H95.77v-.91h1.89v-.48a3.4,3.4,0,0,1,.19-1.16,2.46,2.46,0,0,1,.55-.83,2.22,2.22,0,0,1,.85-.51,3.23,3.23,0,0,1,1.11-.17,4.28,4.28,0,0,1,.81.07,6.76,6.76,0,0,1,.82.18l-.14,1a5.92,5.92,0,0,0-.61-.16,4.32,4.32,0,0,0-.74-.07,1.76,1.76,0,0,0-1.24.42,1.71,1.71,0,0,0-.42,1.26v.48h2.65V136H98.84v6Zm5.73-3.5a4.06,4.06,0,0,1,.22-1.37,3.46,3.46,0,0,1,.61-1.12,2.9,2.9,0,0,1,1-.73,3,3,0,0,1,1.3-.27,3,3,0,0,1,1.3.27,2.9,2.9,0,0,1,1,.73,3.3,3.3,0,0,1,.62,1.12,4.32,4.32,0,0,1,.22,1.37v.14a4.34,4.34,0,0,1-.22,1.38,3.21,3.21,0,0,1-.62,1.1,2.77,2.77,0,0,1-1,.74,3.29,3.29,0,0,1-2.61,0,2.8,2.8,0,0,1-1-.74,3.36,3.36,0,0,1-.61-1.1,4.08,4.08,0,0,1-.22-1.38Zm1.17.14a3.85,3.85,0,0,0,.12,1,2.51,2.51,0,0,0,.37.81,1.78,1.78,0,0,0,.61.55,1.71,1.71,0,0,0,.86.21,1.64,1.64,0,0,0,.84-.21,1.7,1.7,0,0,0,.61-.55,2.32,2.32,0,0,0,.37-.81,3.85,3.85,0,0,0,.12-1v-.14a3.42,3.42,0,0,0-.13-1,2.6,2.6,0,0,0-.36-.81,1.89,1.89,0,0,0-.61-.55,1.67,1.67,0,0,0-.85-.21,1.65,1.65,0,0,0-.85.21,1.89,1.89,0,0,0-.61.55,2.61,2.61,0,0,0-.37.81,3.83,3.83,0,0,0-.12,1ZM116,135h.34a1.87,1.87,0,0,1,.34,0l.29,0a1.3,1.3,0,0,1,.23.07l-.16,1.15a5.19,5.19,0,0,0-.65-.11c-.2,0-.42,0-.64,0a2.22,2.22,0,0,0-1.34.38,2.16,2.16,0,0,0-.75,1V142h-1.18v-6.87h1.12l.06,1.09a3,3,0,0,1,1-.88A2.69,2.69,0,0,1,116,135Zm3.85.12,0,.65a1.64,1.64,0,0,1,.54-.57,1.67,1.67,0,0,1,.83-.2,1.23,1.23,0,0,1,1.26.73,1.68,1.68,0,0,1,.53-.53,1.63,1.63,0,0,1,.82-.2,1.46,1.46,0,0,1,1.16.46,2.07,2.07,0,0,1,.4,1.4V142h-1.11v-5.14c0-.58-.27-.86-.8-.86a1,1,0,0,0-.36.06.72.72,0,0,0-.25.16.63.63,0,0,0-.16.23,1.12,1.12,0,0,0-.08.26V142h-1.11v-5.15a1,1,0,0,0-.19-.63.71.71,0,0,0-.58-.22.92.92,0,0,0-.57.15.74.74,0,0,0-.3.39V142h-1.12v-6.87Zm15.25,0h3.52V141h2.23v1h-5.75v-1h2.34v-4.83h-2.34Zm2.19-1.8a.73.73,0,0,1,.17-.49.69.69,0,0,1,.53-.2.68.68,0,0,1,.53.2.69.69,0,0,1,.18.49.64.64,0,0,1-.18.47.68.68,0,0,1-.53.2.69.69,0,0,1-.53-.2A.68.68,0,0,1,137.32,133.33Zm5.22,5.18a4.86,4.86,0,0,1,.19-1.41,3.39,3.39,0,0,1,.55-1.11,2.65,2.65,0,0,1,.87-.73,2.5,2.5,0,0,1,1.13-.25,2.57,2.57,0,0,1,1.08.2,2.34,2.34,0,0,1,.8.6v-3.56h1.17V142h-1.08l-.05-.72a2.18,2.18,0,0,1-.82.63,2.68,2.68,0,0,1-1.11.22,2.39,2.39,0,0,1-1.13-.27,2.5,2.5,0,0,1-.85-.74,3.46,3.46,0,0,1-.56-1.1,4.75,4.75,0,0,1-.19-1.38Zm1.17.13a4.12,4.12,0,0,0,.11,1,2.41,2.41,0,0,0,.33.8,1.62,1.62,0,0,0,1.41.74,1.81,1.81,0,0,0,.54-.07,1.6,1.6,0,0,0,.44-.2,1.73,1.73,0,0,0,.35-.31,2.8,2.8,0,0,0,.27-.4V137a2.06,2.06,0,0,0-.62-.69,1.65,1.65,0,0,0-1-.27,1.62,1.62,0,0,0-.85.21,1.53,1.53,0,0,0-.58.55,2.41,2.41,0,0,0-.33.8,4.12,4.12,0,0,0-.11.95Zm12.52-1.59h-5.67v-1h5.67Zm0,2.63h-5.67v-1h5.67Zm4.24-6.74-.13,2.35h-.82v-3h.95Zm2.27,0-.13,2.35h-.82v-3h1Zm5.19,9.06v-6H166v-.91h1.89v-.48a3.4,3.4,0,0,1,.19-1.16,2.32,2.32,0,0,1,.55-.83,2.22,2.22,0,0,1,.85-.51,3.21,3.21,0,0,1,1.1-.17,4.47,4.47,0,0,1,.82.07,6.76,6.76,0,0,1,.82.18l-.14,1a5.92,5.92,0,0,0-.61-.16,4.32,4.32,0,0,0-.74-.07,1.75,1.75,0,0,0-1.24.42,1.71,1.71,0,0,0-.42,1.26v.48h2.65V136h-2.65v6Zm5.73-3.5a4.32,4.32,0,0,1,.21-1.37,3.48,3.48,0,0,1,.62-1.12,3,3,0,0,1,1-.73,3.29,3.29,0,0,1,2.61,0,2.9,2.9,0,0,1,1,.73,3.48,3.48,0,0,1,.62,1.12,4.32,4.32,0,0,1,.21,1.37v.14a4.34,4.34,0,0,1-.21,1.38,3.38,3.38,0,0,1-.62,1.1,2.86,2.86,0,0,1-1,.74,3.05,3.05,0,0,1-1.3.27,3.11,3.11,0,0,1-1.32-.27,2.86,2.86,0,0,1-1-.74,3.38,3.38,0,0,1-.62-1.1,4.34,4.34,0,0,1-.21-1.38Zm1.17.14a3.85,3.85,0,0,0,.12,1,2.32,2.32,0,0,0,.37.81,1.74,1.74,0,0,0,1.47.76,1.64,1.64,0,0,0,.84-.21,1.7,1.7,0,0,0,.61-.55,2.32,2.32,0,0,0,.37-.81,3.85,3.85,0,0,0,.12-1v-.14a3.42,3.42,0,0,0-.13-1,2.6,2.6,0,0,0-.36-.81,1.92,1.92,0,0,0-.62-.55,1.65,1.65,0,0,0-.85-.21,1.7,1.7,0,0,0-.85.21,1.86,1.86,0,0,0-.6.55,2.4,2.4,0,0,0-.37.81,3.83,3.83,0,0,0-.12,1ZM186.3,135h.34a1.87,1.87,0,0,1,.34,0l.29,0a1.63,1.63,0,0,1,.23.07l-.16,1.15a5.19,5.19,0,0,0-.65-.11c-.2,0-.42,0-.64,0a2.22,2.22,0,0,0-1.34.38,2.16,2.16,0,0,0-.75,1V142h-1.18v-6.87h1.12l0,1.09a3.14,3.14,0,0,1,1-.88A2.69,2.69,0,0,1,186.3,135Zm3.84.12,0,.65a1.56,1.56,0,0,1,.54-.57,1.64,1.64,0,0,1,.83-.2,1.23,1.23,0,0,1,1.26.73,1.58,1.58,0,0,1,.53-.53,1.62,1.62,0,0,1,.81-.2,1.47,1.47,0,0,1,1.17.46,2.07,2.07,0,0,1,.4,1.4V142H194.6v-5.14c0-.58-.26-.86-.79-.86a1,1,0,0,0-.36.06.74.74,0,0,0-.41.39.79.79,0,0,0-.08.26V142h-1.12v-5.15a1,1,0,0,0-.18-.63.71.71,0,0,0-.58-.22.92.92,0,0,0-.57.15.74.74,0,0,0-.3.39V142h-1.12v-6.87Zm12.41,3.31h-4.86v-1h4.86Zm2.85-3.31h3.51V141h2.24v1H205.4v-1h2.34v-4.83H205.4Zm2.19-1.8a.64.64,0,0,1,.7-.69.65.65,0,0,1,.71.69.64.64,0,0,1-.18.47.69.69,0,0,1-.53.2.68.68,0,0,1-.53-.2A.63.63,0,0,1,207.59,133.33Zm5.21,5.18a5.22,5.22,0,0,1,.19-1.41,3.62,3.62,0,0,1,.56-1.11,2.65,2.65,0,0,1,.87-.73,2.47,2.47,0,0,1,1.13-.25,2.52,2.52,0,0,1,1.07.2,2.38,2.38,0,0,1,.81.6v-3.56h1.17V142h-1.08l-.05-.72a2.18,2.18,0,0,1-.82.63,2.75,2.75,0,0,1-1.11.22,2.36,2.36,0,0,1-1.13-.27,2.63,2.63,0,0,1-.86-.74A3.66,3.66,0,0,1,213,140a4.75,4.75,0,0,1-.2-1.38Zm1.18.13a3.64,3.64,0,0,0,.11,1,2.41,2.41,0,0,0,.33.8,1.59,1.59,0,0,0,1.41.74,1.81,1.81,0,0,0,.54-.07,1.6,1.6,0,0,0,.44-.2,1.73,1.73,0,0,0,.35-.31,2.8,2.8,0,0,0,.27-.4V137a2.06,2.06,0,0,0-.62-.69,1.85,1.85,0,0,0-1.82-.06,1.58,1.58,0,0,0-.57.55,2.41,2.41,0,0,0-.33.8,3.64,3.64,0,0,0-.11.95Zm9-5.7-.13,2.35H222v-3h1Zm2.27,0-.13,2.35h-.82v-3h1ZM237,135.13l0,.65a1.58,1.58,0,0,1,.55-.57,1.61,1.61,0,0,1,.82-.2,1.23,1.23,0,0,1,1.26.73,1.71,1.71,0,0,1,.54-.53,1.57,1.57,0,0,1,.81-.2,1.46,1.46,0,0,1,1.16.46,2.07,2.07,0,0,1,.41,1.4V142h-1.12v-5.14c0-.58-.26-.86-.79-.86a1,1,0,0,0-.36.06.68.68,0,0,0-.26.16.63.63,0,0,0-.16.23,1.11,1.11,0,0,0-.07.26V142h-1.12v-5.15a1,1,0,0,0-.18-.63.73.73,0,0,0-.59-.22,1,1,0,0,0-.57.15.79.79,0,0,0-.3.39V142h-1.12v-6.87Zm10.3,7a3.58,3.58,0,0,1-1.33-.25,3.26,3.26,0,0,1-1-.69,3.3,3.3,0,0,1-.67-1.06,3.52,3.52,0,0,1-.24-1.32v-.27a3.92,3.92,0,0,1,.27-1.49,3.39,3.39,0,0,1,.7-1.11,3.2,3.2,0,0,1,1-.69,2.94,2.94,0,0,1,1.16-.24,3,3,0,0,1,1.29.25,2.38,2.38,0,0,1,.93.72,2.89,2.89,0,0,1,.55,1.06,4.77,4.77,0,0,1,.18,1.34v.52h-4.91a3.27,3.27,0,0,0,.18.89,2.43,2.43,0,0,0,.45.72,2.09,2.09,0,0,0,.68.48,2,2,0,0,0,.86.18,2.37,2.37,0,0,0,1.12-.26,2.31,2.31,0,0,0,.81-.67l.72.56a2.79,2.79,0,0,1-.43.5,2.85,2.85,0,0,1-.59.42,3.25,3.25,0,0,1-.76.29A3.48,3.48,0,0,1,247.29,142.13Zm-.15-6.16a1.67,1.67,0,0,0-.67.13,1.73,1.73,0,0,0-.57.38,2.23,2.23,0,0,0-.44.62,3.2,3.2,0,0,0-.24.84h3.7v-.09a2.65,2.65,0,0,0-.14-.68,1.82,1.82,0,0,0-.32-.6,1.6,1.6,0,0,0-.55-.44A1.65,1.65,0,0,0,247.14,136Zm7.71-2.5v1.66h2.61V136h-2.61v3.73a1.76,1.76,0,0,0,.1.66,1,1,0,0,0,.28.42,1.11,1.11,0,0,0,.4.22,2,2,0,0,0,.5.06l.39,0,.39-.06.37-.06.27-.06.17.83a2,2,0,0,1-.36.16,2.72,2.72,0,0,1-.45.1,2.94,2.94,0,0,1-.53.08,4.89,4.89,0,0,1-.54,0A2.63,2.63,0,0,1,255,142a2,2,0,0,1-.69-.41,2.07,2.07,0,0,1-.46-.73,3.16,3.16,0,0,1-.17-1.09V136h-1.8v-.91h1.8v-1.66Zm6.2,2.68a2.46,2.46,0,0,1,.9-.83,2.38,2.38,0,0,1,1.22-.31,3,3,0,0,1,1,.15,1.85,1.85,0,0,1,.76.49,2.19,2.19,0,0,1,.48.83,3.9,3.9,0,0,1,.17,1.2V142h-1.18v-4.34a1.71,1.71,0,0,0-.4-1.25,1.51,1.51,0,0,0-1.15-.41,2,2,0,0,0-1,.28,2.15,2.15,0,0,0-.74.73v5h-1.18v-9.75h1.18Zm6.3,2.35a4.06,4.06,0,0,1,.22-1.37,3.46,3.46,0,0,1,.61-1.12,2.9,2.9,0,0,1,1-.73,3,3,0,0,1,1.3-.27,3,3,0,0,1,1.3.27,2.9,2.9,0,0,1,1,.73,3.3,3.3,0,0,1,.62,1.12,4.32,4.32,0,0,1,.22,1.37v.14a4.34,4.34,0,0,1-.22,1.38,3.21,3.21,0,0,1-.62,1.1,2.77,2.77,0,0,1-1,.74,3.29,3.29,0,0,1-2.61,0,2.8,2.8,0,0,1-1-.74,3.36,3.36,0,0,1-.61-1.1,4.08,4.08,0,0,1-.22-1.38Zm1.17.14a3.85,3.85,0,0,0,.12,1,2.74,2.74,0,0,0,.37.81,1.78,1.78,0,0,0,.61.55,1.71,1.71,0,0,0,.86.21,1.64,1.64,0,0,0,.84-.21,1.7,1.7,0,0,0,.61-.55,2.32,2.32,0,0,0,.37-.81,3.85,3.85,0,0,0,.12-1v-.14a3.42,3.42,0,0,0-.13-1,2.6,2.6,0,0,0-.36-.81,1.89,1.89,0,0,0-.61-.55,1.67,1.67,0,0,0-.85-.21,1.65,1.65,0,0,0-.85.21,1.89,1.89,0,0,0-.61.55,2.86,2.86,0,0,0-.37.81,3.83,3.83,0,0,0-.12,1Zm6.75-.13a4.86,4.86,0,0,1,.19-1.41A3.39,3.39,0,0,1,276,136a2.65,2.65,0,0,1,.87-.73A2.5,2.5,0,0,1,278,135a2.6,2.6,0,0,1,1.08.2,2.44,2.44,0,0,1,.8.6v-3.56h1.17V142H280l-.05-.72a2.18,2.18,0,0,1-.82.63,2.75,2.75,0,0,1-1.11.22,2.39,2.39,0,0,1-1.13-.27,2.63,2.63,0,0,1-.86-.74,3.66,3.66,0,0,1-.55-1.1,4.75,4.75,0,0,1-.19-1.38Zm1.17.13a4.12,4.12,0,0,0,.11,1,2.41,2.41,0,0,0,.33.8,1.59,1.59,0,0,0,1.41.74,1.81,1.81,0,0,0,.54-.07,1.6,1.6,0,0,0,.44-.2,1.73,1.73,0,0,0,.35-.31,2.8,2.8,0,0,0,.27-.4V137a2.06,2.06,0,0,0-.62-.69,1.65,1.65,0,0,0-1-.27,1.69,1.69,0,0,0-.86.21,1.58,1.58,0,0,0-.57.55,2.41,2.41,0,0,0-.33.8,4.12,4.12,0,0,0-.11.95ZM289,137.05h-5.67v-1H289Zm0,2.63h-5.67v-1H289Zm4.24-6.74-.13,2.35h-.83v-3h.95Zm2.27,0-.13,2.35h-.82v-3h1Zm9.42,7.85a3.8,3.8,0,0,1-1.34,1,4.1,4.1,0,0,1-1.66.33,3.5,3.5,0,0,1-1.05-.17,3.25,3.25,0,0,1-.86-.47,3.38,3.38,0,0,1-.66-.7,4.26,4.26,0,0,1-.49-.86,6.18,6.18,0,0,1-.29-1,7.18,7.18,0,0,1-.1-1v-1.07a7,7,0,0,1,.09-1,5.25,5.25,0,0,1,.27-1,4,4,0,0,1,.44-.87,3.05,3.05,0,0,1,.64-.7,3,3,0,0,1,.84-.47,3.12,3.12,0,0,1,1-.17,3.6,3.6,0,0,1,1.2.2,2.94,2.94,0,0,1,.95.57,2.81,2.81,0,0,1,.65.9,3.37,3.37,0,0,1,.31,1.17h-1.17a2.88,2.88,0,0,0-.21-.74,1.85,1.85,0,0,0-.39-.58,1.59,1.59,0,0,0-.56-.38,2,2,0,0,0-.77-.14,1.87,1.87,0,0,0-1.31.53,2.16,2.16,0,0,0-.4.57,4.44,4.44,0,0,0-.26.67,4.36,4.36,0,0,0-.14.72,5.92,5.92,0,0,0-.05.71v1.09a5.06,5.06,0,0,0,.23,1.45,4,4,0,0,0,.29.67,2.38,2.38,0,0,0,.43.56,1.88,1.88,0,0,0,.58.38,1.79,1.79,0,0,0,.75.15,4.26,4.26,0,0,0,.5,0,3,3,0,0,0,.52-.1,2.67,2.67,0,0,0,.46-.2,1.33,1.33,0,0,0,.36-.35v-2.07h-1.87v-1h3Zm6.91-3.06h-3.86V141h4.5v1h-5.67v-9.24h5.62v1h-4.45v3h3.86Zm9-4H317.9V142h-1.14v-8.24H313.9v-1h6.86Zm3.67-.82-.13,2.35h-.82v-3h.95Zm2.27,0-.13,2.35h-.82v-3h1Zm3.47,3.29V135l5.6,2.4v.92l-5.6,2.41v-1.22l4.1-1.55.38-.11-.38-.12Zm17.06,1.56-.34.11.34.11,3.88,1.5v1.25l-5.38-2.41v-.93l5.38-2.4v1.25Zm7.88,5h-1.05l3.86-10h1Zm8-.79v-6h-1.89v-.91h1.89v-.48a3.4,3.4,0,0,1,.19-1.16,2.46,2.46,0,0,1,.55-.83,2.22,2.22,0,0,1,.85-.51,3.21,3.21,0,0,1,1.1-.17,4.47,4.47,0,0,1,.82.07,6.76,6.76,0,0,1,.82.18l-.14,1a5.92,5.92,0,0,0-.61-.16A4.32,4.32,0,0,0,366,133a1.76,1.76,0,0,0-1.24.42,1.71,1.71,0,0,0-.42,1.26v.48H367V136H364.3v6Zm5.73-3.5a4.32,4.32,0,0,1,.21-1.37,3.48,3.48,0,0,1,.62-1.12,3,3,0,0,1,1-.73,3.29,3.29,0,0,1,2.61,0,2.9,2.9,0,0,1,1,.73,3.48,3.48,0,0,1,.62,1.12,4.32,4.32,0,0,1,.22,1.37v.14a4.34,4.34,0,0,1-.22,1.38,3.38,3.38,0,0,1-.62,1.1,2.86,2.86,0,0,1-1,.74,3.05,3.05,0,0,1-1.3.27,3.11,3.11,0,0,1-1.32-.27,2.86,2.86,0,0,1-1-.74,3.38,3.38,0,0,1-.62-1.1,4.34,4.34,0,0,1-.21-1.38Zm1.17.14a3.85,3.85,0,0,0,.12,1,2.51,2.51,0,0,0,.37.81,1.78,1.78,0,0,0,.61.55,1.71,1.71,0,0,0,.86.21,1.64,1.64,0,0,0,.84-.21,1.7,1.7,0,0,0,.61-.55,2.32,2.32,0,0,0,.37-.81,3.85,3.85,0,0,0,.12-1v-.14a3.42,3.42,0,0,0-.13-1,2.4,2.4,0,0,0-.37-.81,1.86,1.86,0,0,0-.6-.55,1.85,1.85,0,0,0-1.71,0,1.86,1.86,0,0,0-.6.55,2.61,2.61,0,0,0-.37.81,3.83,3.83,0,0,0-.12,1ZM381.49,135h.34a1.87,1.87,0,0,1,.34,0l.29,0a1.63,1.63,0,0,1,.23.07l-.16,1.15a5.19,5.19,0,0,0-.65-.11c-.2,0-.42,0-.64,0a2.22,2.22,0,0,0-1.34.38,2.16,2.16,0,0,0-.75,1V142H378v-6.87h1.12l.05,1.09a3.14,3.14,0,0,1,1-.88A2.69,2.69,0,0,1,381.49,135Zm3.84.12,0,.65a1.77,1.77,0,0,1,.55-.57,1.67,1.67,0,0,1,.83-.2,1.23,1.23,0,0,1,1.26.73,1.68,1.68,0,0,1,.53-.53,1.63,1.63,0,0,1,.82-.2,1.46,1.46,0,0,1,1.16.46,2.07,2.07,0,0,1,.4,1.4V142H389.8v-5.14c0-.58-.27-.86-.8-.86a1,1,0,0,0-.36.06.74.74,0,0,0-.41.39,1.12,1.12,0,0,0-.08.26V142H387v-5.15a1,1,0,0,0-.19-.63.71.71,0,0,0-.58-.22.92.92,0,0,0-.57.15.74.74,0,0,0-.3.39V142h-1.12v-6.87Zm7.3,1.1V135l5.6,2.4v.92l-5.6,2.41v-1.22l4.1-1.55.38-.11-.38-.12Zm-303,21.56-.34.11.34.11,3.88,1.5v1.25l-5.38-2.41v-.93l5.38-2.4v1.25Zm10.9,2.39a.79.79,0,0,0-.09-.38.8.8,0,0,0-.28-.31,2.3,2.3,0,0,0-.52-.25,5.87,5.87,0,0,0-.8-.22,7,7,0,0,1-1.08-.29,3.38,3.38,0,0,1-.83-.41,1.88,1.88,0,0,1-.54-.55,1.55,1.55,0,0,1-.19-.75,1.62,1.62,0,0,1,.2-.78,2,2,0,0,1,.55-.64,2.73,2.73,0,0,1,.85-.44,3.71,3.71,0,0,1,1.08-.15,3.61,3.61,0,0,1,1.14.16,2.58,2.58,0,0,1,.87.46,2,2,0,0,1,.54.68,1.86,1.86,0,0,1,.2.84h-1.17a.85.85,0,0,0-.12-.43,1.05,1.05,0,0,0-.32-.38,1.64,1.64,0,0,0-.49-.27,1.89,1.89,0,0,0-.65-.1,2.59,2.59,0,0,0-.66.08,1.86,1.86,0,0,0-.47.22,1.23,1.23,0,0,0-.28.33.85.85,0,0,0-.09.38.83.83,0,0,0,.07.36.78.78,0,0,0,.26.29,2,2,0,0,0,.51.22,5.79,5.79,0,0,0,.8.2,8.67,8.67,0,0,1,1.13.31,3.54,3.54,0,0,1,.85.42,1.76,1.76,0,0,1,.52.57,1.49,1.49,0,0,1,.18.75,1.68,1.68,0,0,1-.21.83,1.93,1.93,0,0,1-.57.64,2.86,2.86,0,0,1-.88.41,4.06,4.06,0,0,1-1.13.15,3.67,3.67,0,0,1-1.24-.19,3.16,3.16,0,0,1-.93-.49,2.16,2.16,0,0,1-.57-.72,1.79,1.79,0,0,1-.2-.84h1.17a1.29,1.29,0,0,0,.19.61,1.77,1.77,0,0,0,.42.4,1.8,1.8,0,0,0,.56.21,3.07,3.07,0,0,0,.6.07,2.21,2.21,0,0,0,1.18-.28A.84.84,0,0,0,100.48,160.18Zm6.17,1a1.83,1.83,0,0,0,.61-.11,1.73,1.73,0,0,0,.54-.28,1.51,1.51,0,0,0,.38-.42,1.24,1.24,0,0,0,.15-.53h1.11a2,2,0,0,1-.24.87,2.54,2.54,0,0,1-.62.73,3,3,0,0,1-.89.5,2.82,2.82,0,0,1-1,.19,3.22,3.22,0,0,1-1.37-.28,3,3,0,0,1-1-.75,3.46,3.46,0,0,1-.58-1.09,4.38,4.38,0,0,1-.2-1.31v-.27a4.36,4.36,0,0,1,.2-1.3,3.35,3.35,0,0,1,.58-1.09,2.94,2.94,0,0,1,1-.76,3.22,3.22,0,0,1,1.37-.27,3,3,0,0,1,1.11.19,2.63,2.63,0,0,1,.89.53,2.42,2.42,0,0,1,.58.79,2.29,2.29,0,0,1,.21,1h-1.11a1.45,1.45,0,0,0-.14-.58,1.57,1.57,0,0,0-.35-.49,1.69,1.69,0,0,0-.53-.33,1.84,1.84,0,0,0-.66-.12,1.72,1.72,0,0,0-.92.22,1.82,1.82,0,0,0-.6.57,2.64,2.64,0,0,0-.33.79,4.4,4.4,0,0,0-.1.88v.27a4.41,4.41,0,0,0,.1.89,2.58,2.58,0,0,0,.32.8,1.93,1.93,0,0,0,.6.57A1.88,1.88,0,0,0,106.65,161.18ZM116,155h.34a1.87,1.87,0,0,1,.34,0l.29,0a1.3,1.3,0,0,1,.23.07l-.16,1.15a5.19,5.19,0,0,0-.65-.11c-.2,0-.42,0-.64,0a2.22,2.22,0,0,0-1.34.38,2.16,2.16,0,0,0-.75,1V162h-1.18v-6.87h1.12l.06,1.09a3,3,0,0,1,1-.88A2.69,2.69,0,0,1,116,155Zm3.49.12H123V161h2.24v1h-5.75v-1h2.34v-4.83h-2.34Zm2.18-1.8a.73.73,0,0,1,.17-.49.7.7,0,0,1,.54-.2.66.66,0,0,1,.52.2.69.69,0,0,1,.18.49.64.64,0,0,1-.18.47.66.66,0,0,1-.52.2.7.7,0,0,1-.54-.2A.68.68,0,0,1,121.7,153.33Zm11.24,5.31a5.11,5.11,0,0,1-.18,1.38,3.39,3.39,0,0,1-.52,1.1,2.4,2.4,0,0,1-2,1,2.75,2.75,0,0,1-1.11-.21,2.27,2.27,0,0,1-.82-.58v3.3h-1.17v-9.51h1.07l.06.75a2.26,2.26,0,0,1,.82-.65,2.68,2.68,0,0,1,1.13-.22,2.58,2.58,0,0,1,1.17.25,2.49,2.49,0,0,1,.85.73,3.35,3.35,0,0,1,.52,1.11,5.23,5.23,0,0,1,.18,1.41Zm-1.18-.13a3.64,3.64,0,0,0-.11-.95,2.42,2.42,0,0,0-.34-.8,1.67,1.67,0,0,0-1.44-.76,1.61,1.61,0,0,0-1,.27,2,2,0,0,0-.61.67v3.31a1.93,1.93,0,0,0,.61.66,1.67,1.67,0,0,0,1,.26,1.65,1.65,0,0,0,.85-.21,1.61,1.61,0,0,0,.58-.55,2.67,2.67,0,0,0,.34-.81,3.72,3.72,0,0,0,.11-1Zm6-5v1.66h2.62V156h-2.62v3.73a1.76,1.76,0,0,0,.1.66,1.07,1.07,0,0,0,.28.42,1.25,1.25,0,0,0,.41.22,1.93,1.93,0,0,0,.49.06l.4,0,.39-.06.36-.06.28-.06.17.83a2,2,0,0,1-.36.16,8.12,8.12,0,0,1-1,.18,5.07,5.07,0,0,1-.55,0,2.71,2.71,0,0,1-.86-.13,1.88,1.88,0,0,1-.68-.41,2.09,2.09,0,0,1-.47-.73,3.17,3.17,0,0,1-.16-1.09V156h-1.8v-.91h1.8v-1.66Zm-29.45,26.71a.79.79,0,0,0-.08-.38.89.89,0,0,0-.28-.31,2.3,2.3,0,0,0-.52-.25,5.87,5.87,0,0,0-.8-.22,7,7,0,0,1-1.08-.29,3.46,3.46,0,0,1-.84-.41,2,2,0,0,1-.53-.55A1.44,1.44,0,0,1,104,177a1.62,1.62,0,0,1,.2-.78,1.86,1.86,0,0,1,.55-.64,2.79,2.79,0,0,1,.84-.44,3.78,3.78,0,0,1,1.09-.15,3.7,3.7,0,0,1,1.14.16,2.58,2.58,0,0,1,.87.46,2.09,2.09,0,0,1,.54.68,1.86,1.86,0,0,1,.2.84h-1.18a.84.84,0,0,0-.11-.43,1.16,1.16,0,0,0-.32-.38,1.64,1.64,0,0,0-.49-.27,1.89,1.89,0,0,0-.65-.1,2.59,2.59,0,0,0-.66.08,1.71,1.71,0,0,0-.47.22,1.07,1.07,0,0,0-.28.33.85.85,0,0,0-.09.38.83.83,0,0,0,.07.36.78.78,0,0,0,.26.29,2.14,2.14,0,0,0,.5.22,6.18,6.18,0,0,0,.8.2,8.84,8.84,0,0,1,1.14.31,3.46,3.46,0,0,1,.84.42,1.65,1.65,0,0,1,.52.57,1.39,1.39,0,0,1,.19.75,1.68,1.68,0,0,1-.21.83,2,2,0,0,1-.57.64,2.81,2.81,0,0,1-.89.41,3.94,3.94,0,0,1-1.12.15,3.67,3.67,0,0,1-1.24-.19,2.92,2.92,0,0,1-.93-.49,2.33,2.33,0,0,1-.58-.72,1.91,1.91,0,0,1-.19-.84h1.17a1.29,1.29,0,0,0,.19.61,1.77,1.77,0,0,0,.42.4,1.71,1.71,0,0,0,.56.21,3.07,3.07,0,0,0,.6.07,2.21,2.21,0,0,0,1.18-.28A.83.83,0,0,0,108.28,180.18ZM116,175h.34a1.87,1.87,0,0,1,.34,0l.29,0a1.3,1.3,0,0,1,.23.07l-.16,1.15a5.19,5.19,0,0,0-.65-.11c-.2,0-.42,0-.64,0a2.22,2.22,0,0,0-1.34.38,2.16,2.16,0,0,0-.75,1V182h-1.18v-6.87h1.12l.06,1.09a3,3,0,0,1,1-.88A2.69,2.69,0,0,1,116,175Zm6.23,6.17a1.88,1.88,0,0,0,.62-.11,1.73,1.73,0,0,0,.54-.28,1.47,1.47,0,0,0,.37-.42,1,1,0,0,0,.15-.53h1.11a1.73,1.73,0,0,1-.24.87,2.36,2.36,0,0,1-.61.73,3.1,3.1,0,0,1-.89.5,2.91,2.91,0,0,1-1,.19,3.2,3.2,0,0,1-1.36-.28,2.94,2.94,0,0,1-1-.75,3.48,3.48,0,0,1-.59-1.09,4.37,4.37,0,0,1-.19-1.31v-.27a4.35,4.35,0,0,1,.19-1.3,3.37,3.37,0,0,1,.59-1.09,2.84,2.84,0,0,1,1-.76,3.2,3.2,0,0,1,1.36-.27,3.1,3.1,0,0,1,1.12.19,2.69,2.69,0,0,1,.88.53,2.31,2.31,0,0,1,.59.79,2.44,2.44,0,0,1,.2,1h-1.11a1.3,1.3,0,0,0-.14-.58,1.54,1.54,0,0,0-.34-.49,1.63,1.63,0,0,0-.54-.33,2,2,0,0,0-1.58.1,2,2,0,0,0-.6.57,2.64,2.64,0,0,0-.33.79,4.38,4.38,0,0,0-.09.88v.27a4.41,4.41,0,0,0,.09.89,2.59,2.59,0,0,0,.33.8,1.68,1.68,0,0,0,1.52.79Zm10.54-4.13h-5.66v-1h5.66Zm0,2.63h-5.66v-1h5.66Zm4.25-6.74-.13,2.35h-.83v-3h1Zm2.27,0-.14,2.35h-.81v-3h.95Zm4.61,3.21a2.57,2.57,0,0,1,.91-.83,2.34,2.34,0,0,1,1.21-.31,3,3,0,0,1,1,.15,1.85,1.85,0,0,1,.76.49,2.31,2.31,0,0,1,.47.83,3.62,3.62,0,0,1,.17,1.2V182h-1.17v-4.34a1.71,1.71,0,0,0-.41-1.25,1.5,1.5,0,0,0-1.15-.41,2,2,0,0,0-1,.28,2.18,2.18,0,0,0-.75.73v5h-1.17v-9.75h1.17Zm9.42-2.68v1.66H156V176h-2.61v3.73a1.76,1.76,0,0,0,.1.66,1,1,0,0,0,.28.42,1.2,1.2,0,0,0,.4.22,2,2,0,0,0,.5.06l.39,0,.39-.06.37-.06.28-.06.16.83a1.92,1.92,0,0,1-.35.16,3.11,3.11,0,0,1-.46.1,2.94,2.94,0,0,1-.53.08,4.89,4.89,0,0,1-.54,0,2.67,2.67,0,0,1-.86-.13,2,2,0,0,1-.69-.41,2.07,2.07,0,0,1-.46-.73,3.16,3.16,0,0,1-.17-1.09V176h-1.8v-.91h1.8v-1.66Zm7.8,0v1.66h2.62V176h-2.62v3.73a1.75,1.75,0,0,0,.11.66,1.05,1.05,0,0,0,.27.42,1.25,1.25,0,0,0,.41.22,2,2,0,0,0,.5.06l.39,0,.39-.06.36-.06.28-.06.17.83a2,2,0,0,1-.36.16,3,3,0,0,1-.45.1,2.94,2.94,0,0,1-.53.08,4.93,4.93,0,0,1-.55,0,2.61,2.61,0,0,1-.85-.13,1.92,1.92,0,0,1-.69-.41,2.07,2.07,0,0,1-.46-.73,3.16,3.16,0,0,1-.17-1.09V176h-1.8v-.91H160v-1.66ZM172,178.64a5.11,5.11,0,0,1-.18,1.38,3.39,3.39,0,0,1-.52,1.1,2.4,2.4,0,0,1-2,1,2.75,2.75,0,0,1-1.11-.21,2.27,2.27,0,0,1-.82-.58v3.3h-1.18v-9.51h1.08l.05.75a2.38,2.38,0,0,1,.83-.65,2.68,2.68,0,0,1,1.13-.22,2.58,2.58,0,0,1,1.17.25,2.49,2.49,0,0,1,.85.73,3.35,3.35,0,0,1,.52,1.11,5.23,5.23,0,0,1,.18,1.41Zm-1.18-.13a4.12,4.12,0,0,0-.11-.95,2.42,2.42,0,0,0-.34-.8,1.63,1.63,0,0,0-.59-.55,1.65,1.65,0,0,0-.85-.21,1.61,1.61,0,0,0-.95.27,1.87,1.87,0,0,0-.61.67v3.31a1.84,1.84,0,0,0,.61.66,1.67,1.67,0,0,0,1,.26,1.65,1.65,0,0,0,.85-.21,1.69,1.69,0,0,0,.58-.55,2.67,2.67,0,0,0,.34-.81,4.21,4.21,0,0,0,.11-1Zm7.75,1.67a.92.92,0,0,0-.08-.38,1,1,0,0,0-.28-.31,2.3,2.3,0,0,0-.52-.25,6.51,6.51,0,0,0-.81-.22,7.2,7.2,0,0,1-1.07-.29,3.46,3.46,0,0,1-.84-.41,2,2,0,0,1-.53-.55,1.44,1.44,0,0,1-.19-.75,1.51,1.51,0,0,1,.2-.78,1.86,1.86,0,0,1,.55-.64,2.68,2.68,0,0,1,.84-.44,4.09,4.09,0,0,1,2.23,0,2.44,2.44,0,0,1,.86.46,2,2,0,0,1,.55.68,1.86,1.86,0,0,1,.2.84h-1.18a1,1,0,0,0-.11-.43,1.16,1.16,0,0,0-.32-.38,1.77,1.77,0,0,0-.49-.27,1.89,1.89,0,0,0-.65-.1,2.59,2.59,0,0,0-.66.08,1.58,1.58,0,0,0-.47.22,1.07,1.07,0,0,0-.28.33.86.86,0,0,0-.1.38.83.83,0,0,0,.08.36.78.78,0,0,0,.26.29,2,2,0,0,0,.5.22,6.18,6.18,0,0,0,.8.2,9.31,9.31,0,0,1,1.14.31,3.66,3.66,0,0,1,.84.42,1.65,1.65,0,0,1,.52.57,1.49,1.49,0,0,1,.19.75,1.68,1.68,0,0,1-.21.83,2,2,0,0,1-.57.64,2.81,2.81,0,0,1-.89.41,3.94,3.94,0,0,1-1.12.15,3.63,3.63,0,0,1-1.24-.19,2.92,2.92,0,0,1-.93-.49,2.33,2.33,0,0,1-.58-.72,1.92,1.92,0,0,1-.2-.84h1.18a1.29,1.29,0,0,0,.19.61,1.46,1.46,0,0,0,.42.4,1.71,1.71,0,0,0,.56.21,3.07,3.07,0,0,0,.6.07,2.18,2.18,0,0,0,1.17-.28A.82.82,0,0,0,178.55,180.18Zm5.61,1.06a1.36,1.36,0,0,1,.05-.36,1.12,1.12,0,0,1,.18-.28.75.75,0,0,1,.29-.2,1,1,0,0,1,.4-.07,1,1,0,0,1,.4.07.87.87,0,0,1,.47.48,1,1,0,0,1,.06.36,1,1,0,0,1-.06.35.84.84,0,0,1-.18.28.71.71,0,0,1-.29.18,1,1,0,0,1-.4.07,1,1,0,0,1-.4-.07.71.71,0,0,1-.29-.18.81.81,0,0,1-.23-.63Zm0-5.56a1.36,1.36,0,0,1,.05-.36,1.12,1.12,0,0,1,.18-.28.75.75,0,0,1,.29-.2,1,1,0,0,1,.4-.07,1,1,0,0,1,.4.07.87.87,0,0,1,.47.48,1,1,0,0,1,.06.36,1,1,0,0,1-.06.35.84.84,0,0,1-.18.28.86.86,0,0,1-.29.19,1.25,1.25,0,0,1-.4.06,1.2,1.2,0,0,1-.4-.06.86.86,0,0,1-.29-.19.81.81,0,0,1-.23-.63Zm7,7.11H190.1l3.86-10h1Zm7.81,0h-1.05l3.86-10h1Zm6.44-10.54h3.51V181h2.24v1H205.4v-1h2.34v-7.71H205.4Zm7.3,6.25a4.32,4.32,0,0,1,.21-1.37,3.48,3.48,0,0,1,.62-1.12,3,3,0,0,1,1-.73,3.29,3.29,0,0,1,2.61,0,2.77,2.77,0,0,1,1,.73,3.32,3.32,0,0,1,.63,1.12,4.32,4.32,0,0,1,.21,1.37v.14a4.34,4.34,0,0,1-.21,1.38,3.23,3.23,0,0,1-.63,1.1,2.73,2.73,0,0,1-1,.74,3.05,3.05,0,0,1-1.3.27,3.11,3.11,0,0,1-1.32-.27,2.86,2.86,0,0,1-1-.74,3.38,3.38,0,0,1-.62-1.1,4.34,4.34,0,0,1-.21-1.38Zm1.17.14a3.85,3.85,0,0,0,.12,1,2.5,2.5,0,0,0,.36.81,1.81,1.81,0,0,0,.62.55,1.69,1.69,0,0,0,.86.21,1.64,1.64,0,0,0,.84-.21,1.78,1.78,0,0,0,.61-.55,2.51,2.51,0,0,0,.37-.81,3.85,3.85,0,0,0,.12-1v-.14a3.42,3.42,0,0,0-.13-1,2.4,2.4,0,0,0-.37-.81,1.79,1.79,0,0,0-.61-.55,1.65,1.65,0,0,0-.85-.21,1.67,1.67,0,0,0-.85.21,2,2,0,0,0-.61.55,2.6,2.6,0,0,0-.36.81,3.83,3.83,0,0,0-.12,1ZM225.33,175h.35a1.69,1.69,0,0,1,.33,0l.3,0,.23.07-.16,1.15a5.89,5.89,0,0,0-.65-.11c-.21,0-.42,0-.64,0a2.22,2.22,0,0,0-1.34.38,2.16,2.16,0,0,0-.75,1V182h-1.18v-6.87h1.11l.06,1.09a3.21,3.21,0,0,1,1-.88A2.74,2.74,0,0,1,225.33,175Zm6.35,7.12a3.63,3.63,0,0,1-1.34-.25,3.21,3.21,0,0,1-1-.69,3.33,3.33,0,0,1-.68-1.06,3.52,3.52,0,0,1-.24-1.32v-.27a3.92,3.92,0,0,1,.27-1.49,3.41,3.41,0,0,1,.71-1.11,3.09,3.09,0,0,1,1-.69,2.89,2.89,0,0,1,1.15-.24,3.08,3.08,0,0,1,1.3.25,2.43,2.43,0,0,1,.92.72,2.89,2.89,0,0,1,.55,1.06,4.77,4.77,0,0,1,.19,1.34v.52h-4.91a2.66,2.66,0,0,0,.18.89,2.4,2.4,0,0,0,.44.72,2.2,2.2,0,0,0,.68.48,2.05,2.05,0,0,0,.87.18,2.4,2.4,0,0,0,1.12-.26,2.51,2.51,0,0,0,.81-.67l.72.56a3.27,3.27,0,0,1-.43.5,2.67,2.67,0,0,1-.6.42,3.09,3.09,0,0,1-.76.29A3.36,3.36,0,0,1,231.68,182.13Zm-.16-6.16a1.7,1.7,0,0,0-.67.13,2,2,0,0,0-.57.38,2.2,2.2,0,0,0-.43.62,2.59,2.59,0,0,0-.24.84h3.69v-.09a2.64,2.64,0,0,0-.13-.68,1.68,1.68,0,0,0-.33-.6,1.56,1.56,0,0,0-.54-.44A1.73,1.73,0,0,0,231.52,176Zm5.47-.84,0,.65a1.58,1.58,0,0,1,.55-.57,1.61,1.61,0,0,1,.82-.2,1.23,1.23,0,0,1,1.26.73,1.71,1.71,0,0,1,.54-.53,1.57,1.57,0,0,1,.81-.2,1.46,1.46,0,0,1,1.16.46,2.07,2.07,0,0,1,.41,1.4V182h-1.12v-5.14c0-.58-.26-.86-.79-.86a1,1,0,0,0-.36.06.68.68,0,0,0-.26.16.63.63,0,0,0-.16.23,1.11,1.11,0,0,0-.07.26V182h-1.12v-5.15a1,1,0,0,0-.18-.63.73.73,0,0,0-.59-.22,1,1,0,0,0-.57.15.79.79,0,0,0-.3.39V182h-1.12v-6.87Zm7.45,0H248V181h2.24v1h-5.75v-1h2.34v-4.83h-2.34Zm2.18-1.8a.69.69,0,0,1,.18-.49.66.66,0,0,1,.53-.2.69.69,0,0,1,.53.2.73.73,0,0,1,.17.49.68.68,0,0,1-.17.47.69.69,0,0,1-.53.2.66.66,0,0,1-.53-.2A.64.64,0,0,1,246.62,173.33Zm11.24,5.31a5.11,5.11,0,0,1-.18,1.38,3.39,3.39,0,0,1-.52,1.1,2.41,2.41,0,0,1-.85.74,2.38,2.38,0,0,1-1.15.27,2.75,2.75,0,0,1-1.11-.21,2.27,2.27,0,0,1-.82-.58v3.3h-1.17v-9.51h1.07l.06.75a2.34,2.34,0,0,1,.82-.65,2.71,2.71,0,0,1,1.13-.22,2.58,2.58,0,0,1,1.17.25,2.49,2.49,0,0,1,.85.73,3.35,3.35,0,0,1,.52,1.11,5.23,5.23,0,0,1,.18,1.41Zm-1.17-.13a3.64,3.64,0,0,0-.12-.95,2.23,2.23,0,0,0-.34-.8,1.6,1.6,0,0,0-.58-.55,1.69,1.69,0,0,0-.86-.21,1.64,1.64,0,0,0-.95.27,2,2,0,0,0-.61.67v3.31a1.93,1.93,0,0,0,.61.66,1.73,1.73,0,0,0,1,.26,1.64,1.64,0,0,0,.84-.21,1.61,1.61,0,0,0,.58-.55,2.44,2.44,0,0,0,.34-.81,3.71,3.71,0,0,0,.12-1Zm7.75,1.67a.79.79,0,0,0-.09-.38.89.89,0,0,0-.28-.31,2.3,2.3,0,0,0-.52-.25,5.87,5.87,0,0,0-.8-.22,7,7,0,0,1-1.08-.29,3.38,3.38,0,0,1-.83-.41,1.88,1.88,0,0,1-.54-.55,1.55,1.55,0,0,1-.19-.75,1.62,1.62,0,0,1,.2-.78,1.86,1.86,0,0,1,.55-.64,2.73,2.73,0,0,1,.85-.44,3.71,3.71,0,0,1,1.08-.15,3.65,3.65,0,0,1,1.14.16,2.58,2.58,0,0,1,.87.46,1.85,1.85,0,0,1,.54.68,1.74,1.74,0,0,1,.2.84h-1.17a.85.85,0,0,0-.12-.43,1.05,1.05,0,0,0-.32-.38,1.64,1.64,0,0,0-.49-.27,1.89,1.89,0,0,0-.65-.1,2.59,2.59,0,0,0-.66.08,1.86,1.86,0,0,0-.47.22,1.23,1.23,0,0,0-.28.33.85.85,0,0,0-.09.38.83.83,0,0,0,.07.36.88.88,0,0,0,.26.29,2.14,2.14,0,0,0,.5.22,6.63,6.63,0,0,0,.8.2,8.41,8.41,0,0,1,1.14.31,3.54,3.54,0,0,1,.85.42,1.76,1.76,0,0,1,.52.57,1.49,1.49,0,0,1,.18.75,1.68,1.68,0,0,1-.21.83,1.82,1.82,0,0,1-.57.64,2.86,2.86,0,0,1-.88.41,4.06,4.06,0,0,1-1.13.15,3.67,3.67,0,0,1-1.24-.19,3.16,3.16,0,0,1-.93-.49,2.16,2.16,0,0,1-.57-.72,1.79,1.79,0,0,1-.2-.84h1.17a1.29,1.29,0,0,0,.19.61,1.77,1.77,0,0,0,.42.4,1.8,1.8,0,0,0,.56.21,3.07,3.07,0,0,0,.6.07,2.21,2.21,0,0,0,1.18-.28A.84.84,0,0,0,264.44,180.18Zm7.7.87a2.34,2.34,0,0,1-2.05,1.08,2.8,2.8,0,0,1-1-.17,1.87,1.87,0,0,1-.75-.53,2.56,2.56,0,0,1-.48-.9,4.58,4.58,0,0,1-.16-1.32v-4.08h1.17v4.1a3.91,3.91,0,0,0,.09.92,1.41,1.41,0,0,0,.27.59.94.94,0,0,0,.43.31,1.8,1.8,0,0,0,.6.09,2.08,2.08,0,0,0,1.15-.29,1.75,1.75,0,0,0,.66-.79v-4.93h1.18V182h-1.06Zm3.89-5.92,0,.65a1.64,1.64,0,0,1,.54-.57,1.67,1.67,0,0,1,.83-.2,1.23,1.23,0,0,1,1.26.73,1.71,1.71,0,0,1,.54-.53,1.57,1.57,0,0,1,.81-.2,1.46,1.46,0,0,1,1.16.46,2.07,2.07,0,0,1,.41,1.4V182h-1.12v-5.14c0-.58-.26-.86-.79-.86a1.06,1.06,0,0,0-.37.06.72.72,0,0,0-.25.16.63.63,0,0,0-.16.23.77.77,0,0,0-.07.26V182h-1.12v-5.15a.93.93,0,0,0-.19-.63A.69.69,0,0,0,277,176a.92.92,0,0,0-.57.15.74.74,0,0,0-.3.39V182H275v-6.87Zm9.31,6.11a1,1,0,0,1,.06-.36.88.88,0,0,1,.17-.28.75.75,0,0,1,.29-.2,1.18,1.18,0,0,1,.8,0,.69.69,0,0,1,.29.2.75.75,0,0,1,.18.28,1,1,0,0,1,.06.36,1,1,0,0,1-.06.35.84.84,0,0,1-.18.28.65.65,0,0,1-.29.18,1.18,1.18,0,0,1-.8,0,.71.71,0,0,1-.29-.18,1,1,0,0,1-.17-.28A1,1,0,0,1,285.34,181.24Zm8.69-.06a1.78,1.78,0,0,0,.61-.11,1.54,1.54,0,0,0,.54-.28,1.51,1.51,0,0,0,.38-.42,1,1,0,0,0,.15-.53h1.11a1.73,1.73,0,0,1-.24.87,2.39,2.39,0,0,1-.62.73,3.09,3.09,0,0,1-1.93.69,3.25,3.25,0,0,1-1.37-.28,2.9,2.9,0,0,1-1-.75,3.29,3.29,0,0,1-.59-1.09,4.37,4.37,0,0,1-.19-1.31v-.27a4.35,4.35,0,0,1,.19-1.3,3.19,3.19,0,0,1,.59-1.09,2.81,2.81,0,0,1,1-.76A3.25,3.25,0,0,1,294,175a3.14,3.14,0,0,1,1.12.19,2.69,2.69,0,0,1,.88.53,2.37,2.37,0,0,1,.79,1.76h-1.11a1.3,1.3,0,0,0-.14-.58,1.42,1.42,0,0,0-.35-.49,1.59,1.59,0,0,0-.53-.33,2,2,0,0,0-1.58.1,1.82,1.82,0,0,0-.6.57,2.64,2.64,0,0,0-.33.79,4.38,4.38,0,0,0-.09.88v.27a4.41,4.41,0,0,0,.09.89,2.59,2.59,0,0,0,.33.8,1.68,1.68,0,0,0,1.52.79Zm4.55-2.68a4.06,4.06,0,0,1,.22-1.37,3.28,3.28,0,0,1,.61-1.12,2.9,2.9,0,0,1,1-.73,3,3,0,0,1,1.3-.27,3,3,0,0,1,1.3.27,2.9,2.9,0,0,1,1,.73,3.3,3.3,0,0,1,.62,1.12,4.32,4.32,0,0,1,.22,1.37v.14a4.34,4.34,0,0,1-.22,1.38,3.21,3.21,0,0,1-.62,1.1,2.77,2.77,0,0,1-1,.74,3,3,0,0,1-1.3.27,3.07,3.07,0,0,1-1.31-.27,2.8,2.8,0,0,1-1-.74,3.19,3.19,0,0,1-.61-1.1,4.08,4.08,0,0,1-.22-1.38Zm1.17.14a3.85,3.85,0,0,0,.13,1,2.3,2.3,0,0,0,.36.81,1.78,1.78,0,0,0,.61.55,1.71,1.71,0,0,0,.86.21,1.64,1.64,0,0,0,.84-.21,1.7,1.7,0,0,0,.61-.55,2.32,2.32,0,0,0,.37-.81,3.85,3.85,0,0,0,.12-1v-.14a3.42,3.42,0,0,0-.13-1,2.6,2.6,0,0,0-.36-.81,1.89,1.89,0,0,0-.61-.55,1.67,1.67,0,0,0-.85-.21,1.65,1.65,0,0,0-.85.21,1.89,1.89,0,0,0-.61.55,2.39,2.39,0,0,0-.36.81,3.83,3.83,0,0,0-.13,1Zm7.51-3.51,0,.65a1.64,1.64,0,0,1,.54-.57,1.67,1.67,0,0,1,.83-.2,1.23,1.23,0,0,1,1.26.73,1.71,1.71,0,0,1,.54-.53,1.57,1.57,0,0,1,.81-.2,1.46,1.46,0,0,1,1.16.46,2.07,2.07,0,0,1,.41,1.4V182h-1.12v-5.14c0-.58-.27-.86-.79-.86a1.06,1.06,0,0,0-.37.06.72.72,0,0,0-.25.16.63.63,0,0,0-.16.23.77.77,0,0,0-.07.26V182H309v-5.15a.93.93,0,0,0-.19-.63.69.69,0,0,0-.58-.22,1,1,0,0,0-.57.15.74.74,0,0,0-.3.39V182H306.2v-6.87Zm8.81,7.66H315l3.86-10h1.05Zm10.78-.79a1.27,1.27,0,0,1-.12-.33q0-.19-.06-.42a3.07,3.07,0,0,1-.88.62,3.07,3.07,0,0,1-.56.19,3.12,3.12,0,0,1-.63.07,3,3,0,0,1-1-.16,2.5,2.5,0,0,1-.75-.43,2,2,0,0,1-.48-.64,2,2,0,0,1-.16-.8,2.14,2.14,0,0,1,.22-1,2,2,0,0,1,.64-.7,3,3,0,0,1,1-.42,5.24,5.24,0,0,1,1.3-.14h1.29v-.54a1.25,1.25,0,0,0-.12-.56,1.12,1.12,0,0,0-.32-.42,1.35,1.35,0,0,0-.52-.27,2,2,0,0,0-.67-.1,2.08,2.08,0,0,0-.63.09,1.8,1.8,0,0,0-.46.23,1.1,1.1,0,0,0-.3.35.9.9,0,0,0-.1.42h-1.18a1.66,1.66,0,0,1,.19-.74,2.21,2.21,0,0,1,.54-.65,2.94,2.94,0,0,1,.86-.47,3.37,3.37,0,0,1,1.14-.17,3.78,3.78,0,0,1,1.09.14,2.4,2.4,0,0,1,.86.43,2,2,0,0,1,.58.72,2.28,2.28,0,0,1,.21,1v3.19a4.78,4.78,0,0,0,.06.73,3.4,3.4,0,0,0,.18.67v.1Zm-2.08-.9a2.61,2.61,0,0,0,.64-.08,2.21,2.21,0,0,0,.54-.24,2.12,2.12,0,0,0,.43-.33,2.37,2.37,0,0,0,.28-.39v-1.39h-1.1a3.53,3.53,0,0,0-1.6.3,1,1,0,0,0-.57,1,1.19,1.19,0,0,0,.09.47,1,1,0,0,0,.26.37,1.06,1.06,0,0,0,.43.25A2.13,2.13,0,0,0,324.77,181.1Zm11.17-2.46a5.11,5.11,0,0,1-.18,1.38,3.39,3.39,0,0,1-.52,1.1,2.4,2.4,0,0,1-2,1,2.75,2.75,0,0,1-1.11-.21,2.27,2.27,0,0,1-.82-.58v3.3h-1.18v-9.51h1.08l.05.75a2.38,2.38,0,0,1,.83-.65,2.68,2.68,0,0,1,1.13-.22,2.58,2.58,0,0,1,1.17.25,2.49,2.49,0,0,1,.85.73,3.35,3.35,0,0,1,.52,1.11,5.23,5.23,0,0,1,.18,1.41Zm-1.18-.13a4.12,4.12,0,0,0-.11-.95,2.24,2.24,0,0,0-.35-.8,1.53,1.53,0,0,0-.58-.55,1.65,1.65,0,0,0-.85-.21,1.61,1.61,0,0,0-.95.27,1.87,1.87,0,0,0-.61.67v3.31a1.84,1.84,0,0,0,.61.66,1.67,1.67,0,0,0,1,.26,1.65,1.65,0,0,0,.85-.21,1.69,1.69,0,0,0,.58-.55,2.67,2.67,0,0,0,.34-.81,4.21,4.21,0,0,0,.11-1Zm3.37-3.38h3.51V181h2.24v1h-5.75v-1h2.34v-4.83h-2.34Zm2.19-1.8a.64.64,0,0,1,.7-.69.65.65,0,0,1,.71.69.64.64,0,0,1-.18.47.69.69,0,0,1-.53.2.68.68,0,0,1-.53-.2A.63.63,0,0,1,340.32,173.33Zm7.48,7.91a1,1,0,0,1,.06-.36.75.75,0,0,1,.18-.28.72.72,0,0,1,.28-.2,1.18,1.18,0,0,1,.8,0,.69.69,0,0,1,.29.2.75.75,0,0,1,.18.28,1,1,0,0,1,.06.36,1,1,0,0,1-.06.35.84.84,0,0,1-.18.28.65.65,0,0,1-.29.18,1.18,1.18,0,0,1-.8,0,.68.68,0,0,1-.28-.18.84.84,0,0,1-.18-.28A1,1,0,0,1,347.8,181.24Zm6.56-6.11h3.46V182a3.47,3.47,0,0,1-.18,1.17,2.12,2.12,0,0,1-.53.85,2.15,2.15,0,0,1-.84.53,3.31,3.31,0,0,1-1.13.18l-.68,0a5.38,5.38,0,0,1-.66-.08l.08-1,.27,0c.11,0,.22,0,.33,0h.57a2.18,2.18,0,0,0,.63-.09,1.2,1.2,0,0,0,.5-.29,1.22,1.22,0,0,0,.34-.54,2.17,2.17,0,0,0,.13-.82v-5.89h-2.29Zm2.12-1.81a.72.72,0,0,1,.17-.48.69.69,0,0,1,.53-.2.66.66,0,0,1,.53.2.73.73,0,0,1,0,1,.66.66,0,0,1-.53.2.69.69,0,0,1-.53-.2A.72.72,0,0,1,356.48,173.32Zm9.45,6.86a.79.79,0,0,0-.08-.38.89.89,0,0,0-.28-.31,2.3,2.3,0,0,0-.52-.25,5.87,5.87,0,0,0-.8-.22,7,7,0,0,1-1.08-.29,3.38,3.38,0,0,1-.83-.41,1.88,1.88,0,0,1-.54-.55,1.55,1.55,0,0,1-.19-.75,1.62,1.62,0,0,1,.2-.78,1.86,1.86,0,0,1,.55-.64,2.73,2.73,0,0,1,.85-.44,3.71,3.71,0,0,1,1.08-.15,3.65,3.65,0,0,1,1.14.16,2.58,2.58,0,0,1,.87.46,2,2,0,0,1,.54.68,1.86,1.86,0,0,1,.2.84h-1.18a.84.84,0,0,0-.11-.43,1.16,1.16,0,0,0-.32-.38,1.64,1.64,0,0,0-.49-.27,1.89,1.89,0,0,0-.65-.1,2.59,2.59,0,0,0-.66.08,1.86,1.86,0,0,0-.47.22,1.23,1.23,0,0,0-.28.33.85.85,0,0,0-.09.38.83.83,0,0,0,.07.36.78.78,0,0,0,.26.29,2.14,2.14,0,0,0,.5.22,6.63,6.63,0,0,0,.8.2,8.41,8.41,0,0,1,1.14.31,3.46,3.46,0,0,1,.84.42,1.56,1.56,0,0,1,.52.57,1.39,1.39,0,0,1,.19.75,1.68,1.68,0,0,1-.21.83,2,2,0,0,1-.57.64,2.86,2.86,0,0,1-.88.41,4.06,4.06,0,0,1-1.13.15,3.67,3.67,0,0,1-1.24-.19,3,3,0,0,1-.93-.49,2.33,2.33,0,0,1-.58-.72,1.91,1.91,0,0,1-.19-.84h1.17a1.29,1.29,0,0,0,.19.61,1.77,1.77,0,0,0,.42.4,1.8,1.8,0,0,0,.56.21,3.07,3.07,0,0,0,.6.07,2.21,2.21,0,0,0,1.18-.28A.81.81,0,0,0,365.93,180.18Zm5.35-7.24-.13,2.35h-.83v-3h.95Zm2.27,0-.14,2.35h-.82v-3h.95Zm-270,25.57a4.86,4.86,0,0,1,.19-1.41,3.39,3.39,0,0,1,.55-1.11,2.65,2.65,0,0,1,.87-.73,2.51,2.51,0,0,1,1.14-.25,2.56,2.56,0,0,1,1.07.2,2.34,2.34,0,0,1,.8.6v-3.56h1.17V202h-1.08l0-.72a2.18,2.18,0,0,1-.82.63,2.68,2.68,0,0,1-1.11.22,2.39,2.39,0,0,1-1.13-.27,2.5,2.5,0,0,1-.85-.74,3.68,3.68,0,0,1-.56-1.1,4.75,4.75,0,0,1-.19-1.38Zm1.17.13a4.12,4.12,0,0,0,.11,1,2.41,2.41,0,0,0,.33.8,1.66,1.66,0,0,0,.58.54,1.58,1.58,0,0,0,.84.2,1.9,1.9,0,0,0,.54-.07,1.54,1.54,0,0,0,.43-.2,1.73,1.73,0,0,0,.35-.31,2.8,2.8,0,0,0,.27-.4V197a2,2,0,0,0-.62-.69,1.83,1.83,0,0,0-1.81-.06,1.6,1.6,0,0,0-.58.55,2.41,2.41,0,0,0-.33.8,4.12,4.12,0,0,0-.11.95ZM116,202a1.28,1.28,0,0,1-.11-.33,2.65,2.65,0,0,1-.06-.42,3.4,3.4,0,0,1-.4.34,3.18,3.18,0,0,1-.48.28,3.35,3.35,0,0,1-.56.19,3.22,3.22,0,0,1-.64.07,3.11,3.11,0,0,1-1-.16,2.5,2.5,0,0,1-.75-.43,1.87,1.87,0,0,1-.47-.64,2,2,0,0,1-.17-.8,2.14,2.14,0,0,1,.23-1,1.94,1.94,0,0,1,.64-.7,2.79,2.79,0,0,1,1-.42,5.24,5.24,0,0,1,1.3-.14h1.28v-.54a1.4,1.4,0,0,0-.11-.56,1.14,1.14,0,0,0-.33-.42,1.38,1.38,0,0,0-.51-.27,2.07,2.07,0,0,0-.68-.1,2,2,0,0,0-.62.09,1.87,1.87,0,0,0-.47.23,1.43,1.43,0,0,0-.3.35,1,1,0,0,0-.1.42h-1.18a1.8,1.8,0,0,1,.19-.74,2.21,2.21,0,0,1,.54-.65,3.08,3.08,0,0,1,.86-.47,3.43,3.43,0,0,1,1.15-.17,3.71,3.71,0,0,1,1.08.14,2.37,2.37,0,0,1,.87.43,2.05,2.05,0,0,1,.58.72,2.28,2.28,0,0,1,.2,1v3.19a4.85,4.85,0,0,0,.07.73,2.82,2.82,0,0,0,.18.67v.1Zm-2.08-.9a2.69,2.69,0,0,0,.65-.08,2.21,2.21,0,0,0,.54-.24,2.36,2.36,0,0,0,.42-.33,1.9,1.9,0,0,0,.28-.39v-1.39h-1.09a3.48,3.48,0,0,0-1.6.3,1,1,0,0,0-.57,1,1.19,1.19,0,0,0,.08.47,1.08,1.08,0,0,0,.26.37,1.14,1.14,0,0,0,.43.25A2.23,2.23,0,0,0,114,201.1Zm8.15-7.63v1.66h2.62V196h-2.62v3.73a1.75,1.75,0,0,0,.11.66,1.07,1.07,0,0,0,.28.42,1.11,1.11,0,0,0,.4.22,2,2,0,0,0,.5.06l.39,0,.39-.06.37-.06.28-.06.16.83a1.92,1.92,0,0,1-.35.16,3.11,3.11,0,0,1-.46.1,2.94,2.94,0,0,1-.53.08,4.89,4.89,0,0,1-.54,0,2.63,2.63,0,0,1-.86-.13,2,2,0,0,1-.69-.41,2.07,2.07,0,0,1-.46-.73,3.16,3.16,0,0,1-.17-1.09V196h-1.8v-.91h1.8v-1.66Zm9.55,8.53a1.27,1.27,0,0,1-.12-.33l-.06-.42a3.07,3.07,0,0,1-.88.62,3.07,3.07,0,0,1-.56.19,3.12,3.12,0,0,1-.63.07,3,3,0,0,1-1-.16,2.5,2.5,0,0,1-.75-.43,2,2,0,0,1-.48-.64,2,2,0,0,1-.16-.8,2.14,2.14,0,0,1,.22-1,2,2,0,0,1,.64-.7,3,3,0,0,1,1-.42,5.29,5.29,0,0,1,1.3-.14h1.28v-.54a1.25,1.25,0,0,0-.11-.56,1.12,1.12,0,0,0-.32-.42,1.35,1.35,0,0,0-.52-.27,2,2,0,0,0-.67-.1,2.08,2.08,0,0,0-.63.09,1.8,1.8,0,0,0-.46.23,1.1,1.1,0,0,0-.3.35.9.9,0,0,0-.1.42h-1.18a1.66,1.66,0,0,1,.19-.74,2.21,2.21,0,0,1,.54-.65,2.82,2.82,0,0,1,.86-.47,3.37,3.37,0,0,1,1.14-.17,3.83,3.83,0,0,1,1.09.14,2.4,2.4,0,0,1,.86.43,2,2,0,0,1,.58.72,2.28,2.28,0,0,1,.21,1v3.19a4.78,4.78,0,0,0,.06.73,2.82,2.82,0,0,0,.18.67v.1Zm-2.08-.9a2.61,2.61,0,0,0,.64-.08,2.21,2.21,0,0,0,.54-.24,2.12,2.12,0,0,0,.43-.33,1.83,1.83,0,0,0,.27-.39v-1.39h-1.09a3.51,3.51,0,0,0-1.6.3,1,1,0,0,0-.57,1,1.19,1.19,0,0,0,.09.47.94.94,0,0,0,.25.37,1.18,1.18,0,0,0,.44.25A2.13,2.13,0,0,0,129.58,201.1Zm10.51-2.66h-4.86v-1h4.86Zm5.59,2.74a1.84,1.84,0,0,0,.62-.11,1.73,1.73,0,0,0,.54-.28,1.34,1.34,0,0,0,.37-.42,1.13,1.13,0,0,0,.16-.53h1.11a2,2,0,0,1-.24.87,2.54,2.54,0,0,1-.62.73,3,3,0,0,1-.89.5,2.84,2.84,0,0,1-1,.19,3.2,3.2,0,0,1-1.36-.28,2.94,2.94,0,0,1-1-.75,3.26,3.26,0,0,1-.58-1.09,4.38,4.38,0,0,1-.2-1.31v-.27a4.36,4.36,0,0,1,.2-1.3,3.17,3.17,0,0,1,.58-1.09,2.84,2.84,0,0,1,1-.76,3.2,3.2,0,0,1,1.36-.27,3.1,3.1,0,0,1,1.12.19,2.59,2.59,0,0,1,.88.53,2.33,2.33,0,0,1,.8,1.76h-1.11a1.45,1.45,0,0,0-.14-.58,1.57,1.57,0,0,0-.35-.49,1.63,1.63,0,0,0-.54-.33,2,2,0,0,0-1.58.1,1.89,1.89,0,0,0-.59.57,2.21,2.21,0,0,0-.33.79,3.77,3.77,0,0,0-.1.88v.27a3.8,3.8,0,0,0,.1.89,2.36,2.36,0,0,0,.32.8,1.82,1.82,0,0,0,.6.57A1.87,1.87,0,0,0,145.68,201.18Zm5.07-8.93h3.51V201h2.24v1h-5.75v-1h2.34v-7.71h-2.34Zm7.81,2.88h3.51V201h2.24v1h-5.75v-1h2.33v-4.83h-2.33Zm2.18-1.8a.73.73,0,0,1,.17-.49.7.7,0,0,1,.54-.2.67.67,0,0,1,.52.2.69.69,0,0,1,.18.49.64.64,0,0,1-.18.47.67.67,0,0,1-.52.2.7.7,0,0,1-.54-.2A.68.68,0,0,1,160.74,193.33Zm8.47,8.8a3.62,3.62,0,0,1-1.33-.25,3.11,3.11,0,0,1-1-.69,3.33,3.33,0,0,1-.68-1.06,3.52,3.52,0,0,1-.24-1.32v-.27a3.92,3.92,0,0,1,.27-1.49,3.56,3.56,0,0,1,.7-1.11,3.24,3.24,0,0,1,1-.69,2.89,2.89,0,0,1,1.15-.24,3.08,3.08,0,0,1,1.3.25,2.43,2.43,0,0,1,.92.72,2.89,2.89,0,0,1,.55,1.06,4.77,4.77,0,0,1,.18,1.34v.52h-4.9a2.66,2.66,0,0,0,.18.89,2.4,2.4,0,0,0,.44.72,2.2,2.2,0,0,0,.68.48,2.05,2.05,0,0,0,.87.18,2.4,2.4,0,0,0,1.12-.26,2.51,2.51,0,0,0,.81-.67l.72.56a2.87,2.87,0,0,1-.44.5,2.61,2.61,0,0,1-.59.42,3.09,3.09,0,0,1-.76.29A3.38,3.38,0,0,1,169.21,202.13Zm-.15-6.16a1.7,1.7,0,0,0-.67.13,2,2,0,0,0-.57.38,2.2,2.2,0,0,0-.43.62,2.59,2.59,0,0,0-.24.84h3.69v-.09a2.64,2.64,0,0,0-.13-.68,1.85,1.85,0,0,0-.33-.6,1.56,1.56,0,0,0-.54-.44A1.73,1.73,0,0,0,169.06,196Zm6-.84.08,1a2.6,2.6,0,0,1,.92-.83,2.43,2.43,0,0,1,1.22-.31,3,3,0,0,1,1,.15,1.92,1.92,0,0,1,.76.47,2.23,2.23,0,0,1,.47.83,3.46,3.46,0,0,1,.17,1.18V202h-1.17v-4.34a2.48,2.48,0,0,0-.1-.77,1.19,1.19,0,0,0-.31-.51,1.05,1.05,0,0,0-.49-.29,2.19,2.19,0,0,0-.66-.09,1.84,1.84,0,0,0-1,.3,2.2,2.2,0,0,0-.71.77V202H174v-6.87Zm9.54-1.66v1.66h2.61V196h-2.61v3.73a1.76,1.76,0,0,0,.1.66,1,1,0,0,0,.28.42,1.2,1.2,0,0,0,.4.22,2,2,0,0,0,.5.06l.39,0,.4-.06L187,201l.28-.06.16.83a1.92,1.92,0,0,1-.35.16,3.11,3.11,0,0,1-.46.1,2.94,2.94,0,0,1-.53.08,4.89,4.89,0,0,1-.54,0,2.67,2.67,0,0,1-.86-.13,2,2,0,0,1-.69-.41,2.22,2.22,0,0,1-.46-.73,3.17,3.17,0,0,1-.16-1.09V196h-1.81v-.91h1.81v-1.66Zm10.16,5h-4.86v-1h4.86Zm3.72-3.31.09,1a2.52,2.52,0,0,1,.92-.83,2.38,2.38,0,0,1,1.22-.31,3,3,0,0,1,1,.15,1.92,1.92,0,0,1,.76.47,2.11,2.11,0,0,1,.48.83,3.72,3.72,0,0,1,.17,1.18V202h-1.18v-4.34a2.48,2.48,0,0,0-.1-.77,1.28,1.28,0,0,0-.3-.51,1.16,1.16,0,0,0-.49-.29,2.19,2.19,0,0,0-.66-.09,1.82,1.82,0,0,0-1,.3,2,2,0,0,0-.71.77V202h-1.18v-6.87ZM209.73,202a1.28,1.28,0,0,1-.11-.33,2.65,2.65,0,0,1-.06-.42,3.4,3.4,0,0,1-.4.34,2.75,2.75,0,0,1-.48.28,3.07,3.07,0,0,1-.56.19,3.2,3.2,0,0,1-.63.07,3.13,3.13,0,0,1-1-.16,2.33,2.33,0,0,1-.74-.43,1.77,1.77,0,0,1-.48-.64,2,2,0,0,1-.17-.8,2.14,2.14,0,0,1,.23-1,1.94,1.94,0,0,1,.64-.7,2.79,2.79,0,0,1,1-.42,5.24,5.24,0,0,1,1.3-.14h1.28v-.54a1.4,1.4,0,0,0-.11-.56,1.14,1.14,0,0,0-.33-.42,1.38,1.38,0,0,0-.51-.27,2.27,2.27,0,0,0-1.3,0,1.87,1.87,0,0,0-.47.23,1.21,1.21,0,0,0-.29.35.9.9,0,0,0-.1.42h-1.19a1.8,1.8,0,0,1,.19-.74,2.21,2.21,0,0,1,.54-.65,3.08,3.08,0,0,1,.86-.47A3.43,3.43,0,0,1,208,195a3.83,3.83,0,0,1,1.09.14,2.4,2.4,0,0,1,.86.43,2.05,2.05,0,0,1,.58.72,2.28,2.28,0,0,1,.21,1v3.19a4.78,4.78,0,0,0,.06.73,2.82,2.82,0,0,0,.18.67v.1Zm-2.07-.9a2.67,2.67,0,0,0,.64-.08,2.21,2.21,0,0,0,.54-.24,2.36,2.36,0,0,0,.42-.33,1.9,1.9,0,0,0,.28-.39v-1.39h-1.09a3.48,3.48,0,0,0-1.6.3,1,1,0,0,0-.57,1,1.4,1.4,0,0,0,.08.47,1.08,1.08,0,0,0,.26.37,1.22,1.22,0,0,0,.43.25A2.25,2.25,0,0,0,207.66,201.1Zm5.91-6,0,.65a1.64,1.64,0,0,1,.54-.57,1.67,1.67,0,0,1,.83-.2,1.23,1.23,0,0,1,1.26.73,1.68,1.68,0,0,1,.53-.53,1.63,1.63,0,0,1,.82-.2,1.46,1.46,0,0,1,1.16.46,2.07,2.07,0,0,1,.41,1.4V202H218v-5.14c0-.58-.27-.86-.79-.86a1.06,1.06,0,0,0-.37.06.72.72,0,0,0-.25.16.63.63,0,0,0-.16.23,1.12,1.12,0,0,0-.08.26V202h-1.11v-5.15a.93.93,0,0,0-.19-.63.69.69,0,0,0-.58-.22.92.92,0,0,0-.57.15.74.74,0,0,0-.3.39V202h-1.12v-6.87Zm10.3,7a3.58,3.58,0,0,1-1.33-.25,3,3,0,0,1-1.71-1.75,3.52,3.52,0,0,1-.24-1.32v-.27a4.12,4.12,0,0,1,.26-1.49,3.58,3.58,0,0,1,.71-1.11,3.09,3.09,0,0,1,1-.69,2.94,2.94,0,0,1,1.16-.24,3.06,3.06,0,0,1,1.29.25,2.54,2.54,0,0,1,.93.72,2.88,2.88,0,0,1,.54,1.06,4.43,4.43,0,0,1,.19,1.34v.52h-4.91a2.66,2.66,0,0,0,.18.89,2.62,2.62,0,0,0,.44.72,2.2,2.2,0,0,0,.68.48,2.05,2.05,0,0,0,.87.18,2.4,2.4,0,0,0,1.12-.26,2.31,2.31,0,0,0,.81-.67l.72.56a3.27,3.27,0,0,1-.43.5,2.85,2.85,0,0,1-.59.42,3.81,3.81,0,0,1-1.69.41Zm-.15-6.16a1.75,1.75,0,0,0-.68.13,2,2,0,0,0-.57.38,2.2,2.2,0,0,0-.43.62,3.2,3.2,0,0,0-.24.84h3.69v-.09a2.28,2.28,0,0,0-.13-.68,1.82,1.82,0,0,0-.32-.6,1.7,1.7,0,0,0-.55-.44A1.68,1.68,0,0,0,223.72,196Zm10.58,1.08h-5.67v-1h5.67Zm0,2.63h-5.67v-1h5.67Zm4.25-6.74-.13,2.35h-.83v-3h1Zm2.27,0-.14,2.35h-.82v-3h.95ZM247,197.4l2.11-4.64h1.33l-2.88,5.79V202h-1.1l0-3.45-2.87-5.79h1.34Zm4.75,1.1a4.32,4.32,0,0,1,.22-1.37,3.3,3.3,0,0,1,.62-1.12,2.86,2.86,0,0,1,1-.73,3,3,0,0,1,1.3-.27,3.07,3.07,0,0,1,1.31.27,2.77,2.77,0,0,1,1,.73,3.5,3.5,0,0,1,.63,1.12,4.32,4.32,0,0,1,.21,1.37v.14a4.34,4.34,0,0,1-.21,1.38,3.4,3.4,0,0,1-.63,1.1,2.73,2.73,0,0,1-1,.74,3.07,3.07,0,0,1-1.31.27,3.1,3.1,0,0,1-1.31-.27,2.77,2.77,0,0,1-1-.74A3.21,3.21,0,0,1,252,200a4.34,4.34,0,0,1-.22-1.38Zm1.18.14a3.85,3.85,0,0,0,.12,1,2.5,2.5,0,0,0,.36.81,1.81,1.81,0,0,0,.62.55,1.83,1.83,0,0,0,1.7,0,1.78,1.78,0,0,0,.61-.55,2.51,2.51,0,0,0,.37-.81,3.85,3.85,0,0,0,.12-1v-.14a3.83,3.83,0,0,0-.13-1,2.4,2.4,0,0,0-.37-.81,1.79,1.79,0,0,0-.61-.55,1.83,1.83,0,0,0-1.7,0,2,2,0,0,0-.61.55,2.6,2.6,0,0,0-.36.81,3.83,3.83,0,0,0-.12,1Zm11.42,2.41a2.34,2.34,0,0,1-2.05,1.08,2.7,2.7,0,0,1-1-.17,1.87,1.87,0,0,1-.75-.53,2.27,2.27,0,0,1-.48-.9,4.23,4.23,0,0,1-.17-1.32v-4.08h1.17v4.1a3.91,3.91,0,0,0,.09.92,1.41,1.41,0,0,0,.27.59.94.94,0,0,0,.43.31,1.85,1.85,0,0,0,.6.09,2.06,2.06,0,0,0,1.15-.29,1.75,1.75,0,0,0,.66-.79v-4.93h1.18V202H264.4Zm7.85-6h.34a1.87,1.87,0,0,1,.34,0l.3,0,.23.07-.16,1.15a5.67,5.67,0,0,0-.66-.11,6.28,6.28,0,0,0-.64,0,2.24,2.24,0,0,0-1.34.38,2.29,2.29,0,0,0-.75,1V202h-1.18v-6.87h1.12l.06,1.09a3.1,3.1,0,0,1,1-.88A2.69,2.69,0,0,1,272.18,195Zm17.1,4.21a3.75,3.75,0,0,1-.33,1.18,2.91,2.91,0,0,1-1.59,1.52,3.29,3.29,0,0,1-1.2.21,3.39,3.39,0,0,1-1-.16,2.88,2.88,0,0,1-.83-.45,2.86,2.86,0,0,1-.63-.67,4.27,4.27,0,0,1-.44-.85,4.83,4.83,0,0,1-.26-1,5.66,5.66,0,0,1-.09-1v-1.29a5.86,5.86,0,0,1,.09-1,5.23,5.23,0,0,1,.26-1,4.19,4.19,0,0,1,.44-.84,2.72,2.72,0,0,1,.63-.68,2.64,2.64,0,0,1,.83-.44,3.06,3.06,0,0,1,1-.17,3.26,3.26,0,0,1,1.24.22,2.66,2.66,0,0,1,.93.6,2.73,2.73,0,0,1,.63.93,4.22,4.22,0,0,1,.32,1.21h-1.17a3.71,3.71,0,0,0-.2-.78,2.24,2.24,0,0,0-.37-.64,1.63,1.63,0,0,0-.58-.42,1.81,1.81,0,0,0-.8-.16,1.88,1.88,0,0,0-.74.14,1.66,1.66,0,0,0-.56.37,2.1,2.1,0,0,0-.38.54,3.09,3.09,0,0,0-.25.66,5.32,5.32,0,0,0-.18,1.43V198a5.85,5.85,0,0,0,0,.71,6.1,6.1,0,0,0,.14.72,3.09,3.09,0,0,0,.25.66,2.34,2.34,0,0,0,.38.55,1.82,1.82,0,0,0,.56.37,1.84,1.84,0,0,0,.74.14,2,2,0,0,0,.8-.15,1.61,1.61,0,0,0,.58-.41,2,2,0,0,0,.37-.62,3.71,3.71,0,0,0,.2-.78Zm1.49-.72a4.06,4.06,0,0,1,.22-1.37,3.46,3.46,0,0,1,.61-1.12,3,3,0,0,1,2.29-1,3.07,3.07,0,0,1,1.31.27,2.86,2.86,0,0,1,1,.73,3.3,3.3,0,0,1,.62,1.12,4.06,4.06,0,0,1,.22,1.37v.14a4.08,4.08,0,0,1-.22,1.38,3.21,3.21,0,0,1-.62,1.1,2.77,2.77,0,0,1-1,.74,3,3,0,0,1-1.3.27,3.1,3.1,0,0,1-1.31-.27,2.89,2.89,0,0,1-1-.74A3.36,3.36,0,0,1,291,200a4.08,4.08,0,0,1-.22-1.38Zm1.18.14a3.85,3.85,0,0,0,.12,1,2.5,2.5,0,0,0,.36.81,1.73,1.73,0,0,0,.62.55,1.83,1.83,0,0,0,1.7,0,1.78,1.78,0,0,0,.61-.55,2.5,2.5,0,0,0,.36-.81,3.85,3.85,0,0,0,.12-1v-.14a3.83,3.83,0,0,0-.12-1,2.61,2.61,0,0,0-.37-.81,1.89,1.89,0,0,0-.61-.55,1.67,1.67,0,0,0-.85-.21,1.65,1.65,0,0,0-.85.21,1.89,1.89,0,0,0-.61.55,2.6,2.6,0,0,0-.36.81,3.83,3.83,0,0,0-.12,1Zm7.5-3.51,0,.65a1.58,1.58,0,0,1,.55-.57,1.63,1.63,0,0,1,.82-.2,1.25,1.25,0,0,1,1.27.73,1.48,1.48,0,0,1,1.34-.73,1.46,1.46,0,0,1,1.16.46,2.07,2.07,0,0,1,.41,1.4V202h-1.12v-5.14c0-.58-.26-.86-.79-.86a1,1,0,0,0-.36.06.68.68,0,0,0-.26.16.63.63,0,0,0-.16.23,1.11,1.11,0,0,0-.07.26V202h-1.12v-5.15a1,1,0,0,0-.18-.63.73.73,0,0,0-.59-.22,1,1,0,0,0-.57.15.85.85,0,0,0-.3.39V202H298.4v-6.87Zm13.06,3.51a5.11,5.11,0,0,1-.18,1.38,3.38,3.38,0,0,1-.51,1.1,2.45,2.45,0,0,1-.86.74,2.34,2.34,0,0,1-1.14.27,2.83,2.83,0,0,1-1.12-.21,2.23,2.23,0,0,1-.81-.58v3.3h-1.18v-9.51h1.07l.06.75a2.38,2.38,0,0,1,.83-.65,2.65,2.65,0,0,1,1.13-.22,2.38,2.38,0,0,1,2,1,3.34,3.34,0,0,1,.51,1.11,5.23,5.23,0,0,1,.18,1.41Zm-1.17-.13a4.12,4.12,0,0,0-.11-.95,2.43,2.43,0,0,0-.35-.8,1.53,1.53,0,0,0-.58-.55,1.83,1.83,0,0,0-1.81.06,1.94,1.94,0,0,0-.6.67v3.31a1.9,1.9,0,0,0,.6.66,1.73,1.73,0,0,0,1,.26,1.59,1.59,0,0,0,.84-.21,1.64,1.64,0,0,0,.59-.55,3,3,0,0,0,.34-.81,4.21,4.21,0,0,0,.11-1ZM319,202a1.27,1.27,0,0,1-.12-.33c0-.13,0-.27-.05-.42a4.47,4.47,0,0,1-.4.34,3.3,3.3,0,0,1-.49.28,2.75,2.75,0,0,1-1.19.26,3.11,3.11,0,0,1-1-.16,2.5,2.5,0,0,1-.75-.43,1.87,1.87,0,0,1-.47-.64,2,2,0,0,1-.17-.8,1.9,1.9,0,0,1,.86-1.7,2.93,2.93,0,0,1,1-.42,5.18,5.18,0,0,1,1.3-.14h1.28v-.54a1.25,1.25,0,0,0-.12-.56,1,1,0,0,0-.32-.42,1.38,1.38,0,0,0-.51-.27,2.07,2.07,0,0,0-.68-.1,2,2,0,0,0-.62.09,1.72,1.72,0,0,0-.47.23,1.1,1.1,0,0,0-.3.35,1,1,0,0,0-.1.42h-1.18a1.66,1.66,0,0,1,.19-.74,2.21,2.21,0,0,1,.54-.65,2.94,2.94,0,0,1,.86-.47,3.43,3.43,0,0,1,1.15-.17,3.71,3.71,0,0,1,1.08.14,2.32,2.32,0,0,1,.86.43,2,2,0,0,1,.58.72,2.28,2.28,0,0,1,.21,1v3.19a3.83,3.83,0,0,0,.07.73,3.43,3.43,0,0,0,.17.67v.1Zm-2.08-.9a2.61,2.61,0,0,0,.64-.08,2.21,2.21,0,0,0,.54-.24,2.12,2.12,0,0,0,.43-.33,1.9,1.9,0,0,0,.28-.39v-1.39h-1.09a3.48,3.48,0,0,0-1.6.3,1,1,0,0,0-.58,1,1.19,1.19,0,0,0,.09.47,1,1,0,0,0,.26.37,1.14,1.14,0,0,0,.43.25A2.13,2.13,0,0,0,317,201.1Zm6.43-6,.08,1a2.6,2.6,0,0,1,.92-.83,2.38,2.38,0,0,1,1.22-.31,3.05,3.05,0,0,1,1,.15,2,2,0,0,1,.75.47,2.11,2.11,0,0,1,.48.83,3.72,3.72,0,0,1,.17,1.18V202h-1.18v-4.34a2.48,2.48,0,0,0-.1-.77,1.28,1.28,0,0,0-.3-.51,1.11,1.11,0,0,0-.49-.29,2.19,2.19,0,0,0-.66-.09,1.84,1.84,0,0,0-1,.3,2,2,0,0,0-.71.77V202h-1.18v-6.87Zm9.28,4.43.3.83,2.1-5.26h1.31l-3.48,7.93a4.21,4.21,0,0,1-.32.57,2.86,2.86,0,0,1-.45.55,2.12,2.12,0,0,1-.62.42,1.8,1.8,0,0,1-.82.17h-.18l-.2,0-.2,0-.14,0,.19-1h.56a.79.79,0,0,0,.44-.14,1.52,1.52,0,0,0,.35-.32,1.89,1.89,0,0,0,.27-.38l.18-.32.47-.91-3-6.55h1.31ZM341,193l-.13,2.33H340v-3h1Zm9.33,7.22a.92.92,0,0,0-.08-.38,1,1,0,0,0-.28-.31,2.53,2.53,0,0,0-.52-.25,6.51,6.51,0,0,0-.81-.22,7.69,7.69,0,0,1-1.08-.29,3.38,3.38,0,0,1-.83-.41,1.73,1.73,0,0,1-.53-.55A1.44,1.44,0,0,1,346,197a1.61,1.61,0,0,1,.19-.78,2,2,0,0,1,.56-.64,2.57,2.57,0,0,1,.84-.44,4.09,4.09,0,0,1,2.23,0,2.44,2.44,0,0,1,.86.46,2,2,0,0,1,.55.68,1.85,1.85,0,0,1,.19.84h-1.17a1,1,0,0,0-.11-.43,1.3,1.3,0,0,0-.32-.38,1.7,1.7,0,0,0-.5-.27,1.83,1.83,0,0,0-.64-.1,2.59,2.59,0,0,0-.66.08,1.58,1.58,0,0,0-.47.22,1,1,0,0,0-.28.33.75.75,0,0,0-.1.38.83.83,0,0,0,.08.36.78.78,0,0,0,.26.29,2,2,0,0,0,.5.22,6.18,6.18,0,0,0,.8.2,9.31,9.31,0,0,1,1.14.31,3.66,3.66,0,0,1,.84.42,1.65,1.65,0,0,1,.52.57,1.49,1.49,0,0,1,.18.75,1.78,1.78,0,0,1-.2.83,2,2,0,0,1-.58.64,2.75,2.75,0,0,1-.88.41,4,4,0,0,1-1.12.15,3.73,3.73,0,0,1-1.25-.19,3,3,0,0,1-.92-.49,2.2,2.2,0,0,1-.58-.72,1.92,1.92,0,0,1-.2-.84h1.18a1.19,1.19,0,0,0,.19.61,1.46,1.46,0,0,0,.42.4,1.66,1.66,0,0,0,.55.21,3.26,3.26,0,0,0,.61.07,2.2,2.2,0,0,0,1.17-.28A.82.82,0,0,0,350.32,200.18ZM367.16,202H366l-3.59-6.91,0,6.91h-1.19v-9.24h1.2l3.58,6.89,0-6.89h1.19Zm6.53,0a1.28,1.28,0,0,1-.11-.33,2.65,2.65,0,0,1-.06-.42,3.4,3.4,0,0,1-.4.34,2.75,2.75,0,0,1-.48.28,3.35,3.35,0,0,1-.56.19,3.2,3.2,0,0,1-.63.07,3.13,3.13,0,0,1-1-.16,2.33,2.33,0,0,1-.74-.43,1.77,1.77,0,0,1-.48-.64,2,2,0,0,1-.17-.8,2.14,2.14,0,0,1,.23-1,1.94,1.94,0,0,1,.64-.7,2.79,2.79,0,0,1,1-.42,5.24,5.24,0,0,1,1.3-.14h1.28v-.54a1.4,1.4,0,0,0-.11-.56,1.14,1.14,0,0,0-.33-.42,1.38,1.38,0,0,0-.51-.27,2.27,2.27,0,0,0-1.3,0,1.65,1.65,0,0,0-.46.23,1.1,1.1,0,0,0-.3.35.9.9,0,0,0-.1.42H369.2a1.8,1.8,0,0,1,.19-.74,2.21,2.21,0,0,1,.54-.65,3.08,3.08,0,0,1,.86-.47,3.43,3.43,0,0,1,1.15-.17,3.71,3.71,0,0,1,1.08.14,2.37,2.37,0,0,1,.87.43,2.05,2.05,0,0,1,.58.72,2.28,2.28,0,0,1,.21,1v3.19a4.78,4.78,0,0,0,.06.73,2.82,2.82,0,0,0,.18.67v.1Zm-2.07-.9a2.61,2.61,0,0,0,.64-.08,2.21,2.21,0,0,0,.54-.24,2.36,2.36,0,0,0,.42-.33,1.9,1.9,0,0,0,.28-.39v-1.39h-1.09a3.48,3.48,0,0,0-1.6.3,1,1,0,0,0-.57,1,1.4,1.4,0,0,0,.08.47,1.08,1.08,0,0,0,.26.37,1.22,1.22,0,0,0,.43.25A2.25,2.25,0,0,0,371.62,201.1Zm5.91-6,0,.65a1.64,1.64,0,0,1,.54-.57,1.67,1.67,0,0,1,.83-.2,1.23,1.23,0,0,1,1.26.73,1.71,1.71,0,0,1,.54-.53,1.57,1.57,0,0,1,.81-.2,1.46,1.46,0,0,1,1.16.46,2.07,2.07,0,0,1,.41,1.4V202H382v-5.14c0-.58-.27-.86-.79-.86a1,1,0,0,0-.37.06.72.72,0,0,0-.25.16.63.63,0,0,0-.16.23,1.12,1.12,0,0,0-.08.26V202h-1.11v-5.15a.93.93,0,0,0-.19-.63.69.69,0,0,0-.58-.22.92.92,0,0,0-.57.15.74.74,0,0,0-.3.39V202h-1.12v-6.87Zm10.3,7a3.67,3.67,0,0,1-1.34-.25,3.21,3.21,0,0,1-1-.69,3.14,3.14,0,0,1-.67-1.06,3.52,3.52,0,0,1-.24-1.32v-.27a4.12,4.12,0,0,1,.26-1.49,3.58,3.58,0,0,1,.71-1.11,3.09,3.09,0,0,1,1-.69,2.94,2.94,0,0,1,1.16-.24,3.06,3.06,0,0,1,1.29.25,2.54,2.54,0,0,1,.93.72,2.88,2.88,0,0,1,.54,1.06,4.43,4.43,0,0,1,.19,1.34v.52h-4.91a2.66,2.66,0,0,0,.18.89,2.62,2.62,0,0,0,.44.72,2.2,2.2,0,0,0,.68.48,2.05,2.05,0,0,0,.87.18,2.4,2.4,0,0,0,1.93-.93l.72.56a3.27,3.27,0,0,1-.43.5,2.85,2.85,0,0,1-.59.42,3.43,3.43,0,0,1-.76.29A3.48,3.48,0,0,1,387.83,202.13Zm-.15-6.16a1.72,1.72,0,0,0-.68.13,2,2,0,0,0-.57.38,2.2,2.2,0,0,0-.43.62,2.86,2.86,0,0,0-.24.84h3.69v-.09a2.28,2.28,0,0,0-.13-.68,1.82,1.82,0,0,0-.32-.6,1.7,1.7,0,0,0-.55-.44A1.68,1.68,0,0,0,387.68,196Zm7-3-.13,2.35h-.83v-3h.95Zm2.27,0-.14,2.35H396v-3h1ZM103.5,218.51a4.86,4.86,0,0,1,.19-1.41,3.39,3.39,0,0,1,.55-1.11,2.65,2.65,0,0,1,.87-.73,2.51,2.51,0,0,1,1.14-.25,2.56,2.56,0,0,1,1.07.2,2.34,2.34,0,0,1,.8.6v-3.56h1.17V222h-1.08l0-.72a2.18,2.18,0,0,1-.82.63,2.68,2.68,0,0,1-1.11.22,2.39,2.39,0,0,1-1.13-.27,2.5,2.5,0,0,1-.85-.74,3.68,3.68,0,0,1-.56-1.1,4.75,4.75,0,0,1-.19-1.38Zm1.17.13a4.12,4.12,0,0,0,.11,1,2.41,2.41,0,0,0,.33.8,1.66,1.66,0,0,0,.58.54,1.58,1.58,0,0,0,.84.2,1.9,1.9,0,0,0,.54-.07,1.54,1.54,0,0,0,.43-.2,1.73,1.73,0,0,0,.35-.31,2.8,2.8,0,0,0,.27-.4V217a2,2,0,0,0-.62-.69,1.83,1.83,0,0,0-1.81-.06,1.6,1.6,0,0,0-.58.55,2.41,2.41,0,0,0-.33.8,4.12,4.12,0,0,0-.11.95ZM116,222a1.28,1.28,0,0,1-.11-.33,2.65,2.65,0,0,1-.06-.42,3.4,3.4,0,0,1-.4.34,3.18,3.18,0,0,1-.48.28,3.35,3.35,0,0,1-.56.19,3.22,3.22,0,0,1-.64.07,3.11,3.11,0,0,1-1-.16,2.5,2.5,0,0,1-.75-.43,1.87,1.87,0,0,1-.47-.64,2,2,0,0,1-.17-.8,2.14,2.14,0,0,1,.23-1,1.94,1.94,0,0,1,.64-.7,2.79,2.79,0,0,1,1-.42,5.24,5.24,0,0,1,1.3-.14h1.28v-.54a1.4,1.4,0,0,0-.11-.56,1.14,1.14,0,0,0-.33-.42,1.38,1.38,0,0,0-.51-.27,2.07,2.07,0,0,0-.68-.1,2,2,0,0,0-.62.09,1.87,1.87,0,0,0-.47.23,1.43,1.43,0,0,0-.3.35,1,1,0,0,0-.1.42h-1.18a1.8,1.8,0,0,1,.19-.74,2.21,2.21,0,0,1,.54-.65,3.08,3.08,0,0,1,.86-.47,3.43,3.43,0,0,1,1.15-.17,3.71,3.71,0,0,1,1.08.14,2.37,2.37,0,0,1,.87.43,2.05,2.05,0,0,1,.58.72,2.28,2.28,0,0,1,.2,1v3.19a4.85,4.85,0,0,0,.07.73,2.82,2.82,0,0,0,.18.67v.1Zm-2.08-.9a2.69,2.69,0,0,0,.65-.08,2.21,2.21,0,0,0,.54-.24,2.36,2.36,0,0,0,.42-.33,1.9,1.9,0,0,0,.28-.39v-1.39h-1.09a3.48,3.48,0,0,0-1.6.3,1,1,0,0,0-.57,1,1.19,1.19,0,0,0,.08.47,1.08,1.08,0,0,0,.26.37,1.14,1.14,0,0,0,.43.25A2.23,2.23,0,0,0,114,221.1Zm8.15-7.63v1.66h2.62V216h-2.62v3.73a1.75,1.75,0,0,0,.11.66,1.07,1.07,0,0,0,.28.42,1.11,1.11,0,0,0,.4.22,2,2,0,0,0,.5.06l.39,0,.39-.06.37-.06.28-.06.16.83a1.92,1.92,0,0,1-.35.16,3.11,3.11,0,0,1-.46.1,2.94,2.94,0,0,1-.53.08,4.89,4.89,0,0,1-.54,0,2.63,2.63,0,0,1-.86-.13,2,2,0,0,1-.69-.41,2.07,2.07,0,0,1-.46-.73,3.16,3.16,0,0,1-.17-1.09V216h-1.8v-.91h1.8v-1.66Zm9.55,8.53a1.27,1.27,0,0,1-.12-.33l-.06-.42a3.07,3.07,0,0,1-.88.62,3.07,3.07,0,0,1-.56.19,3.12,3.12,0,0,1-.63.07,3,3,0,0,1-1-.16,2.5,2.5,0,0,1-.75-.43,2,2,0,0,1-.48-.64,2,2,0,0,1-.16-.8,2.14,2.14,0,0,1,.22-1,2,2,0,0,1,.64-.7,3,3,0,0,1,1-.42,5.29,5.29,0,0,1,1.3-.14h1.28v-.54a1.25,1.25,0,0,0-.11-.56,1.12,1.12,0,0,0-.32-.42,1.35,1.35,0,0,0-.52-.27,2,2,0,0,0-.67-.1,2.08,2.08,0,0,0-.63.09,1.8,1.8,0,0,0-.46.23,1.1,1.1,0,0,0-.3.35.9.9,0,0,0-.1.42h-1.18a1.66,1.66,0,0,1,.19-.74,2.21,2.21,0,0,1,.54-.65,2.82,2.82,0,0,1,.86-.47,3.37,3.37,0,0,1,1.14-.17,3.83,3.83,0,0,1,1.09.14,2.4,2.4,0,0,1,.86.43,2,2,0,0,1,.58.72,2.28,2.28,0,0,1,.21,1v3.19a4.78,4.78,0,0,0,.06.73,2.82,2.82,0,0,0,.18.67v.1Zm-2.08-.9a2.61,2.61,0,0,0,.64-.08,2.21,2.21,0,0,0,.54-.24,2.12,2.12,0,0,0,.43-.33,1.83,1.83,0,0,0,.27-.39v-1.39h-1.09a3.51,3.51,0,0,0-1.6.3,1,1,0,0,0-.57,1,1.19,1.19,0,0,0,.09.47.94.94,0,0,0,.25.37,1.18,1.18,0,0,0,.44.25A2.13,2.13,0,0,0,129.58,221.1Zm10.51-2.66h-4.86v-1h4.86Zm4.42,3.56v-6h-1.89v-.91h1.89v-.48a3.17,3.17,0,0,1,.19-1.16,2.2,2.2,0,0,1,.55-.83,2.15,2.15,0,0,1,.85-.51,3.18,3.18,0,0,1,1.1-.17,4.28,4.28,0,0,1,.81.07,6.37,6.37,0,0,1,.82.18l-.14,1a4.81,4.81,0,0,0-.61-.16,4.21,4.21,0,0,0-.73-.07,1.79,1.79,0,0,0-1.25.42,1.75,1.75,0,0,0-.41,1.26v.48h2.65V216h-2.65v6Zm5.73-3.5a4.32,4.32,0,0,1,.21-1.37,3.48,3.48,0,0,1,.62-1.12,3,3,0,0,1,1-.73,3.29,3.29,0,0,1,2.61,0,2.77,2.77,0,0,1,1,.73,3.5,3.5,0,0,1,.63,1.12,4.32,4.32,0,0,1,.21,1.37v.14a4.34,4.34,0,0,1-.21,1.38,3.4,3.4,0,0,1-.63,1.1,2.73,2.73,0,0,1-1,.74,3.05,3.05,0,0,1-1.3.27,3.11,3.11,0,0,1-1.32-.27,2.86,2.86,0,0,1-1-.74,3.38,3.38,0,0,1-.62-1.1,4.34,4.34,0,0,1-.21-1.38Zm1.17.14a3.85,3.85,0,0,0,.12,1,2.5,2.5,0,0,0,.36.81,1.81,1.81,0,0,0,.62.55,1.69,1.69,0,0,0,.86.21,1.64,1.64,0,0,0,.84-.21,1.78,1.78,0,0,0,.61-.55,2.51,2.51,0,0,0,.37-.81,3.85,3.85,0,0,0,.12-1v-.14a3.83,3.83,0,0,0-.13-1,2.4,2.4,0,0,0-.37-.81,1.79,1.79,0,0,0-.61-.55,1.65,1.65,0,0,0-.85-.21,1.67,1.67,0,0,0-.85.21,2,2,0,0,0-.61.55,2.6,2.6,0,0,0-.36.81,3.83,3.83,0,0,0-.12,1ZM162.87,215h.35a1.69,1.69,0,0,1,.33,0l.3,0,.23.07-.16,1.15a5.89,5.89,0,0,0-.65-.11c-.21,0-.42,0-.64,0a2.22,2.22,0,0,0-1.34.38,2.16,2.16,0,0,0-.75,1V222h-1.18v-6.87h1.11l.06,1.09a3.21,3.21,0,0,1,1-.88A2.72,2.72,0,0,1,162.87,215Zm3.85.12,0,.65a1.58,1.58,0,0,1,.55-.57,1.63,1.63,0,0,1,.82-.2,1.24,1.24,0,0,1,1.27.73,1.48,1.48,0,0,1,1.34-.73,1.44,1.44,0,0,1,1.16.46,2.07,2.07,0,0,1,.41,1.4V222h-1.12v-5.14c0-.58-.26-.86-.79-.86a1,1,0,0,0-.36.06.76.76,0,0,0-.26.16.61.61,0,0,0-.15.23.79.79,0,0,0-.08.26V222h-1.12v-5.15a1,1,0,0,0-.18-.63.71.71,0,0,0-.59-.22,1,1,0,0,0-.57.15.85.85,0,0,0-.3.39V222h-1.11v-6.87Zm12.4,3.31h-4.85v-1h4.85Zm2.86-3.31h3.51V221h2.24v1H182v-1h2.34v-4.83H182Zm2.18-1.8a.69.69,0,0,1,.18-.49.66.66,0,0,1,.53-.2.69.69,0,0,1,.53.2.73.73,0,0,1,.17.49.68.68,0,0,1-.17.47.69.69,0,0,1-.53.2.66.66,0,0,1-.53-.2A.64.64,0,0,1,184.16,213.33Zm5.22,5.18a5.22,5.22,0,0,1,.19-1.41,3.6,3.6,0,0,1,.55-1.11,2.76,2.76,0,0,1,.87-.73,2.83,2.83,0,0,1,2.21,0,2.25,2.25,0,0,1,.8.6v-3.56h1.18V222H194.1l0-.72a2.26,2.26,0,0,1-.82.63,2.75,2.75,0,0,1-1.11.22,2.36,2.36,0,0,1-1.13-.27,2.54,2.54,0,0,1-.86-.74,3.44,3.44,0,0,1-.55-1.1,4.75,4.75,0,0,1-.2-1.38Zm1.18.13a4.13,4.13,0,0,0,.1,1,2.91,2.91,0,0,0,.33.8,1.75,1.75,0,0,0,.58.54,1.58,1.58,0,0,0,.84.2,1.81,1.81,0,0,0,.54-.07,1.6,1.6,0,0,0,.44-.2,2,2,0,0,0,.35-.31,2.11,2.11,0,0,0,.26-.4V217a1.93,1.93,0,0,0-.61-.69,1.85,1.85,0,0,0-1.82-.06,1.69,1.69,0,0,0-.58.55,2.91,2.91,0,0,0-.33.8,4.13,4.13,0,0,0-.1.95Zm12.51-1.59H197.4v-1h5.67Zm0,2.63H197.4v-1h5.67Zm4.25-6.74-.13,2.35h-.83v-3h.95Zm2.27,0-.14,2.35h-.82v-3h1Zm5.19,9.06v-6h-1.89v-.91h1.89v-.48a3.17,3.17,0,0,1,.19-1.16,2.3,2.3,0,0,1,.54-.83,2.26,2.26,0,0,1,.86-.51,3.18,3.18,0,0,1,1.1-.17,4.28,4.28,0,0,1,.81.07,6.37,6.37,0,0,1,.82.18l-.14,1a4.81,4.81,0,0,0-.61-.16,4.21,4.21,0,0,0-.73-.07,1.79,1.79,0,0,0-1.25.42,1.75,1.75,0,0,0-.41,1.26v.48h2.65V216H216v6Zm5.72-3.5a4.32,4.32,0,0,1,.22-1.37,3.3,3.3,0,0,1,.62-1.12,2.86,2.86,0,0,1,1-.73,3,3,0,0,1,1.3-.27,3.07,3.07,0,0,1,1.31.27,2.77,2.77,0,0,1,1,.73,3.3,3.3,0,0,1,.62,1.12,4.06,4.06,0,0,1,.22,1.37v.14a4.08,4.08,0,0,1-.22,1.38,3.21,3.21,0,0,1-.62,1.1,2.68,2.68,0,0,1-1,.74,3,3,0,0,1-1.3.27,3.1,3.1,0,0,1-1.31-.27,2.77,2.77,0,0,1-1-.74,3.21,3.21,0,0,1-.62-1.1,4.34,4.34,0,0,1-.22-1.38Zm1.18.14a3.85,3.85,0,0,0,.12,1,2.5,2.5,0,0,0,.36.81,1.81,1.81,0,0,0,.62.55,1.67,1.67,0,0,0,.85.21,1.65,1.65,0,0,0,.85-.21,1.78,1.78,0,0,0,.61-.55,2.51,2.51,0,0,0,.37-.81,3.85,3.85,0,0,0,.12-1v-.14a3.83,3.83,0,0,0-.13-1,2.4,2.4,0,0,0-.37-.81,1.79,1.79,0,0,0-.61-.55,1.83,1.83,0,0,0-1.7,0,2,2,0,0,0-.61.55,2.6,2.6,0,0,0-.36.81,3.83,3.83,0,0,0-.12,1ZM233.14,215h.35a1.84,1.84,0,0,1,.33,0l.3,0,.23.07-.16,1.15a5.89,5.89,0,0,0-.65-.11c-.21,0-.42,0-.64,0a2.25,2.25,0,0,0-1.35.38,2.21,2.21,0,0,0-.74,1V222h-1.19v-6.87h1.12l.06,1.09a3.1,3.1,0,0,1,1-.88A2.72,2.72,0,0,1,233.14,215Zm3.85.12,0,.65a1.58,1.58,0,0,1,.55-.57,1.61,1.61,0,0,1,.82-.2,1.23,1.23,0,0,1,1.26.73,1.71,1.71,0,0,1,.54-.53,1.57,1.57,0,0,1,.81-.2,1.46,1.46,0,0,1,1.16.46,2.07,2.07,0,0,1,.41,1.4V222h-1.12v-5.14c0-.58-.26-.86-.79-.86a1,1,0,0,0-.36.06.68.68,0,0,0-.26.16.63.63,0,0,0-.16.23,1.11,1.11,0,0,0-.07.26V222h-1.12v-5.15a1,1,0,0,0-.18-.63.73.73,0,0,0-.59-.22,1,1,0,0,0-.57.15.79.79,0,0,0-.3.39V222h-1.12v-6.87Zm12.4,3.31h-4.85v-1h4.85Zm2.86-3.31h3.51V221H258v1h-5.75v-1h2.33v-4.83h-2.33Zm2.18-1.8a.73.73,0,0,1,.17-.49.7.7,0,0,1,.54-.2.67.67,0,0,1,.52.2.69.69,0,0,1,.18.49.64.64,0,0,1-.18.47.67.67,0,0,1-.52.2.7.7,0,0,1-.54-.2A.68.68,0,0,1,254.43,213.33Zm5.22,5.18a4.86,4.86,0,0,1,.19-1.41,3.6,3.6,0,0,1,.55-1.11,2.65,2.65,0,0,1,.87-.73,2.83,2.83,0,0,1,2.21,0,2.25,2.25,0,0,1,.8.6v-3.56h1.18V222h-1.08l-.05-.72a2.26,2.26,0,0,1-.82.63,2.75,2.75,0,0,1-1.11.22,2.33,2.33,0,0,1-1.13-.27,2.54,2.54,0,0,1-.86-.74,3.44,3.44,0,0,1-.55-1.1,4.43,4.43,0,0,1-.2-1.38Zm1.17.13a4.12,4.12,0,0,0,.11,1,2.41,2.41,0,0,0,.33.8,1.75,1.75,0,0,0,.58.54,1.58,1.58,0,0,0,.84.2,1.81,1.81,0,0,0,.54-.07,1.54,1.54,0,0,0,.43-.2,1.5,1.5,0,0,0,.35-.31,1.76,1.76,0,0,0,.27-.4V217a2,2,0,0,0-.62-.69,1.6,1.6,0,0,0-1-.27,1.65,1.65,0,0,0-.85.21,1.69,1.69,0,0,0-.58.55,2.41,2.41,0,0,0-.33.8,4.12,4.12,0,0,0-.11.95Zm9-5.7-.13,2.35h-.83v-3h.95Zm2.27,0-.14,2.35h-.81v-3h.95ZM103.5,238.51a4.86,4.86,0,0,1,.19-1.41,3.39,3.39,0,0,1,.55-1.11,2.65,2.65,0,0,1,.87-.73,2.51,2.51,0,0,1,1.14-.25,2.56,2.56,0,0,1,1.07.2,2.34,2.34,0,0,1,.8.6v-3.56h1.17V242h-1.08l0-.72a2.18,2.18,0,0,1-.82.63,2.68,2.68,0,0,1-1.11.22,2.39,2.39,0,0,1-1.13-.27,2.5,2.5,0,0,1-.85-.74,3.68,3.68,0,0,1-.56-1.1,4.75,4.75,0,0,1-.19-1.38Zm1.17.13a4.12,4.12,0,0,0,.11,1,2.41,2.41,0,0,0,.33.8,1.66,1.66,0,0,0,.58.54,1.58,1.58,0,0,0,.84.2,1.9,1.9,0,0,0,.54-.07,1.54,1.54,0,0,0,.43-.2,1.73,1.73,0,0,0,.35-.31,2.8,2.8,0,0,0,.27-.4V237a2,2,0,0,0-.62-.69,1.83,1.83,0,0,0-1.81-.06,1.6,1.6,0,0,0-.58.55,2.41,2.41,0,0,0-.33.8,4.12,4.12,0,0,0-.11.95ZM116,242a1.28,1.28,0,0,1-.11-.33,2.65,2.65,0,0,1-.06-.42,3.4,3.4,0,0,1-.4.34,3.18,3.18,0,0,1-.48.28,3.35,3.35,0,0,1-.56.19,3.22,3.22,0,0,1-.64.07,3.11,3.11,0,0,1-1-.16,2.5,2.5,0,0,1-.75-.43,1.87,1.87,0,0,1-.47-.64,2,2,0,0,1-.17-.8,2.14,2.14,0,0,1,.23-1,1.94,1.94,0,0,1,.64-.7,2.79,2.79,0,0,1,1-.42,5.24,5.24,0,0,1,1.3-.14h1.28v-.54a1.4,1.4,0,0,0-.11-.56,1.14,1.14,0,0,0-.33-.42,1.38,1.38,0,0,0-.51-.27,2.07,2.07,0,0,0-.68-.1,2,2,0,0,0-.62.09,1.87,1.87,0,0,0-.47.23,1.43,1.43,0,0,0-.3.35,1,1,0,0,0-.1.42h-1.18a1.8,1.8,0,0,1,.19-.74,2.21,2.21,0,0,1,.54-.65,3.08,3.08,0,0,1,.86-.47,3.43,3.43,0,0,1,1.15-.17,3.71,3.71,0,0,1,1.08.14,2.37,2.37,0,0,1,.87.43,2.05,2.05,0,0,1,.58.72,2.28,2.28,0,0,1,.2,1v3.19a4.85,4.85,0,0,0,.07.73,2.82,2.82,0,0,0,.18.67v.1Zm-2.08-.9a2.69,2.69,0,0,0,.65-.08,2.21,2.21,0,0,0,.54-.24,2.36,2.36,0,0,0,.42-.33,1.9,1.9,0,0,0,.28-.39v-1.39h-1.09a3.48,3.48,0,0,0-1.6.3,1,1,0,0,0-.57,1,1.19,1.19,0,0,0,.08.47,1.08,1.08,0,0,0,.26.37,1.14,1.14,0,0,0,.43.25A2.23,2.23,0,0,0,114,241.1Zm8.15-7.63v1.66h2.62V236h-2.62v3.73a1.75,1.75,0,0,0,.11.66,1.07,1.07,0,0,0,.28.42,1.11,1.11,0,0,0,.4.22,2,2,0,0,0,.5.06l.39,0,.39-.06.37-.06.28-.06.16.83a1.92,1.92,0,0,1-.35.16,3.11,3.11,0,0,1-.46.1,2.94,2.94,0,0,1-.53.08,4.89,4.89,0,0,1-.54,0,2.63,2.63,0,0,1-.86-.13,2,2,0,0,1-.69-.41,2.07,2.07,0,0,1-.46-.73,3.16,3.16,0,0,1-.17-1.09V236h-1.8v-.91h1.8v-1.66Zm9.55,8.53a1.27,1.27,0,0,1-.12-.33l-.06-.42a3.07,3.07,0,0,1-.88.62,3.07,3.07,0,0,1-.56.19,3.12,3.12,0,0,1-.63.07,3,3,0,0,1-1-.16,2.5,2.5,0,0,1-.75-.43,2,2,0,0,1-.48-.64,2,2,0,0,1-.16-.8,2.14,2.14,0,0,1,.22-1,2,2,0,0,1,.64-.7,3,3,0,0,1,1-.42,5.29,5.29,0,0,1,1.3-.14h1.28v-.54a1.25,1.25,0,0,0-.11-.56,1.12,1.12,0,0,0-.32-.42,1.35,1.35,0,0,0-.52-.27,2,2,0,0,0-.67-.1,2.08,2.08,0,0,0-.63.09,1.8,1.8,0,0,0-.46.23,1.1,1.1,0,0,0-.3.35.9.9,0,0,0-.1.42h-1.18a1.66,1.66,0,0,1,.19-.74,2.21,2.21,0,0,1,.54-.65,2.82,2.82,0,0,1,.86-.47,3.37,3.37,0,0,1,1.14-.17,3.83,3.83,0,0,1,1.09.14,2.4,2.4,0,0,1,.86.43,2,2,0,0,1,.58.72,2.28,2.28,0,0,1,.21,1v3.19a4.78,4.78,0,0,0,.06.73,2.82,2.82,0,0,0,.18.67v.1Zm-2.08-.9a2.61,2.61,0,0,0,.64-.08,2.21,2.21,0,0,0,.54-.24,2.12,2.12,0,0,0,.43-.33,1.83,1.83,0,0,0,.27-.39v-1.39h-1.09a3.51,3.51,0,0,0-1.6.3,1,1,0,0,0-.57,1,1.19,1.19,0,0,0,.09.47.94.94,0,0,0,.25.37,1.18,1.18,0,0,0,.44.25A2.13,2.13,0,0,0,129.58,241.1Zm10.51-2.66h-4.86v-1h4.86Zm4.72.35-.86.84V242h-1.18v-9.75H144v6l.77-.83,2.25-2.26h1.43L145.62,238l3.21,4h-1.5Zm8.79,3.34a3.58,3.58,0,0,1-1.33-.25,3.26,3.26,0,0,1-1-.69,3.14,3.14,0,0,1-.67-1.06,3.52,3.52,0,0,1-.24-1.32v-.27a4.12,4.12,0,0,1,.26-1.49,3.58,3.58,0,0,1,.71-1.11,3.2,3.2,0,0,1,1-.69,2.94,2.94,0,0,1,1.16-.24,3.06,3.06,0,0,1,1.29.25,2.46,2.46,0,0,1,.93.72,2.88,2.88,0,0,1,.54,1.06,4.43,4.43,0,0,1,.19,1.34v.52h-4.91a2.94,2.94,0,0,0,.18.89,2.62,2.62,0,0,0,.44.72,2.2,2.2,0,0,0,.68.48,2.12,2.12,0,0,0,.87.18,2.4,2.4,0,0,0,1.12-.26,2.31,2.31,0,0,0,.81-.67l.72.56a2.79,2.79,0,0,1-.43.5,2.85,2.85,0,0,1-.59.42,3.43,3.43,0,0,1-.76.29A3.48,3.48,0,0,1,153.6,242.13Zm-.15-6.16a1.75,1.75,0,0,0-.68.13,2,2,0,0,0-.57.38,2.2,2.2,0,0,0-.43.62,3.2,3.2,0,0,0-.24.84h3.7v-.09a2.65,2.65,0,0,0-.14-.68,1.82,1.82,0,0,0-.32-.6,1.7,1.7,0,0,0-.55-.44A1.65,1.65,0,0,0,153.45,236Zm7.45,3.59.3.83,2.1-5.26h1.31l-3.48,7.93a5.48,5.48,0,0,1-.31.57,3.87,3.87,0,0,1-.45.55,2.31,2.31,0,0,1-.63.42,1.75,1.75,0,0,1-.81.17h-.19l-.2,0-.19,0-.15,0,.19-1H159a.77.77,0,0,0,.44-.14,1.52,1.52,0,0,0,.35-.32,1.89,1.89,0,0,0,.27-.38,2.91,2.91,0,0,0,.18-.32l.47-.91-3-6.55H159Zm10.94-2.51h-5.67v-1h5.67Zm0,2.63h-5.67v-1h5.67Zm4.25-6.74-.13,2.35h-.83v-3h1Zm2.26,0-.13,2.35h-.82v-3h1Zm6.23.53v1.66h2.61V236h-2.61v3.73a1.76,1.76,0,0,0,.1.66,1,1,0,0,0,.28.42,1.2,1.2,0,0,0,.4.22,2,2,0,0,0,.5.06l.39,0,.4-.06L187,241l.28-.06.16.83a1.92,1.92,0,0,1-.35.16,3.11,3.11,0,0,1-.46.1,2.94,2.94,0,0,1-.53.08,4.89,4.89,0,0,1-.54,0,2.67,2.67,0,0,1-.86-.13,2,2,0,0,1-.69-.41,2.22,2.22,0,0,1-.46-.73,3.17,3.17,0,0,1-.16-1.09V236h-1.81v-.91h1.81v-1.66Zm8.06,8.66a3.63,3.63,0,0,1-1.34-.25,3.21,3.21,0,0,1-1-.69,3.14,3.14,0,0,1-.67-1.06,3.52,3.52,0,0,1-.24-1.32v-.27a4.12,4.12,0,0,1,.26-1.49,3.58,3.58,0,0,1,.71-1.11,3.09,3.09,0,0,1,1-.69,2.94,2.94,0,0,1,1.16-.24,3.06,3.06,0,0,1,1.29.25,2.54,2.54,0,0,1,.93.72,3,3,0,0,1,.54,1.06,4.43,4.43,0,0,1,.19,1.34v.52h-4.91a2.66,2.66,0,0,0,.18.89,2.62,2.62,0,0,0,.44.72,2.2,2.2,0,0,0,.68.48,2.05,2.05,0,0,0,.87.18,2.4,2.4,0,0,0,1.12-.26,2.51,2.51,0,0,0,.81-.67l.72.56a3.27,3.27,0,0,1-.43.5,2.85,2.85,0,0,1-.59.42,3.81,3.81,0,0,1-1.69.41Zm-.15-6.16a1.72,1.72,0,0,0-.68.13,2,2,0,0,0-.57.38,2.2,2.2,0,0,0-.43.62,3.2,3.2,0,0,0-.24.84h3.69v-.09a2.28,2.28,0,0,0-.13-.68,1.82,1.82,0,0,0-.32-.6,1.7,1.7,0,0,0-.55-.44A1.68,1.68,0,0,0,192.49,236Zm9.49,4.21a.79.79,0,0,0-.09-.38.89.89,0,0,0-.28-.31,2.3,2.3,0,0,0-.52-.25,5.87,5.87,0,0,0-.8-.22,7,7,0,0,1-1.08-.29,3.38,3.38,0,0,1-.83-.41,1.88,1.88,0,0,1-.54-.55,1.55,1.55,0,0,1-.19-.75,1.62,1.62,0,0,1,.2-.78,1.86,1.86,0,0,1,.55-.64,2.73,2.73,0,0,1,.85-.44,4.05,4.05,0,0,1,2.22,0,2.58,2.58,0,0,1,.87.46,2,2,0,0,1,.54.68,1.86,1.86,0,0,1,.2.84H201.9a.84.84,0,0,0-.11-.43,1.16,1.16,0,0,0-.32-.38,1.64,1.64,0,0,0-.49-.27,1.89,1.89,0,0,0-.65-.1,2.59,2.59,0,0,0-.66.08,1.86,1.86,0,0,0-.47.22,1.23,1.23,0,0,0-.28.33.85.85,0,0,0-.09.38.83.83,0,0,0,.07.36.78.78,0,0,0,.26.29,2.14,2.14,0,0,0,.5.22,6.63,6.63,0,0,0,.8.2,8.41,8.41,0,0,1,1.14.31,3.74,3.74,0,0,1,.85.42,1.62,1.62,0,0,1,.51.57,1.39,1.39,0,0,1,.19.75,1.68,1.68,0,0,1-.21.83,2,2,0,0,1-.57.64,2.86,2.86,0,0,1-.88.41,4.06,4.06,0,0,1-1.13.15,3.67,3.67,0,0,1-1.24-.19,3.16,3.16,0,0,1-.93-.49,2.33,2.33,0,0,1-.58-.72,1.91,1.91,0,0,1-.19-.84h1.17a1.29,1.29,0,0,0,.19.61,1.77,1.77,0,0,0,.42.4,1.8,1.8,0,0,0,.56.21,3.07,3.07,0,0,0,.6.07,2.21,2.21,0,0,0,1.18-.28A.86.86,0,0,0,202,240.18Zm6-6.71v1.66h2.61V236H208v3.73a1.76,1.76,0,0,0,.1.66,1.07,1.07,0,0,0,.28.42,1.16,1.16,0,0,0,.41.22,1.93,1.93,0,0,0,.49.06l.4,0,.39-.06.36-.06.28-.06.17.83a2,2,0,0,1-.36.16,8.12,8.12,0,0,1-1,.18l-.55,0a2.67,2.67,0,0,1-.86-.13,1.88,1.88,0,0,1-.68-.41,2.09,2.09,0,0,1-.47-.73,3.17,3.17,0,0,1-.16-1.09V236H205v-.91h1.8v-1.66ZM218.73,243h-5.82v-1h5.82Zm4.16-4.17-.86.84V242h-1.18v-9.75H222v6l.76-.83,2.26-2.26h1.43L223.7,238l3.2,4h-1.49Zm8.79,3.34a3.63,3.63,0,0,1-1.34-.25,3.21,3.21,0,0,1-1-.69,3.33,3.33,0,0,1-.68-1.06,3.52,3.52,0,0,1-.24-1.32v-.27a3.92,3.92,0,0,1,.27-1.49,3.41,3.41,0,0,1,.71-1.11,3.09,3.09,0,0,1,1-.69,2.89,2.89,0,0,1,1.15-.24,3.08,3.08,0,0,1,1.3.25,2.43,2.43,0,0,1,.92.72,2.89,2.89,0,0,1,.55,1.06,4.77,4.77,0,0,1,.19,1.34v.52h-4.91a2.66,2.66,0,0,0,.18.89,2.4,2.4,0,0,0,.44.72,2.2,2.2,0,0,0,.68.48,2.05,2.05,0,0,0,.87.18,2.4,2.4,0,0,0,1.12-.26,2.51,2.51,0,0,0,.81-.67l.72.56a3.27,3.27,0,0,1-.43.5,2.67,2.67,0,0,1-.6.42,3.09,3.09,0,0,1-.76.29A3.36,3.36,0,0,1,231.68,242.13Zm-.16-6.16a1.7,1.7,0,0,0-.67.13,2,2,0,0,0-.57.38,2.2,2.2,0,0,0-.43.62,2.59,2.59,0,0,0-.24.84h3.69v-.09a2.64,2.64,0,0,0-.13-.68,1.68,1.68,0,0,0-.33-.6,1.56,1.56,0,0,0-.54-.44A1.73,1.73,0,0,0,231.52,236Zm7.46,3.59.3.83,2.1-5.26h1.31l-3.49,7.93a4.08,4.08,0,0,1-.31.57,2.86,2.86,0,0,1-.45.55,2.26,2.26,0,0,1-.62.42,1.8,1.8,0,0,1-.82.17h-.18l-.21,0-.19,0-.14,0,.19-1H237a.74.74,0,0,0,.43-.14,1.38,1.38,0,0,0,.36-.32,2.4,2.4,0,0,0,.27-.38c.07-.13.13-.23.17-.32l.47-.91-2.95-6.55h1.31Zm7.38-6.62-.13,2.35h-.83v-3h1Zm2.26,0-.13,2.35h-.82v-3h.95ZM103.5,258.51a4.86,4.86,0,0,1,.19-1.41,3.39,3.39,0,0,1,.55-1.11,2.65,2.65,0,0,1,.87-.73,2.51,2.51,0,0,1,1.14-.25,2.56,2.56,0,0,1,1.07.2,2.34,2.34,0,0,1,.8.6v-3.56h1.17V262h-1.08l0-.72a2.18,2.18,0,0,1-.82.63,2.68,2.68,0,0,1-1.11.22,2.39,2.39,0,0,1-1.13-.27,2.5,2.5,0,0,1-.85-.74,3.68,3.68,0,0,1-.56-1.1,4.75,4.75,0,0,1-.19-1.38Zm1.17.13a4.12,4.12,0,0,0,.11.95,2.5,2.5,0,0,0,.33.8,1.66,1.66,0,0,0,.58.54,1.58,1.58,0,0,0,.84.2,1.9,1.9,0,0,0,.54-.07,1.54,1.54,0,0,0,.43-.2,1.73,1.73,0,0,0,.35-.31,2.33,2.33,0,0,0,.27-.4V257a2,2,0,0,0-.62-.69,1.62,1.62,0,0,0-1-.27,1.58,1.58,0,0,0-1.43.76,2.32,2.32,0,0,0-.33.8,4.12,4.12,0,0,0-.11.95ZM116,262a1.28,1.28,0,0,1-.11-.33,2.83,2.83,0,0,1-.06-.42,3.4,3.4,0,0,1-.4.34,3.18,3.18,0,0,1-.48.28,3.35,3.35,0,0,1-.56.19,3.22,3.22,0,0,1-.64.07,3.11,3.11,0,0,1-1-.16,2.5,2.5,0,0,1-.75-.43,1.87,1.87,0,0,1-.47-.64,2,2,0,0,1-.17-.8,2.07,2.07,0,0,1,.23-1,1.89,1.89,0,0,1,.64-.71,2.79,2.79,0,0,1,1-.42,5.24,5.24,0,0,1,1.3-.14h1.28v-.54a1.4,1.4,0,0,0-.11-.56,1.14,1.14,0,0,0-.33-.42,1.38,1.38,0,0,0-.51-.27,2.07,2.07,0,0,0-.68-.1,2,2,0,0,0-.62.09,1.87,1.87,0,0,0-.47.23,1.43,1.43,0,0,0-.3.35,1,1,0,0,0-.1.42h-1.18a1.8,1.8,0,0,1,.19-.74,2.21,2.21,0,0,1,.54-.65,3.08,3.08,0,0,1,.86-.47,3.43,3.43,0,0,1,1.15-.17,3.71,3.71,0,0,1,1.08.14,2.37,2.37,0,0,1,.87.43,2.05,2.05,0,0,1,.58.72,2.28,2.28,0,0,1,.2,1v3.19a4.85,4.85,0,0,0,.07.73,2.82,2.82,0,0,0,.18.67v.1Zm-2.08-.89a2.27,2.27,0,0,0,.65-.09,2.21,2.21,0,0,0,.54-.24,2.36,2.36,0,0,0,.42-.33,1.9,1.9,0,0,0,.28-.39v-1.39h-1.09a3.48,3.48,0,0,0-1.6.3,1,1,0,0,0-.57,1,1.19,1.19,0,0,0,.08.47,1.08,1.08,0,0,0,.26.37,1.14,1.14,0,0,0,.43.25A1.89,1.89,0,0,0,114,261.11Zm8.15-7.64v1.66h2.62V256h-2.62v3.73a1.75,1.75,0,0,0,.11.66,1.07,1.07,0,0,0,.28.42,1.11,1.11,0,0,0,.4.22,2,2,0,0,0,.5.06l.39,0c.14,0,.27,0,.39-.06l.37-.06.28-.06.16.83a1.92,1.92,0,0,1-.35.16,3.11,3.11,0,0,1-.46.1,4.21,4.21,0,0,1-.53.08l-.54,0a2.93,2.93,0,0,1-.86-.13,2,2,0,0,1-.69-.41,2.07,2.07,0,0,1-.46-.73,3.16,3.16,0,0,1-.17-1.09V256h-1.8v-.91h1.8v-1.66Zm9.55,8.53a1.27,1.27,0,0,1-.12-.33l-.06-.42a3.07,3.07,0,0,1-.88.62,3.07,3.07,0,0,1-.56.19,3.12,3.12,0,0,1-.63.07,3,3,0,0,1-1-.16,2.5,2.5,0,0,1-.75-.43,2,2,0,0,1-.48-.64,2,2,0,0,1-.16-.8,2.07,2.07,0,0,1,.22-1,2,2,0,0,1,.64-.71,3,3,0,0,1,1-.42,5.29,5.29,0,0,1,1.3-.14h1.28v-.54a1.25,1.25,0,0,0-.11-.56,1.12,1.12,0,0,0-.32-.42,1.35,1.35,0,0,0-.52-.27,2,2,0,0,0-.67-.1,2.08,2.08,0,0,0-.63.09,1.8,1.8,0,0,0-.46.23,1.1,1.1,0,0,0-.3.35.9.9,0,0,0-.1.42h-1.18a1.66,1.66,0,0,1,.19-.74,2.21,2.21,0,0,1,.54-.65,2.82,2.82,0,0,1,.86-.47,3.37,3.37,0,0,1,1.14-.17,3.83,3.83,0,0,1,1.09.14,2.4,2.4,0,0,1,.86.43,2,2,0,0,1,.58.72,2.28,2.28,0,0,1,.21,1v3.19a4.78,4.78,0,0,0,.06.73,2.82,2.82,0,0,0,.18.67v.1Zm-2.08-.89a2.23,2.23,0,0,0,1.18-.33,2.12,2.12,0,0,0,.43-.33,1.83,1.83,0,0,0,.27-.39v-1.39h-1.09a3.51,3.51,0,0,0-1.6.3,1,1,0,0,0-.57,1,1.19,1.19,0,0,0,.09.47.94.94,0,0,0,.25.37,1.18,1.18,0,0,0,.44.25A1.8,1.8,0,0,0,129.58,261.11Zm10.51-2.67h-4.86v-1h4.86Zm8.46.2a5.55,5.55,0,0,1-.17,1.38,3.41,3.41,0,0,1-.53,1.1,2.33,2.33,0,0,1-.85.74,2.35,2.35,0,0,1-1.15.27,2.82,2.82,0,0,1-1.11-.21,2.23,2.23,0,0,1-.81-.58v3.3h-1.18v-9.51h1.07l.06.75a2.29,2.29,0,0,1,.83-.65,2.65,2.65,0,0,1,1.13-.22,2.51,2.51,0,0,1,1.16.25,2.4,2.4,0,0,1,.85.73,3.36,3.36,0,0,1,.53,1.11,5.68,5.68,0,0,1,.17,1.41Zm-1.17-.13a3.64,3.64,0,0,0-.12-.95,2.15,2.15,0,0,0-.34-.8,1.72,1.72,0,0,0-.58-.56,1.75,1.75,0,0,0-.85-.2,1.59,1.59,0,0,0-1,.27,1.87,1.87,0,0,0-.61.67v3.31a2,2,0,0,0,.61.67,1.75,1.75,0,0,0,1,.25,1.59,1.59,0,0,0,.84-.21,1.64,1.64,0,0,0,.59-.55,2.65,2.65,0,0,0,.33-.81,3.71,3.71,0,0,0,.12-1Zm7.69-3.5h.34a1.69,1.69,0,0,1,.33,0l.3,0a1.63,1.63,0,0,1,.23.07l-.16,1.15a5.52,5.52,0,0,0-.65-.11c-.2,0-.42,0-.64,0a2.22,2.22,0,0,0-1.34.38,2.16,2.16,0,0,0-.75,1.05V262h-1.18v-6.87h1.12l.05,1.09a3.14,3.14,0,0,1,1-.88A2.69,2.69,0,0,1,155.07,255Zm3,3.49a4.32,4.32,0,0,1,.22-1.37,3.3,3.3,0,0,1,.62-1.12,2.86,2.86,0,0,1,1-.73,3,3,0,0,1,1.3-.27,3.07,3.07,0,0,1,1.31.27,2.86,2.86,0,0,1,1,.73,3.3,3.3,0,0,1,.62,1.12,4.06,4.06,0,0,1,.22,1.37v.14a4.08,4.08,0,0,1-.22,1.38,3.21,3.21,0,0,1-.62,1.1,2.77,2.77,0,0,1-1,.74,3,3,0,0,1-1.3.27,3.1,3.1,0,0,1-1.31-.27,2.77,2.77,0,0,1-1-.74,3.21,3.21,0,0,1-.62-1.1,4.34,4.34,0,0,1-.22-1.38Zm1.18.14a3.85,3.85,0,0,0,.12,1,2.5,2.5,0,0,0,.36.81,1.81,1.81,0,0,0,.62.55,1.67,1.67,0,0,0,.85.2,1.7,1.7,0,0,0,.85-.2,1.88,1.88,0,0,0,.61-.55,2.5,2.5,0,0,0,.36-.81,3.85,3.85,0,0,0,.13-1v-.14a3.83,3.83,0,0,0-.13-1,2.32,2.32,0,0,0-.37-.81,1.79,1.79,0,0,0-.61-.55,1.83,1.83,0,0,0-1.7,0,2,2,0,0,0-.61.55,2.5,2.5,0,0,0-.36.81,3.83,3.83,0,0,0-.12,1Zm6.74-.13a4.86,4.86,0,0,1,.19-1.41,3.39,3.39,0,0,1,.55-1.11,2.65,2.65,0,0,1,.87-.73,2.83,2.83,0,0,1,2.21,0,2.34,2.34,0,0,1,.8.6v-3.56h1.17V262h-1.07l-.06-.72a2.11,2.11,0,0,1-.82.63,2.68,2.68,0,0,1-1.11.22,2.39,2.39,0,0,1-1.13-.27,2.5,2.5,0,0,1-.85-.74,3.68,3.68,0,0,1-.56-1.1,4.75,4.75,0,0,1-.19-1.38Zm1.17.13a4.12,4.12,0,0,0,.11.95,2.5,2.5,0,0,0,.33.8,1.66,1.66,0,0,0,.58.54,1.58,1.58,0,0,0,.84.2,1.86,1.86,0,0,0,.54-.07,1.54,1.54,0,0,0,.43-.2,1.5,1.5,0,0,0,.35-.31,2.33,2.33,0,0,0,.27-.4V257a2,2,0,0,0-.62-.69,1.62,1.62,0,0,0-1-.27,1.58,1.58,0,0,0-1.43.76,2.32,2.32,0,0,0-.33.8,4.12,4.12,0,0,0-.11.95Zm11.31,2.41a2.41,2.41,0,0,1-.85.8,2.55,2.55,0,0,1-1.19.28,2.76,2.76,0,0,1-1-.17,1.87,1.87,0,0,1-.75-.53,2.56,2.56,0,0,1-.48-.9,4.58,4.58,0,0,1-.16-1.32v-4.08h1.17v4.1a3.91,3.91,0,0,0,.09.92,1.41,1.41,0,0,0,.27.59.94.94,0,0,0,.43.31,1.78,1.78,0,0,0,.59.09,2.1,2.1,0,0,0,1.16-.29,1.75,1.75,0,0,0,.66-.79v-4.93h1.18V262h-1.07Zm6.28.12a1.87,1.87,0,0,0,.62-.1,1.73,1.73,0,0,0,.54-.28,1.47,1.47,0,0,0,.37-.42,1,1,0,0,0,.15-.54h1.11a1.74,1.74,0,0,1-.24.88,2.36,2.36,0,0,1-.61.73,3.1,3.1,0,0,1-.89.5,2.87,2.87,0,0,1-1.05.19,3.2,3.2,0,0,1-1.36-.28,2.94,2.94,0,0,1-1-.75,3.26,3.26,0,0,1-.58-1.09,4.08,4.08,0,0,1-.2-1.31v-.27a4.06,4.06,0,0,1,.2-1.3,3.17,3.17,0,0,1,.58-1.09,2.84,2.84,0,0,1,1-.76,3.2,3.2,0,0,1,1.36-.27,3.1,3.1,0,0,1,1.12.19,2.59,2.59,0,0,1,.88.53,2.31,2.31,0,0,1,.59.79,2.28,2.28,0,0,1,.2,1H186.4a1.3,1.3,0,0,0-.14-.58,1.54,1.54,0,0,0-.34-.49,1.63,1.63,0,0,0-.54-.33,2,2,0,0,0-1.58.1,1.89,1.89,0,0,0-.59.57,2.21,2.21,0,0,0-.33.79,3.77,3.77,0,0,0-.1.88v.27a3.8,3.8,0,0,0,.1.89,2.36,2.36,0,0,0,.32.8,1.64,1.64,0,0,0,1.52.78Zm7.66-7.7v1.66H195V256h-2.62v3.73a1.75,1.75,0,0,0,.11.66,1.05,1.05,0,0,0,.27.42,1.25,1.25,0,0,0,.41.22,2,2,0,0,0,.5.06l.39,0c.14,0,.27,0,.39-.06l.37-.06.27-.06.17.83a2,2,0,0,1-.36.16,3,3,0,0,1-.45.1,4.21,4.21,0,0,1-.53.08,4.93,4.93,0,0,1-.55,0,2.91,2.91,0,0,1-.85-.13,2,2,0,0,1-.69-.41,2.07,2.07,0,0,1-.46-.73,3.16,3.16,0,0,1-.17-1.09V256h-1.8v-.91h1.8v-1.66Zm10.69,3.58H197.4v-1h5.67Zm0,2.63H197.4v-1h5.67Zm4.25-6.74-.13,2.35h-.83v-3h.95Zm2.27,0-.14,2.35h-.82v-3h1Zm6.22.53v1.66h2.61V256h-2.61v3.73a1.76,1.76,0,0,0,.1.66,1.07,1.07,0,0,0,.28.42,1.2,1.2,0,0,0,.4.22,2,2,0,0,0,.5.06l.39,0c.14,0,.27,0,.4-.06l.36-.06.28-.06.16.83a1.65,1.65,0,0,1-.35.16,2.85,2.85,0,0,1-.46.1,4,4,0,0,1-.53.08l-.54,0a3,3,0,0,1-.86-.13,2,2,0,0,1-.69-.41,2.07,2.07,0,0,1-.46-.73,3.17,3.17,0,0,1-.16-1.09V256h-1.81v-.91h1.81v-1.66Zm9.52,1.54h.35a1.69,1.69,0,0,1,.33,0l.3,0,.23.07-.16,1.15a5.89,5.89,0,0,0-.65-.11c-.21,0-.42,0-.64,0a2.22,2.22,0,0,0-1.34.38,2.16,2.16,0,0,0-.75,1.05V262h-1.18v-6.87h1.11l.06,1.09a3.21,3.21,0,0,1,1-.88A2.74,2.74,0,0,1,225.33,255Zm7.82,7a1.82,1.82,0,0,1-.11-.33c0-.13,0-.28-.06-.42a3.07,3.07,0,0,1-.88.62,3.07,3.07,0,0,1-.56.19,3.2,3.2,0,0,1-.63.07,3,3,0,0,1-1-.16,2.38,2.38,0,0,1-.75-.43,1.89,1.89,0,0,1-.48-.64,2,2,0,0,1-.16-.8,2.07,2.07,0,0,1,.22-1,2,2,0,0,1,.64-.71,3,3,0,0,1,1-.42,5.24,5.24,0,0,1,1.3-.14H233v-.54a1.25,1.25,0,0,0-.11-.56,1.12,1.12,0,0,0-.32-.42,1.43,1.43,0,0,0-.52-.27,2,2,0,0,0-.67-.1,2.08,2.08,0,0,0-.63.09,1.8,1.8,0,0,0-.46.23,1.1,1.1,0,0,0-.3.35.9.9,0,0,0-.1.42h-1.18a1.66,1.66,0,0,1,.19-.74,1.94,1.94,0,0,1,.54-.65,2.88,2.88,0,0,1,.85-.47,3.47,3.47,0,0,1,1.15-.17,3.83,3.83,0,0,1,1.09.14,2.4,2.4,0,0,1,.86.43,2,2,0,0,1,.58.72,2.28,2.28,0,0,1,.21,1v3.19a4.78,4.78,0,0,0,.06.73,2.82,2.82,0,0,0,.18.67v.1Zm-2.07-.89a2.23,2.23,0,0,0,1.18-.33,1.81,1.81,0,0,0,.42-.33,1.58,1.58,0,0,0,.28-.39v-1.39h-1.09a3.51,3.51,0,0,0-1.6.3,1,1,0,0,0-.57,1,1.4,1.4,0,0,0,.08.47,1.08,1.08,0,0,0,.26.37,1.18,1.18,0,0,0,.44.25A1.8,1.8,0,0,0,231.08,261.11Zm6.42-6,.09,1a2.52,2.52,0,0,1,.92-.83,2.38,2.38,0,0,1,1.22-.31,3,3,0,0,1,1,.15,1.92,1.92,0,0,1,.76.47,2.23,2.23,0,0,1,.47.83,3.46,3.46,0,0,1,.17,1.18V262h-1.17v-4.33a2.51,2.51,0,0,0-.1-.78,1.19,1.19,0,0,0-.31-.51,1.07,1.07,0,0,0-.48-.29,2.24,2.24,0,0,0-.66-.09,1.85,1.85,0,0,0-1,.3,2.2,2.2,0,0,0-.71.77V262h-1.17v-6.87Zm11.32,5.05a.92.92,0,0,0-.08-.38,1,1,0,0,0-.28-.31,2.53,2.53,0,0,0-.52-.25,6.51,6.51,0,0,0-.81-.22,7.69,7.69,0,0,1-1.08-.29,3.77,3.77,0,0,1-.83-.4,2,2,0,0,1-.53-.56,1.44,1.44,0,0,1-.19-.75,1.51,1.51,0,0,1,.2-.78,1.86,1.86,0,0,1,.55-.64,2.57,2.57,0,0,1,.84-.44,4.09,4.09,0,0,1,2.23,0,2.44,2.44,0,0,1,.86.46,2,2,0,0,1,.55.68,1.86,1.86,0,0,1,.2.84h-1.18a1,1,0,0,0-.11-.43,1.27,1.27,0,0,0-.32-.38,1.7,1.7,0,0,0-.5-.27,1.83,1.83,0,0,0-.64-.1,2.59,2.59,0,0,0-.66.08,1.58,1.58,0,0,0-.47.22,1,1,0,0,0-.28.33.75.75,0,0,0-.1.38.86.86,0,0,0,.08.36.78.78,0,0,0,.26.29,2.36,2.36,0,0,0,.5.23c.21.06.48.13.8.19a9.31,9.31,0,0,1,1.14.31,3.66,3.66,0,0,1,.84.42,1.65,1.65,0,0,1,.52.57,1.49,1.49,0,0,1,.18.75,1.67,1.67,0,0,1-.2.83,2,2,0,0,1-.58.64,2.66,2.66,0,0,1-.88.41,3.94,3.94,0,0,1-1.12.15,3.73,3.73,0,0,1-1.25-.19,3,3,0,0,1-.92-.49,2.33,2.33,0,0,1-.58-.72,1.92,1.92,0,0,1-.2-.84h1.18a1.19,1.19,0,0,0,.19.61,1.46,1.46,0,0,0,.42.4,1.74,1.74,0,0,0,.55.21,3.23,3.23,0,0,0,.61.06,2.18,2.18,0,0,0,1.17-.27A.82.82,0,0,0,248.82,260.18Zm7.76,1.82a1.27,1.27,0,0,1-.12-.33c0-.13,0-.28,0-.42a4.47,4.47,0,0,1-.4.34,3.3,3.3,0,0,1-.49.28,3.07,3.07,0,0,1-.56.19,3,3,0,0,1-1.62-.09,2.5,2.5,0,0,1-.75-.43,1.87,1.87,0,0,1-.47-.64,2,2,0,0,1-.17-.8,2.07,2.07,0,0,1,.22-1,2,2,0,0,1,.64-.71,3,3,0,0,1,1-.42,5.29,5.29,0,0,1,1.3-.14h1.29v-.54a1.25,1.25,0,0,0-.12-.56,1,1,0,0,0-.32-.42,1.35,1.35,0,0,0-.52-.27,2,2,0,0,0-.67-.1,2.08,2.08,0,0,0-.63.09,1.8,1.8,0,0,0-.46.23,1.1,1.1,0,0,0-.3.35.9.9,0,0,0-.1.42h-1.18a1.66,1.66,0,0,1,.19-.74,2.21,2.21,0,0,1,.54-.65,2.94,2.94,0,0,1,.86-.47,3.39,3.39,0,0,1,1.15-.17,3.76,3.76,0,0,1,1.08.14,2.4,2.4,0,0,1,.86.43,2,2,0,0,1,.58.72,2.28,2.28,0,0,1,.21,1v3.19a4.78,4.78,0,0,0,.06.73,4.27,4.27,0,0,0,.18.67v.1Zm-2.08-.89a2.23,2.23,0,0,0,1.18-.33,2.12,2.12,0,0,0,.43-.33,1.9,1.9,0,0,0,.28-.39v-1.39h-1.1a3.46,3.46,0,0,0-1.59.3,1,1,0,0,0-.58,1,1.19,1.19,0,0,0,.09.47,1,1,0,0,0,.26.37,1.14,1.14,0,0,0,.43.25A1.8,1.8,0,0,0,254.5,261.11Zm8.3.06a1.81,1.81,0,0,0,.61-.1,1.54,1.54,0,0,0,.54-.28,1.51,1.51,0,0,0,.38-.42,1.12,1.12,0,0,0,.15-.54h1.11a1.74,1.74,0,0,1-.24.88,2.39,2.39,0,0,1-.62.73,3.09,3.09,0,0,1-1.93.69,3.25,3.25,0,0,1-1.37-.28,2.9,2.9,0,0,1-1-.75,3.29,3.29,0,0,1-.59-1.09,4.38,4.38,0,0,1-.2-1.31v-.27a4.36,4.36,0,0,1,.2-1.3,3.19,3.19,0,0,1,.59-1.09,2.81,2.81,0,0,1,1-.76,3.25,3.25,0,0,1,1.37-.27,3.14,3.14,0,0,1,1.12.19,2.69,2.69,0,0,1,.88.53,2.37,2.37,0,0,1,.79,1.76h-1.11a1.3,1.3,0,0,0-.14-.58,1.42,1.42,0,0,0-.35-.49,1.59,1.59,0,0,0-.53-.33,1.76,1.76,0,0,0-.66-.12,1.74,1.74,0,0,0-.92.22,1.82,1.82,0,0,0-.6.57,2.64,2.64,0,0,0-.33.79,4.38,4.38,0,0,0-.09.88v.27a4.41,4.41,0,0,0,.09.89,2.85,2.85,0,0,0,.32.8,2,2,0,0,0,.6.57A1.88,1.88,0,0,0,262.8,261.17Zm7.66-7.7v1.66h2.62V256h-2.62v3.73a1.76,1.76,0,0,0,.1.66,1.07,1.07,0,0,0,.28.42,1.25,1.25,0,0,0,.41.22,1.93,1.93,0,0,0,.49.06l.4,0,.39-.06.36-.06.28-.06.16.83a1.65,1.65,0,0,1-.35.16,2.85,2.85,0,0,1-.46.1,4,4,0,0,1-.52.08l-.55,0a3,3,0,0,1-.86-.13,1.88,1.88,0,0,1-.68-.41,2.09,2.09,0,0,1-.47-.73,3.17,3.17,0,0,1-.16-1.09V256h-1.8v-.91h1.8v-1.66Zm5.21,1.66h3.51V261h2.24v1h-5.75v-1H278v-4.83h-2.34Zm2.19-1.8a.68.68,0,0,1,.17-.49.66.66,0,0,1,.53-.2.69.69,0,0,1,.53.2.73.73,0,0,1,.17.49.68.68,0,0,1-.17.47.69.69,0,0,1-.53.2.66.66,0,0,1-.53-.2A.63.63,0,0,1,277.86,253.33Zm5.1,5.17a4.32,4.32,0,0,1,.22-1.37,3.48,3.48,0,0,1,.62-1.12,2.86,2.86,0,0,1,1-.73,3.29,3.29,0,0,1,2.61,0,2.77,2.77,0,0,1,1,.73,3.3,3.3,0,0,1,.62,1.12,4.06,4.06,0,0,1,.22,1.37v.14A4.08,4.08,0,0,1,289,260a3.21,3.21,0,0,1-.62,1.1,2.73,2.73,0,0,1-1,.74,3.07,3.07,0,0,1-1.31.27,3.1,3.1,0,0,1-1.31-.27,2.77,2.77,0,0,1-1-.74,3.38,3.38,0,0,1-.62-1.1,4.34,4.34,0,0,1-.22-1.38Zm1.18.14a3.85,3.85,0,0,0,.12,1,2.5,2.5,0,0,0,.36.81,1.81,1.81,0,0,0,.62.55,1.67,1.67,0,0,0,.85.2,1.65,1.65,0,0,0,.85-.2,1.78,1.78,0,0,0,.61-.55,2.51,2.51,0,0,0,.37-.81,3.85,3.85,0,0,0,.12-1v-.14a3.83,3.83,0,0,0-.13-1,2.32,2.32,0,0,0-.37-.81,1.79,1.79,0,0,0-.61-.55,1.65,1.65,0,0,0-.85-.21,1.67,1.67,0,0,0-.85.21,2,2,0,0,0-.61.55,2.5,2.5,0,0,0-.36.81,3.83,3.83,0,0,0-.12,1Zm8-3.51.08,1a2.6,2.6,0,0,1,.92-.83,2.38,2.38,0,0,1,1.22-.31,3.05,3.05,0,0,1,1,.15,2,2,0,0,1,.75.47,2.11,2.11,0,0,1,.48.83,3.72,3.72,0,0,1,.17,1.18V262h-1.18v-4.33a2.51,2.51,0,0,0-.1-.78,1.17,1.17,0,0,0-.3-.51,1.11,1.11,0,0,0-.49-.29A2.19,2.19,0,0,0,294,256a1.84,1.84,0,0,0-1,.3,2,2,0,0,0-.71.77V262H291.1v-6.87Zm11.31,5.05a.79.79,0,0,0-.08-.38.89.89,0,0,0-.28-.31,2.3,2.3,0,0,0-.52-.25,5.87,5.87,0,0,0-.8-.22,7,7,0,0,1-1.08-.29,3.77,3.77,0,0,1-.83-.4,2,2,0,0,1-.54-.56,1.44,1.44,0,0,1-.19-.75,1.62,1.62,0,0,1,.2-.78,1.86,1.86,0,0,1,.55-.64,2.79,2.79,0,0,1,.84-.44,3.83,3.83,0,0,1,1.09-.15,3.7,3.7,0,0,1,1.14.16,2.58,2.58,0,0,1,.87.46,2,2,0,0,1,.54.68,1.86,1.86,0,0,1,.2.84H303.4a.84.84,0,0,0-.11-.43,1.27,1.27,0,0,0-.32-.38,1.64,1.64,0,0,0-.49-.27,1.89,1.89,0,0,0-.65-.1,2.59,2.59,0,0,0-.66.08,1.71,1.71,0,0,0-.47.22,1.07,1.07,0,0,0-.28.33.9.9,0,0,0,0,.74.78.78,0,0,0,.26.29,2.62,2.62,0,0,0,.5.23c.22.06.48.13.8.19a8.41,8.41,0,0,1,1.14.31,3.66,3.66,0,0,1,.84.42,1.56,1.56,0,0,1,.52.57,1.39,1.39,0,0,1,.19.75,1.68,1.68,0,0,1-.21.83,2,2,0,0,1-.57.64,2.81,2.81,0,0,1-.89.41,3.94,3.94,0,0,1-1.12.15,3.67,3.67,0,0,1-1.24-.19,3,3,0,0,1-.93-.49,2.33,2.33,0,0,1-.58-.72,1.91,1.91,0,0,1-.19-.84h1.17a1.29,1.29,0,0,0,.19.61,1.77,1.77,0,0,0,.42.4,1.8,1.8,0,0,0,.56.21,3.05,3.05,0,0,0,.6.06,2.22,2.22,0,0,0,1.18-.27A.83.83,0,0,0,303.47,260.18Zm5.35-7.24-.13,2.35h-.83v-3h.95Zm2.26,0-.13,2.35h-.82v-3h.95ZM103.5,278.51a4.86,4.86,0,0,1,.19-1.41,3.39,3.39,0,0,1,.55-1.11,2.51,2.51,0,0,1,.87-.72,2.39,2.39,0,0,1,1.14-.26,2.72,2.72,0,0,1,1.07.2,2.34,2.34,0,0,1,.8.6v-3.56h1.17V282h-1.08l0-.72a2.18,2.18,0,0,1-.82.63,2.68,2.68,0,0,1-1.11.22,2.39,2.39,0,0,1-1.13-.27,2.5,2.5,0,0,1-.85-.74,3.68,3.68,0,0,1-.56-1.1,4.75,4.75,0,0,1-.19-1.38Zm1.17.13a4.12,4.12,0,0,0,.11.95,2.5,2.5,0,0,0,.33.8,1.66,1.66,0,0,0,.58.54,1.58,1.58,0,0,0,.84.2,1.9,1.9,0,0,0,.54-.07,1.54,1.54,0,0,0,.43-.2,1.73,1.73,0,0,0,.35-.31,2.33,2.33,0,0,0,.27-.4V277a2,2,0,0,0-.62-.69,1.62,1.62,0,0,0-1-.27,1.58,1.58,0,0,0-1.43.76,2.32,2.32,0,0,0-.33.8,4.12,4.12,0,0,0-.11.95ZM116,282a1.28,1.28,0,0,1-.11-.33,2.83,2.83,0,0,1-.06-.42,3.4,3.4,0,0,1-.4.34,3.18,3.18,0,0,1-.48.28,3.35,3.35,0,0,1-.56.19,3.22,3.22,0,0,1-.64.07,3.11,3.11,0,0,1-1-.16,2.5,2.5,0,0,1-.75-.43,1.87,1.87,0,0,1-.47-.64,2,2,0,0,1-.17-.8,2.07,2.07,0,0,1,.23-1,1.89,1.89,0,0,1,.64-.71,2.79,2.79,0,0,1,1-.42,5.24,5.24,0,0,1,1.3-.14h1.28v-.54a1.4,1.4,0,0,0-.11-.56,1.14,1.14,0,0,0-.33-.42,1.38,1.38,0,0,0-.51-.27,2.07,2.07,0,0,0-.68-.1,2,2,0,0,0-.62.09,1.87,1.87,0,0,0-.47.23,1.43,1.43,0,0,0-.3.35,1,1,0,0,0-.1.42h-1.18a1.8,1.8,0,0,1,.19-.74,2.21,2.21,0,0,1,.54-.65,3.08,3.08,0,0,1,.86-.47,3.43,3.43,0,0,1,1.15-.17,3.71,3.71,0,0,1,1.08.14,2.37,2.37,0,0,1,.87.43,2.05,2.05,0,0,1,.58.72,2.28,2.28,0,0,1,.2,1v3.19a4.85,4.85,0,0,0,.07.73,2.82,2.82,0,0,0,.18.67v.1Zm-2.08-.89a2.27,2.27,0,0,0,.65-.09,2.21,2.21,0,0,0,.54-.24,2.36,2.36,0,0,0,.42-.33,1.9,1.9,0,0,0,.28-.39v-1.39h-1.09a3.48,3.48,0,0,0-1.6.3,1,1,0,0,0-.57,1,1.19,1.19,0,0,0,.08.47,1.08,1.08,0,0,0,.26.37,1.14,1.14,0,0,0,.43.25A1.89,1.89,0,0,0,114,281.11Zm8.15-7.64v1.66h2.62V276h-2.62v3.73a1.75,1.75,0,0,0,.11.66,1.07,1.07,0,0,0,.28.42,1.11,1.11,0,0,0,.4.22,2,2,0,0,0,.5.06l.39,0c.14,0,.27,0,.39-.06l.37-.06.28-.06.16.83a1.92,1.92,0,0,1-.35.16,3.11,3.11,0,0,1-.46.1,4.21,4.21,0,0,1-.53.08l-.54,0a2.93,2.93,0,0,1-.86-.13,2,2,0,0,1-.69-.41,2.07,2.07,0,0,1-.46-.73,3.16,3.16,0,0,1-.17-1.09V276h-1.8v-.91h1.8v-1.66Zm9.55,8.53a1.27,1.27,0,0,1-.12-.33l-.06-.42a3.07,3.07,0,0,1-.88.62,3.07,3.07,0,0,1-.56.19,3.12,3.12,0,0,1-.63.07,3,3,0,0,1-1-.16,2.5,2.5,0,0,1-.75-.43,2,2,0,0,1-.48-.64,2,2,0,0,1-.16-.8,2.07,2.07,0,0,1,.22-1,2,2,0,0,1,.64-.71,3,3,0,0,1,1-.42,5.29,5.29,0,0,1,1.3-.14h1.28v-.54a1.25,1.25,0,0,0-.11-.56,1.12,1.12,0,0,0-.32-.42,1.35,1.35,0,0,0-.52-.27,2,2,0,0,0-.67-.1,2.08,2.08,0,0,0-.63.09,1.8,1.8,0,0,0-.46.23,1.1,1.1,0,0,0-.3.35.9.9,0,0,0-.1.42h-1.18a1.66,1.66,0,0,1,.19-.74,2.21,2.21,0,0,1,.54-.65,2.82,2.82,0,0,1,.86-.47,3.37,3.37,0,0,1,1.14-.17,3.83,3.83,0,0,1,1.09.14,2.4,2.4,0,0,1,.86.43,2,2,0,0,1,.58.72,2.28,2.28,0,0,1,.21,1v3.19a4.78,4.78,0,0,0,.06.73,2.82,2.82,0,0,0,.18.67v.1Zm-2.08-.89a2.23,2.23,0,0,0,1.18-.33,2.12,2.12,0,0,0,.43-.33,1.83,1.83,0,0,0,.27-.39v-1.39h-1.09a3.51,3.51,0,0,0-1.6.3,1,1,0,0,0-.57,1,1.19,1.19,0,0,0,.09.47.94.94,0,0,0,.25.37,1.18,1.18,0,0,0,.44.25A1.8,1.8,0,0,0,129.58,281.11Zm10.51-2.67h-4.86v-1h4.86Zm5.7,3.69a3.62,3.62,0,0,1-1.33-.25,3.26,3.26,0,0,1-1-.69,3.3,3.3,0,0,1-.67-1.06,3.52,3.52,0,0,1-.24-1.32v-.27a3.92,3.92,0,0,1,.27-1.49,3.45,3.45,0,0,1,.7-1.11,3.2,3.2,0,0,1,1-.69,2.81,2.81,0,0,1,1.16-.24,2.89,2.89,0,0,1,1.29.26,2.27,2.27,0,0,1,.93.71,2.89,2.89,0,0,1,.55,1.06,4.77,4.77,0,0,1,.18,1.34v.52h-4.91a3.27,3.27,0,0,0,.18.89,2.43,2.43,0,0,0,.45.72,2.09,2.09,0,0,0,.68.48,2,2,0,0,0,.86.18,2.5,2.5,0,0,0,1.12-.25,2.6,2.6,0,0,0,.82-.68l.71.56a2.79,2.79,0,0,1-.43.5,2.61,2.61,0,0,1-.59.42,3.25,3.25,0,0,1-.76.29A3.43,3.43,0,0,1,145.79,282.13Zm-.15-6.16a1.67,1.67,0,0,0-.67.13,2,2,0,0,0-.57.38,2.23,2.23,0,0,0-.44.62,3.2,3.2,0,0,0-.24.84h3.7v-.09a2.65,2.65,0,0,0-.14-.68,1.82,1.82,0,0,0-.32-.6,1.47,1.47,0,0,0-.55-.43A1.54,1.54,0,0,0,145.64,276Zm6-.84.08,1a2.69,2.69,0,0,1,.92-.83,2.41,2.41,0,0,1,1.22-.31,3,3,0,0,1,1,.15,1.81,1.81,0,0,1,.75.47,2.11,2.11,0,0,1,.48.83,3.72,3.72,0,0,1,.17,1.18V282h-1.17v-4.33a2.85,2.85,0,0,0-.1-.78,1.19,1.19,0,0,0-.31-.51,1.05,1.05,0,0,0-.49-.29,2.19,2.19,0,0,0-.66-.09,1.84,1.84,0,0,0-1,.3,2.11,2.11,0,0,0-.71.77V282h-1.17v-6.87Zm9.44,5.18.11.43.12-.43,1.92-5.18h1.2l-2.8,6.87h-.9l-2.82-6.87h1.21Zm10.78-3.26h-5.67v-1h5.67Zm0,2.63h-5.67v-1h5.67Zm4.25-6.74-.13,2.35h-.83v-3h1Zm2.26,0-.13,2.35h-.82v-3h1Zm8,7.24a.92.92,0,0,0-.08-.38,1,1,0,0,0-.28-.31,2.53,2.53,0,0,0-.52-.25,6.51,6.51,0,0,0-.81-.22,7.69,7.69,0,0,1-1.08-.29,3.77,3.77,0,0,1-.83-.4,1.86,1.86,0,0,1-.53-.56A1.44,1.44,0,0,1,182,277a1.61,1.61,0,0,1,.19-.78,2,2,0,0,1,.56-.64,2.57,2.57,0,0,1,.84-.44,4.09,4.09,0,0,1,2.23,0,2.44,2.44,0,0,1,.86.46,2,2,0,0,1,.55.68,1.85,1.85,0,0,1,.19.84h-1.17a1,1,0,0,0-.11-.43,1.44,1.44,0,0,0-.32-.38,1.7,1.7,0,0,0-.5-.27,1.83,1.83,0,0,0-.64-.1,2.59,2.59,0,0,0-.66.08,1.58,1.58,0,0,0-.47.22,1,1,0,0,0-.28.33.75.75,0,0,0-.1.38.86.86,0,0,0,.08.36.78.78,0,0,0,.26.29,2.36,2.36,0,0,0,.5.23c.21.06.48.13.8.19a9.31,9.31,0,0,1,1.14.31,3.66,3.66,0,0,1,.84.42,1.65,1.65,0,0,1,.52.57,1.49,1.49,0,0,1,.18.75,1.68,1.68,0,0,1-.21.83,1.82,1.82,0,0,1-.57.64,2.75,2.75,0,0,1-.88.41,4,4,0,0,1-1.12.15,3.73,3.73,0,0,1-1.25-.19,3,3,0,0,1-.92-.49,2.2,2.2,0,0,1-.58-.72,1.92,1.92,0,0,1-.2-.84H183a1.19,1.19,0,0,0,.19.61,1.46,1.46,0,0,0,.42.4,1.71,1.71,0,0,0,.56.21,3.05,3.05,0,0,0,.6.06,2.2,2.2,0,0,0,1.17-.27A.82.82,0,0,0,186.36,280.18Zm7.76,1.82a1.27,1.27,0,0,1-.12-.33c0-.13,0-.28-.05-.42a3.53,3.53,0,0,1-.41.34,2.75,2.75,0,0,1-.48.28,3.07,3.07,0,0,1-.56.19,3,3,0,0,1-1.62-.09,2.5,2.5,0,0,1-.75-.43,2,2,0,0,1-.48-.64,2,2,0,0,1-.16-.8,2.07,2.07,0,0,1,.22-1,2,2,0,0,1,.64-.71,3,3,0,0,1,1-.42,5.29,5.29,0,0,1,1.3-.14h1.29v-.54a1.25,1.25,0,0,0-.12-.56,1,1,0,0,0-.32-.42,1.35,1.35,0,0,0-.52-.27,2,2,0,0,0-.67-.1,2.08,2.08,0,0,0-.63.09,1.8,1.8,0,0,0-.46.23,1.1,1.1,0,0,0-.3.35.9.9,0,0,0-.1.42h-1.18a1.66,1.66,0,0,1,.19-.74,2.21,2.21,0,0,1,.54-.65,2.94,2.94,0,0,1,.86-.47,3.39,3.39,0,0,1,1.15-.17,3.76,3.76,0,0,1,1.08.14,2.32,2.32,0,0,1,.86.43,2,2,0,0,1,.58.72,2.28,2.28,0,0,1,.21,1v3.19a4.78,4.78,0,0,0,.06.73,4.27,4.27,0,0,0,.18.67v.1Zm-2.08-.89a2.23,2.23,0,0,0,1.18-.33,2.12,2.12,0,0,0,.43-.33,2.37,2.37,0,0,0,.28-.39v-1.39h-1.1a3.46,3.46,0,0,0-1.59.3,1,1,0,0,0-.58,1,1.19,1.19,0,0,0,.09.47.86.86,0,0,0,.26.37,1.06,1.06,0,0,0,.43.25A1.8,1.8,0,0,0,192,281.11Zm6.42-6,.09,1a2.61,2.61,0,0,1,.92-.83,2.38,2.38,0,0,1,1.22-.31,3,3,0,0,1,1,.15,1.92,1.92,0,0,1,.76.47,2.11,2.11,0,0,1,.48.83,3.72,3.72,0,0,1,.17,1.18V282h-1.18v-4.33a2.51,2.51,0,0,0-.1-.78,1.28,1.28,0,0,0-.3-.51,1.16,1.16,0,0,0-.49-.29,2.19,2.19,0,0,0-.66-.09,1.82,1.82,0,0,0-1,.3,2,2,0,0,0-.71.77V282h-1.18v-6.87Zm6.54,3.38a4.86,4.86,0,0,1,.19-1.41,3.39,3.39,0,0,1,.55-1.11,2.51,2.51,0,0,1,.87-.72,2.38,2.38,0,0,1,1.13-.26,2.74,2.74,0,0,1,1.08.2,2.34,2.34,0,0,1,.8.6v-3.56h1.17V282h-1.08l-.05-.72a2.18,2.18,0,0,1-.82.63,2.68,2.68,0,0,1-1.11.22,2.39,2.39,0,0,1-1.13-.27,2.5,2.5,0,0,1-.85-.74,3.46,3.46,0,0,1-.56-1.1,4.75,4.75,0,0,1-.19-1.38Zm1.17.13a4.12,4.12,0,0,0,.11.95,2.5,2.5,0,0,0,.33.8,1.62,1.62,0,0,0,1.41.74,1.81,1.81,0,0,0,.54-.07,1.48,1.48,0,0,0,.44-.2,1.73,1.73,0,0,0,.35-.31,2.33,2.33,0,0,0,.27-.4V277a2.06,2.06,0,0,0-.62-.69,1.65,1.65,0,0,0-1-.27,1.72,1.72,0,0,0-.85.2,1.64,1.64,0,0,0-.58.56,2.32,2.32,0,0,0-.33.8,4.12,4.12,0,0,0-.11.95Zm12.68,0a5.11,5.11,0,0,1-.18,1.38,3.39,3.39,0,0,1-.52,1.1,2.4,2.4,0,0,1-2,1,2.6,2.6,0,0,1-1.15-.24,2.29,2.29,0,0,1-.82-.67l-.06.78H213v-9.75h1.18v3.62a2.2,2.2,0,0,1,.81-.64,2.59,2.59,0,0,1,1.11-.22,2.46,2.46,0,0,1,1.17.26,2.36,2.36,0,0,1,.85.72,3.35,3.35,0,0,1,.52,1.11,5.23,5.23,0,0,1,.18,1.41Zm-1.18-.13a4.13,4.13,0,0,0-.1-.95,2.31,2.31,0,0,0-.31-.8,1.58,1.58,0,0,0-.56-.56,1.76,1.76,0,0,0-.86-.2,1.94,1.94,0,0,0-.56.08,1.8,1.8,0,0,0-.46.23,1.56,1.56,0,0,0-.35.33,2.26,2.26,0,0,0-.26.42v3a2.05,2.05,0,0,0,.26.43,2,2,0,0,0,.37.34,1.57,1.57,0,0,0,.45.22,1.69,1.69,0,0,0,.56.08,1.57,1.57,0,0,0,.83-.2,1.53,1.53,0,0,0,.56-.54,2.5,2.5,0,0,0,.33-.8,4.13,4.13,0,0,0,.1-.95Zm2.83,0a4.32,4.32,0,0,1,.22-1.37,3.3,3.3,0,0,1,.62-1.12,2.86,2.86,0,0,1,1-.73,3,3,0,0,1,1.3-.27,3.07,3.07,0,0,1,1.31.27,2.77,2.77,0,0,1,1,.73,3.3,3.3,0,0,1,.62,1.12,4.06,4.06,0,0,1,.22,1.37v.14a4.08,4.08,0,0,1-.22,1.38,3.21,3.21,0,0,1-.62,1.1,2.68,2.68,0,0,1-1,.74,3,3,0,0,1-1.3.27,3.1,3.1,0,0,1-1.31-.27,2.77,2.77,0,0,1-1-.74,3.21,3.21,0,0,1-.62-1.1,4.34,4.34,0,0,1-.22-1.38Zm1.18.14a3.85,3.85,0,0,0,.12,1,2.5,2.5,0,0,0,.36.81,1.81,1.81,0,0,0,.62.55,1.67,1.67,0,0,0,.85.2,1.65,1.65,0,0,0,.85-.2,1.78,1.78,0,0,0,.61-.55,2.51,2.51,0,0,0,.37-.81,3.85,3.85,0,0,0,.12-1v-.14a3.83,3.83,0,0,0-.13-1,2.32,2.32,0,0,0-.37-.81,1.79,1.79,0,0,0-.61-.55,1.83,1.83,0,0,0-1.7,0,2,2,0,0,0-.61.55,2.5,2.5,0,0,0-.36.81,3.83,3.83,0,0,0-.12,1Zm9.8-1,1.83-2.55h1.38l-2.56,3.4,2.63,3.47H233.4l-1.9-2.61L229.61,282h-1.37l2.62-3.47-2.56-3.4h1.36Zm7.07-4.74-.13,2.35h-.83v-3h1Zm2.27,0-.14,2.35h-.82v-3h.95Zm3.46,3.29V275l5.61,2.4v.92l-5.61,2.41v-1.22l4.11-1.55.38-.11-.38-.12ZM89.58,297.79l-.34.11.34.11,3.88,1.5v1.25l-5.38-2.41v-.93l5.38-2.4v1.25Zm7.88,5h-1l3.86-10h1Zm10.82-2.61a.79.79,0,0,0-.08-.38.89.89,0,0,0-.28-.31,2.3,2.3,0,0,0-.52-.25,5.87,5.87,0,0,0-.8-.22,7,7,0,0,1-1.08-.29,3.86,3.86,0,0,1-.84-.4,2.15,2.15,0,0,1-.53-.56A1.44,1.44,0,0,1,104,297a1.62,1.62,0,0,1,.2-.78,1.86,1.86,0,0,1,.55-.64,2.79,2.79,0,0,1,.84-.44,3.78,3.78,0,0,1,1.09-.15,3.7,3.7,0,0,1,1.14.16,2.58,2.58,0,0,1,.87.46,2.09,2.09,0,0,1,.54.68,1.86,1.86,0,0,1,.2.84h-1.18a.84.84,0,0,0-.11-.43,1.27,1.27,0,0,0-.32-.38,1.64,1.64,0,0,0-.49-.27,1.89,1.89,0,0,0-.65-.1,2.59,2.59,0,0,0-.66.08,1.71,1.71,0,0,0-.47.22,1.07,1.07,0,0,0-.28.33.9.9,0,0,0,0,.74.78.78,0,0,0,.26.29,2.62,2.62,0,0,0,.5.23c.21.06.48.13.8.19a8.84,8.84,0,0,1,1.14.31,3.46,3.46,0,0,1,.84.42,1.65,1.65,0,0,1,.52.57,1.39,1.39,0,0,1,.19.75,1.68,1.68,0,0,1-.21.83,2,2,0,0,1-.57.64,2.81,2.81,0,0,1-.89.41,3.94,3.94,0,0,1-1.12.15,3.67,3.67,0,0,1-1.24-.19,2.92,2.92,0,0,1-.93-.49,2.33,2.33,0,0,1-.58-.72,1.91,1.91,0,0,1-.19-.84h1.17a1.29,1.29,0,0,0,.19.61,1.77,1.77,0,0,0,.42.4,1.71,1.71,0,0,0,.56.21,3.05,3.05,0,0,0,.6.06,2.22,2.22,0,0,0,1.18-.27A.83.83,0,0,0,108.28,300.18Zm6.17,1a1.83,1.83,0,0,0,.62-.1,1.73,1.73,0,0,0,.54-.28,1.47,1.47,0,0,0,.37-.42,1.13,1.13,0,0,0,.16-.54h1.11a1.86,1.86,0,0,1-.25.88,2.36,2.36,0,0,1-.61.73,3.1,3.1,0,0,1-.89.5,2.84,2.84,0,0,1-1,.19,3.2,3.2,0,0,1-1.36-.28,2.94,2.94,0,0,1-1-.75,3.26,3.26,0,0,1-.58-1.09,4.38,4.38,0,0,1-.2-1.31v-.27a4.36,4.36,0,0,1,.2-1.3,3.17,3.17,0,0,1,.58-1.09,2.84,2.84,0,0,1,1-.76,3.2,3.2,0,0,1,1.36-.27,3.1,3.1,0,0,1,1.12.19,2.59,2.59,0,0,1,.88.53,2.33,2.33,0,0,1,.8,1.76h-1.11a1.65,1.65,0,0,0-.14-.58,1.75,1.75,0,0,0-.35-.49,1.63,1.63,0,0,0-.54-.33,2,2,0,0,0-1.58.1,1.89,1.89,0,0,0-.59.57,2.21,2.21,0,0,0-.33.79,3.77,3.77,0,0,0-.1.88v.27a3.8,3.8,0,0,0,.1.89,2.36,2.36,0,0,0,.32.8,1.82,1.82,0,0,0,.6.57A1.84,1.84,0,0,0,114.45,301.17Zm9.38-6.16h.35a1.69,1.69,0,0,1,.33,0l.3.05a.9.9,0,0,1,.23.07l-.16,1.15a5.52,5.52,0,0,0-.65-.11c-.2,0-.42,0-.64,0a2.22,2.22,0,0,0-1.34.38,2.16,2.16,0,0,0-.75,1.05V302h-1.18v-6.87h1.12l0,1.09a3.3,3.3,0,0,1,1-.89A2.67,2.67,0,0,1,123.83,295Zm3.5.12h3.51V301h2.24v1h-5.75v-1h2.33v-4.83h-2.33Zm2.18-1.8a.73.73,0,0,1,.17-.49.66.66,0,0,1,.53-.2.65.65,0,0,1,.53.2.69.69,0,0,1,.18.49.64.64,0,0,1-.18.47.68.68,0,0,1-.53.2.69.69,0,0,1-.53-.2A.68.68,0,0,1,129.51,293.33Zm11.24,5.31a5.11,5.11,0,0,1-.18,1.38,3.39,3.39,0,0,1-.52,1.1,2.4,2.4,0,0,1-2,1,2.75,2.75,0,0,1-1.11-.21,2.27,2.27,0,0,1-.82-.58v3.3h-1.18v-9.51H136l0,.75a2.38,2.38,0,0,1,.83-.65A2.68,2.68,0,0,1,138,295a2.46,2.46,0,0,1,1.17.26,2.36,2.36,0,0,1,.85.72,3.35,3.35,0,0,1,.52,1.11,5.23,5.23,0,0,1,.18,1.41Zm-1.18-.13a4.12,4.12,0,0,0-.11-.95,2.34,2.34,0,0,0-.35-.8,1.64,1.64,0,0,0-.58-.56,1.75,1.75,0,0,0-.85-.2,1.61,1.61,0,0,0-1,.27,1.87,1.87,0,0,0-.61.67v3.31a2,2,0,0,0,.61.67,1.75,1.75,0,0,0,1,.25,1.65,1.65,0,0,0,.85-.21,1.69,1.69,0,0,0,.58-.55,3,3,0,0,0,.34-.81,4.21,4.21,0,0,0,.11-1Zm6-5v1.66h2.61V296h-2.61v3.73a1.76,1.76,0,0,0,.1.66,1.07,1.07,0,0,0,.28.42,1.2,1.2,0,0,0,.4.22,2.07,2.07,0,0,0,.5.06l.39,0c.14,0,.27,0,.4-.06L148,301l.28-.06.16.83a1.65,1.65,0,0,1-.35.16,2.85,2.85,0,0,1-.46.1,4,4,0,0,1-.53.08l-.54,0a3,3,0,0,1-.86-.13,1.88,1.88,0,0,1-.68-.41,2.09,2.09,0,0,1-.47-.73,3.17,3.17,0,0,1-.16-1.09V296h-1.81v-.91h1.81v-1.66Zm5.05,2.76V295l5.61,2.4v.92l-5.61,2.41v-1.22L154.7,298l.38-.11-.38-.12Z" transform="translate(-55 -55)"/></g></g></g></svg>