<svg id="Layer_1" data-name="Layer 1" xmlns="http://www.w3.org/2000/svg" xmlns:xlink="http://www.w3.org/1999/xlink" viewBox="0 0 525 998.86"><defs><style>.cls-1,.cls-11{fill:#fff;}.cls-1,.cls-3,.cls-4,.cls-5,.cls-6,.cls-7{fill-rule:evenodd;}.cls-2{fill:none;}.cls-3{fill:#213648;}.cls-4{fill-opacity:0.65;opacity:0.6;fill:url(#linear-gradient);}.cls-16,.cls-4,.cls-5,.cls-6{isolation:isolate;}.cls-5,.cls-6{opacity:0.75;}.cls-5{fill:url(#linear-gradient-2);}.cls-6{fill:url(#linear-gradient-3);}.cls-7{fill:#2e423c;}.cls-8{clip-path:url(#clip-path);}.cls-9{mask:url(#mask);}.cls-10{fill:url(#linear-gradient-4);}.cls-12{clip-path:url(#clip-path-2);}.cls-13{fill:#fbfcfe;}.cls-14{clip-path:url(#clip-path-3);}.cls-15{fill:#ba4270;}.cls-16,.cls-17{fill:#36536b;}.cls-16{opacity:0.5;}</style><linearGradient id="linear-gradient" x1="368.67" y1="1209.28" x2="368.67" y2="1184.63" gradientTransform="matrix(1, 0, 0, -1, 0, 1319.28)" gradientUnits="userSpaceOnUse"><stop offset="0" stop-color="#454545"/><stop offset="0.23" stop-color="#999"/><stop offset="1" stop-color="#fff"/></linearGradient><linearGradient id="linear-gradient-2" x1="626.21" y1="711.62" x2="607.28" y2="711.62" gradientTransform="matrix(1, 0, 0, -1, 0, 1319.28)" gradientUnits="userSpaceOnUse"><stop offset="0" stop-color="#fff" stop-opacity="0.01"/><stop offset="0.22" stop-color="#bababa"/><stop offset="0.55" stop-color="#fff" stop-opacity="0.01"/><stop offset="1" stop-color="#fff" stop-opacity="0.01"/></linearGradient><linearGradient id="linear-gradient-3" x1="111.14" y1="711.62" x2="130.09" y2="711.62" xlink:href="#linear-gradient-2"/><clipPath id="clip-path" transform="translate(-106 -110)"><rect class="cls-2" x="136.15" y="134.89" width="466" height="930"/></clipPath><mask id="mask" x="30" y="24.89" width="466" height="930" maskUnits="userSpaceOnUse"><g transform="translate(-106 -110)"><g id="mask0_0_4910" data-name="mask0 0 4910"><path id="Screen_Mask_2" data-name="Screen Mask_2" class="cls-1" d="M323.35,134.89H174.54c-22.21,0-38.39,15.13-38.39,34.88v844.78c0,25.76,25,48.58,53.28,48.58H548.09c27.24,0,53.28-23,53.28-48.58V172.05c0-23.67-17.58-37-38.39-37.16H411.81A28.62,28.62,0,0,0,396.46,150c-4.39,10.76-13.22,19.34-22.89,19.34H362.34c-4.59,0-16.69-4.46-22.82-19.34S323.92,135,323.35,134.89Z"/></g></g></mask><linearGradient id="linear-gradient-4" x1="369" y1="1184.39" x2="369" y2="261.63" gradientTransform="matrix(1, 0, 0, -1, -106, 1209.28)" gradientUnits="userSpaceOnUse"><stop offset="0" stop-color="#9cb6cd"/><stop offset="0.42" stop-color="#9ab3ca"/><stop offset="0.72" stop-color="#557496"/><stop offset="1" stop-color="#475178"/></linearGradient><clipPath id="clip-path-2" transform="translate(-106 -110)"><rect class="cls-2" x="150" y="444" width="436" height="174"/></clipPath><clipPath id="clip-path-3" transform="translate(-106 -110)"><rect class="cls-2" x="182" y="476" width="374" height="22"/></clipPath></defs><g id="Group_30" data-name="Group 30"><g id="Group_2" data-name="Group 2"><g id="iPhone-X-Mockup"><g id="phone"><g id="body"><path class="cls-3" d="M177.55,111.14H560c36.68,0,66.41,28.47,66.41,63.59v870.54c0,35.12-29.73,63.59-66.41,63.59H177.55c-36.68,0-66.41-28.47-66.41-63.59V174.73C111.14,139.61,140.87,111.14,177.55,111.14Z" transform="translate(-106 -110)"/></g><g id="frame"><path id="reflect-frame-top" class="cls-4" d="M561.5,110H175.85q-27,1.65-49.82,24.65c9.78-8.54,27.22-20,50.28-20H561c23.06,0,40.5,11.42,50.28,20Q588.51,111.64,561.5,110Z" transform="translate(-106 -110)"/><path id="reflect-frame-right" class="cls-5" d="M616,1035.34V180c0-23-8.44-31.43-13.47-36.88s-5.24-8.23,2-4.11,21.69,16.09,21.69,41v855.38c0,24.9-14.46,36.88-21.69,41s-7,1.33-2-4.12S616,1058.29,616,1035.34Z" transform="translate(-106 -110)"/><path id="reflect-frame-left" class="cls-6" d="M121.34,1035.34V180c0-23,8.44-31.43,13.47-36.88s5.25-8.23-2-4.11-21.69,16.09-21.69,41v855.38c0,24.9,14.46,36.88,21.69,41s7,1.33,2-4.12S121.34,1058.29,121.34,1035.34Z" transform="translate(-106 -110)"/></g><g id="controls"><path id="vol_" data-name="vol+" class="cls-7" d="M106,317.11a4,4,0,0,1,4-4h1.93a4,4,0,0,1,4,4v120.7a4,4,0,0,1-4,4H110a4,4,0,0,1-4-4Z" transform="translate(-106 -110)"/><path id="power" class="cls-7" d="M621.07,422.09a4,4,0,0,1,4-4H627a4,4,0,0,1,4,4V508a4,4,0,0,1-4,4h-1.93a4,4,0,0,1-4-4Z" transform="translate(-106 -110)"/></g></g><g class="cls-8"><g id="Screen"><path id="Screen_Mask" data-name="Screen Mask" class="cls-1" d="M323.35,134.89H174.54c-22.21,0-38.39,15.13-38.39,34.88v844.78c0,25.76,25,48.58,53.28,48.58H548.09c27.24,0,53.28-23,53.28-48.58V172.05c0-23.67-17.58-37-38.39-37.16H411.81A28.62,28.62,0,0,0,396.46,150c-4.39,10.76-13.22,19.34-22.89,19.34H362.34c-4.59,0-16.69-4.46-22.82-19.34S323.92,135,323.35,134.89Z" transform="translate(-106 -110)"/><g class="cls-9"><rect id="Rectangle" class="cls-10" x="30" y="24.89" width="466" height="930"/><path id="_12:49" data-name="12:49" class="cls-11" d="M295,392V357.34h-8.26v-5.28a22.74,22.74,0,0,0,6.4-.73,7.73,7.73,0,0,0,3.68-2.18,6.28,6.28,0,0,0,1.44-3.42h6.21V392Zm20,0v-7a13.26,13.26,0,0,1,1.31-6.08,15,15,0,0,1,3.46-4.48,27.74,27.74,0,0,1,4.73-3.36c1.73-1,3.46-1.86,5.19-2.72s3.31-1.7,4.74-2.56a13.12,13.12,0,0,0,3.48-2.91,5.71,5.71,0,0,0,1.31-3.77,5.86,5.86,0,0,0-1.95-4.55,7.53,7.53,0,0,0-5.28-1.76,9,9,0,0,0-5.92,2,9.24,9.24,0,0,0-3,6.08h-8.92a16.73,16.73,0,0,1,2-8,14.39,14.39,0,0,1,6-5.73,21.38,21.38,0,0,1,10.05-2.11,20.74,20.74,0,0,1,8.93,1.76,13.6,13.6,0,0,1,5.82,4.89,13.08,13.08,0,0,1,2.05,7.33,13.23,13.23,0,0,1-1.28,6,13.92,13.92,0,0,1-3.39,4.32,26.2,26.2,0,0,1-4.64,3.13c-1.69.9-3.37,1.73-5.06,2.5s-3.2,1.56-4.61,2.37a12.06,12.06,0,0,0-3.39,2.69,5.39,5.39,0,0,0-1.28,3.61v.42H349V392Zm50.42-32.29v10H355.17v-10Zm0,22.11v10H355.17v-10Zm27.49-36.09h9.19v28.19h7.13v7.84h-7.13V392h-9l0-10.24H371.82v-7.68Zm-12.45,28.19h12.68V357Zm50.42,18.78a19.58,19.58,0,0,1-8.06-1.66,15.73,15.73,0,0,1-6.11-4.67,12.76,12.76,0,0,1-2.66-7.11h8.89a7.76,7.76,0,0,0,2.56,4.39,7.52,7.52,0,0,0,5,1.66,10.68,10.68,0,0,0,5.82-1.57,9.31,9.31,0,0,0,3.78-5,21.71,21.71,0,0,0,.89-9,9.4,9.4,0,0,1-2.49,3,12.08,12.08,0,0,1-3.68,2,15.45,15.45,0,0,1-4.71.67,19,19,0,0,1-8.35-1.76,14,14,0,0,1-5.7-5.05,14.55,14.55,0,0,1-2-7.81,14.85,14.85,0,0,1,8.25-13.67,19.76,19.76,0,0,1,9.16-2,18,18,0,0,1,10.14,2.81,17.71,17.71,0,0,1,6.56,7.94,29.26,29.26,0,0,1,2.3,12.06,35.25,35.25,0,0,1-2.37,13.83,17.3,17.3,0,0,1-6.72,8.25A19.38,19.38,0,0,1,430.87,392.7ZM431.7,368a8.71,8.71,0,0,0,3.78-.87,9.29,9.29,0,0,0,3-2.24,4.16,4.16,0,0,0,1.18-2.78,12.29,12.29,0,0,0-1-5.31,7.6,7.6,0,0,0-2.82-3.43,7.4,7.4,0,0,0-4.19-1.18,7.57,7.57,0,0,0-3.93,1,7.26,7.26,0,0,0-2.72,2.88,9,9,0,0,0-1,4.29,7.4,7.4,0,0,0,2.12,5.63A7.72,7.72,0,0,0,431.7,368Z" transform="translate(-106 -110)"/></g></g></g></g></g><g class="cls-12"><g id="Group_29" data-name="Group 29"><g id="Rectangle_2" data-name="Rectangle 2"><rect class="cls-13" x="44" y="334" width="436" height="174" rx="5"/></g><g class="cls-14"><g id="Group_28" data-name="Group 28"><path id="PayAPI" class="cls-15" d="M183.62,496V481.54h5.32a6.9,6.9,0,0,1,2.83.55,4.33,4.33,0,0,1,2.7,4.19,4.51,4.51,0,0,1-.64,2.46,4.16,4.16,0,0,1-1.8,1.56,6.33,6.33,0,0,1-2.71.54h-2.76V496Zm2.91-7.42h2.71a2.43,2.43,0,0,0,1.8-.7,2.38,2.38,0,0,0,.7-1.75,2.14,2.14,0,0,0-.74-1.71,2.63,2.63,0,0,0-1.8-.64h-2.67ZM199,496.2a4.11,4.11,0,0,1-1.78-.37,3,3,0,0,1-1.25-1.07,3.15,3.15,0,0,1-.46-1.72,3,3,0,0,1,1.27-2.58,7.29,7.29,0,0,1,4-.92l1.29,0v-.62a1.39,1.39,0,0,0-.42-1.09,1.75,1.75,0,0,0-1.28-.38,2.93,2.93,0,0,0-1.22.3,1.54,1.54,0,0,0-.78,1H196a3.09,3.09,0,0,1,.65-1.84,3.45,3.45,0,0,1,1.6-1.08,6.91,6.91,0,0,1,2.31-.36,6.68,6.68,0,0,1,2.55.4,2.71,2.71,0,0,1,1.39,1.13,3.35,3.35,0,0,1,.43,1.74V496h-2.44l-.24-1.78a3.2,3.2,0,0,1-1.33,1.55A3.8,3.8,0,0,1,199,496.2Zm1-1.92a2.19,2.19,0,0,0,.77-.14,2.32,2.32,0,0,0,.67-.39,2.11,2.11,0,0,0,.48-.56,1.27,1.27,0,0,0,.18-.64V491l-1,0a5.88,5.88,0,0,0-1.36.18,2.26,2.26,0,0,0-1,.53,1.35,1.35,0,0,0-.38,1,1.39,1.39,0,0,0,.5,1.13A1.88,1.88,0,0,0,200,494.28Zm8.73,5a4.35,4.35,0,0,1-1.5-.18l-.43-.17v-1.86l1,0a3.53,3.53,0,0,0,1.08-.07,1.72,1.72,0,0,0,.62-.27,1,1,0,0,0,.31-.36c.06-.12.1-.22.13-.29l.19-.57-4-9.91H209l2.48,6.74,2.51-6.74h2.85l-4.19,10.4a7.54,7.54,0,0,1-1.14,2,3.18,3.18,0,0,1-1.3,1A4.3,4.3,0,0,1,208.73,499.3Zm7.73-3.3,5.18-14.46h3.08L229.89,496H227l-1.18-3.35h-5.2L219.39,496Zm4.79-5.9h3.85l-1.91-5.74Zm10.81,5.9V481.54h5.32a6.94,6.94,0,0,1,2.83.55,4.45,4.45,0,0,1,2,1.6,4.51,4.51,0,0,1,.73,2.59,4.59,4.59,0,0,1-.64,2.46,4.16,4.16,0,0,1-1.8,1.56,6.33,6.33,0,0,1-2.71.54H235V496Zm2.91-7.42h2.71a2.4,2.4,0,0,0,2.5-2.45,2.14,2.14,0,0,0-.74-1.71,2.66,2.66,0,0,0-1.8-.64H235Zm10.13-7H248V496H245.1Z" transform="translate(-106 -110)"/><path id="Just_Now" data-name="Just Now" class="cls-16" d="M477.22,492.59a6.55,6.55,0,0,1-.26,2,2.16,2.16,0,0,1-.93,1.23,3.52,3.52,0,0,1-1.88.42,5.65,5.65,0,0,1-1.45-.18,8.29,8.29,0,0,1-.89-.27l.13-1.77.71.28a2.71,2.71,0,0,0,1,.16,1.5,1.5,0,0,0,1.34-.54,3.42,3.42,0,0,0,.37-1.82V481.54h1.85Zm6.86,3.61a5.44,5.44,0,0,1-1.53-.23,4,4,0,0,1-1.26-.67,3.21,3.21,0,0,1-.87-1.09,3.51,3.51,0,0,1-.31-1.53v-7H482v6.83a2.26,2.26,0,0,0,.62,1.64,2.57,2.57,0,0,0,1.89.63,2.74,2.74,0,0,0,1.83-.59,2.2,2.2,0,0,0,.7-1.78v-6.73h1.84V496h-1.47l-.19-2a2.66,2.66,0,0,1-1.74,2A3.77,3.77,0,0,1,484.08,496.2Zm11.32,0a6,6,0,0,1-2-.33,3.62,3.62,0,0,1-1.53-1.05,3.46,3.46,0,0,1-.77-1.83h1.68a2.22,2.22,0,0,0,.5,1,2.29,2.29,0,0,0,.92.61,3.51,3.51,0,0,0,1.2.2,3.21,3.21,0,0,0,1.68-.39,1.32,1.32,0,0,0,.64-1.2,1.26,1.26,0,0,0-.34-.91,2.08,2.08,0,0,0-1-.51l-2.14-.53a4.66,4.66,0,0,1-2-.94,2.23,2.23,0,0,1-.75-1.79,2.77,2.77,0,0,1,.43-1.6,3,3,0,0,1,1.32-1.09,5.2,5.2,0,0,1,2.19-.4,4.44,4.44,0,0,1,2.71.76,2.67,2.67,0,0,1,1.08,2.21h-1.63a1.71,1.71,0,0,0-.67-1.17,2.42,2.42,0,0,0-1.51-.44,2.89,2.89,0,0,0-1.61.4,1.33,1.33,0,0,0-.62,1.22,1,1,0,0,0,.44.87,3.75,3.75,0,0,0,1.3.52l2.07.52a3.92,3.92,0,0,1,1.18.5,2.91,2.91,0,0,1,.74.69,2.58,2.58,0,0,1,.39.8,2.91,2.91,0,0,1-.36,2.43,3.12,3.12,0,0,1-1.36,1.06A5.47,5.47,0,0,1,495.4,496.2ZM507,487h-2.33v6.43a2.26,2.26,0,0,0,.11.81.57.57,0,0,0,.39.32,3.11,3.11,0,0,0,.76.07h1.13v1.24a2.49,2.49,0,0,1-.58.12,8.12,8.12,0,0,1-1,.05,3.89,3.89,0,0,1-1.66-.29,1.66,1.66,0,0,1-.83-.86,3.83,3.83,0,0,1-.23-1.4V487h-1.68v-1.35h1.73l.45-3h1.36v3H507Zm17.06-5.47h1.85V496h-1.65l-7.76-11.4V496h-1.85V481.54h1.77l7.64,11.24Zm9.26,14.66a4.9,4.9,0,0,1-2.5-.61,4.11,4.11,0,0,1-1.66-1.81,6.4,6.4,0,0,1-.59-2.91,6.79,6.79,0,0,1,.55-2.84,4.2,4.2,0,0,1,1.61-1.89,5.23,5.23,0,0,1,5.07-.05,4.13,4.13,0,0,1,1.64,1.83,6.89,6.89,0,0,1,.58,2.95,6.73,6.73,0,0,1-.54,2.78,4.23,4.23,0,0,1-1.58,1.88A4.67,4.67,0,0,1,533.32,496.2Zm0-1.46a2.61,2.61,0,0,0,1.57-.47,2.88,2.88,0,0,0,1-1.35,6,6,0,0,0,.33-2.09,6.46,6.46,0,0,0-.29-2,3.07,3.07,0,0,0-.93-1.41,2.49,2.49,0,0,0-1.65-.52,2.65,2.65,0,0,0-1.59.47,2.75,2.75,0,0,0-1,1.34,6,6,0,0,0-.33,2.11,6.14,6.14,0,0,0,.3,2,3,3,0,0,0,.94,1.41A2.53,2.53,0,0,0,533.32,494.74Zm20.35-9.08L550.54,496h-1.82l-2.36-7.63L544.12,496h-1.81l-3.19-10.34h1.71l2.37,7.95h.16l2.33-7.95h1.4l2.42,7.93h.16l2.27-7.93Z" transform="translate(-106 -110)"/></g></g><path id="The_payment_has_been" data-name="The payment has been" class="cls-17" d="M182.46,515.24v-1.7H193.4v1.7H189V528h-1.86V515.24ZM195.4,528V513.14h1.81v6a3.2,3.2,0,0,1,.69-.8,3.42,3.42,0,0,1,1.08-.61,4,4,0,0,1,1.45-.24,4.31,4.31,0,0,1,1.83.38,3.19,3.19,0,0,1,1.31,1.06,2.87,2.87,0,0,1,.47,1.64V528H202.2v-7a1.7,1.7,0,0,0-.65-1.43,2.52,2.52,0,0,0-1.65-.51,3.78,3.78,0,0,0-1.3.23,2.23,2.23,0,0,0-1,.68,1.73,1.73,0,0,0-.38,1.15V528Zm12.85-4.74a4.63,4.63,0,0,0,.32,1.78,2.83,2.83,0,0,0,1,1.26,2.86,2.86,0,0,0,1.67.47,3,3,0,0,0,1.7-.46,2.09,2.09,0,0,0,.92-1.33h1.75a3.57,3.57,0,0,1-.84,1.77,4.31,4.31,0,0,1-1.57,1.09,5.27,5.27,0,0,1-1.92.36,5,5,0,0,1-2.55-.63,4.36,4.36,0,0,1-1.72-1.81,6.06,6.06,0,0,1-.62-2.83,6.88,6.88,0,0,1,.56-2.86,4.37,4.37,0,0,1,1.62-1.92,4.63,4.63,0,0,1,2.57-.69,4.58,4.58,0,0,1,2.47.63,4,4,0,0,1,1.53,1.78,6.42,6.42,0,0,1,.53,2.71v.68Zm0-1.25h5.62a4.07,4.07,0,0,0-.3-1.6,2.45,2.45,0,0,0-.92-1.13,3,3,0,0,0-3.15.05,2.85,2.85,0,0,0-.95,1.19A3.52,3.52,0,0,0,208.26,522Zm14.41,9.21V517.66h1.84l0,1.8a4.74,4.74,0,0,1,.46-.67,4,4,0,0,1,.7-.65,3.73,3.73,0,0,1,2.24-.68,4.12,4.12,0,0,1,2.18.57,3.71,3.71,0,0,1,1.48,1.72,7.13,7.13,0,0,1,.53,2.94,7.66,7.66,0,0,1-.52,3,4,4,0,0,1-1.48,1.86,4.14,4.14,0,0,1-2.34.64,3.6,3.6,0,0,1-1.23-.2,3.45,3.45,0,0,1-.93-.5,3.83,3.83,0,0,1-.66-.68,5.46,5.46,0,0,1-.43-.69v5.09Zm4.76-4.46a2.59,2.59,0,0,0,2.09-1,4.72,4.72,0,0,0,.81-3,4.78,4.78,0,0,0-.74-2.81,2.76,2.76,0,0,0-4.34,0,4.78,4.78,0,0,0-.74,2.78,5.9,5.9,0,0,0,.33,2,3.31,3.31,0,0,0,1,1.45A2.43,2.43,0,0,0,227.43,526.76Zm9.84,1.44a4.27,4.27,0,0,1-1.77-.35,2.84,2.84,0,0,1-1.21-1,3.31,3.31,0,0,1,.77-4.18,7.13,7.13,0,0,1,3.85-.9l1.85,0v-.81a2,2,0,0,0-.57-1.5,2.46,2.46,0,0,0-1.77-.56,3.11,3.11,0,0,0-1.57.42,1.93,1.93,0,0,0-.87,1.34h-1.63a3,3,0,0,1,2-2.76,5.94,5.94,0,0,1,2.17-.36,5.78,5.78,0,0,1,2.24.38,2.72,2.72,0,0,1,1.34,1.12,3.44,3.44,0,0,1,.45,1.82V528H241l-.13-1.94a3.52,3.52,0,0,1-1.53,1.68A4.42,4.42,0,0,1,237.27,528.2Zm.56-1.33a2.84,2.84,0,0,0,1-.19,3.94,3.94,0,0,0,.95-.51,2.74,2.74,0,0,0,.68-.73,1.67,1.67,0,0,0,.27-.84v-1.77l-1.54,0a7.76,7.76,0,0,0-2,.24,2.38,2.38,0,0,0-1.19.69,1.85,1.85,0,0,0-.39,1.23,1.66,1.66,0,0,0,.6,1.36A2.42,2.42,0,0,0,237.83,526.87Zm8.56,4.43a3.87,3.87,0,0,1-1.25-.13l-.34-.13v-1.2l1,0a3.44,3.44,0,0,0,1-.08,2,2,0,0,0,.61-.27,1.25,1.25,0,0,0,.35-.38c.08-.14.15-.27.21-.4l.36-1-4-10.09h1.87l3.05,8,3-8h1.81l-4.36,11.12a5.42,5.42,0,0,1-.9,1.53,2.76,2.76,0,0,1-1.1.77A3.71,3.71,0,0,1,246.39,531.3ZM256,528V517.66h1.78v1.5A4.17,4.17,0,0,1,259,518a3.4,3.4,0,0,1,1.95-.51,3.58,3.58,0,0,1,1.14.19,3.73,3.73,0,0,1,1.08.57,2.54,2.54,0,0,1,.76.93,3.55,3.55,0,0,1,1.3-1.22,3.69,3.69,0,0,1,1.85-.47,4.19,4.19,0,0,1,1.13.17,2.93,2.93,0,0,1,1.92,1.73,4.78,4.78,0,0,1,.32,1.88V528h-1.86v-6.58a2.88,2.88,0,0,0-.3-1.45,1.63,1.63,0,0,0-.79-.73,2.53,2.53,0,0,0-1-.21,3,3,0,0,0-1,.19,2.11,2.11,0,0,0-.92.64,1.86,1.86,0,0,0-.38,1.23V528H262.3v-7.12a1.56,1.56,0,0,0-.33-1,2,2,0,0,0-.81-.62,2.38,2.38,0,0,0-1-.21,3,3,0,0,0-1.07.21,2.18,2.18,0,0,0-.9.67,1.83,1.83,0,0,0-.36,1.18V528Zm18.62-4.74A4.63,4.63,0,0,0,275,525a2.81,2.81,0,0,0,1,1.26,2.89,2.89,0,0,0,1.68.47,3,3,0,0,0,1.69-.46,2.07,2.07,0,0,0,.93-1.33H282a3.57,3.57,0,0,1-.84,1.77,4.31,4.31,0,0,1-1.57,1.09,5.29,5.29,0,0,1-1.93.36,5.08,5.08,0,0,1-2.55-.63,4.42,4.42,0,0,1-1.72-1.81,6.06,6.06,0,0,1-.61-2.83,6.73,6.73,0,0,1,.56-2.86,4.41,4.41,0,0,1,1.61-1.92,4.69,4.69,0,0,1,2.58-.69,4.6,4.6,0,0,1,2.47.63,4,4,0,0,1,1.53,1.78,6.42,6.42,0,0,1,.53,2.71v.68Zm0-1.25h5.62a4.08,4.08,0,0,0-.31-1.6,2.37,2.37,0,0,0-.91-1.13,2.7,2.7,0,0,0-1.55-.42,2.64,2.64,0,0,0-1.6.47,2.87,2.87,0,0,0-1,1.19A3.66,3.66,0,0,0,274.67,522Zm9.93,6V517.66h1.79v1.5a3.24,3.24,0,0,1,.69-.81,3.53,3.53,0,0,1,1.08-.61,4.45,4.45,0,0,1,1.47-.23,4.1,4.1,0,0,1,1.8.39,2.94,2.94,0,0,1,1.32,1.22,4,4,0,0,1,.5,2.12V528H291.4v-6.58a2.13,2.13,0,0,0-2.28-2.38,3.8,3.8,0,0,0-1.31.23,2.32,2.32,0,0,0-1,.68,1.72,1.72,0,0,0-.38,1.14V528Zm16.31-9h-2.33v6.43a2.26,2.26,0,0,0,.11.81.57.57,0,0,0,.39.32,3.11,3.11,0,0,0,.76.07H301v1.24a2.38,2.38,0,0,1-.58.12,8.12,8.12,0,0,1-.95,0,3.92,3.92,0,0,1-1.66-.29,1.66,1.66,0,0,1-.83-.86,3.83,3.83,0,0,1-.23-1.4V519H295v-1.35h1.73l.45-3h1.36v3h2.33Zm7.27,9V513.14H310v6a3.25,3.25,0,0,1,.7-.8,3.37,3.37,0,0,1,1.07-.61,4.06,4.06,0,0,1,1.46-.24,4.37,4.37,0,0,1,1.83.38,3.16,3.16,0,0,1,1.3,1.06,2.81,2.81,0,0,1,.48,1.64V528H315v-7a1.69,1.69,0,0,0-.64-1.43,2.54,2.54,0,0,0-1.65-.51,3.74,3.74,0,0,0-1.3.23,2.2,2.2,0,0,0-1,.68,1.73,1.73,0,0,0-.37,1.15V528Zm14.34.2a4.33,4.33,0,0,1-1.77-.35,2.9,2.9,0,0,1-1.21-1,3,3,0,0,1-.43-1.62,2.91,2.91,0,0,1,1.2-2.56,7.16,7.16,0,0,1,3.85-.9l1.85,0v-.81a2,2,0,0,0-.57-1.5,2.46,2.46,0,0,0-1.77-.56,3.14,3.14,0,0,0-1.57.42,2,2,0,0,0-.87,1.34H319.6a3,3,0,0,1,2-2.76,6,6,0,0,1,2.17-.36,5.78,5.78,0,0,1,2.24.38,2.72,2.72,0,0,1,1.34,1.12,3.44,3.44,0,0,1,.45,1.82V528h-1.58l-.13-1.94a3.52,3.52,0,0,1-1.53,1.68A4.42,4.42,0,0,1,322.52,528.2Zm.56-1.33a2.84,2.84,0,0,0,1-.19,3.76,3.76,0,0,0,.95-.51,2.59,2.59,0,0,0,.68-.73,1.49,1.49,0,0,0,.27-.84v-1.77l-1.54,0a7.88,7.88,0,0,0-2,.24,2.43,2.43,0,0,0-1.19.69,1.85,1.85,0,0,0-.39,1.23,1.66,1.66,0,0,0,.6,1.36A2.42,2.42,0,0,0,323.08,526.87Zm11.37,1.33a6,6,0,0,1-2-.33,3.62,3.62,0,0,1-1.53-1,3.46,3.46,0,0,1-.77-1.83h1.68a2.22,2.22,0,0,0,.5,1,2.29,2.29,0,0,0,.92.61,3.51,3.51,0,0,0,1.2.2,3.21,3.21,0,0,0,1.68-.39,1.32,1.32,0,0,0,.64-1.2,1.26,1.26,0,0,0-.34-.91,2.08,2.08,0,0,0-1-.51l-2.14-.53a4.66,4.66,0,0,1-2-.94,2.23,2.23,0,0,1-.75-1.79,2.77,2.77,0,0,1,.43-1.6,3,3,0,0,1,1.32-1.09,5.2,5.2,0,0,1,2.19-.4,4.44,4.44,0,0,1,2.71.76,2.67,2.67,0,0,1,1.08,2.21H336.6a1.71,1.71,0,0,0-.67-1.17,2.42,2.42,0,0,0-1.51-.44,2.89,2.89,0,0,0-1.61.4,1.33,1.33,0,0,0-.62,1.22,1,1,0,0,0,.44.87,3.75,3.75,0,0,0,1.3.52l2.07.52a3.92,3.92,0,0,1,1.18.5,2.91,2.91,0,0,1,.74.69,2.58,2.58,0,0,1,.39.8,2.91,2.91,0,0,1-.36,2.43,3.12,3.12,0,0,1-1.36,1.06A5.47,5.47,0,0,1,334.45,528.2Zm16.2,0a4.37,4.37,0,0,1-1.54-.24,3.18,3.18,0,0,1-1-.61,3.55,3.55,0,0,1-.62-.77,5.67,5.67,0,0,1-.32-.7L347,528h-1.41V513.14h1.86v6.16a3.64,3.64,0,0,1,.39-.57,3.46,3.46,0,0,1,.69-.6,4,4,0,0,1,2.31-.67,3.83,3.83,0,0,1,3.08,1.35,6,6,0,0,1,1.15,4,7.53,7.53,0,0,1-.49,2.85,3.88,3.88,0,0,1-3.88,2.56Zm-.33-1.42a2.5,2.5,0,0,0,2.05-1,4.92,4.92,0,0,0,.79-3.11,4.55,4.55,0,0,0-.74-2.8,2.48,2.48,0,0,0-2.14-1,2.81,2.81,0,0,0-1.66.45,2.57,2.57,0,0,0-.92,1.29,6.79,6.79,0,0,0-.3,2.06,5.57,5.57,0,0,0,.67,3.13A2.58,2.58,0,0,0,350.32,526.78Zm8.44-3.52a4.63,4.63,0,0,0,.32,1.78,2.69,2.69,0,0,0,2.66,1.73,3,3,0,0,0,1.7-.46,2.09,2.09,0,0,0,.92-1.33h1.75a3.57,3.57,0,0,1-.84,1.77,4.31,4.31,0,0,1-1.57,1.09,5.27,5.27,0,0,1-1.92.36,5,5,0,0,1-2.55-.63,4.3,4.3,0,0,1-1.72-1.81,5.94,5.94,0,0,1-.62-2.83,6.73,6.73,0,0,1,.56-2.86,4.37,4.37,0,0,1,1.62-1.92,5.14,5.14,0,0,1,5-.06,4,4,0,0,1,1.53,1.78,6.42,6.42,0,0,1,.53,2.71v.68Zm0-1.25h5.62a4.07,4.07,0,0,0-.3-1.6,2.45,2.45,0,0,0-.92-1.13,3,3,0,0,0-3.15.05,2.85,2.85,0,0,0-.95,1.19A3.52,3.52,0,0,0,358.77,522ZM370,523.26a4.63,4.63,0,0,0,.32,1.78,2.69,2.69,0,0,0,2.66,1.73,3,3,0,0,0,1.7-.46,2.09,2.09,0,0,0,.92-1.33h1.75a3.57,3.57,0,0,1-.84,1.77,4.31,4.31,0,0,1-1.57,1.09,5.27,5.27,0,0,1-1.92.36,5,5,0,0,1-2.55-.63,4.3,4.3,0,0,1-1.72-1.81,5.94,5.94,0,0,1-.62-2.83,6.73,6.73,0,0,1,.56-2.86,4.37,4.37,0,0,1,1.62-1.92,5.14,5.14,0,0,1,5-.06,4,4,0,0,1,1.53,1.78,6.42,6.42,0,0,1,.53,2.71v.68Zm0-1.25h5.62a4.07,4.07,0,0,0-.3-1.6,2.45,2.45,0,0,0-.92-1.13,3,3,0,0,0-3.15.05,2.85,2.85,0,0,0-1,1.19A3.52,3.52,0,0,0,370,522Zm9.94,6V517.66h1.79v1.5a3,3,0,0,1,.68-.81,3.59,3.59,0,0,1,1.09-.61,4.36,4.36,0,0,1,1.47-.23,4.08,4.08,0,0,1,1.79.39,2.94,2.94,0,0,1,1.32,1.22,4,4,0,0,1,.5,2.12V528h-1.85v-6.58a2.32,2.32,0,0,0-.63-1.79,2.35,2.35,0,0,0-1.65-.59,3.8,3.8,0,0,0-1.31.23,2.23,2.23,0,0,0-1,.68,1.67,1.67,0,0,0-.38,1.14V528Zm16.15,3.22V517.66H398l0,1.8a4.74,4.74,0,0,1,.46-.67,3.67,3.67,0,0,1,.7-.65,3.73,3.73,0,0,1,2.24-.68,4.15,4.15,0,0,1,2.18.57,3.77,3.77,0,0,1,1.48,1.72,7.13,7.13,0,0,1,.53,2.94,7.85,7.85,0,0,1-.52,3,4.08,4.08,0,0,1-1.48,1.86,4.14,4.14,0,0,1-2.34.64A3.6,3.6,0,0,1,400,528a3.17,3.17,0,0,1-.93-.5,3.83,3.83,0,0,1-.66-.68,4.51,4.51,0,0,1-.43-.69v5.09Zm4.76-4.46a2.59,2.59,0,0,0,2.09-1,4.72,4.72,0,0,0,.81-3,4.78,4.78,0,0,0-.74-2.81,2.76,2.76,0,0,0-4.34,0,4.71,4.71,0,0,0-.74,2.78,5.9,5.9,0,0,0,.33,2,3.22,3.22,0,0,0,1,1.45A2.43,2.43,0,0,0,400.89,526.76ZM408,528V517.66h1.76v2a3.42,3.42,0,0,1,.73-1.22,3,3,0,0,1,1.07-.73,3.44,3.44,0,0,1,1.26-.24,3.19,3.19,0,0,1,.45,0,.86.86,0,0,1,.34.1v1.79a1,1,0,0,0-.39-.09l-.39,0a4,4,0,0,0-1.16.08,2.51,2.51,0,0,0-.95.39,2,2,0,0,0-.65.74,2.45,2.45,0,0,0-.23,1.1V528Zm11.63.2a5,5,0,0,1-2.5-.61,4.23,4.23,0,0,1-1.66-1.81,6.53,6.53,0,0,1-.59-2.91,7,7,0,0,1,.55-2.84,4.33,4.33,0,0,1,1.61-1.89,4.78,4.78,0,0,1,2.59-.68,4.71,4.71,0,0,1,2.48.63,4,4,0,0,1,1.64,1.83,7.61,7.61,0,0,1,0,5.73,4.17,4.17,0,0,1-1.58,1.88A4.63,4.63,0,0,1,419.63,528.2Zm0-1.46a2.59,2.59,0,0,0,1.57-.47,2.82,2.82,0,0,0,1-1.35,6,6,0,0,0,.33-2.09,6.17,6.17,0,0,0-.29-2,2.92,2.92,0,0,0-.93-1.41,2.49,2.49,0,0,0-1.65-.52,2.69,2.69,0,0,0-1.59.47,2.88,2.88,0,0,0-1,1.34,6,6,0,0,0-.33,2.11,6.14,6.14,0,0,0,.3,2,3.08,3.08,0,0,0,.94,1.41A2.57,2.57,0,0,0,419.63,526.74Zm11.24-9.28a4.48,4.48,0,0,1,2,.43,3.62,3.62,0,0,1,1.45,1.2,3.89,3.89,0,0,1,.71,1.84h-1.64a2.29,2.29,0,0,0-.42-1,2.23,2.23,0,0,0-.85-.72,2.67,2.67,0,0,0-1.24-.27,2.74,2.74,0,0,0-2.16,1,4.43,4.43,0,0,0-.83,2.94,5,5,0,0,0,.76,2.87,2.63,2.63,0,0,0,2.26,1.07,2.6,2.6,0,0,0,1.23-.27,2.37,2.37,0,0,0,1.26-1.71H435a3.67,3.67,0,0,1-.7,1.8,3.76,3.76,0,0,1-1.46,1.18,4.64,4.64,0,0,1-2,.41,4.92,4.92,0,0,1-2.47-.61,4.31,4.31,0,0,1-1.68-1.8,6.44,6.44,0,0,1-.61-2.92,6.9,6.9,0,0,1,.55-2.83,4.44,4.44,0,0,1,1.62-1.9A4.78,4.78,0,0,1,430.87,517.46Zm8,5.8a4.82,4.82,0,0,0,.32,1.78,2.83,2.83,0,0,0,1,1.26,2.88,2.88,0,0,0,1.67.47,3,3,0,0,0,1.7-.46,2.06,2.06,0,0,0,.92-1.33h1.75a3.41,3.41,0,0,1-.84,1.77,4.15,4.15,0,0,1-1.57,1.09,5.2,5.2,0,0,1-1.92.36,5.08,5.08,0,0,1-2.55-.63,4.42,4.42,0,0,1-1.72-1.81,6.06,6.06,0,0,1-.62-2.83,6.88,6.88,0,0,1,.56-2.86,4.5,4.5,0,0,1,1.62-1.92,4.66,4.66,0,0,1,2.57-.69,4.56,4.56,0,0,1,2.47.63,3.87,3.87,0,0,1,1.53,1.78,6.27,6.27,0,0,1,.53,2.71v.68Zm0-1.25h5.62a4.07,4.07,0,0,0-.3-1.6,2.39,2.39,0,0,0-.92-1.13,2.64,2.64,0,0,0-1.54-.42,2.69,2.69,0,0,0-1.61.47,2.93,2.93,0,0,0-.95,1.19A3.85,3.85,0,0,0,438.86,522Zm13.53,6.19a5.91,5.91,0,0,1-2-.33,3.62,3.62,0,0,1-1.53-1,3.55,3.55,0,0,1-.78-1.83h1.69a2.13,2.13,0,0,0,.5,1,2.32,2.32,0,0,0,.91.61,3.61,3.61,0,0,0,1.21.2,3.21,3.21,0,0,0,1.68-.39,1.31,1.31,0,0,0,.63-1.2,1.22,1.22,0,0,0-.34-.91,2,2,0,0,0-1-.51l-2.13-.53a4.66,4.66,0,0,1-2-.94,2.23,2.23,0,0,1-.75-1.79,2.77,2.77,0,0,1,.43-1.6,3,3,0,0,1,1.32-1.09,5.2,5.2,0,0,1,2.19-.4,4.44,4.44,0,0,1,2.71.76,2.64,2.64,0,0,1,1.07,2.21h-1.62a1.71,1.71,0,0,0-.67-1.17,2.43,2.43,0,0,0-1.52-.44,2.85,2.85,0,0,0-1.6.4,1.33,1.33,0,0,0-.62,1.22,1,1,0,0,0,.44.87,3.75,3.75,0,0,0,1.3.52l2.07.52a3.85,3.85,0,0,1,1.17.5,2.75,2.75,0,0,1,.74.69,2.41,2.41,0,0,1,.4.8,3.22,3.22,0,0,1,.12.79,2.81,2.81,0,0,1-.49,1.64,3,3,0,0,1-1.35,1.06A5.52,5.52,0,0,1,452.39,528.2Zm10.06,0a6,6,0,0,1-2-.33,3.75,3.75,0,0,1-1.53-1,3.63,3.63,0,0,1-.77-1.83h1.68a2.33,2.33,0,0,0,.5,1,2.43,2.43,0,0,0,.92.61,3.6,3.6,0,0,0,1.2.2,3.17,3.17,0,0,0,1.68-.39,1.3,1.3,0,0,0,.64-1.2,1.22,1.22,0,0,0-.34-.91,2,2,0,0,0-1-.51l-2.14-.53a4.71,4.71,0,0,1-2-.94,2.23,2.23,0,0,1-.75-1.79,2.93,2.93,0,0,1,.43-1.6,3.06,3.06,0,0,1,1.32-1.09,5.26,5.26,0,0,1,2.19-.4,4.42,4.42,0,0,1,2.71.76,2.62,2.62,0,0,1,1.08,2.21H464.6a1.68,1.68,0,0,0-.67-1.17,2.38,2.38,0,0,0-1.51-.44,2.91,2.91,0,0,0-1.61.4,1.35,1.35,0,0,0-.62,1.22,1,1,0,0,0,.44.87,3.93,3.93,0,0,0,1.3.52l2.07.52a3.81,3.81,0,0,1,1.18.5,2.75,2.75,0,0,1,.74.69,2.2,2.2,0,0,1,.39.8,2.91,2.91,0,0,1-.36,2.43,3,3,0,0,1-1.36,1.06A5.43,5.43,0,0,1,462.45,528.2Zm7.89-4.94a4.82,4.82,0,0,0,.32,1.78,2.83,2.83,0,0,0,1,1.26,2.86,2.86,0,0,0,1.67.47,3,3,0,0,0,1.7-.46,2.09,2.09,0,0,0,.92-1.33h1.75a3.57,3.57,0,0,1-.84,1.77,4.23,4.23,0,0,1-1.57,1.09,5.24,5.24,0,0,1-1.92.36,5,5,0,0,1-2.55-.63,4.36,4.36,0,0,1-1.72-1.81,5.94,5.94,0,0,1-.62-2.83,6.73,6.73,0,0,1,.56-2.86,4.37,4.37,0,0,1,1.62-1.92,4.63,4.63,0,0,1,2.57-.69,4.58,4.58,0,0,1,2.47.63,4,4,0,0,1,1.53,1.78,6.42,6.42,0,0,1,.53,2.71v.68Zm0-1.25H476a4.07,4.07,0,0,0-.3-1.6,2.45,2.45,0,0,0-.92-1.13,3,3,0,0,0-3.15.05,2.85,2.85,0,0,0-1,1.19A3.52,3.52,0,0,0,470.35,522ZM484,528.2a4,4,0,0,1-3.19-1.38,6,6,0,0,1-1.18-4,7.56,7.56,0,0,1,.47-2.81,4,4,0,0,1,1.42-1.86,3.94,3.94,0,0,1,2.34-.66,4.06,4.06,0,0,1,1.31.19,4.22,4.22,0,0,1,1,.48,3.38,3.38,0,0,1,.68.6,3.17,3.17,0,0,1,.4.57v-6.16h1.86V528h-1.41l-.2-2.12a5.67,5.67,0,0,1-.32.7,3.55,3.55,0,0,1-.62.77,3.12,3.12,0,0,1-1,.61A4.31,4.31,0,0,1,484,528.2Zm.33-1.42a2.57,2.57,0,0,0,2.24-.95,5.56,5.56,0,0,0,.68-3.13,6.48,6.48,0,0,0-.31-2.06,2.51,2.51,0,0,0-.92-1.29,2.78,2.78,0,0,0-1.65-.45,2.61,2.61,0,0,0-2.08.91,4.28,4.28,0,0,0-.8,2.89,5.36,5.36,0,0,0,.72,3A2.4,2.4,0,0,0,484.35,526.78Zm7.4,1.22v-2.36H494V528Zm8.35-12.76v-1.7H511v1.7h-4.41V528h-1.86V515.24ZM513,528V513.14h1.8v6a3.45,3.45,0,0,1,1.77-1.41,4.1,4.1,0,0,1,1.46-.24,4.37,4.37,0,0,1,1.83.38,3.1,3.1,0,0,1,1.3,1.06,2.81,2.81,0,0,1,.48,1.64V528h-1.85v-7a1.69,1.69,0,0,0-.64-1.43,2.54,2.54,0,0,0-1.65-.51,3.74,3.74,0,0,0-1.3.23,2.32,2.32,0,0,0-1,.68,1.78,1.78,0,0,0-.37,1.15V528Zm12.85-4.74a4.63,4.63,0,0,0,.32,1.78,2.76,2.76,0,0,0,1,1.26,2.83,2.83,0,0,0,1.66.47,3.06,3.06,0,0,0,1.71-.46,2.08,2.08,0,0,0,.91-1.33h1.75a3.47,3.47,0,0,1-.83,1.77,4.31,4.31,0,0,1-1.57,1.09,5.27,5.27,0,0,1-1.92.36,5.09,5.09,0,0,1-2.56-.63,4.34,4.34,0,0,1-1.71-1.81,5.94,5.94,0,0,1-.62-2.83,6.73,6.73,0,0,1,.56-2.86,4.37,4.37,0,0,1,1.62-1.92,4.63,4.63,0,0,1,2.57-.69,4.54,4.54,0,0,1,2.46.63,4,4,0,0,1,1.54,1.78,6.42,6.42,0,0,1,.52,2.71v.68Zm0-1.25h5.62a4.26,4.26,0,0,0-.3-1.6,2.41,2.41,0,0,0-.93-1.13,2.61,2.61,0,0,0-1.53-.42,2.65,2.65,0,0,0-1.61.47,2.77,2.77,0,0,0-.95,1.19A3.52,3.52,0,0,0,525.9,522Zm-337,25h-2.33v6.43a2.26,2.26,0,0,0,.11.81.57.57,0,0,0,.39.32,3.11,3.11,0,0,0,.76.07H189v1.24a2.49,2.49,0,0,1-.58.12,8.12,8.12,0,0,1-1,0,3.89,3.89,0,0,1-1.66-.29,1.66,1.66,0,0,1-.83-.86,3.83,3.83,0,0,1-.23-1.4V547h-1.68v-1.35h1.73l.45-3h1.36v3h2.33Zm6.49,9.19a5,5,0,0,1-2.5-.61,4.23,4.23,0,0,1-1.66-1.81,6.53,6.53,0,0,1-.59-2.91,7,7,0,0,1,.55-2.84,4.33,4.33,0,0,1,1.61-1.89,4.78,4.78,0,0,1,2.59-.68,4.71,4.71,0,0,1,2.48.63,4,4,0,0,1,1.64,1.83,7.61,7.61,0,0,1,0,5.73,4.17,4.17,0,0,1-1.58,1.88A4.63,4.63,0,0,1,195.41,556.2Zm0-1.46a2.59,2.59,0,0,0,1.57-.47,2.82,2.82,0,0,0,1-1.35,6,6,0,0,0,.33-2.09,6.17,6.17,0,0,0-.29-2,2.92,2.92,0,0,0-.93-1.41,2.49,2.49,0,0,0-1.65-.52,2.69,2.69,0,0,0-1.59.47,2.88,2.88,0,0,0-1,1.34,6,6,0,0,0-.33,2.11,6.14,6.14,0,0,0,.3,2,3.08,3.08,0,0,0,.94,1.41A2.57,2.57,0,0,0,195.41,554.74ZM207.46,547h-2.34v6.43a2,2,0,0,0,.12.81.58.58,0,0,0,.38.32,3.16,3.16,0,0,0,.76.07h1.13v1.24a2.27,2.27,0,0,1-.58.12,7.94,7.94,0,0,1-.94,0,3.94,3.94,0,0,1-1.67-.29,1.66,1.66,0,0,1-.83-.86,3.83,3.83,0,0,1-.23-1.4V547h-1.67v-1.35h1.73l.44-3h1.36v3h2.34Zm5.43,9.19a4.33,4.33,0,0,1-1.77-.35,2.9,2.9,0,0,1-1.21-1,3,3,0,0,1-.43-1.62,2.91,2.91,0,0,1,1.2-2.56,7.16,7.16,0,0,1,3.85-.9l1.85,0v-.81a2,2,0,0,0-.57-1.5,2.46,2.46,0,0,0-1.77-.56,3.14,3.14,0,0,0-1.57.42,2,2,0,0,0-.87,1.34H210a3,3,0,0,1,2-2.76,6,6,0,0,1,2.17-.36,5.78,5.78,0,0,1,2.24.38,2.72,2.72,0,0,1,1.34,1.12,3.44,3.44,0,0,1,.45,1.82V556h-1.58l-.13-1.94a3.52,3.52,0,0,1-1.53,1.68A4.42,4.42,0,0,1,212.89,556.2Zm.56-1.33a2.84,2.84,0,0,0,1-.19,3.76,3.76,0,0,0,1-.51,2.59,2.59,0,0,0,.68-.73,1.49,1.49,0,0,0,.27-.84v-1.77l-1.54,0a7.88,7.88,0,0,0-2,.24,2.43,2.43,0,0,0-1.19.69,1.85,1.85,0,0,0-.39,1.23,1.66,1.66,0,0,0,.6,1.36A2.42,2.42,0,0,0,213.45,554.87Zm10.48,1.26a3.47,3.47,0,0,1-1.36-.23,1.91,1.91,0,0,1-.79-.62,2.43,2.43,0,0,1-.37-.89,6,6,0,0,1-.09-1v-12.2h1.82v12a1.9,1.9,0,0,0,.3,1.17,1.18,1.18,0,0,0,.86.43h.56V556a3.38,3.38,0,0,1-.48.11A2.48,2.48,0,0,1,223.93,556.13Zm10.82.07a4.27,4.27,0,0,1-1.77-.35,2.84,2.84,0,0,1-1.21-1,3.31,3.31,0,0,1,.77-4.18,7.13,7.13,0,0,1,3.85-.9l1.85,0v-.81a2,2,0,0,0-.57-1.5,2.46,2.46,0,0,0-1.77-.56,3.11,3.11,0,0,0-1.57.42,1.93,1.93,0,0,0-.87,1.34h-1.63a3,3,0,0,1,2-2.76,5.94,5.94,0,0,1,2.17-.36,5.78,5.78,0,0,1,2.24.38,2.72,2.72,0,0,1,1.34,1.12,3.44,3.44,0,0,1,.45,1.82V556h-1.58l-.13-1.94a3.52,3.52,0,0,1-1.53,1.68A4.42,4.42,0,0,1,234.75,556.2Zm.56-1.33a2.84,2.84,0,0,0,1-.19,3.94,3.94,0,0,0,.95-.51,2.74,2.74,0,0,0,.68-.73,1.67,1.67,0,0,0,.27-.84v-1.77l-1.54,0a7.76,7.76,0,0,0-2,.24,2.38,2.38,0,0,0-1.19.69,1.85,1.85,0,0,0-.39,1.23,1.66,1.66,0,0,0,.6,1.36A2.42,2.42,0,0,0,235.31,554.87Zm7.87,1.13V545.66H245v1.5a4,4,0,0,1,1.18-1.19,3.4,3.4,0,0,1,2-.51,3.58,3.58,0,0,1,1.14.19,3.73,3.73,0,0,1,1.08.57,2.64,2.64,0,0,1,.76.93,3.55,3.55,0,0,1,1.3-1.22,3.66,3.66,0,0,1,1.85-.47,4.19,4.19,0,0,1,1.13.17,2.88,2.88,0,0,1,1.09.58,3,3,0,0,1,.83,1.15,4.78,4.78,0,0,1,.32,1.88V556h-1.86v-6.58a2.88,2.88,0,0,0-.3-1.45,1.68,1.68,0,0,0-.79-.73,2.53,2.53,0,0,0-1-.21,3,3,0,0,0-1,.19,2.11,2.11,0,0,0-.92.64,1.81,1.81,0,0,0-.38,1.23V556h-1.84v-7.12a1.56,1.56,0,0,0-.33-1,2.15,2.15,0,0,0-.81-.62,2.38,2.38,0,0,0-1-.21,2.91,2.91,0,0,0-1.07.21,2.11,2.11,0,0,0-.9.67,1.83,1.83,0,0,0-.36,1.18V556Zm21.41.2a5,5,0,0,1-2.5-.61,4.23,4.23,0,0,1-1.66-1.81,6.53,6.53,0,0,1-.59-2.91,7,7,0,0,1,.55-2.84,4.33,4.33,0,0,1,1.61-1.89,4.78,4.78,0,0,1,2.59-.68,4.71,4.71,0,0,1,2.48.63,4,4,0,0,1,1.64,1.83,7.61,7.61,0,0,1,0,5.73,4.17,4.17,0,0,1-1.58,1.88A4.63,4.63,0,0,1,264.59,556.2Zm0-1.46a2.59,2.59,0,0,0,1.57-.47,2.82,2.82,0,0,0,1-1.35,6,6,0,0,0,.33-2.09,6.17,6.17,0,0,0-.29-2,2.92,2.92,0,0,0-.93-1.41,2.49,2.49,0,0,0-1.65-.52,2.69,2.69,0,0,0-1.59.47,2.88,2.88,0,0,0-1,1.34,6,6,0,0,0-.33,2.11,6.14,6.14,0,0,0,.3,2,3.08,3.08,0,0,0,.94,1.41A2.57,2.57,0,0,0,264.59,554.74Zm10.75,1.46a5.44,5.44,0,0,1-1.53-.23,3.8,3.8,0,0,1-1.26-.67,3.09,3.09,0,0,1-.87-1.09,3.51,3.51,0,0,1-.31-1.53v-7h1.85v6.83a2.22,2.22,0,0,0,.62,1.64,2.57,2.57,0,0,0,1.89.63,2.74,2.74,0,0,0,1.83-.59,2.23,2.23,0,0,0,.7-1.78v-6.73h1.84V556h-1.47l-.19-2a2.8,2.8,0,0,1-.65,1.26,2.75,2.75,0,0,1-1.09.71A3.8,3.8,0,0,1,275.34,556.2Zm7.78-.2V545.66h1.79v1.5a3.24,3.24,0,0,1,.69-.81,3.53,3.53,0,0,1,1.08-.61,4.45,4.45,0,0,1,1.47-.23,4.16,4.16,0,0,1,1.8.39,3,3,0,0,1,1.32,1.22,4.06,4.06,0,0,1,.5,2.12V556h-1.85v-6.58a2.29,2.29,0,0,0-.64-1.79,2.32,2.32,0,0,0-1.64-.59,3.76,3.76,0,0,0-1.31.23,2.2,2.2,0,0,0-1,.68,1.72,1.72,0,0,0-.38,1.14V556Zm16.31-9H297.1v6.43a2.06,2.06,0,0,0,.11.81.57.57,0,0,0,.39.32,3.06,3.06,0,0,0,.76.07h1.13v1.24a2.49,2.49,0,0,1-.58.12,8.25,8.25,0,0,1-1,0,3.86,3.86,0,0,1-1.66-.29,1.62,1.62,0,0,1-.83-.86,3.63,3.63,0,0,1-.23-1.4V547h-1.68v-1.35h1.73l.45-3h1.36v3h2.33Zm10.74,9.19a4,4,0,0,1-3.19-1.38,6,6,0,0,1-1.18-4,7.77,7.77,0,0,1,.47-2.81,3.77,3.77,0,0,1,3.76-2.52,4,4,0,0,1,2.31.67,3.13,3.13,0,0,1,.68.6,3.17,3.17,0,0,1,.4.57v-6.16h1.86V556h-1.41l-.2-2.12a4.49,4.49,0,0,1-.32.7,3.28,3.28,0,0,1-.62.77,3.12,3.12,0,0,1-1,.61A4.24,4.24,0,0,1,310.17,556.2Zm.33-1.42a2.56,2.56,0,0,0,2.24-.95,5.56,5.56,0,0,0,.68-3.13,6.48,6.48,0,0,0-.31-2.06,2.45,2.45,0,0,0-.92-1.29,2.74,2.74,0,0,0-1.65-.45,2.63,2.63,0,0,0-2.08.91,4.34,4.34,0,0,0-.8,2.89,5.36,5.36,0,0,0,.72,3A2.41,2.41,0,0,0,310.5,554.78Zm9.15-3.52A4.63,4.63,0,0,0,320,553a2.81,2.81,0,0,0,1,1.26,2.89,2.89,0,0,0,1.68.47,3,3,0,0,0,1.69-.46,2.07,2.07,0,0,0,.93-1.33H327a3.57,3.57,0,0,1-.84,1.77,4.31,4.31,0,0,1-1.57,1.09,5.29,5.29,0,0,1-1.93.36,5.08,5.08,0,0,1-2.55-.63,4.42,4.42,0,0,1-1.72-1.81,6.06,6.06,0,0,1-.61-2.83,6.73,6.73,0,0,1,.56-2.86,4.41,4.41,0,0,1,1.61-1.92,4.69,4.69,0,0,1,2.58-.69,4.6,4.6,0,0,1,2.47.63,4,4,0,0,1,1.53,1.78,6.42,6.42,0,0,1,.53,2.71v.68Zm0-1.25h5.62a4.08,4.08,0,0,0-.31-1.6,2.37,2.37,0,0,0-.91-1.13,2.7,2.7,0,0,0-1.55-.42,2.64,2.64,0,0,0-1.6.47,2.87,2.87,0,0,0-1,1.19A3.66,3.66,0,0,0,319.67,550Zm13.66,6.19a4,4,0,0,1-3.19-1.38,6.07,6.07,0,0,1-1.18-4,7.77,7.77,0,0,1,.47-2.81,4.08,4.08,0,0,1,1.42-1.86,4.52,4.52,0,0,1,3.65-.47,4,4,0,0,1,1,.48,3.13,3.13,0,0,1,.68.6,2.73,2.73,0,0,1,.4.57v-6.16h1.86V556H337l-.2-2.12a3.72,3.72,0,0,1-.32.7,3.07,3.07,0,0,1-1.65,1.38A4.24,4.24,0,0,1,333.33,556.2Zm.33-1.42a2.55,2.55,0,0,0,2.24-.95,5.48,5.48,0,0,0,.68-3.13,6.21,6.21,0,0,0-.31-2.06,2.45,2.45,0,0,0-.92-1.29,2.74,2.74,0,0,0-1.65-.45,2.64,2.64,0,0,0-2.08.91,4.34,4.34,0,0,0-.8,2.89,5.36,5.36,0,0,0,.72,3A2.43,2.43,0,0,0,333.66,554.78Zm11.64,1.42a5.44,5.44,0,0,1-1.53-.23,4,4,0,0,1-1.26-.67,3.09,3.09,0,0,1-.87-1.09,3.51,3.51,0,0,1-.31-1.53v-7h1.85v6.83a2.26,2.26,0,0,0,.62,1.64,2.57,2.57,0,0,0,1.89.63,2.74,2.74,0,0,0,1.83-.59,2.23,2.23,0,0,0,.7-1.78v-6.73h1.84V556h-1.47l-.19-2a2.8,2.8,0,0,1-.65,1.26,2.75,2.75,0,0,1-1.09.71A3.77,3.77,0,0,1,345.3,556.2Zm11.76-10.74a4.48,4.48,0,0,1,2,.43,3.62,3.62,0,0,1,1.45,1.2,3.89,3.89,0,0,1,.71,1.84h-1.64a2.29,2.29,0,0,0-.42-1,2.23,2.23,0,0,0-.85-.72,2.67,2.67,0,0,0-1.24-.27,2.74,2.74,0,0,0-2.16,1,4.43,4.43,0,0,0-.83,2.94,5,5,0,0,0,.76,2.87,2.63,2.63,0,0,0,2.26,1.07,2.6,2.6,0,0,0,1.23-.27,2.37,2.37,0,0,0,1.26-1.71h1.61a3.67,3.67,0,0,1-.7,1.8,3.76,3.76,0,0,1-1.46,1.18,4.64,4.64,0,0,1-2,.41,4.92,4.92,0,0,1-2.47-.61,4.31,4.31,0,0,1-1.68-1.8,6.44,6.44,0,0,1-.61-2.92,6.9,6.9,0,0,1,.55-2.83,4.44,4.44,0,0,1,1.62-1.9A4.78,4.78,0,0,1,357.06,545.46ZM368.65,547h-2.33v6.43a2.06,2.06,0,0,0,.11.81.57.57,0,0,0,.39.32,3.06,3.06,0,0,0,.76.07h1.13v1.24a2.49,2.49,0,0,1-.58.12,8.25,8.25,0,0,1-.95,0,3.86,3.86,0,0,1-1.66-.29,1.62,1.62,0,0,1-.83-.86,3.63,3.63,0,0,1-.23-1.4V547h-1.68v-1.35h1.73l.45-3h1.36v3h2.33Zm3.7,4.25a4.82,4.82,0,0,0,.32,1.78,2.83,2.83,0,0,0,1,1.26,2.86,2.86,0,0,0,1.67.47,3,3,0,0,0,1.7-.46A2.06,2.06,0,0,0,378,553h1.75a3.57,3.57,0,0,1-.84,1.77,4.23,4.23,0,0,1-1.57,1.09,5.2,5.2,0,0,1-1.92.36,5,5,0,0,1-2.55-.63,4.36,4.36,0,0,1-1.72-1.81,6.06,6.06,0,0,1-.62-2.83,6.88,6.88,0,0,1,.56-2.86,4.37,4.37,0,0,1,1.62-1.92,4.63,4.63,0,0,1,2.57-.69,4.58,4.58,0,0,1,2.47.63,4,4,0,0,1,1.53,1.78,6.42,6.42,0,0,1,.53,2.71v.68Zm0-1.25H378a4.07,4.07,0,0,0-.3-1.6,2.45,2.45,0,0,0-.92-1.13,3,3,0,0,0-3.15.05,2.85,2.85,0,0,0-.95,1.19A3.52,3.52,0,0,0,372.36,550ZM386,556.2a4,4,0,0,1-3.19-1.38,6,6,0,0,1-1.18-4,7.77,7.77,0,0,1,.47-2.81,3.77,3.77,0,0,1,3.76-2.52,4,4,0,0,1,2.31.67,3.13,3.13,0,0,1,.68.6,3.17,3.17,0,0,1,.4.57v-6.16h1.86V556h-1.41l-.2-2.12a4.49,4.49,0,0,1-.32.7,3.28,3.28,0,0,1-.62.77,3.12,3.12,0,0,1-1,.61A4.24,4.24,0,0,1,386,556.2Zm.33-1.42a2.56,2.56,0,0,0,2.24-.95,5.56,5.56,0,0,0,.68-3.13,6.48,6.48,0,0,0-.31-2.06,2.45,2.45,0,0,0-.92-1.29,2.74,2.74,0,0,0-1.65-.45,2.63,2.63,0,0,0-2.08.91,4.34,4.34,0,0,0-.8,2.89,5.36,5.36,0,0,0,.72,3A2.41,2.41,0,0,0,386.36,554.78Zm18.28-9.12V547h-2.51v9h-1.86v-9h-2.18v-1.35h2.18v-1.6a2.56,2.56,0,0,1,.63-1.87,2.52,2.52,0,0,1,1.88-.65h2v1.31h-1.55a1,1,0,0,0-.86.34,1.89,1.89,0,0,0-.23,1v1.44ZM406.93,556V545.66h1.76v2a3.28,3.28,0,0,1,.73-1.22,3,3,0,0,1,1.07-.73,3.4,3.4,0,0,1,1.26-.24l.45,0a.86.86,0,0,1,.34.1v1.79a1,1,0,0,0-.39-.09l-.39,0a4,4,0,0,0-1.16.08,2.45,2.45,0,0,0-1,.39,2,2,0,0,0-.65.74,2.45,2.45,0,0,0-.23,1.1V556Zm11.63.2a4.93,4.93,0,0,1-2.5-.61,4.17,4.17,0,0,1-1.66-1.81,6.53,6.53,0,0,1-.59-2.91,6.79,6.79,0,0,1,.55-2.84,4.27,4.27,0,0,1,1.61-1.89,5.23,5.23,0,0,1,5.07,0,4.13,4.13,0,0,1,1.64,1.83,7.61,7.61,0,0,1,0,5.73,4.23,4.23,0,0,1-1.58,1.88A4.65,4.65,0,0,1,418.56,556.2Zm0-1.46a2.61,2.61,0,0,0,1.57-.47,2.88,2.88,0,0,0,1-1.35,6,6,0,0,0,.33-2.09,6.46,6.46,0,0,0-.29-2,2.92,2.92,0,0,0-.93-1.41,2.49,2.49,0,0,0-1.65-.52,2.65,2.65,0,0,0-1.59.47,2.82,2.82,0,0,0-1,1.34,6,6,0,0,0-.33,2.11,6.14,6.14,0,0,0,.3,2,3,3,0,0,0,.94,1.41A2.55,2.55,0,0,0,418.56,554.74Zm7.12,1.26V545.66h1.78v1.5a4,4,0,0,1,1.18-1.19,3.4,3.4,0,0,1,1.95-.51,3.58,3.58,0,0,1,1.14.19,3.73,3.73,0,0,1,1.08.57,2.54,2.54,0,0,1,.76.93,3.55,3.55,0,0,1,1.3-1.22,3.69,3.69,0,0,1,1.85-.47,4.25,4.25,0,0,1,1.13.17,2.88,2.88,0,0,1,1.09.58,3,3,0,0,1,.83,1.15,4.78,4.78,0,0,1,.32,1.88V556h-1.86v-6.58a2.88,2.88,0,0,0-.3-1.45,1.68,1.68,0,0,0-.79-.73,2.53,2.53,0,0,0-1-.21,3,3,0,0,0-1,.19,2.11,2.11,0,0,0-.92.64,1.86,1.86,0,0,0-.38,1.23V556H432v-7.12a1.56,1.56,0,0,0-.33-1,2.07,2.07,0,0,0-.81-.62,2.38,2.38,0,0,0-1-.21,2.91,2.91,0,0,0-1.07.21,2.06,2.06,0,0,0-.9.67,1.83,1.83,0,0,0-.36,1.18V556Zm22.8,3.3a3.87,3.87,0,0,1-1.25-.13l-.34-.13v-1.2l1.05,0a3.44,3.44,0,0,0,1-.08,2,2,0,0,0,.61-.27,1.25,1.25,0,0,0,.35-.38c.08-.14.15-.27.21-.4l.36-1-4-10.09h1.87l3.05,8,3-8h1.81l-4.36,11.12a5.42,5.42,0,0,1-.9,1.53,2.76,2.76,0,0,1-1.1.77A3.71,3.71,0,0,1,448.48,559.3Zm13.38-3.1a4.9,4.9,0,0,1-2.5-.61,4.11,4.11,0,0,1-1.66-1.81,6.4,6.4,0,0,1-.59-2.91,6.79,6.79,0,0,1,.55-2.84,4.2,4.2,0,0,1,1.61-1.89,5.23,5.23,0,0,1,5.07,0,4.08,4.08,0,0,1,1.64,1.83,6.89,6.89,0,0,1,.58,3,6.73,6.73,0,0,1-.54,2.78,4.17,4.17,0,0,1-1.58,1.88A4.65,4.65,0,0,1,461.86,556.2Zm0-1.46a2.61,2.61,0,0,0,1.57-.47,2.82,2.82,0,0,0,1-1.35,6,6,0,0,0,.33-2.09,6.46,6.46,0,0,0-.29-2,3.07,3.07,0,0,0-.93-1.41,2.49,2.49,0,0,0-1.65-.52,2.65,2.65,0,0,0-1.59.47,2.82,2.82,0,0,0-1,1.34,6,6,0,0,0-.33,2.11,6.14,6.14,0,0,0,.3,2,3,3,0,0,0,.94,1.41A2.53,2.53,0,0,0,461.86,554.74Zm10.74,1.46a5.44,5.44,0,0,1-1.53-.23,4,4,0,0,1-1.26-.67,3.33,3.33,0,0,1-.87-1.09,3.66,3.66,0,0,1-.31-1.53v-7h1.85v6.83a2.26,2.26,0,0,0,.62,1.64,2.57,2.57,0,0,0,1.89.63,2.74,2.74,0,0,0,1.83-.59,2.2,2.2,0,0,0,.7-1.78v-6.73h1.84V556h-1.47l-.19-2a2.61,2.61,0,0,1-.65,1.26A2.68,2.68,0,0,1,474,556,3.77,3.77,0,0,1,472.6,556.2Zm7.79-.2V545.66h1.75v2a3.3,3.3,0,0,1,.74-1.22,3,3,0,0,1,1.07-.73,3.35,3.35,0,0,1,1.25-.24,3.19,3.19,0,0,1,.45,0,.81.81,0,0,1,.34.1v1.79a1,1,0,0,0-.38-.09l-.4,0a4,4,0,0,0-1.16.08,2.47,2.47,0,0,0-.94.39,2,2,0,0,0-.66.74,2.45,2.45,0,0,0-.22,1.1V556Zm-294,28.2a4.27,4.27,0,0,1-1.77-.35,2.84,2.84,0,0,1-1.21-1,3.31,3.31,0,0,1,.77-4.18,7.13,7.13,0,0,1,3.85-.9l1.85,0v-.81a2,2,0,0,0-.57-1.5,2.46,2.46,0,0,0-1.77-.56,3.11,3.11,0,0,0-1.57.42,1.93,1.93,0,0,0-.87,1.34h-1.63a3,3,0,0,1,2-2.76,5.94,5.94,0,0,1,2.17-.36,5.78,5.78,0,0,1,2.24.38,2.72,2.72,0,0,1,1.34,1.12,3.44,3.44,0,0,1,.45,1.82V584h-1.58l-.13-1.94a3.52,3.52,0,0,1-1.53,1.68A4.42,4.42,0,0,1,186.39,584.2Zm.56-1.33a2.84,2.84,0,0,0,1-.19,3.94,3.94,0,0,0,1-.51,2.74,2.74,0,0,0,.68-.73,1.67,1.67,0,0,0,.27-.84v-1.77l-1.54,0a7.76,7.76,0,0,0-2,.24,2.38,2.38,0,0,0-1.19.69,1.85,1.85,0,0,0-.39,1.23,1.66,1.66,0,0,0,.6,1.36A2.42,2.42,0,0,0,187,582.87Zm12-9.41a4.48,4.48,0,0,1,2,.43,3.69,3.69,0,0,1,1.45,1.2,3.89,3.89,0,0,1,.71,1.84h-1.64a2.37,2.37,0,0,0-1.27-1.71,2.93,2.93,0,0,0-3.4.69,4.43,4.43,0,0,0-.83,2.94,4.88,4.88,0,0,0,.76,2.87,2.62,2.62,0,0,0,2.26,1.07,2.65,2.65,0,0,0,1.23-.27,2.43,2.43,0,0,0,.85-.73,2.47,2.47,0,0,0,.41-1h1.61a3.77,3.77,0,0,1-.7,1.8,3.84,3.84,0,0,1-1.46,1.18,4.71,4.71,0,0,1-2,.41,4.89,4.89,0,0,1-2.47-.61,4.31,4.31,0,0,1-1.68-1.8,6.31,6.31,0,0,1-.61-2.92,6.74,6.74,0,0,1,.55-2.83,4.31,4.31,0,0,1,1.62-1.9A4.76,4.76,0,0,1,198.94,573.46Zm10.78,0a4.48,4.48,0,0,1,2,.43,3.69,3.69,0,0,1,1.45,1.2,3.89,3.89,0,0,1,.71,1.84h-1.64a2.37,2.37,0,0,0-1.27-1.71,2.93,2.93,0,0,0-3.4.69,4.43,4.43,0,0,0-.83,2.94,4.88,4.88,0,0,0,.76,2.87,2.62,2.62,0,0,0,2.26,1.07,2.65,2.65,0,0,0,1.23-.27,2.43,2.43,0,0,0,.85-.73,2.47,2.47,0,0,0,.41-1h1.61a3.77,3.77,0,0,1-.7,1.8,3.84,3.84,0,0,1-1.46,1.18,4.71,4.71,0,0,1-2,.41,4.89,4.89,0,0,1-2.47-.61,4.31,4.31,0,0,1-1.68-1.8,6.31,6.31,0,0,1-.61-2.92,6.74,6.74,0,0,1,.55-2.83,4.31,4.31,0,0,1,1.62-1.9A4.76,4.76,0,0,1,209.72,573.46Zm10.77,10.74a5,5,0,0,1-2.5-.61,4.23,4.23,0,0,1-1.66-1.81,6.53,6.53,0,0,1-.59-2.91,7,7,0,0,1,.55-2.84,4.33,4.33,0,0,1,1.61-1.89,4.78,4.78,0,0,1,2.59-.68,4.71,4.71,0,0,1,2.48.63,4,4,0,0,1,1.64,1.83,7.61,7.61,0,0,1,0,5.73,4.17,4.17,0,0,1-1.58,1.88A4.63,4.63,0,0,1,220.49,584.2Zm0-1.46a2.61,2.61,0,0,0,1.57-.47,2.82,2.82,0,0,0,1-1.35,6,6,0,0,0,.33-2.09,6.46,6.46,0,0,0-.29-2,2.92,2.92,0,0,0-.93-1.41,2.49,2.49,0,0,0-1.65-.52,2.69,2.69,0,0,0-1.59.47,2.88,2.88,0,0,0-1,1.34,6,6,0,0,0-.33,2.11,6.14,6.14,0,0,0,.3,2,3.08,3.08,0,0,0,.94,1.41A2.55,2.55,0,0,0,220.49,582.74Zm10.75,1.46a5.44,5.44,0,0,1-1.53-.23,3.8,3.8,0,0,1-1.26-.67,3.09,3.09,0,0,1-.87-1.09,3.51,3.51,0,0,1-.31-1.53v-7h1.85v6.83a2.22,2.22,0,0,0,.62,1.64,2.57,2.57,0,0,0,1.89.63,2.74,2.74,0,0,0,1.83-.59,2.23,2.23,0,0,0,.7-1.78v-6.73H236V584h-1.47l-.19-2a2.8,2.8,0,0,1-.65,1.26,2.75,2.75,0,0,1-1.09.71A3.8,3.8,0,0,1,231.24,584.2ZM239,584V573.66h1.79v1.5a3.24,3.24,0,0,1,.69-.81,3.53,3.53,0,0,1,1.08-.61,4.4,4.4,0,0,1,1.47-.23,4.16,4.16,0,0,1,1.8.39,3,3,0,0,1,1.32,1.22,4.06,4.06,0,0,1,.5,2.12V584h-1.85v-6.58a2.13,2.13,0,0,0-2.28-2.38,3.72,3.72,0,0,0-1.31.23,2.2,2.2,0,0,0-1,.68,1.72,1.72,0,0,0-.38,1.14V584Zm16.31-9H253v6.43a2.06,2.06,0,0,0,.11.81.57.57,0,0,0,.39.32,3.06,3.06,0,0,0,.76.07h1.13v1.24a2.49,2.49,0,0,1-.58.12,8.25,8.25,0,0,1-.95,0,3.86,3.86,0,0,1-1.66-.29,1.62,1.62,0,0,1-.83-.86,3.63,3.63,0,0,1-.23-1.4V575h-1.68v-1.35h1.73l.45-3H253v3h2.33Zm9.26-1.35V584H262.8V573.66Zm0-4.11v1.92h-1.89v-1.92Zm6.89,14.65a6,6,0,0,1-2-.33,3.62,3.62,0,0,1-1.53-1,3.46,3.46,0,0,1-.77-1.83h1.68a2.22,2.22,0,0,0,.5,1,2.29,2.29,0,0,0,.92.61,3.51,3.51,0,0,0,1.2.2,3.21,3.21,0,0,0,1.68-.39,1.32,1.32,0,0,0,.64-1.2,1.26,1.26,0,0,0-.34-.91,2.08,2.08,0,0,0-1-.51l-2.14-.53a4.66,4.66,0,0,1-2-.94,2.23,2.23,0,0,1-.75-1.79A2.77,2.77,0,0,1,268,575a3,3,0,0,1,1.32-1.09,5.2,5.2,0,0,1,2.19-.4,4.44,4.44,0,0,1,2.71.76,2.67,2.67,0,0,1,1.08,2.21h-1.63a1.71,1.71,0,0,0-.67-1.17,2.42,2.42,0,0,0-1.51-.44,2.89,2.89,0,0,0-1.61.4,1.33,1.33,0,0,0-.62,1.22,1,1,0,0,0,.44.87,3.75,3.75,0,0,0,1.3.52l2.07.52a3.92,3.92,0,0,1,1.18.5,2.91,2.91,0,0,1,.74.69,2.58,2.58,0,0,1,.39.8,2.91,2.91,0,0,1-.36,2.43,3.12,3.12,0,0,1-1.36,1.06A5.47,5.47,0,0,1,271.52,584.2ZM294,578.49a7.46,7.46,0,0,1-.57,3,4.17,4.17,0,0,1-1.85,2,7.07,7.07,0,0,1-3.37.69,7,7,0,0,1-3.38-.7,4.13,4.13,0,0,1-1.84-2,7.87,7.87,0,0,1-.56-3.1v-8.85h3v9.07a3.16,3.16,0,0,0,.78,2.37,2.85,2.85,0,0,0,2,.74,3.31,3.31,0,0,0,1.47-.32,2.32,2.32,0,0,0,1-1,3.7,3.7,0,0,0,.37-1.78v-9.07h3Zm8.33,5.71a8.29,8.29,0,0,1-2.1-.27,6.6,6.6,0,0,1-1.88-.81,5,5,0,0,1-1.41-1.35,4,4,0,0,1-.66-1.9h3a2.36,2.36,0,0,0,.57,1.11,2.71,2.71,0,0,0,1.06.69,4,4,0,0,0,1.42.24,5.15,5.15,0,0,0,1.46-.2,2.44,2.44,0,0,0,1.06-.6,1.38,1.38,0,0,0,.4-1,1.25,1.25,0,0,0-.33-.9,2.35,2.35,0,0,0-.87-.57,6.61,6.61,0,0,0-1.25-.36l-2.5-.51a4.77,4.77,0,0,1-2.6-1.3,4.13,4.13,0,0,1-.27-5,4.71,4.71,0,0,1,2-1.54,7.22,7.22,0,0,1,2.84-.54,7.46,7.46,0,0,1,3.14.59,4.47,4.47,0,0,1,1.94,1.58,3.93,3.93,0,0,1,.69,2.21h-2.93a2,2,0,0,0-1.44-1.86,4.26,4.26,0,0,0-1.35-.2,3.9,3.9,0,0,0-1.06.13,2.57,2.57,0,0,0-.8.37,1.66,1.66,0,0,0-.51.55,1.43,1.43,0,0,0-.18.72,1.33,1.33,0,0,0,.42,1,3.5,3.5,0,0,0,1.57.64l2.48.51a5.87,5.87,0,0,1,2.11.77,3.66,3.66,0,0,1,1.7,2.46,6.11,6.11,0,0,1,.13,1.22,3.35,3.35,0,0,1-.74,2.11,5,5,0,0,1-2,1.48A8,8,0,0,1,302.31,584.2Zm18.13,0a7.71,7.71,0,0,1-4.22-1,4.17,4.17,0,0,1-1.86-3.23l3-.06a2.41,2.41,0,0,0,1,1.51,3.64,3.64,0,0,0,2,.51,3.34,3.34,0,0,0,1.27-.23,2.26,2.26,0,0,0,.88-.64,1.48,1.48,0,0,0,.32-.93,1.41,1.41,0,0,0-.51-1.19,4,4,0,0,0-1.57-.64l-2.37-.51a5.11,5.11,0,0,1-2.65-1.31,3.63,3.63,0,0,1-1-2.65,3.7,3.7,0,0,1,.73-2.35,4.74,4.74,0,0,1,2-1.54,7.41,7.41,0,0,1,2.89-.54,6.38,6.38,0,0,1,2.83.59,4.46,4.46,0,0,1,1.84,1.57,3.77,3.77,0,0,1,.63,2.17l-2.95,0a2.87,2.87,0,0,0-.64-1.51,2.16,2.16,0,0,0-1.66-.55,3.87,3.87,0,0,0-1.07.13,2.53,2.53,0,0,0-.81.37,1.6,1.6,0,0,0-.52.55,1.42,1.42,0,0,0-.17.72,1.27,1.27,0,0,0,.42,1,4.4,4.4,0,0,0,1.61.67l2.33.57a4.83,4.83,0,0,1,2.84,1.61,4.43,4.43,0,0,1,.88,2.77,3.57,3.57,0,0,1-.69,2.18,4.41,4.41,0,0,1-1.93,1.44A7.8,7.8,0,0,1,320.44,584.2Zm-1.25-16.73h2.53v2.6h-2.53Zm-.05,15.84h2.52v2.6h-2.52Zm11.28.69V573.17h-2.58v-1.65a7.22,7.22,0,0,0,2-.23,2.46,2.46,0,0,0,1.15-.68,2,2,0,0,0,.45-1.07h1.94V584ZM342,569.34a4.88,4.88,0,0,1,4.08,1.93,11.07,11.07,0,0,1,0,11,5.34,5.34,0,0,1-8.19,0,8.81,8.81,0,0,1-1.47-5.5,10.66,10.66,0,0,1,.68-4.07,5.45,5.45,0,0,1,1.92-2.53A5.1,5.1,0,0,1,342,569.34Zm0,12.49a2,2,0,0,0,1.9-1.15,9,9,0,0,0,.59-3.87,9.51,9.51,0,0,0-.6-4,2.1,2.1,0,0,0-3.8,0,9.15,9.15,0,0,0-.63,4,8.61,8.61,0,0,0,.63,3.86A2,2,0,0,0,342,581.83Zm13.81-12.29h2.87v8.81h2.23v2.45h-2.23V584h-2.81v-3.2h-6.66v-2.4Zm-3.89,8.81h4v-5.3ZM362.46,584v-3.18h3.2V584Zm10.59.22a6.08,6.08,0,0,1-2.52-.52,5,5,0,0,1-1.91-1.46,4,4,0,0,1-.83-2.22h2.78a2.42,2.42,0,0,0,.8,1.37,2.35,2.35,0,0,0,1.56.52,3.31,3.31,0,0,0,1.82-.49,2.94,2.94,0,0,0,1.18-1.56,6.73,6.73,0,0,0,.28-2.8,2.85,2.85,0,0,1-.78.93,3.71,3.71,0,0,1-1.15.61,4.83,4.83,0,0,1-1.47.21,5.89,5.89,0,0,1-2.61-.55,4.4,4.4,0,0,1-1.78-1.58,4.6,4.6,0,0,1-.64-2.44,4.65,4.65,0,0,1,2.58-4.27,6.18,6.18,0,0,1,2.86-.63,5.56,5.56,0,0,1,3.17.88,5.48,5.48,0,0,1,2.05,2.48,9.12,9.12,0,0,1,.72,3.77,10.88,10.88,0,0,1-.74,4.32,5.34,5.34,0,0,1-2.1,2.58A6,6,0,0,1,373.05,584.22Zm.26-7.73a2.72,2.72,0,0,0,1.18-.27,2.9,2.9,0,0,0,.95-.7,1.29,1.29,0,0,0,.37-.87,3.68,3.68,0,0,0-.31-1.66,2.35,2.35,0,0,0-.88-1.07,2.29,2.29,0,0,0-1.31-.37,2.4,2.4,0,0,0-1.23.32,2.24,2.24,0,0,0-.85.9,2.88,2.88,0,0,0-.31,1.34,2.32,2.32,0,0,0,.66,1.76A2.44,2.44,0,0,0,373.31,576.49Zm13.14-7.15a4.86,4.86,0,0,1,4.07,1.93,11,11,0,0,1,0,11,4.87,4.87,0,0,1-4.09,1.91,4.92,4.92,0,0,1-4.11-1.91,8.87,8.87,0,0,1-1.47-5.5,10.86,10.86,0,0,1,.68-4.07,5.4,5.4,0,0,1,1.93-2.53A5.05,5.05,0,0,1,386.45,569.34Zm0,12.49a2,2,0,0,0,1.89-1.15,9,9,0,0,0,.6-3.87,9.48,9.48,0,0,0-.61-4,2,2,0,0,0-1.89-1.2,2,2,0,0,0-1.91,1.21,9.17,9.17,0,0,0-.62,4,8.64,8.64,0,0,0,.62,3.86A2,2,0,0,0,386.45,581.83ZM394,584v-2.36h2.2V584Z" transform="translate(-106 -110)"/></g></g></g></svg>