<svg id="Layer_1" data-name="Layer 1" xmlns="http://www.w3.org/2000/svg" xmlns:xlink="http://www.w3.org/1999/xlink" viewBox="0 0 564.25 501"><defs><style>.cls-1,.cls-31,.cls-32,.cls-33{fill:#fff;}.cls-1,.cls-17,.cls-18,.cls-19,.cls-20,.cls-3,.cls-4,.cls-5,.cls-6,.cls-7,.cls-8{fill-rule:evenodd;}.cls-14,.cls-2{fill:none;}.cls-3{fill:#213648;}.cls-17,.cls-4{fill-opacity:0.65;opacity:0.6;}.cls-13,.cls-17,.cls-18,.cls-19,.cls-23,.cls-32,.cls-33,.cls-4,.cls-5,.cls-6{isolation:isolate;}.cls-4{fill:url(#linear-gradient);}.cls-18,.cls-19,.cls-5,.cls-6{opacity:0.75;}.cls-5{fill:url(#linear-gradient-2);}.cls-6{fill:url(#linear-gradient-3);}.cls-7{fill:#2e423c;}.cls-12,.cls-23,.cls-8{fill:#36536b;}.cls-9{mask:url(#mask);}.cls-10{fill:#fbfcfe;}.cls-11{clip-path:url(#clip-path);}.cls-13,.cls-16{fill:#ba4270;}.cls-13,.cls-33{opacity:0.25;}.cls-14{stroke:#ba4270;stroke-width:3px;}.cls-15{clip-path:url(#clip-path-2);}.cls-17{fill:url(#linear-gradient-4);}.cls-18{fill:url(#linear-gradient-5);}.cls-19{fill:url(#linear-gradient-6);}.cls-20{fill:#edf3f8;}.cls-21{mask:url(#mask-2);}.cls-22{clip-path:url(#clip-path-3);}.cls-23{opacity:0.7;}.cls-24{clip-path:url(#clip-path-4);}.cls-25{clip-path:url(#clip-path-5);}.cls-26{clip-path:url(#clip-path-6);}.cls-27{clip-path:url(#clip-path-7);}.cls-28{clip-path:url(#clip-path-8);}.cls-29{clip-path:url(#clip-path-9);}.cls-30{clip-path:url(#clip-path-10);}.cls-32{opacity:0.5;}</style><linearGradient id="linear-gradient" x1="184.34" y1="604.28" x2="184.34" y2="591.95" gradientTransform="matrix(1, 0, 0, -1, 0, 659.28)" gradientUnits="userSpaceOnUse"><stop offset="0" stop-color="#454545"/><stop offset="0.23" stop-color="#999"/><stop offset="1" stop-color="#fff"/></linearGradient><linearGradient id="linear-gradient-2" x1="313.1" y1="355.45" x2="303.64" y2="355.45" gradientTransform="matrix(1, 0, 0, -1, 0, 659.28)" gradientUnits="userSpaceOnUse"><stop offset="0" stop-color="#fff" stop-opacity="0.01"/><stop offset="0.22" stop-color="#bababa"/><stop offset="0.55" stop-color="#fff" stop-opacity="0.01"/><stop offset="1" stop-color="#fff" stop-opacity="0.01"/></linearGradient><linearGradient id="linear-gradient-3" x1="55.57" y1="355.45" x2="65.04" y2="355.45" xlink:href="#linear-gradient-2"/><mask id="mask" x="316.82" y="13.94" width="232.61" height="464.12" maskUnits="userSpaceOnUse"><g transform="translate(248.75 -53.51)"><g id="mask0_0_4933" data-name="mask0 0 4933"><path id="Screen_Mask_2" data-name="Screen Mask_2" class="cls-1" d="M161.68,67.44H87.27c-11.1,0-19.2,7.57-19.2,17.45V507.28c0,12.88,12.51,24.29,26.64,24.29H274.05c13.61,0,26.64-11.5,26.64-24.29V86c0-11.84-8.79-18.52-19.2-18.59H205.9A14.42,14.42,0,0,0,198.23,75c-2.19,5.38-6.61,9.67-11.44,9.67h-5.62c-2.3,0-8.35-2.23-11.41-9.67S162,67.49,161.68,67.44Z"/></g></g></mask><clipPath id="clip-path" transform="translate(248.75 -53.51)"><rect class="cls-2" x="110" y="233" width="149" height="122"/></clipPath><clipPath id="clip-path-2" transform="translate(248.75 -53.51)"><rect class="cls-2" x="119" y="373" width="131" height="30"/></clipPath><linearGradient id="linear-gradient-4" x1="-117.41" y1="605.77" x2="-117.41" y2="593.45" xlink:href="#linear-gradient"/><linearGradient id="linear-gradient-5" x1="11.35" y1="356.94" x2="1.89" y2="356.94" xlink:href="#linear-gradient-2"/><linearGradient id="linear-gradient-6" x1="-246.18" y1="356.94" x2="-236.71" y2="356.94" xlink:href="#linear-gradient-2"/><mask id="mask-2" x="15.07" y="12.44" width="233" height="488.56" maskUnits="userSpaceOnUse"><g transform="translate(248.75 -53.51)"><g id="mask0_0_4969" data-name="mask0 0 4969"><path id="Screen_Mask_2-2" data-name="Screen Mask_2" class="cls-1" d="M-140.07,66h-74.41c-11.1,0-19.2,7.56-19.2,17.44V505.78c0,12.88,12.51,24.29,26.64,24.29H-27.7c13.61,0,26.64-11.5,26.64-24.29V84.53C-1.06,72.69-9.85,66-20.26,66H-95.85a14.38,14.38,0,0,0-7.67,7.56c-2.19,5.39-6.61,9.68-11.44,9.68h-5.62c-2.3,0-8.35-2.23-11.41-9.68S-139.79,66-140.07,66Z"/></g></g></mask><clipPath id="clip-path-3" transform="translate(248.75 -53.51)"><rect class="cls-2" x="-202.75" y="237.51" width="172" height="18"/></clipPath><clipPath id="clip-path-4" transform="translate(248.75 -53.51)"><rect class="cls-2" x="-202.75" y="285.51" width="172" height="18"/></clipPath><clipPath id="clip-path-5" transform="translate(248.75 -53.51)"><rect class="cls-2" x="-202.75" y="333.51" width="172" height="18"/></clipPath><clipPath id="clip-path-6" transform="translate(248.75 -53.51)"><rect class="cls-2" x="-202.75" y="381.51" width="172" height="18"/></clipPath><clipPath id="clip-path-7" transform="translate(248.75 -53.51)"><rect class="cls-2" x="-202.75" y="429.51" width="172" height="18"/></clipPath><clipPath id="clip-path-8" transform="translate(248.75 -53.51)"><rect class="cls-2" x="-202.75" y="477.51" width="172" height="18"/></clipPath><clipPath id="clip-path-9" transform="translate(248.75 -53.51)"><rect class="cls-2" x="-202.75" y="525.51" width="172" height="18"/></clipPath><clipPath id="clip-path-10" transform="translate(248.75 -53.51)"><rect class="cls-2" x="-218.75" y="146.51" width="204" height="56"/></clipPath></defs><g id="Group_38" data-name="Group 38"><g id="Group_2_Copy_3" data-name="Group 2 Copy 3"><g id="iPhone-X-Mockup"><g id="phone"><g id="body"><path class="cls-3" d="M88.78,55.57H280c18.34,0,33.21,14.23,33.21,31.79V522.64c0,17.56-14.87,31.79-33.21,31.79H88.78c-18.34,0-33.21-14.23-33.21-31.79V87.36C55.57,69.8,70.44,55.57,88.78,55.57Z" transform="translate(248.75 -53.51)"/></g><g id="frame"><path id="reflect-frame-top" class="cls-4" d="M280.75,55H87.92Q74.42,55.83,63,67.32c4.89-4.26,13.61-10,25.14-10H280.52c11.53,0,20.25,5.72,25.14,10Q294.25,55.83,280.75,55Z" transform="translate(248.75 -53.51)"/><path id="reflect-frame-right" class="cls-5" d="M308,517.67V90c0-11.47-4.22-15.72-6.73-18.44s-2.63-4.11,1-2.06,10.84,8,10.84,20.5V517.67c0,12.45-7.23,18.44-10.84,20.5s-3.51.67-1-2.06S308,529.15,308,517.67Z" transform="translate(248.75 -53.51)"/><path id="reflect-frame-left" class="cls-6" d="M60.67,517.67V90c0-11.47,4.22-15.72,6.74-18.44s2.62-4.11-1-2.06-10.84,8-10.84,20.5V517.67c0,12.45,7.23,18.44,10.84,20.5s3.51.67,1-2.06S60.67,529.15,60.67,517.67Z" transform="translate(248.75 -53.51)"/></g><g id="controls"><path id="vol_" data-name="vol+" class="cls-7" d="M53,158.56a2,2,0,0,1,2-2h1a2,2,0,0,1,2,2v60.35a2,2,0,0,1-2,2H55a2,2,0,0,1-2-2Z" transform="translate(248.75 -53.51)"/><path id="power" class="cls-7" d="M310.54,211a2,2,0,0,1,2-2h1a2,2,0,0,1,2,2v43a2,2,0,0,1-2,2h-1a2,2,0,0,1-2-2Z" transform="translate(248.75 -53.51)"/></g></g><g id="Screen"><path id="Screen_Mask" data-name="Screen Mask" class="cls-8" d="M161.68,67.44H87.27c-11.1,0-19.2,7.57-19.2,17.45V507.28c0,12.88,12.51,24.29,26.64,24.29H274.05c13.61,0,26.64-11.5,26.64-24.29V86c0-11.84-8.79-18.52-19.2-18.59H205.9A14.42,14.42,0,0,0,198.23,75c-2.19,5.38-6.61,9.67-11.44,9.67h-5.62c-2.3,0-8.35-2.23-11.41-9.67S162,67.49,161.68,67.44Z" transform="translate(248.75 -53.51)"/></g></g></g><g id="Group_39" data-name="Group 39"><g id="Group_33" data-name="Group 33"><g id="Group_34" data-name="Group 34"><g id="Rectangle"><rect class="cls-10" x="344.75" y="143.49" width="176" height="191" rx="5"/></g><g class="cls-11"><g id="Group_32" data-name="Group 32"><path id="Payment_of_9204_is" data-name="Payment of $9204 is" class="cls-12" d="M129.6,315v-9.4h3.18a4.4,4.4,0,0,1,1.79.34,2.71,2.71,0,0,1,1.23,1,2.77,2.77,0,0,1,.46,1.63,2.91,2.91,0,0,1-.42,1.6,2.69,2.69,0,0,1-1.17,1,4,4,0,0,1-1.73.34h-2.11V315Zm1.23-4.49h2.08a2.3,2.3,0,0,0,1.58-.54,1.88,1.88,0,0,0,.6-1.47,1.7,1.7,0,0,0-.62-1.42,2.6,2.6,0,0,0-1.62-.48h-2Zm8.43,4.62a2.78,2.78,0,0,1-1.15-.23,1.85,1.85,0,0,1-.79-.67,2,2,0,0,1-.28-1.05,1.88,1.88,0,0,1,.78-1.66,4.64,4.64,0,0,1,2.51-.59l1.2,0v-.53a1.31,1.31,0,0,0-.37-1A1.56,1.56,0,0,0,140,309a2,2,0,0,0-1,.28,1.26,1.26,0,0,0-.57.87h-1.06a2.07,2.07,0,0,1,.37-1.11,2.1,2.1,0,0,1,.92-.69,4,4,0,0,1,1.42-.23,3.59,3.59,0,0,1,1.45.25,1.74,1.74,0,0,1,.87.72,2.23,2.23,0,0,1,.29,1.19V315h-1l-.09-1.26a2.32,2.32,0,0,1-1,1.09A2.91,2.91,0,0,1,139.26,315.13Zm.36-.86a2,2,0,0,0,.67-.13,2.16,2.16,0,0,0,.62-.33,1.76,1.76,0,0,0,.44-.47,1.06,1.06,0,0,0,.18-.55v-1.15l-1,0a5.15,5.15,0,0,0-1.29.16,1.48,1.48,0,0,0-.77.44,1.22,1.22,0,0,0-.26.8,1.1,1.1,0,0,0,.39.89A1.61,1.61,0,0,0,139.62,314.27Zm5.47,2.87a2.58,2.58,0,0,1-.82-.08l-.22-.08v-.78h.69a2.28,2.28,0,0,0,.62,0,1.5,1.5,0,0,0,.4-.18.75.75,0,0,0,.22-.25,1.28,1.28,0,0,0,.14-.25l.23-.64-2.62-6.56h1.21l2,5.19,2-5.19h1.17l-2.83,7.23a3.5,3.5,0,0,1-.59,1,1.69,1.69,0,0,1-.71.5A2.37,2.37,0,0,1,145.09,317.14Zm6.17-2.14v-6.72h1.15v1a2.69,2.69,0,0,1,.77-.77,2.22,2.22,0,0,1,1.27-.33,2.43,2.43,0,0,1,.74.12,2.61,2.61,0,0,1,.7.37,1.7,1.7,0,0,1,.49.61,2.34,2.34,0,0,1,.85-.8,2.38,2.38,0,0,1,1.2-.3,2.75,2.75,0,0,1,.73.11,1.69,1.69,0,0,1,.71.38,1.76,1.76,0,0,1,.54.74,3.09,3.09,0,0,1,.21,1.23V315h-1.21v-4.28a1.89,1.89,0,0,0-.19-.94,1,1,0,0,0-.52-.47,1.49,1.49,0,0,0-.67-.14,2.05,2.05,0,0,0-.66.12,1.46,1.46,0,0,0-.6.42,1.21,1.21,0,0,0-.24.8V315h-1.2v-4.63a1,1,0,0,0-.21-.66,1.31,1.31,0,0,0-.53-.4,1.44,1.44,0,0,0-.63-.14,1.74,1.74,0,0,0-.69.14,1.45,1.45,0,0,0-.59.43,1.24,1.24,0,0,0-.23.77V315Zm12-3.08a3.11,3.11,0,0,0,.21,1.16,1.84,1.84,0,0,0,.64.81,1.8,1.8,0,0,0,1.09.31,2,2,0,0,0,1.1-.3,1.34,1.34,0,0,0,.6-.86H168a2.29,2.29,0,0,1-.55,1.15,2.72,2.72,0,0,1-1,.71,3.51,3.51,0,0,1-1.25.23,3.28,3.28,0,0,1-1.65-.41,2.84,2.84,0,0,1-1.12-1.18,3.88,3.88,0,0,1-.41-1.84,4.46,4.46,0,0,1,.37-1.85,2.81,2.81,0,0,1,1.05-1.25,3.34,3.34,0,0,1,3.28,0,2.53,2.53,0,0,1,1,1.15,4.2,4.2,0,0,1,.35,1.77v.44Zm0-.81h3.65a2.79,2.79,0,0,0-.19-1,1.57,1.57,0,0,0-.6-.74,2,2,0,0,0-2,0,1.91,1.91,0,0,0-.62.78A2.3,2.3,0,0,0,163.27,311.11Zm6.36,3.89v-6.72h1.16v1a2.22,2.22,0,0,1,1.15-.92,3,3,0,0,1,2.13.1,2,2,0,0,1,.86.8,2.66,2.66,0,0,1,.32,1.38V315h-1.2v-4.28a1.39,1.39,0,0,0-1.48-1.54,2.43,2.43,0,0,0-.86.15,1.45,1.45,0,0,0-.64.44,1.12,1.12,0,0,0-.25.74V315Zm10.5-5.84h-1.52v4.18a1.62,1.62,0,0,0,.07.52.39.39,0,0,0,.26.21,2,2,0,0,0,.49.05h.74v.8a1.73,1.73,0,0,1-.38.08,5.34,5.34,0,0,1-.62,0,2.46,2.46,0,0,1-1.08-.19,1.11,1.11,0,0,1-.54-.55,2.48,2.48,0,0,1-.15-.91v-4.22h-1.09v-.88h1.13l.29-2h.88v1.95h1.52Zm7,6a3.2,3.2,0,0,1-1.63-.4,2.79,2.79,0,0,1-1.08-1.17,4.33,4.33,0,0,1-.38-1.89,4.42,4.42,0,0,1,.36-1.85,2.74,2.74,0,0,1,1-1.23,3.15,3.15,0,0,1,1.69-.44,3.08,3.08,0,0,1,1.61.41,2.71,2.71,0,0,1,1.07,1.19,4.41,4.41,0,0,1,.37,1.92,4.25,4.25,0,0,1-.35,1.8,2.72,2.72,0,0,1-1,1.22A3.09,3.09,0,0,1,187.16,315.13Zm0-.95a1.71,1.71,0,0,0,1-.3,1.87,1.87,0,0,0,.63-.88,4,4,0,0,0,.21-1.36,4.28,4.28,0,0,0-.18-1.29,1.89,1.89,0,0,0-.61-.92,1.6,1.6,0,0,0-1.07-.34,1.71,1.71,0,0,0-1,.31,1.88,1.88,0,0,0-.64.87,4,4,0,0,0-.21,1.37,4.06,4.06,0,0,0,.19,1.29,1.91,1.91,0,0,0,.61.91A1.65,1.65,0,0,0,187.16,314.18Zm8.07-5.9v.88H193.6V315h-1.21v-5.84H191v-.88h1.42v-1a1.65,1.65,0,0,1,.41-1.22,1.63,1.63,0,0,1,1.22-.42h1.27v.85h-1a.64.64,0,0,0-.56.22,1.21,1.21,0,0,0-.15.67v.94Zm7.88,6.85a5,5,0,0,1-2.74-.68,2.66,2.66,0,0,1-1.21-2.1l2,0a1.64,1.64,0,0,0,.67,1,2.39,2.39,0,0,0,1.3.33,2.12,2.12,0,0,0,.83-.15,1.37,1.37,0,0,0,.57-.42.93.93,0,0,0,.21-.6.92.92,0,0,0-.33-.78,2.59,2.59,0,0,0-1-.41l-1.54-.33a3.45,3.45,0,0,1-1.73-.85,2.66,2.66,0,0,1-.18-3.25,3.2,3.2,0,0,1,1.32-1,4.92,4.92,0,0,1,1.88-.35,4.06,4.06,0,0,1,1.84.39,2.88,2.88,0,0,1,1.2,1,2.4,2.4,0,0,1,.4,1.41l-1.91,0a1.8,1.8,0,0,0-.42-1,1.38,1.38,0,0,0-1.08-.36,2.4,2.4,0,0,0-.69.09,1.43,1.43,0,0,0-.53.24,1.13,1.13,0,0,0-.34.35,1,1,0,0,0-.11.47.82.82,0,0,0,.27.65,3,3,0,0,0,1,.44l1.52.37a3.14,3.14,0,0,1,1.84,1,2.9,2.9,0,0,1,.57,1.81,2.34,2.34,0,0,1-.44,1.41,2.84,2.84,0,0,1-1.26.94A5.06,5.06,0,0,1,203.11,315.13Zm-.81-10.87h1.64V306H202.3Zm0,10.29h1.64v1.69h-1.64Zm9,.59a3.92,3.92,0,0,1-1.64-.34,3.17,3.17,0,0,1-1.24-.94,2.65,2.65,0,0,1-.54-1.45h1.81a1.5,1.5,0,0,0,.52.89,1.47,1.47,0,0,0,1,.34,2.11,2.11,0,0,0,1.18-.32,1.92,1.92,0,0,0,.77-1,4.5,4.5,0,0,0,.18-1.82,1.82,1.82,0,0,1-.51.6,2.5,2.5,0,0,1-.74.4,3.22,3.22,0,0,1-1,.14,3.86,3.86,0,0,1-1.7-.36,2.78,2.78,0,0,1-1.57-2.61,3.13,3.13,0,0,1,.44-1.65,3.08,3.08,0,0,1,1.24-1.13,4,4,0,0,1,1.86-.41,3.52,3.52,0,0,1,3.39,2.18,6,6,0,0,1,.47,2.46,7.14,7.14,0,0,1-.48,2.8,3.51,3.51,0,0,1-1.37,1.68A3.92,3.92,0,0,1,211.29,315.14Zm.17-5a1.7,1.7,0,0,0,.76-.18,2,2,0,0,0,.62-.45.85.85,0,0,0,.24-.57,2.4,2.4,0,0,0-.2-1.08,1.63,1.63,0,0,0-.57-.69,1.51,1.51,0,0,0-.85-.24,1.61,1.61,0,0,0-.8.2,1.52,1.52,0,0,0-.56.59,1.86,1.86,0,0,0-.2.87,1.48,1.48,0,0,0,.43,1.14A1.58,1.58,0,0,0,211.46,310.12Zm5,4.88v-1.42a2.79,2.79,0,0,1,.26-1.23,3,3,0,0,1,.71-.91,5,5,0,0,1,1-.68c.35-.2.7-.38,1-.56a10.63,10.63,0,0,0,1-.52,2.48,2.48,0,0,0,.71-.59,1.15,1.15,0,0,0,.27-.77,1.18,1.18,0,0,0-.4-.92,1.52,1.52,0,0,0-1.07-.36,1.84,1.84,0,0,0-1.2.41,1.92,1.92,0,0,0-.62,1.24h-1.81a3.43,3.43,0,0,1,.42-1.63,2.91,2.91,0,0,1,1.22-1.16,4.28,4.28,0,0,1,2-.43,4.17,4.17,0,0,1,1.81.36,2.79,2.79,0,0,1,1.19,1,2.73,2.73,0,0,1,.41,1.49,2.62,2.62,0,0,1-.95,2.1,5.19,5.19,0,0,1-.94.64c-.34.18-.68.35-1,.5s-.64.32-.93.49a2.44,2.44,0,0,0-.69.54,1.13,1.13,0,0,0-.26.74v.08h4.79V315Zm11.61-9.53a3.17,3.17,0,0,1,2.65,1.26,7.14,7.14,0,0,1,0,7.17,3.48,3.48,0,0,1-5.33,0,5.75,5.75,0,0,1-.95-3.57,6.93,6.93,0,0,1,.44-2.65,3.52,3.52,0,0,1,1.25-1.64A3.3,3.3,0,0,1,228.08,305.47Zm0,8.12a1.3,1.3,0,0,0,1.23-.75,5.85,5.85,0,0,0,.39-2.51,6.19,6.19,0,0,0-.39-2.58,1.37,1.37,0,0,0-2.47,0,6,6,0,0,0-.41,2.58,5.59,5.59,0,0,0,.41,2.5A1.3,1.3,0,0,0,228.08,313.59Zm8.88-8h1.86v5.73h1.45v1.59h-1.45V315H237v-2.08h-4.33v-1.56Zm-2.53,5.73H237v-3.45ZM136.3,326.28V333h-1.16v-6.72Zm0-2.67v1.25H135.1v-1.25Zm4.38,9.52a4,4,0,0,1-1.31-.21,2.43,2.43,0,0,1-1-.69,2.34,2.34,0,0,1-.5-1.19H139a1.45,1.45,0,0,0,.32.67,1.56,1.56,0,0,0,.6.39,2.2,2.2,0,0,0,.78.13,2.07,2.07,0,0,0,1.09-.25.85.85,0,0,0,.42-.78.82.82,0,0,0-.22-.59,1.36,1.36,0,0,0-.67-.33l-1.39-.35a3,3,0,0,1-1.3-.61,1.43,1.43,0,0,1-.49-1.16,1.8,1.8,0,0,1,.28-1,1.91,1.91,0,0,1,.86-.71,3.46,3.46,0,0,1,1.42-.26,2.89,2.89,0,0,1,1.76.49,1.72,1.72,0,0,1,.7,1.44H142.1a1.11,1.11,0,0,0-.43-.76,1.55,1.55,0,0,0-1-.29,1.94,1.94,0,0,0-1.05.26.88.88,0,0,0-.4.8.66.66,0,0,0,.28.56,2.37,2.37,0,0,0,.85.34l1.34.34a2.62,2.62,0,0,1,.77.32,2.09,2.09,0,0,1,.48.45,1.46,1.46,0,0,1,.25.52,1.59,1.59,0,0,1,.08.51,1.8,1.8,0,0,1-.31,1.07,2,2,0,0,1-.88.69A3.6,3.6,0,0,1,140.71,333.13Zm9.52-7a2.89,2.89,0,0,1,1.3.28,2.31,2.31,0,0,1,.94.78,2.54,2.54,0,0,1,.46,1.19h-1.06a1.57,1.57,0,0,0-.27-.64,1.62,1.62,0,0,0-.56-.47,1.85,1.85,0,0,0-.8-.17,1.79,1.79,0,0,0-1.41.62,2.86,2.86,0,0,0-.54,1.91,3.19,3.19,0,0,0,.5,1.87,1.69,1.69,0,0,0,1.47.69,1.81,1.81,0,0,0,.8-.17,1.51,1.51,0,0,0,.55-.48,1.59,1.59,0,0,0,.27-.63h1a2.42,2.42,0,0,1-.45,1.17,2.52,2.52,0,0,1-.95.76,3,3,0,0,1-1.29.27,3.12,3.12,0,0,1-1.6-.4,2.71,2.71,0,0,1-1.1-1.17,4.13,4.13,0,0,1-.39-1.89,4.51,4.51,0,0,1,.35-1.84,2.93,2.93,0,0,1,1.06-1.24A3.09,3.09,0,0,1,150.23,326.15Zm6.9,7a3.14,3.14,0,0,1-1.62-.4,2.67,2.67,0,0,1-1.08-1.17,4.19,4.19,0,0,1-.39-1.89,4.42,4.42,0,0,1,.36-1.85,2.76,2.76,0,0,1,1-1.23,3.4,3.4,0,0,1,3.29,0,2.65,2.65,0,0,1,1.07,1.19,4.92,4.92,0,0,1,0,3.72,2.74,2.74,0,0,1-1,1.22A3,3,0,0,1,157.13,333.13Zm0-.95a1.67,1.67,0,0,0,1-.3,1.87,1.87,0,0,0,.63-.88,3.73,3.73,0,0,0,.22-1.36,4.27,4.27,0,0,0-.19-1.29,2,2,0,0,0-.6-.92,1.64,1.64,0,0,0-1.08-.34,1.68,1.68,0,0,0-1,.31,1.81,1.81,0,0,0-.64.87,3.75,3.75,0,0,0-.22,1.37,4.06,4.06,0,0,0,.2,1.29,1.91,1.91,0,0,0,.61.91A1.63,1.63,0,0,0,157.13,332.18Zm4.53.82v-6.72h1.16v1a2.57,2.57,0,0,1,.77-.77,2.18,2.18,0,0,1,1.26-.33,2.39,2.39,0,0,1,.74.12,2.47,2.47,0,0,1,.7.37,1.73,1.73,0,0,1,.5.61,2.39,2.39,0,0,1,.84-.8,2.44,2.44,0,0,1,1.21-.3,2.75,2.75,0,0,1,.73.11,1.76,1.76,0,0,1,.71.38,1.85,1.85,0,0,1,.54.74,3.09,3.09,0,0,1,.21,1.23V333h-1.21v-4.28a1.88,1.88,0,0,0-.2-.94,1,1,0,0,0-.51-.47,1.52,1.52,0,0,0-.67-.14,2,2,0,0,0-.66.12,1.34,1.34,0,0,0-.6.42,1.16,1.16,0,0,0-.25.8V333h-1.19v-4.63a1,1,0,0,0-.22-.66,1.25,1.25,0,0,0-.53-.4,1.37,1.37,0,0,0-.62-.14,1.7,1.7,0,0,0-.69.14,1.39,1.39,0,0,0-.59.43,1.18,1.18,0,0,0-.23.77V333Zm11.15,2.09v-8.81H174v1.17a4.33,4.33,0,0,1,.3-.44,2.28,2.28,0,0,1,.45-.42,2.38,2.38,0,0,1,1.46-.44,2.69,2.69,0,0,1,1.42.37,2.42,2.42,0,0,1,1,1.12,4.6,4.6,0,0,1,.34,1.91,5,5,0,0,1-.34,2,2.58,2.58,0,0,1-1,1.2,2.68,2.68,0,0,1-1.52.42,2.24,2.24,0,0,1-.8-.13,1.93,1.93,0,0,1-.6-.33,2,2,0,0,1-.43-.44,2.21,2.21,0,0,1-.28-.45v3.31Zm3.09-2.9a1.68,1.68,0,0,0,1.36-.63,3.05,3.05,0,0,0,.53-2,3.1,3.1,0,0,0-.48-1.83,1.79,1.79,0,0,0-2.82,0,3,3,0,0,0-.48,1.81,3.87,3.87,0,0,0,.21,1.31,2,2,0,0,0,.64.94A1.54,1.54,0,0,0,175.9,332.19Zm6.22.89a2,2,0,0,1-.88-.15,1.22,1.22,0,0,1-.51-.4,1.43,1.43,0,0,1-.24-.58,3.74,3.74,0,0,1-.06-.68v-7.93h1.18v7.81a1.23,1.23,0,0,0,.2.76.71.71,0,0,0,.56.28h.36V333a1.73,1.73,0,0,1-.31.07Zm2.82-3.16a3.11,3.11,0,0,0,.21,1.16,1.76,1.76,0,0,0,1.73,1.12,2,2,0,0,0,1.11-.3,1.32,1.32,0,0,0,.59-.86h1.14a2.28,2.28,0,0,1-.54,1.15,2.84,2.84,0,0,1-1,.71,3.45,3.45,0,0,1-1.24.23,3.32,3.32,0,0,1-1.66-.41,2.84,2.84,0,0,1-1.12-1.18,3.88,3.88,0,0,1-.4-1.84,4.46,4.46,0,0,1,.36-1.85,2.77,2.77,0,0,1,1.06-1.25,3.33,3.33,0,0,1,3.27,0,2.53,2.53,0,0,1,1,1.15,4.05,4.05,0,0,1,.35,1.77v.44Zm0-.81h3.65a2.61,2.61,0,0,0-.19-1,1.57,1.57,0,0,0-.6-.74,2,2,0,0,0-2.05,0,1.81,1.81,0,0,0-.61.78A2.31,2.31,0,0,0,185,329.11Zm9.56-1.95H193v4.18a1.34,1.34,0,0,0,.08.52.35.35,0,0,0,.25.21,2.11,2.11,0,0,0,.49.05h.74v.8a1.73,1.73,0,0,1-.38.08,5.22,5.22,0,0,1-.62,0,2.38,2.38,0,0,1-1.07-.19,1.09,1.09,0,0,1-.55-.55,2.72,2.72,0,0,1-.14-.91v-4.22h-1.1v-.88h1.13l.29-2H193v1.95h1.52Zm2.31,2.76a3.32,3.32,0,0,0,.2,1.16,1.86,1.86,0,0,0,.65.81,1.79,1.79,0,0,0,1.08.31,2,2,0,0,0,1.11-.3,1.37,1.37,0,0,0,.6-.86h1.13a2.28,2.28,0,0,1-.54,1.15,2.72,2.72,0,0,1-1,.71,3.55,3.55,0,0,1-1.25.23,3.32,3.32,0,0,1-1.66-.41,2.9,2.9,0,0,1-1.12-1.18,4,4,0,0,1-.4-1.84,4.46,4.46,0,0,1,.36-1.85A2.9,2.9,0,0,1,197,326.6a3.33,3.33,0,0,1,3.27,0,2.61,2.61,0,0,1,1,1.15,4.2,4.2,0,0,1,.34,1.77v.44Zm0-.81h3.66a2.61,2.61,0,0,0-.2-1,1.57,1.57,0,0,0-.6-.74,2,2,0,0,0-2,0,1.83,1.83,0,0,0-.62.78A2.31,2.31,0,0,0,196.82,329.11Zm8.79,4a2.58,2.58,0,0,1-2.07-.9,3.87,3.87,0,0,1-.77-2.62,5.07,5.07,0,0,1,.3-1.82,2.6,2.6,0,0,1,.93-1.21,2.53,2.53,0,0,1,1.52-.43,2.77,2.77,0,0,1,.85.12,3,3,0,0,1,.65.31,2.48,2.48,0,0,1,.44.39,1.84,1.84,0,0,1,.26.38v-4h1.21V333H208l-.13-1.38a3.21,3.21,0,0,1-.2.46,2.26,2.26,0,0,1-.41.5,1.88,1.88,0,0,1-.67.39A2.63,2.63,0,0,1,205.61,333.13Zm.21-.92a1.67,1.67,0,0,0,1.46-.62,3.68,3.68,0,0,0,.44-2,4,4,0,0,0-.2-1.33,1.66,1.66,0,0,0-.6-.84,1.76,1.76,0,0,0-1.07-.3,1.68,1.68,0,0,0-1.35.6,2.77,2.77,0,0,0-.52,1.87,3.4,3.4,0,0,0,.47,2A1.54,1.54,0,0,0,205.82,332.21Zm9.75.92a2.78,2.78,0,0,1-1.15-.23,1.85,1.85,0,0,1-.79-.67,2,2,0,0,1-.28-1.05,1.88,1.88,0,0,1,.78-1.66,4.64,4.64,0,0,1,2.51-.59l1.2,0v-.53a1.31,1.31,0,0,0-.37-1,1.56,1.56,0,0,0-1.15-.37,2,2,0,0,0-1,.28,1.26,1.26,0,0,0-.57.87h-1.06a1.94,1.94,0,0,1,1.3-1.8,4,4,0,0,1,1.41-.23,3.59,3.59,0,0,1,1.45.25,1.74,1.74,0,0,1,.87.72,2.24,2.24,0,0,1,.3,1.19V333h-1l-.09-1.26a2.32,2.32,0,0,1-1,1.09A2.91,2.91,0,0,1,215.57,333.13Zm.36-.86a2,2,0,0,0,.67-.13,2.16,2.16,0,0,0,.62-.33,1.76,1.76,0,0,0,.44-.47,1.06,1.06,0,0,0,.18-.55v-1.15l-1,0a5.15,5.15,0,0,0-1.29.16,1.48,1.48,0,0,0-.77.44,1.22,1.22,0,0,0-.26.8,1.1,1.1,0,0,0,.39.89A1.61,1.61,0,0,0,215.93,332.27Zm5,.73v-6.72h1.16v1a2.15,2.15,0,0,1,.45-.52,2.29,2.29,0,0,1,.7-.4,3,3,0,0,1,2.13.1,2,2,0,0,1,.86.8,2.66,2.66,0,0,1,.32,1.38V333h-1.2v-4.28a1.39,1.39,0,0,0-1.48-1.54,2.34,2.34,0,0,0-.85.15,1.42,1.42,0,0,0-.65.44,1.12,1.12,0,0,0-.24.74V333Zm9.83.13a2.6,2.6,0,0,1-2.08-.9,3.92,3.92,0,0,1-.76-2.62,5.07,5.07,0,0,1,.3-1.82,2.65,2.65,0,0,1,.92-1.21,2.58,2.58,0,0,1,1.53-.43,2.77,2.77,0,0,1,.85.12,3,3,0,0,1,.65.31,2.48,2.48,0,0,1,.44.39,1.84,1.84,0,0,1,.26.38v-4h1.21V333h-.92l-.13-1.38a2.5,2.5,0,0,1-.21.46,2.19,2.19,0,0,1-.4.5,2,2,0,0,1-.67.39A2.63,2.63,0,0,1,230.78,333.13Zm.21-.92a1.67,1.67,0,0,0,1.46-.62,3.68,3.68,0,0,0,.44-2,4.23,4.23,0,0,0-.2-1.33,1.66,1.66,0,0,0-.6-.84,1.76,1.76,0,0,0-1.07-.3,1.72,1.72,0,0,0-1.36.6,2.82,2.82,0,0,0-.51,1.87,3.49,3.49,0,0,0,.46,2A1.56,1.56,0,0,0,231,332.21ZM116,353.09v-8.81h1.2v1.17a4.33,4.33,0,0,1,.3-.44,2.47,2.47,0,0,1,1.09-.74,2.57,2.57,0,0,1,.82-.12,2.66,2.66,0,0,1,1.42.37,2.42,2.42,0,0,1,1,1.12,4.59,4.59,0,0,1,.35,1.91,5.17,5.17,0,0,1-.34,2,2.53,2.53,0,0,1-1,1.2,2.66,2.66,0,0,1-1.52.42,2.24,2.24,0,0,1-.8-.13,1.93,1.93,0,0,1-.6-.33,2.23,2.23,0,0,1-.43-.44,3.68,3.68,0,0,1-.28-.45v3.31Zm3.1-2.9a1.68,1.68,0,0,0,1.35-.63,3,3,0,0,0,.53-2,3.1,3.1,0,0,0-.48-1.83,1.79,1.79,0,0,0-2.82,0,3.1,3.1,0,0,0-.48,1.81,3.87,3.87,0,0,0,.21,1.31,2.16,2.16,0,0,0,.64.94A1.55,1.55,0,0,0,119.12,350.19Zm4.52.81v-6.72h1.15v1.29a2.13,2.13,0,0,1,.47-.79,2,2,0,0,1,.7-.48,2.24,2.24,0,0,1,.81-.15,1.51,1.51,0,0,1,.3,0,.58.58,0,0,1,.22.06v1.17a.83.83,0,0,0-.26-.06l-.25,0a2.61,2.61,0,0,0-.75.05,1.72,1.72,0,0,0-.62.25,1.33,1.33,0,0,0-.42.49,1.52,1.52,0,0,0-.15.71V351Zm7.46.13a3.14,3.14,0,0,1-1.62-.4,2.67,2.67,0,0,1-1.08-1.17,4.19,4.19,0,0,1-.39-1.89,4.42,4.42,0,0,1,.36-1.85,2.76,2.76,0,0,1,1-1.23,3.4,3.4,0,0,1,3.29,0,2.65,2.65,0,0,1,1.07,1.19,4.41,4.41,0,0,1,.37,1.92,4.25,4.25,0,0,1-.35,1.8,2.72,2.72,0,0,1-1,1.22A3,3,0,0,1,131.1,351.13Zm0-.95a1.71,1.71,0,0,0,1-.3,1.87,1.87,0,0,0,.63-.88,4,4,0,0,0,.21-1.36,4.28,4.28,0,0,0-.18-1.29,1.89,1.89,0,0,0-.61-.92,1.6,1.6,0,0,0-1.07-.34,1.66,1.66,0,0,0-1,.31,1.89,1.89,0,0,0-.65.87,4,4,0,0,0-.21,1.37,4.06,4.06,0,0,0,.19,1.29,2,2,0,0,0,.61.91A1.65,1.65,0,0,0,131.1,350.18Zm7.21-6a2.92,2.92,0,0,1,1.3.28,2.38,2.38,0,0,1,.94.78,2.54,2.54,0,0,1,.46,1.19h-1.07a1.54,1.54,0,0,0-.82-1.11,1.86,1.86,0,0,0-.81-.17,1.79,1.79,0,0,0-1.4.62,2.86,2.86,0,0,0-.54,1.91,3.18,3.18,0,0,0,.49,1.87,1.72,1.72,0,0,0,1.47.69,1.78,1.78,0,0,0,.8-.17,1.43,1.43,0,0,0,.55-.48,1.59,1.59,0,0,0,.27-.63H141a2.4,2.4,0,0,1-1.41,1.93,3,3,0,0,1-1.28.27,3.15,3.15,0,0,1-1.61-.4,2.69,2.69,0,0,1-1.09-1.17,4,4,0,0,1-.4-1.89,4.35,4.35,0,0,1,.36-1.84,2.84,2.84,0,0,1,1.05-1.24A3.15,3.15,0,0,1,138.31,344.15Zm5.08,3.77a3.11,3.11,0,0,0,.21,1.16,1.79,1.79,0,0,0,1.73,1.12,2,2,0,0,0,1.11-.3A1.32,1.32,0,0,0,147,349h1.14a2.28,2.28,0,0,1-.54,1.15,2.84,2.84,0,0,1-1,.71,3.45,3.45,0,0,1-1.24.23,3.32,3.32,0,0,1-1.66-.41,2.84,2.84,0,0,1-1.12-1.18,3.88,3.88,0,0,1-.4-1.84,4.46,4.46,0,0,1,.36-1.85,2.9,2.9,0,0,1,1.06-1.25,3.33,3.33,0,0,1,3.27,0,2.61,2.61,0,0,1,1,1.15,4.2,4.2,0,0,1,.34,1.77v.44Zm0-.81h3.65a2.61,2.61,0,0,0-.19-1,1.57,1.57,0,0,0-.6-.74,1.73,1.73,0,0,0-1-.27,1.76,1.76,0,0,0-1,.3,1.81,1.81,0,0,0-.61.78A2.31,2.31,0,0,0,143.4,347.11Zm8.7,4a4,4,0,0,1-1.31-.21,2.43,2.43,0,0,1-1-.69,2.34,2.34,0,0,1-.5-1.19h1.1a1.35,1.35,0,0,0,.92,1.06,2.2,2.2,0,0,0,.78.13,2.07,2.07,0,0,0,1.09-.25.85.85,0,0,0,.42-.78.82.82,0,0,0-.22-.59,1.36,1.36,0,0,0-.67-.33l-1.39-.35a3,3,0,0,1-1.3-.61,1.43,1.43,0,0,1-.49-1.16,1.8,1.8,0,0,1,.28-1,1.91,1.91,0,0,1,.86-.71,3.46,3.46,0,0,1,1.42-.26,2.89,2.89,0,0,1,1.76.49,1.72,1.72,0,0,1,.7,1.44h-1.06a1.11,1.11,0,0,0-.43-.76,1.55,1.55,0,0,0-1-.29,1.94,1.94,0,0,0-1.05.26.88.88,0,0,0-.4.8.66.66,0,0,0,.28.56,2.37,2.37,0,0,0,.85.34l1.34.34a2.51,2.51,0,0,1,.77.32,1.9,1.9,0,0,1,.48.45,1.46,1.46,0,0,1,.25.52,1.59,1.59,0,0,1,.08.51,1.8,1.8,0,0,1-.31,1.07,2,2,0,0,1-.88.69A3.6,3.6,0,0,1,152.1,351.13Zm6.43,0a3.94,3.94,0,0,1-1.3-.21,2.43,2.43,0,0,1-1-.69,2.34,2.34,0,0,1-.5-1.19h1.09a1.46,1.46,0,0,0,.33.67,1.56,1.56,0,0,0,.6.39,2.2,2.2,0,0,0,.78.13,2.07,2.07,0,0,0,1.09-.25.85.85,0,0,0,.42-.78.82.82,0,0,0-.22-.59,1.36,1.36,0,0,0-.67-.33l-1.4-.35a3.08,3.08,0,0,1-1.3-.61,1.45,1.45,0,0,1-.48-1.16,1.73,1.73,0,0,1,.28-1,1.88,1.88,0,0,1,.85-.71,3.55,3.55,0,0,1,1.43-.26,2.89,2.89,0,0,1,1.76.49,1.74,1.74,0,0,1,.7,1.44h-1.06a1.11,1.11,0,0,0-.43-.76,1.58,1.58,0,0,0-1-.29,1.93,1.93,0,0,0-1,.26.88.88,0,0,0-.4.8.66.66,0,0,0,.28.56,2.37,2.37,0,0,0,.85.34l1.34.34a2.62,2.62,0,0,1,.77.32,2.09,2.09,0,0,1,.48.45,1.66,1.66,0,0,1,.25.52,1.59,1.59,0,0,1,.08.51,1.8,1.8,0,0,1-.31,1.07,2,2,0,0,1-.88.69A3.66,3.66,0,0,1,158.53,351.13Zm5-3.21a3.11,3.11,0,0,0,.21,1.16,1.78,1.78,0,0,0,.64.81,1.8,1.8,0,0,0,1.09.31,2,2,0,0,0,1.1-.3,1.37,1.37,0,0,0,.6-.86h1.14a2.38,2.38,0,0,1-.55,1.15,2.72,2.72,0,0,1-1,.71,3.51,3.51,0,0,1-1.25.23,3.32,3.32,0,0,1-1.66-.41,2.82,2.82,0,0,1-1.11-1.18,3.88,3.88,0,0,1-.41-1.84,4.3,4.3,0,0,1,.37-1.85,2.81,2.81,0,0,1,1-1.25,3,3,0,0,1,1.67-.45,3,3,0,0,1,1.61.41,2.59,2.59,0,0,1,1,1.15,4.2,4.2,0,0,1,.35,1.77v.44Zm0-.81h3.65a2.61,2.61,0,0,0-.2-1,1.62,1.62,0,0,0-.59-.74,1.77,1.77,0,0,0-1-.27,1.71,1.71,0,0,0-1,.3,1.83,1.83,0,0,0-.62.78A2.3,2.3,0,0,0,163.57,347.11Zm8.78,4a2.58,2.58,0,0,1-2.07-.9,3.92,3.92,0,0,1-.77-2.62,4.85,4.85,0,0,1,.31-1.82,2.52,2.52,0,0,1,.92-1.21,2.55,2.55,0,0,1,1.52-.43,2.77,2.77,0,0,1,.85.12,3,3,0,0,1,.65.31,2.48,2.48,0,0,1,.44.39,1.52,1.52,0,0,1,.26.38v-4h1.21V351h-.91l-.13-1.38c0,.13-.12.28-.21.46a2.26,2.26,0,0,1-.41.5,1.92,1.92,0,0,1-.66.39A2.69,2.69,0,0,1,172.35,351.13Zm.22-.92a1.66,1.66,0,0,0,1.45-.62,3.59,3.59,0,0,0,.44-2,4,4,0,0,0-.2-1.33,1.55,1.55,0,0,0-.6-.84,1.91,1.91,0,0,0-2.42.3,2.77,2.77,0,0,0-.52,1.87,3.48,3.48,0,0,0,.47,2A1.54,1.54,0,0,0,172.57,350.21Zm10.27.92a4,4,0,0,1-1.31-.21,2.34,2.34,0,0,1-1-.69A2.26,2.26,0,0,1,180,349h1.09a1.46,1.46,0,0,0,.33.67,1.52,1.52,0,0,0,.59.39,2.2,2.2,0,0,0,.78.13,2.11,2.11,0,0,0,1.1-.25.86.86,0,0,0,.41-.78.78.78,0,0,0-.22-.59,1.32,1.32,0,0,0-.67-.33l-1.39-.35a3,3,0,0,1-1.3-.61,1.43,1.43,0,0,1-.49-1.16,1.88,1.88,0,0,1,.28-1,1.91,1.91,0,0,1,.86-.71,3.46,3.46,0,0,1,1.42-.26,2.87,2.87,0,0,1,1.76.49,1.75,1.75,0,0,1,.71,1.44h-1.06a1.12,1.12,0,0,0-.44-.76,1.55,1.55,0,0,0-1-.29,1.94,1.94,0,0,0-1,.26.9.9,0,0,0-.4.8.67.67,0,0,0,.29.56,2.39,2.39,0,0,0,.84.34l1.35.34a2.56,2.56,0,0,1,.76.32,2,2,0,0,1,.49.45,1.66,1.66,0,0,1,.25.52,1.92,1.92,0,0,1,.08.51,1.81,1.81,0,0,1-.32,1.07,1.94,1.94,0,0,1-.88.69A3.6,3.6,0,0,1,182.84,351.13Zm6.64,0a3.22,3.22,0,0,1-1-.15,2.57,2.57,0,0,1-.82-.43,2.15,2.15,0,0,1-.56-.71,2.26,2.26,0,0,1-.2-1v-4.56h1.2v4.44a1.42,1.42,0,0,0,.4,1.06,1.63,1.63,0,0,0,1.23.41,1.75,1.75,0,0,0,1.19-.38,1.44,1.44,0,0,0,.45-1.16v-4.37h1.2V351h-.95l-.13-1.29a1.73,1.73,0,0,1-.42.82,1.78,1.78,0,0,1-.71.46A2.54,2.54,0,0,1,189.48,351.13Zm7.54-7a2.89,2.89,0,0,1,1.3.28,2.41,2.41,0,0,1,1,.78,2.65,2.65,0,0,1,.46,1.19h-1.07a1.54,1.54,0,0,0-.82-1.11,1.86,1.86,0,0,0-.81-.17,1.77,1.77,0,0,0-1.4.62,2.86,2.86,0,0,0-.54,1.91,3.18,3.18,0,0,0,.49,1.87,1.69,1.69,0,0,0,1.47.69,1.81,1.81,0,0,0,.8-.17,1.51,1.51,0,0,0,.55-.48,1.59,1.59,0,0,0,.27-.63h1a2.32,2.32,0,0,1-.45,1.17,2.45,2.45,0,0,1-.95.76,3,3,0,0,1-1.29.27,3.14,3.14,0,0,1-1.6-.4,2.64,2.64,0,0,1-1.09-1.17,4,4,0,0,1-.4-1.89,4.35,4.35,0,0,1,.36-1.84,2.84,2.84,0,0,1,1.05-1.24A3.11,3.11,0,0,1,197,344.15Zm6.91,0a2.89,2.89,0,0,1,1.3.28,2.31,2.31,0,0,1,.94.78,2.54,2.54,0,0,1,.46,1.19h-1.06a1.57,1.57,0,0,0-.27-.64,1.62,1.62,0,0,0-.56-.47,1.85,1.85,0,0,0-.8-.17,1.79,1.79,0,0,0-1.41.62,2.86,2.86,0,0,0-.54,1.91,3.19,3.19,0,0,0,.5,1.87,1.69,1.69,0,0,0,1.47.69,1.85,1.85,0,0,0,.8-.17,1.51,1.51,0,0,0,.55-.48,1.59,1.59,0,0,0,.27-.63h1a2.42,2.42,0,0,1-.45,1.17,2.52,2.52,0,0,1-.95.76,3,3,0,0,1-1.29.27,3.12,3.12,0,0,1-1.6-.4,2.71,2.71,0,0,1-1.1-1.17,4.13,4.13,0,0,1-.39-1.89,4.35,4.35,0,0,1,.36-1.84,2.84,2.84,0,0,1,1.05-1.24A3.09,3.09,0,0,1,203.93,344.15Zm5.09,3.77a3.11,3.11,0,0,0,.21,1.16,1.84,1.84,0,0,0,.64.81,1.8,1.8,0,0,0,1.09.31,2,2,0,0,0,1.1-.3,1.37,1.37,0,0,0,.6-.86h1.14a2.38,2.38,0,0,1-.55,1.15,2.72,2.72,0,0,1-1,.71,3.55,3.55,0,0,1-1.25.23,3.32,3.32,0,0,1-1.66-.41,2.88,2.88,0,0,1-1.11-1.18,3.88,3.88,0,0,1-.41-1.84,4.46,4.46,0,0,1,.37-1.85,2.81,2.81,0,0,1,1.05-1.25,3,3,0,0,1,1.67-.45,3,3,0,0,1,1.61.41,2.59,2.59,0,0,1,1,1.15,4.2,4.2,0,0,1,.35,1.77v.44Zm0-.81h3.65a2.61,2.61,0,0,0-.2-1,1.62,1.62,0,0,0-.59-.74,1.77,1.77,0,0,0-1-.27,1.73,1.73,0,0,0-1,.3,1.91,1.91,0,0,0-.62.78A2.3,2.3,0,0,0,209,347.11Zm8.69,4a4,4,0,0,1-1.31-.21,2.4,2.4,0,0,1-1-.69,2.34,2.34,0,0,1-.5-1.19H216a1.46,1.46,0,0,0,.33.67,1.6,1.6,0,0,0,.59.39,2.2,2.2,0,0,0,.78.13,2.11,2.11,0,0,0,1.1-.25.86.86,0,0,0,.41-.78.78.78,0,0,0-.22-.59,1.32,1.32,0,0,0-.67-.33l-1.39-.35a3.08,3.08,0,0,1-1.3-.61,1.46,1.46,0,0,1-.49-1.16,1.88,1.88,0,0,1,.28-1,1.91,1.91,0,0,1,.86-.71,3.5,3.5,0,0,1,1.42-.26,2.92,2.92,0,0,1,1.77.49,1.74,1.74,0,0,1,.7,1.44h-1.06a1.12,1.12,0,0,0-.44-.76,1.55,1.55,0,0,0-1-.29,1.94,1.94,0,0,0-1,.26.9.9,0,0,0-.4.8.67.67,0,0,0,.29.56,2.39,2.39,0,0,0,.84.34l1.35.34a2.62,2.62,0,0,1,.77.32,2.09,2.09,0,0,1,.48.45,1.66,1.66,0,0,1,.25.52,1.92,1.92,0,0,1,.08.51,1.87,1.87,0,0,1-.31,1.07,2,2,0,0,1-.89.69A3.57,3.57,0,0,1,217.72,351.13Zm6.44,0a4,4,0,0,1-1.31-.21,2.34,2.34,0,0,1-1-.69,2.26,2.26,0,0,1-.5-1.19h1.09a1.35,1.35,0,0,0,.92,1.06,2.2,2.2,0,0,0,.78.13,2,2,0,0,0,1.09-.25.85.85,0,0,0,.42-.78.78.78,0,0,0-.22-.59,1.32,1.32,0,0,0-.67-.33l-1.39-.35a3,3,0,0,1-1.3-.61,1.43,1.43,0,0,1-.49-1.16,1.88,1.88,0,0,1,.28-1,1.91,1.91,0,0,1,.86-.71,3.5,3.5,0,0,1,1.42-.26,2.87,2.87,0,0,1,1.76.49,1.73,1.73,0,0,1,.71,1.44h-1.06a1.12,1.12,0,0,0-.44-.76,1.55,1.55,0,0,0-1-.29,1.94,1.94,0,0,0-1,.26.88.88,0,0,0-.4.8.67.67,0,0,0,.29.56,2.39,2.39,0,0,0,.84.34l1.35.34a2.56,2.56,0,0,1,.76.32,1.75,1.75,0,0,1,.48.45,1.49,1.49,0,0,1,.26.52,1.92,1.92,0,0,1,.08.51,1.81,1.81,0,0,1-.32,1.07,1.94,1.94,0,0,1-.88.69A3.57,3.57,0,0,1,224.16,351.13Zm8-6.85v.88h-1.63V351h-1.21v-5.84h-1.42v-.88h1.42v-1a1.7,1.7,0,0,1,.41-1.22,1.63,1.63,0,0,1,1.22-.42h1.27v.85h-1a.65.65,0,0,0-.56.22,1.21,1.21,0,0,0-.15.67v.94Zm3.86,6.85a3.27,3.27,0,0,1-1-.15,2.68,2.68,0,0,1-.82-.43,2.29,2.29,0,0,1-.56-.71,2.26,2.26,0,0,1-.2-1v-4.56h1.2v4.44a1.42,1.42,0,0,0,.4,1.06,1.63,1.63,0,0,0,1.23.41,1.74,1.74,0,0,0,1.19-.38,1.45,1.45,0,0,0,.46-1.16v-4.37h1.19V351h-.95l-.13-1.29a1.71,1.71,0,0,1-1.13,1.28A2.54,2.54,0,0,1,236,351.13Zm6.65-.05a2,2,0,0,1-.88-.15,1.22,1.22,0,0,1-.51-.4A1.6,1.6,0,0,1,241,350a4.94,4.94,0,0,1-.05-.68v-7.93h1.18v7.81a1.23,1.23,0,0,0,.19.76.73.73,0,0,0,.56.28h.37V351a1.73,1.73,0,0,1-.31.07Zm3.58,0a2,2,0,0,1-.88-.15,1.22,1.22,0,0,1-.51-.4,1.43,1.43,0,0,1-.24-.58,3.74,3.74,0,0,1-.06-.68v-7.93h1.18v7.81a1.17,1.17,0,0,0,.2.76.71.71,0,0,0,.55.28h.37V351a1.73,1.73,0,0,1-.31.07Zm2.49,2.06a2.47,2.47,0,0,1-.81-.08l-.23-.08v-.78h.69a2.25,2.25,0,0,0,.62,0,1.36,1.36,0,0,0,.4-.18.78.78,0,0,0,.23-.25,2,2,0,0,0,.13-.25l.24-.64-2.63-6.56h1.21l2,5.19,2-5.19h1.17l-2.83,7.23a3.28,3.28,0,0,1-.59,1,1.69,1.69,0,0,1-.71.5A2.33,2.33,0,0,1,248.7,353.14Z" transform="translate(248.75 -53.51)"/><g id="Group_31" data-name="Group 31"><circle id="Oval" class="cls-13" cx="431.75" cy="207.49" r="28"/><path id="Path_2" data-name="Path 2" class="cls-14" d="M174,262.7l4.58,4.57L191.85,254" transform="translate(248.75 -53.51)"/></g></g></g></g></g><g class="cls-15"><g id="Group_2_Copy" data-name="Group 2 Copy"><path id="Rectangle_2" data-name="Rectangle 2" class="cls-16" d="M134,373H235a15,15,0,0,1,15,15h0a15,15,0,0,1-15,15H134a15,15,0,0,1-15-15h0A15,15,0,0,1,134,373Z" transform="translate(248.75 -53.51)"/><path id="Dismiss" class="cls-10" d="M165.57,384.05H168a5.18,5.18,0,0,1,2.36.52,3,3,0,0,1,1.34,1.35,4.66,4.66,0,0,1,.42,2.05,4.73,4.73,0,0,1-.45,2.14,3.14,3.14,0,0,1-1.38,1.39,4.92,4.92,0,0,1-2.34.49h-2.33Zm1.62,1.3v5.35h.74a2.91,2.91,0,0,0,1.23-.26,2,2,0,0,0,.9-.87,3.92,3.92,0,0,0,0-3.1,1.86,1.86,0,0,0-.85-.86,2.9,2.9,0,0,0-1.3-.26Zm7.63,1V392h-1.53v-5.69Zm0-2.26v1.45h-1.57v-1.45Zm3.6,8.06a3.33,3.33,0,0,1-1.14-.19,2.21,2.21,0,0,1-.93-.62,2,2,0,0,1-.49-1.09h1.39a.93.93,0,0,0,.26.47,1.1,1.1,0,0,0,.44.26,1.51,1.51,0,0,0,.46.07,1.71,1.71,0,0,0,.74-.14.49.49,0,0,0,.29-.45.45.45,0,0,0-.17-.37,1.31,1.31,0,0,0-.55-.21l-1-.21a2.77,2.77,0,0,1-1.21-.54,1.37,1.37,0,0,1-.47-1.09,1.63,1.63,0,0,1,.27-.92,1.83,1.83,0,0,1,.81-.64,3.16,3.16,0,0,1,1.31-.24,2.71,2.71,0,0,1,1.67.47,1.55,1.55,0,0,1,.65,1.3h-1.35a.75.75,0,0,0-.33-.51,1.12,1.12,0,0,0-.66-.18,1.41,1.41,0,0,0-.69.15.48.48,0,0,0-.27.45.4.4,0,0,0,.22.36,2.57,2.57,0,0,0,.68.22l.93.21a2,2,0,0,1,.77.32,1.64,1.64,0,0,1,.47.43,1.51,1.51,0,0,1,.23.48,1.77,1.77,0,0,1,.06.43,1.58,1.58,0,0,1-.3,1,1.9,1.9,0,0,1-.84.6A3.45,3.45,0,0,1,178.44,392.11Zm3.43-.11v-5.69h1.58v.81a2.27,2.27,0,0,1,.69-.65,2.07,2.07,0,0,1,1.11-.27,1.8,1.8,0,0,1,.59.11,2.23,2.23,0,0,1,.57.3,1.52,1.52,0,0,1,.43.51,2.16,2.16,0,0,1,.72-.65,1.92,1.92,0,0,1,1-.27,2.16,2.16,0,0,1,.65.11,1.64,1.64,0,0,1,.6.34,1.74,1.74,0,0,1,.44.63,2.48,2.48,0,0,1,.17,1V392h-1.6v-3.55a1,1,0,0,0-.14-.55.68.68,0,0,0-.34-.29,1,1,0,0,0-.44-.1,1.11,1.11,0,0,0-.43.09.84.84,0,0,0-.38.27.75.75,0,0,0-.15.49V392h-1.6v-3.7a.69.69,0,0,0-.14-.43.75.75,0,0,0-.35-.26.86.86,0,0,0-.41-.1,1,1,0,0,0-.44.1.78.78,0,0,0-.37.28.72.72,0,0,0-.15.47V392Zm11.39-5.69V392h-1.54v-5.69Zm0-2.26v1.45h-1.56v-1.45Zm3.61,8.06a3.43,3.43,0,0,1-1.15-.19,2.34,2.34,0,0,1-.93-.62,2.1,2.1,0,0,1-.48-1.09h1.39a.93.93,0,0,0,.26.47,1.13,1.13,0,0,0,.43.26,1.62,1.62,0,0,0,.47.07,1.74,1.74,0,0,0,.74-.14.49.49,0,0,0,.29-.45.43.43,0,0,0-.18-.37,1.26,1.26,0,0,0-.55-.21l-1-.21a2.88,2.88,0,0,1-1.21-.54,1.37,1.37,0,0,1-.46-1.09,1.7,1.7,0,0,1,.26-.92,2,2,0,0,1,.81-.64,3.23,3.23,0,0,1,1.31-.24,2.77,2.77,0,0,1,1.68.47,1.51,1.51,0,0,1,.64,1.3h-1.34a.75.75,0,0,0-.33-.51,1.14,1.14,0,0,0-.66-.18,1.41,1.41,0,0,0-.69.15.48.48,0,0,0-.27.45.4.4,0,0,0,.22.36,2.45,2.45,0,0,0,.68.22l.93.21a2.18,2.18,0,0,1,.77.32,1.64,1.64,0,0,1,.47.43,1.47,1.47,0,0,1,.22.48,1.42,1.42,0,0,1,.07.43,1.58,1.58,0,0,1-.3,1,2,2,0,0,1-.84.6A3.45,3.45,0,0,1,196.88,392.11Zm5.61,0a3.43,3.43,0,0,1-1.15-.19,2.28,2.28,0,0,1-.93-.62,2.1,2.1,0,0,1-.48-1.09h1.39a.87.87,0,0,0,.26.47,1.13,1.13,0,0,0,.43.26,1.58,1.58,0,0,0,.47.07,1.74,1.74,0,0,0,.74-.14.48.48,0,0,0,.28-.45.43.43,0,0,0-.17-.37,1.26,1.26,0,0,0-.55-.21l-1-.21a2.88,2.88,0,0,1-1.21-.54,1.41,1.41,0,0,1-.47-1.09,1.63,1.63,0,0,1,.27-.92,2,2,0,0,1,.81-.64,3.19,3.19,0,0,1,1.31-.24,2.77,2.77,0,0,1,1.68.47,1.54,1.54,0,0,1,.64,1.3h-1.34a.75.75,0,0,0-.33-.51,1.16,1.16,0,0,0-.66-.18,1.41,1.41,0,0,0-.69.15.48.48,0,0,0-.27.45.4.4,0,0,0,.22.36,2.34,2.34,0,0,0,.68.22l.92.21a2.16,2.16,0,0,1,.78.32,1.64,1.64,0,0,1,.47.43,1.47,1.47,0,0,1,.22.48,1.42,1.42,0,0,1,.07.43,1.58,1.58,0,0,1-.3,1,2,2,0,0,1-.85.6A3.35,3.35,0,0,1,202.49,392.11Z" transform="translate(248.75 -53.51)"/></g></g></g></g><g id="Group_2_Copy_4" data-name="Group 2 Copy 4"><g id="iPhone-X-Mockup-2" data-name="iPhone-X-Mockup"><g id="phone-2" data-name="phone"><g id="body-2" data-name="body"><path class="cls-3" d="M-213,54.08H-21.74c18.34,0,33.21,14.23,33.21,31.79V521.14c0,17.56-14.87,31.8-33.21,31.8H-213c-18.34,0-33.21-14.24-33.21-31.8V85.87C-246.18,68.31-231.31,54.08-213,54.08Z" transform="translate(248.75 -53.51)"/></g><g id="frame-2" data-name="frame"><path id="reflect-frame-top-2" data-name="reflect-frame-top" class="cls-17" d="M-21,53.51H-213.83q-13.5.83-24.91,12.32c4.89-4.27,13.62-10,25.14-10H-21.23c11.53,0,20.25,5.71,25.14,10Q-7.51,54.33-21,53.51Z" transform="translate(248.75 -53.51)"/><path id="reflect-frame-right-2" data-name="reflect-frame-right" class="cls-18" d="M6.25,516.18V88.49C6.25,77,2,72.77-.48,70.05S-3.11,65.93.51,68,11.35,76,11.35,88.49V516.18c0,12.45-7.23,18.44-10.84,20.5s-3.51.66-1-2.06S6.25,527.65,6.25,516.18Z" transform="translate(248.75 -53.51)"/><path id="reflect-frame-left-2" data-name="reflect-frame-left" class="cls-19" d="M-241.08,516.18V88.49c0-11.48,4.22-15.72,6.74-18.44s2.62-4.12-1-2.06-10.84,8.05-10.84,20.5V516.18c0,12.45,7.23,18.44,10.84,20.5s3.51.66,1-2.06S-241.08,527.65-241.08,516.18Z" transform="translate(248.75 -53.51)"/></g><g id="controls-2" data-name="controls"><path id="vol_2" data-name="vol+" class="cls-7" d="M-248.75,157.06a2,2,0,0,1,2-2h1a2,2,0,0,1,2,2v60.35a2,2,0,0,1-2,2h-1a2,2,0,0,1-2-2Z" transform="translate(248.75 -53.51)"/><path id="power-2" data-name="power" class="cls-7" d="M8.79,209.55a2,2,0,0,1,2-2h1a2,2,0,0,1,2,2V252.5a2,2,0,0,1-2,2h-1a2,2,0,0,1-2-2Z" transform="translate(248.75 -53.51)"/></g></g><g id="Screen-2" data-name="Screen"><path id="Screen_Mask-2" data-name="Screen Mask" class="cls-20" d="M-140.07,66h-74.41c-11.1,0-19.2,7.56-19.2,17.44V505.78c0,12.88,12.51,24.29,26.64,24.29H-27.7c13.61,0,26.64-11.5,26.64-24.29V84.53C-1.06,72.69-9.85,66-20.26,66H-95.85a14.38,14.38,0,0,0-7.67,7.56c-2.19,5.39-6.61,9.68-11.44,9.68h-5.62c-2.3,0-8.35-2.23-11.41-9.68S-139.79,66-140.07,66Z" transform="translate(248.75 -53.51)"/><g class="cls-21"><g id="Group_37" data-name="Group 37"><g id="Group_36" data-name="Group 36"><g id="Rectangle-2" data-name="Rectangle"><rect class="cls-10" x="30" y="173" width="204" height="40" rx="5"/></g><g class="cls-22"><g id="Group_35" data-name="Group 35"><path id="Item_001" data-name="Item #001" class="cls-23" d="M-201.79,243.28h.92v7.23h-.92Zm5.21,2.73h-1.17v3.22a1,1,0,0,0,.06.4.28.28,0,0,0,.19.16,1.84,1.84,0,0,0,.38,0h.57v.62l-.29.06-.48,0a2,2,0,0,1-.83-.14.82.82,0,0,1-.41-.43,1.83,1.83,0,0,1-.12-.7V246h-.84v-.67h.87l.22-1.51h.68v1.5h1.17Zm1.77,2.13a2.35,2.35,0,0,0,.16.89,1.48,1.48,0,0,0,.5.63,1.45,1.45,0,0,0,.83.23,1.56,1.56,0,0,0,.85-.23A1,1,0,0,0-192,249h.88a1.86,1.86,0,0,1-.42.88,2.21,2.21,0,0,1-.79.55,2.64,2.64,0,0,1-1,.18,2.49,2.49,0,0,1-1.27-.32,2.14,2.14,0,0,1-.86-.9,3,3,0,0,1-.31-1.42,3.38,3.38,0,0,1,.28-1.43,2.12,2.12,0,0,1,.81-1,2.29,2.29,0,0,1,1.28-.34,2.31,2.31,0,0,1,1.24.31,2,2,0,0,1,.76.89,3.14,3.14,0,0,1,.27,1.36v.34Zm0-.63H-192a2,2,0,0,0-.15-.8,1.22,1.22,0,0,0-.46-.56,1.34,1.34,0,0,0-.77-.21,1.3,1.3,0,0,0-.81.23,1.33,1.33,0,0,0-.47.6A1.59,1.59,0,0,0-194.8,247.51Zm4.89,3v-5.17h.89v.75a2,2,0,0,1,.59-.6,1.68,1.68,0,0,1,1-.25,1.88,1.88,0,0,1,.57.09,1.57,1.57,0,0,1,.54.29,1.21,1.21,0,0,1,.38.46,1.81,1.81,0,0,1,.65-.61,1.83,1.83,0,0,1,.93-.23,1.85,1.85,0,0,1,.56.08,1.39,1.39,0,0,1,.55.29,1.41,1.41,0,0,1,.41.58,2.27,2.27,0,0,1,.16.94v3.38h-.93v-3.29a1.45,1.45,0,0,0-.15-.73.84.84,0,0,0-.39-.36,1.27,1.27,0,0,0-.52-.11,1.4,1.4,0,0,0-.51.1,1,1,0,0,0-.46.32,1,1,0,0,0-.19.61v3.46h-.92V247a.76.76,0,0,0-.16-.51,1,1,0,0,0-.41-.31,1.2,1.2,0,0,0-.48-.11,1.48,1.48,0,0,0-.53.11,1.06,1.06,0,0,0-.45.33.92.92,0,0,0-.18.59v3.46Zm12.88-7.18-1.09,7.19-.57-.08,1.09-7.18Zm2.05,0-1.09,7.19-.57-.08,1.09-7.18Zm.42,4.27v.56h-4.95v-.56Zm.32-2v.56h-4.95v-.56Zm3.38-2.37a2.2,2.2,0,0,1,1.87.94,4.63,4.63,0,0,1,.7,2.79,4.66,4.66,0,0,1-.69,2.77,2.26,2.26,0,0,1-1.89.94,2.22,2.22,0,0,1-1.88-.93,4.66,4.66,0,0,1-.69-2.77,5.7,5.7,0,0,1,.32-2.07,2.6,2.6,0,0,1,.9-1.25A2.24,2.24,0,0,1-170.86,243.18Zm0,6.64a1.27,1.27,0,0,0,1.17-.68,4.61,4.61,0,0,0,.4-2.23,4.69,4.69,0,0,0-.4-2.26,1.28,1.28,0,0,0-1.17-.69,1.29,1.29,0,0,0-1.18.7,4.54,4.54,0,0,0-.41,2.25,4.46,4.46,0,0,0,.41,2.22A1.29,1.29,0,0,0-170.86,249.82Zm6-6.64a2.21,2.21,0,0,1,1.87.94,4.63,4.63,0,0,1,.7,2.79,4.58,4.58,0,0,1-.7,2.77,2.23,2.23,0,0,1-1.88.94,2.22,2.22,0,0,1-1.88-.93,4.58,4.58,0,0,1-.7-2.77,5.92,5.92,0,0,1,.32-2.07,2.74,2.74,0,0,1,.9-1.25A2.29,2.29,0,0,1-164.88,243.18Zm0,6.64a1.29,1.29,0,0,0,1.17-.68,4.73,4.73,0,0,0,.4-2.23,4.67,4.67,0,0,0-.41-2.26,1.26,1.26,0,0,0-1.17-.69,1.3,1.3,0,0,0-1.18.7,4.65,4.65,0,0,0-.41,2.25,4.57,4.57,0,0,0,.41,2.22A1.31,1.31,0,0,0-164.88,249.82Zm4.84.69v-5.76h-1.4v-.6a4.25,4.25,0,0,0,1-.1.9.9,0,0,0,.51-.29.78.78,0,0,0,.17-.48h.66v7.23Z" transform="translate(248.75 -53.51)"/><path id="_29" data-name="$29" class="cls-12" d="M-51.62,250.64a5,5,0,0,1-2.75-.68,2.71,2.71,0,0,1-1.21-2.1l2,0a1.54,1.54,0,0,0,.67,1,2.39,2.39,0,0,0,1.3.33,2.16,2.16,0,0,0,.83-.14,1.57,1.57,0,0,0,.57-.42A1,1,0,0,0-50,248a.92.92,0,0,0-.34-.77,2.59,2.59,0,0,0-1-.41l-1.54-.34a3.26,3.26,0,0,1-1.72-.85,2.37,2.37,0,0,1-.66-1.72,2.49,2.49,0,0,1,.48-1.53,3.14,3.14,0,0,1,1.32-1,4.88,4.88,0,0,1,1.88-.35,4.12,4.12,0,0,1,1.83.38,3,3,0,0,1,1.2,1,2.45,2.45,0,0,1,.41,1.41l-1.92,0a1.8,1.8,0,0,0-.41-1,1.41,1.41,0,0,0-1.08-.36,3,3,0,0,0-.7.08,1.79,1.79,0,0,0-.52.24,1.06,1.06,0,0,0-.34.36.93.93,0,0,0-.11.47.83.83,0,0,0,.27.65,3,3,0,0,0,1.05.43l1.51.37a3.2,3.2,0,0,1,1.85,1.05A2.89,2.89,0,0,1-48,248a2.31,2.31,0,0,1-.45,1.42,2.81,2.81,0,0,1-1.25.93A4.9,4.9,0,0,1-51.62,250.64Zm-.82-10.88h1.65v1.69h-1.65Zm0,10.3h1.64v1.69h-1.64Zm5.73.45v-1.42a2.67,2.67,0,0,1,.27-1.24,3.12,3.12,0,0,1,.7-.91,6.41,6.41,0,0,1,1-.68c.36-.19.71-.38,1.06-.55s.67-.35,1-.52a3.05,3.05,0,0,0,.71-.59,1.16,1.16,0,0,0,.26-.77,1.19,1.19,0,0,0-.39-.92,1.53,1.53,0,0,0-1.08-.36,1.84,1.84,0,0,0-1.2.41,1.86,1.86,0,0,0-.61,1.23h-1.81a3.54,3.54,0,0,1,.41-1.62,2.88,2.88,0,0,1,1.23-1.16,4.28,4.28,0,0,1,2-.43,4.36,4.36,0,0,1,1.81.35,2.71,2.71,0,0,1,1.18,1,2.63,2.63,0,0,1,.42,1.49,2.71,2.71,0,0,1-.26,1.22,2.81,2.81,0,0,1-.69.88,5.51,5.51,0,0,1-.94.63c-.34.19-.69.36-1,.51s-.65.32-.93.48a2.29,2.29,0,0,0-.69.55,1.06,1.06,0,0,0-.26.73v.09h4.79v1.6Zm11.44.14a3.87,3.87,0,0,1-1.63-.34,3,3,0,0,1-1.24-.95,2.45,2.45,0,0,1-.54-1.44h1.8a1.59,1.59,0,0,0,.52.89,1.51,1.51,0,0,0,1,.34,2.19,2.19,0,0,0,1.18-.32,1.92,1.92,0,0,0,.77-1,4.52,4.52,0,0,0,.18-1.82,1.82,1.82,0,0,1-.51.6,2.44,2.44,0,0,1-.75.4,3.12,3.12,0,0,1-1,.13,4,4,0,0,1-1.7-.35,2.87,2.87,0,0,1-1.15-1,3,3,0,0,1-.42-1.59,3.12,3.12,0,0,1,.44-1.64A3.08,3.08,0,0,1-37,241.39a3.87,3.87,0,0,1,1.86-.41,3.68,3.68,0,0,1,2.06.57,3.6,3.6,0,0,1,1.33,1.61,6,6,0,0,1,.47,2.45,7.2,7.2,0,0,1-.48,2.81,3.61,3.61,0,0,1-1.37,1.68A3.93,3.93,0,0,1-35.3,250.65Zm.17-5a1.73,1.73,0,0,0,.77-.17,1.83,1.83,0,0,0,.62-.46.84.84,0,0,0,.24-.56,2.7,2.7,0,0,0-.2-1.08,1.67,1.67,0,0,0-.57-.7,1.54,1.54,0,0,0-.86-.24,1.54,1.54,0,0,0-.8.21,1.49,1.49,0,0,0-.55.59,1.86,1.86,0,0,0-.2.87,1.48,1.48,0,0,0,.43,1.14A1.57,1.57,0,0,0-35.13,245.62Z" transform="translate(248.75 -53.51)"/></g></g></g><g id="Group_36_Copy" data-name="Group 36 Copy"><g id="Rectangle_2-2" data-name="Rectangle 2"><rect class="cls-10" x="30" y="221" width="204" height="40" rx="5"/></g><g class="cls-24"><g id="Group_35_2" data-name="Group 35_2"><path id="Item_002" data-name="Item #002" class="cls-23" d="M-201.79,291.28h.92v7.23h-.92Zm5.21,2.73h-1.17v3.22a1,1,0,0,0,.06.4.28.28,0,0,0,.19.16,1.84,1.84,0,0,0,.38,0h.57v.62l-.29.06-.48,0a2,2,0,0,1-.83-.14.82.82,0,0,1-.41-.43,1.83,1.83,0,0,1-.12-.7V294h-.84v-.67h.87l.22-1.51h.68v1.5h1.17Zm1.77,2.13a2.35,2.35,0,0,0,.16.89,1.48,1.48,0,0,0,.5.63,1.45,1.45,0,0,0,.83.23,1.56,1.56,0,0,0,.85-.23A1,1,0,0,0-192,297h.88a1.86,1.86,0,0,1-.42.88,2.21,2.21,0,0,1-.79.55,2.64,2.64,0,0,1-1,.18,2.49,2.49,0,0,1-1.27-.32,2.14,2.14,0,0,1-.86-.9,3,3,0,0,1-.31-1.42,3.38,3.38,0,0,1,.28-1.43,2.12,2.12,0,0,1,.81-1,2.29,2.29,0,0,1,1.28-.34,2.31,2.31,0,0,1,1.24.31,2,2,0,0,1,.76.89,3.14,3.14,0,0,1,.27,1.36v.34Zm0-.63H-192a2,2,0,0,0-.15-.8,1.22,1.22,0,0,0-.46-.56,1.34,1.34,0,0,0-.77-.21,1.3,1.3,0,0,0-.81.23,1.33,1.33,0,0,0-.47.6A1.59,1.59,0,0,0-194.8,295.51Zm4.89,3v-5.17h.89v.75a2,2,0,0,1,.59-.6,1.68,1.68,0,0,1,1-.25,1.88,1.88,0,0,1,.57.09,1.57,1.57,0,0,1,.54.29,1.21,1.21,0,0,1,.38.46,1.81,1.81,0,0,1,.65-.61,1.83,1.83,0,0,1,.93-.23,1.85,1.85,0,0,1,.56.08,1.39,1.39,0,0,1,.55.29,1.41,1.41,0,0,1,.41.58,2.27,2.27,0,0,1,.16.94v3.38h-.93v-3.29a1.45,1.45,0,0,0-.15-.73.84.84,0,0,0-.39-.36,1.27,1.27,0,0,0-.52-.11,1.4,1.4,0,0,0-.51.1,1,1,0,0,0-.46.32,1,1,0,0,0-.19.61v3.46h-.92V295a.76.76,0,0,0-.16-.51,1,1,0,0,0-.41-.31,1.2,1.2,0,0,0-.48-.11,1.48,1.48,0,0,0-.53.11,1.06,1.06,0,0,0-.45.33.92.92,0,0,0-.18.59v3.46Zm12.88-7.18-1.09,7.19-.57-.08,1.09-7.18Zm2.05,0-1.09,7.19-.57-.08,1.09-7.18Zm.42,4.27v.56h-4.95v-.56Zm.32-2.05v.56h-4.95v-.56Zm3.38-2.37a2.2,2.2,0,0,1,1.87.94,4.63,4.63,0,0,1,.7,2.79,4.66,4.66,0,0,1-.69,2.77,2.26,2.26,0,0,1-1.89.94,2.22,2.22,0,0,1-1.88-.93,4.66,4.66,0,0,1-.69-2.77,5.7,5.7,0,0,1,.32-2.07,2.6,2.6,0,0,1,.9-1.25A2.24,2.24,0,0,1-170.86,291.18Zm0,6.64a1.27,1.27,0,0,0,1.17-.68,4.61,4.61,0,0,0,.4-2.23,4.69,4.69,0,0,0-.4-2.26,1.28,1.28,0,0,0-1.17-.69,1.29,1.29,0,0,0-1.18.7,4.54,4.54,0,0,0-.41,2.25,4.46,4.46,0,0,0,.41,2.22A1.29,1.29,0,0,0-170.86,297.82Zm6-6.64a2.21,2.21,0,0,1,1.87.94,4.63,4.63,0,0,1,.7,2.79,4.58,4.58,0,0,1-.7,2.77,2.23,2.23,0,0,1-1.88.94,2.22,2.22,0,0,1-1.88-.93,4.58,4.58,0,0,1-.7-2.77,5.92,5.92,0,0,1,.32-2.07,2.74,2.74,0,0,1,.9-1.25A2.29,2.29,0,0,1-164.88,291.18Zm0,6.64a1.29,1.29,0,0,0,1.17-.68,4.73,4.73,0,0,0,.4-2.23,4.67,4.67,0,0,0-.41-2.26,1.26,1.26,0,0,0-1.17-.69,1.3,1.3,0,0,0-1.18.7,4.65,4.65,0,0,0-.41,2.25,4.57,4.57,0,0,0,.41,2.22A1.31,1.31,0,0,0-164.88,297.82Zm3.6.69v-.86a2.19,2.19,0,0,1,.2-1,2.55,2.55,0,0,1,.55-.71,5.11,5.11,0,0,1,.75-.54c.28-.16.55-.32.82-.46a8.79,8.79,0,0,0,.75-.47,2,2,0,0,0,.54-.55,1.28,1.28,0,0,0,.21-.73,1.12,1.12,0,0,0-.39-.89,1.49,1.49,0,0,0-1-.35,1.6,1.6,0,0,0-1.14.4,1.58,1.58,0,0,0-.49,1.07h-.92a2.43,2.43,0,0,1,.31-1.14,2.11,2.11,0,0,1,.87-.83,2.87,2.87,0,0,1,1.4-.31,2.73,2.73,0,0,1,1.26.26,1.89,1.89,0,0,1,.83.72,1.89,1.89,0,0,1,.29,1.07,2.06,2.06,0,0,1-.2,1,2.34,2.34,0,0,1-.55.7,5,5,0,0,1-.73.52l-.81.44a6.61,6.61,0,0,0-.74.45,2.1,2.1,0,0,0-.54.53,1.26,1.26,0,0,0-.2.71v.15h3.81v.82Z" transform="translate(248.75 -53.51)"/><path id="_105" data-name="$105" class="cls-12" d="M-57.41,298.64a5,5,0,0,1-2.75-.68,2.71,2.71,0,0,1-1.21-2.1l2,0a1.54,1.54,0,0,0,.67,1,2.37,2.37,0,0,0,1.3.33,2.07,2.07,0,0,0,.82-.14,1.53,1.53,0,0,0,.58-.42,1,1,0,0,0,.2-.61.92.92,0,0,0-.33-.77,2.59,2.59,0,0,0-1-.41l-1.54-.34a3.26,3.26,0,0,1-1.72-.85,2.37,2.37,0,0,1-.66-1.72,2.49,2.49,0,0,1,.48-1.53,3.14,3.14,0,0,1,1.32-1,4.85,4.85,0,0,1,1.88-.35,4.12,4.12,0,0,1,1.83.38,3,3,0,0,1,1.2,1A2.45,2.45,0,0,1-54,291.8l-1.92,0a1.8,1.8,0,0,0-.41-1,1.41,1.41,0,0,0-1.08-.36,3,3,0,0,0-.7.08,1.79,1.79,0,0,0-.52.24,1,1,0,0,0-.34.36.93.93,0,0,0-.11.47.83.83,0,0,0,.27.65,3,3,0,0,0,1.05.43l1.51.37a3.23,3.23,0,0,1,1.85,1,2.89,2.89,0,0,1,.57,1.8,2.31,2.31,0,0,1-.45,1.42,2.81,2.81,0,0,1-1.25.93A4.9,4.9,0,0,1-57.41,298.64Zm-.82-10.88h1.65v1.69h-1.65Zm0,10.3h1.64v1.69h-1.64Zm7.23.45v-7H-52.7v-1.08a4.64,4.64,0,0,0,1.3-.15,1.61,1.61,0,0,0,.75-.44,1.27,1.27,0,0,0,.29-.69h1.26v9.4ZM-43.6,289A3.15,3.15,0,0,1-41,290.23a5.74,5.74,0,0,1,1,3.6,5.85,5.85,0,0,1-.95,3.58,3.17,3.17,0,0,1-2.66,1.24,3.18,3.18,0,0,1-2.67-1.24,5.76,5.76,0,0,1-1-3.58,7.07,7.07,0,0,1,.44-2.64,3.63,3.63,0,0,1,1.26-1.65A3.33,3.33,0,0,1-43.6,289Zm0,8.12a1.3,1.3,0,0,0,1.23-.75,5.87,5.87,0,0,0,.39-2.52,6.16,6.16,0,0,0-.4-2.58,1.29,1.29,0,0,0-1.23-.78,1.32,1.32,0,0,0-1.24.79,6,6,0,0,0-.4,2.57,5.67,5.67,0,0,0,.4,2.51A1.33,1.33,0,0,0-43.6,297.1Zm5.63-8h6l-.07,1.55h-4.47l-.18,2.27a4.07,4.07,0,0,1,1-.42,3.75,3.75,0,0,1,1-.13,3.91,3.91,0,0,1,1.68.35,2.77,2.77,0,0,1,1.18,1,2.94,2.94,0,0,1,.44,1.66,3.2,3.2,0,0,1-.45,1.72A2.93,2.93,0,0,1-33,298.26a4.51,4.51,0,0,1-1.94.39,5,5,0,0,1-1.72-.29,4.26,4.26,0,0,1-1.37-.78,3.31,3.31,0,0,1-.88-1.14l1.48-.88a4.78,4.78,0,0,0,.57.8,2.5,2.5,0,0,0,.74.56,2.32,2.32,0,0,0,1,.2,2,2,0,0,0,1.36-.45,1.49,1.49,0,0,0,.51-1.17,1.5,1.5,0,0,0-.23-.81,1.58,1.58,0,0,0-.63-.57,2,2,0,0,0-.94-.21,3.12,3.12,0,0,0-.55,0,1.9,1.9,0,0,0-.52.18,3.8,3.8,0,0,0-.58.38.3.3,0,0,1-.13,0l-.13,0-1.38-.64Z" transform="translate(248.75 -53.51)"/></g></g></g><g id="Group_36_Copy_3" data-name="Group 36 Copy 3"><g id="Rectangle_3" data-name="Rectangle 3"><rect class="cls-10" x="30" y="269" width="204" height="40" rx="5"/></g><g class="cls-25"><g id="Group_35_3" data-name="Group 35_3"><path id="Item_003" data-name="Item #003" class="cls-23" d="M-201.79,339.28h.92v7.23h-.92Zm5.21,2.73h-1.17v3.22a1,1,0,0,0,.06.4.28.28,0,0,0,.19.16,1.84,1.84,0,0,0,.38,0h.57v.62l-.29.06-.48,0a2,2,0,0,1-.83-.14.82.82,0,0,1-.41-.43,1.83,1.83,0,0,1-.12-.7V342h-.84v-.67h.87l.22-1.51h.68v1.5h1.17Zm1.77,2.13a2.35,2.35,0,0,0,.16.89,1.48,1.48,0,0,0,.5.63,1.45,1.45,0,0,0,.83.23,1.56,1.56,0,0,0,.85-.23A1,1,0,0,0-192,345h.88a1.86,1.86,0,0,1-.42.88,2.21,2.21,0,0,1-.79.55,2.64,2.64,0,0,1-1,.18,2.49,2.49,0,0,1-1.27-.32,2.14,2.14,0,0,1-.86-.9,3,3,0,0,1-.31-1.42,3.38,3.38,0,0,1,.28-1.43,2.12,2.12,0,0,1,.81-1,2.29,2.29,0,0,1,1.28-.34,2.31,2.31,0,0,1,1.24.31,2,2,0,0,1,.76.89,3.14,3.14,0,0,1,.27,1.36v.34Zm0-.63H-192a2,2,0,0,0-.15-.8,1.22,1.22,0,0,0-.46-.56,1.34,1.34,0,0,0-.77-.21,1.3,1.3,0,0,0-.81.23,1.33,1.33,0,0,0-.47.6A1.59,1.59,0,0,0-194.8,343.51Zm4.89,3v-5.17h.89v.75a2,2,0,0,1,.59-.6,1.68,1.68,0,0,1,1-.25,1.88,1.88,0,0,1,.57.09,1.57,1.57,0,0,1,.54.29,1.21,1.21,0,0,1,.38.46,1.81,1.81,0,0,1,.65-.61,1.83,1.83,0,0,1,.93-.23,1.85,1.85,0,0,1,.56.08,1.39,1.39,0,0,1,.55.29,1.41,1.41,0,0,1,.41.58,2.27,2.27,0,0,1,.16.94v3.38h-.93v-3.29a1.45,1.45,0,0,0-.15-.73.84.84,0,0,0-.39-.36,1.27,1.27,0,0,0-.52-.11,1.4,1.4,0,0,0-.51.1,1,1,0,0,0-.46.32,1,1,0,0,0-.19.61v3.46h-.92V343a.76.76,0,0,0-.16-.51,1,1,0,0,0-.41-.31,1.2,1.2,0,0,0-.48-.11,1.48,1.48,0,0,0-.53.11,1.06,1.06,0,0,0-.45.33.92.92,0,0,0-.18.59v3.46Zm12.88-7.18-1.09,7.19-.57-.08,1.09-7.18Zm2.05,0-1.09,7.19-.57-.08,1.09-7.18Zm.42,4.27v.56h-4.95v-.56Zm.32-2.05v.56h-4.95v-.56Zm3.38-2.37a2.2,2.2,0,0,1,1.87.94,4.63,4.63,0,0,1,.7,2.79,4.66,4.66,0,0,1-.69,2.77,2.26,2.26,0,0,1-1.89.94,2.22,2.22,0,0,1-1.88-.93,4.66,4.66,0,0,1-.69-2.77,5.7,5.7,0,0,1,.32-2.07,2.6,2.6,0,0,1,.9-1.25A2.24,2.24,0,0,1-170.86,339.18Zm0,6.64a1.27,1.27,0,0,0,1.17-.68,4.61,4.61,0,0,0,.4-2.23,4.69,4.69,0,0,0-.4-2.26,1.28,1.28,0,0,0-1.17-.69,1.29,1.29,0,0,0-1.18.7,4.54,4.54,0,0,0-.41,2.25,4.46,4.46,0,0,0,.41,2.22A1.29,1.29,0,0,0-170.86,345.82Zm6-6.64a2.21,2.21,0,0,1,1.87.94,4.63,4.63,0,0,1,.7,2.79,4.58,4.58,0,0,1-.7,2.77,2.23,2.23,0,0,1-1.88.94,2.22,2.22,0,0,1-1.88-.93,4.58,4.58,0,0,1-.7-2.77,5.92,5.92,0,0,1,.32-2.07,2.74,2.74,0,0,1,.9-1.25A2.29,2.29,0,0,1-164.88,339.18Zm0,6.64a1.29,1.29,0,0,0,1.17-.68,4.73,4.73,0,0,0,.4-2.23,4.67,4.67,0,0,0-.41-2.26,1.26,1.26,0,0,0-1.17-.69,1.3,1.3,0,0,0-1.18.7,4.65,4.65,0,0,0-.41,2.25,4.57,4.57,0,0,0,.41,2.22A1.31,1.31,0,0,0-164.88,345.82Zm3.49-4.44a2,2,0,0,1,.34-1.19,2.07,2.07,0,0,1,.9-.75,2.9,2.9,0,0,1,1.26-.26,3.58,3.58,0,0,1,1.32.22,2,2,0,0,1,.9.63,1.55,1.55,0,0,1,.33,1,1.57,1.57,0,0,1-.34,1,2.3,2.3,0,0,1-1,.68,2.52,2.52,0,0,1,.83.38,1.78,1.78,0,0,1,.55.61,1.72,1.72,0,0,1,.19.83,1.86,1.86,0,0,1-.21.89,2.05,2.05,0,0,1-.58.67,2.86,2.86,0,0,1-.88.41,4.32,4.32,0,0,1-1.11.14,3.2,3.2,0,0,1-1.32-.28,2.19,2.19,0,0,1-.89-.75,2.23,2.23,0,0,1-.35-1.16h.93a1.56,1.56,0,0,0,.55,1,1.68,1.68,0,0,0,1.11.36,2.45,2.45,0,0,0,.93-.16,1.54,1.54,0,0,0,.61-.47,1.17,1.17,0,0,0,.21-.69,1.13,1.13,0,0,0-.24-.73,1.48,1.48,0,0,0-.65-.46,2.52,2.52,0,0,0-.93-.16l-.65,0v-.78l.62,0a2.26,2.26,0,0,0,.85-.18,1.62,1.62,0,0,0,.59-.45,1,1,0,0,0,.22-.63.93.93,0,0,0-.18-.55,1.27,1.27,0,0,0-.54-.42,2.1,2.1,0,0,0-.84-.15,1.85,1.85,0,0,0-.74.15,1.36,1.36,0,0,0-.59.47,1.44,1.44,0,0,0-.24.81Z" transform="translate(248.75 -53.51)"/><path id="_810" data-name="$810" class="cls-12" d="M-57.36,346.64a5,5,0,0,1-2.75-.68,2.71,2.71,0,0,1-1.21-2.1l2,0a1.54,1.54,0,0,0,.67,1,2.39,2.39,0,0,0,1.3.33,2.16,2.16,0,0,0,.83-.14,1.57,1.57,0,0,0,.57-.42,1,1,0,0,0,.21-.61.92.92,0,0,0-.34-.77,2.59,2.59,0,0,0-1-.41l-1.54-.34a3.26,3.26,0,0,1-1.72-.85,2.37,2.37,0,0,1-.66-1.72,2.49,2.49,0,0,1,.48-1.53,3.14,3.14,0,0,1,1.32-1,4.88,4.88,0,0,1,1.88-.35,4.2,4.2,0,0,1,1.84.38,3.07,3.07,0,0,1,1.19,1,2.45,2.45,0,0,1,.41,1.41l-1.92,0a1.8,1.8,0,0,0-.41-1,1.41,1.41,0,0,0-1.08-.36,3,3,0,0,0-.7.08,1.79,1.79,0,0,0-.52.24,1.06,1.06,0,0,0-.34.36,1,1,0,0,0-.11.47.83.83,0,0,0,.27.65,3,3,0,0,0,1,.43l1.51.37a3.23,3.23,0,0,1,1.85,1,2.89,2.89,0,0,1,.57,1.8,2.31,2.31,0,0,1-.45,1.42,2.81,2.81,0,0,1-1.25.93A4.86,4.86,0,0,1-57.36,346.64Zm-.82-10.88h1.65v1.69h-1.65Zm0,10.3h1.64v1.69h-1.64Zm9.35-9.08a4.65,4.65,0,0,1,1.73.3,2.8,2.8,0,0,1,1.21.9,2.29,2.29,0,0,1,.44,1.44,2,2,0,0,1-.39,1.23,2.65,2.65,0,0,1-1,.78,2,2,0,0,1,.84.43,2.47,2.47,0,0,1,.68.82,2,2,0,0,1,.27,1,2.33,2.33,0,0,1-.48,1.46,2.93,2.93,0,0,1-1.32.95,5.51,5.51,0,0,1-2,.33,5.48,5.48,0,0,1-2-.33,2.93,2.93,0,0,1-1.32-.95,2.33,2.33,0,0,1-.48-1.46,2,2,0,0,1,.27-1,2.57,2.57,0,0,1,.67-.82,2.08,2.08,0,0,1,.85-.43,2.65,2.65,0,0,1-1-.78,1.92,1.92,0,0,1-.41-1.23,2.29,2.29,0,0,1,.45-1.44,2.86,2.86,0,0,1,1.21-.9A4.7,4.7,0,0,1-48.86,337Zm0,3.92a1.62,1.62,0,0,0,1.07-.35,1.18,1.18,0,0,0,.42-1,1.19,1.19,0,0,0-.42-1,1.59,1.59,0,0,0-1.07-.36,1.6,1.6,0,0,0-1.06.36,1.19,1.19,0,0,0-.42,1,1.18,1.18,0,0,0,.42,1A1.65,1.65,0,0,0-48.86,340.9Zm0,4.31a2,2,0,0,0,1.3-.37,1.19,1.19,0,0,0,.48-1,1.21,1.21,0,0,0-.22-.73,1.39,1.39,0,0,0-.61-.5,2.27,2.27,0,0,0-1-.18,2.2,2.2,0,0,0-.93.18,1.39,1.39,0,0,0-.61.5,1.21,1.21,0,0,0-.22.73,1.19,1.19,0,0,0,.48,1A2,2,0,0,0-48.86,345.21Zm6.51,1.3v-7H-44v-1.08a4.59,4.59,0,0,0,1.3-.15,1.61,1.61,0,0,0,.75-.44,1.27,1.27,0,0,0,.29-.69h1.26v9.4Zm7.42-9.53a3.19,3.19,0,0,1,2.65,1.25,5.8,5.8,0,0,1,1,3.6,5.78,5.78,0,0,1-1,3.58,3.17,3.17,0,0,1-2.66,1.24,3.18,3.18,0,0,1-2.67-1.24,5.76,5.76,0,0,1-1-3.58,6.87,6.87,0,0,1,.45-2.64,3.55,3.55,0,0,1,1.25-1.65A3.35,3.35,0,0,1-34.93,337Zm0,8.12a1.3,1.3,0,0,0,1.23-.75,5.87,5.87,0,0,0,.39-2.52,6,6,0,0,0-.4-2.58,1.29,1.29,0,0,0-1.23-.78,1.33,1.33,0,0,0-1.24.79,6,6,0,0,0-.4,2.57,5.67,5.67,0,0,0,.4,2.51A1.34,1.34,0,0,0-34.93,345.1Z" transform="translate(248.75 -53.51)"/></g></g></g><g id="Group_36_Copy_2" data-name="Group 36 Copy 2"><g id="Rectangle_4" data-name="Rectangle 4"><rect class="cls-10" x="30" y="317" width="204" height="40" rx="5"/></g><g class="cls-26"><g id="Group_35_4" data-name="Group 35_4"><path id="Item_004" data-name="Item #004" class="cls-23" d="M-201.79,387.28h.92v7.23h-.92Zm5.21,2.73h-1.17v3.22a1,1,0,0,0,.06.4.28.28,0,0,0,.19.16,1.84,1.84,0,0,0,.38,0h.57v.62l-.29.06-.48,0a2,2,0,0,1-.83-.14.82.82,0,0,1-.41-.43,1.83,1.83,0,0,1-.12-.7V390h-.84v-.67h.87l.22-1.51h.68v1.5h1.17Zm1.77,2.13a2.35,2.35,0,0,0,.16.89,1.48,1.48,0,0,0,.5.63,1.45,1.45,0,0,0,.83.23,1.56,1.56,0,0,0,.85-.23A1,1,0,0,0-192,393h.88a1.86,1.86,0,0,1-.42.88,2.21,2.21,0,0,1-.79.55,2.64,2.64,0,0,1-1,.18,2.49,2.49,0,0,1-1.27-.32,2.14,2.14,0,0,1-.86-.9,3,3,0,0,1-.31-1.42,3.38,3.38,0,0,1,.28-1.43,2.12,2.12,0,0,1,.81-1,2.29,2.29,0,0,1,1.28-.34,2.31,2.31,0,0,1,1.24.31,2,2,0,0,1,.76.89,3.14,3.14,0,0,1,.27,1.36v.34Zm0-.63H-192a2,2,0,0,0-.15-.8,1.22,1.22,0,0,0-.46-.56,1.34,1.34,0,0,0-.77-.21,1.3,1.3,0,0,0-.81.23,1.33,1.33,0,0,0-.47.6A1.59,1.59,0,0,0-194.8,391.51Zm4.89,3v-5.17h.89v.75a2,2,0,0,1,.59-.6,1.68,1.68,0,0,1,1-.25,1.88,1.88,0,0,1,.57.09,1.57,1.57,0,0,1,.54.29,1.21,1.21,0,0,1,.38.46,1.81,1.81,0,0,1,.65-.61,1.83,1.83,0,0,1,.93-.23,1.85,1.85,0,0,1,.56.08,1.39,1.39,0,0,1,.55.29,1.41,1.41,0,0,1,.41.58,2.27,2.27,0,0,1,.16.94v3.38h-.93v-3.29a1.45,1.45,0,0,0-.15-.73.84.84,0,0,0-.39-.36,1.27,1.27,0,0,0-.52-.11,1.4,1.4,0,0,0-.51.1,1,1,0,0,0-.46.32,1,1,0,0,0-.19.61v3.46h-.92V391a.76.76,0,0,0-.16-.51,1,1,0,0,0-.41-.31,1.2,1.2,0,0,0-.48-.11,1.48,1.48,0,0,0-.53.11,1.06,1.06,0,0,0-.45.33.92.92,0,0,0-.18.59v3.46Zm12.88-7.18-1.09,7.19-.57-.08,1.09-7.18Zm2.05,0-1.09,7.19-.57-.08,1.09-7.18Zm.42,4.27v.56h-4.95v-.56Zm.32-2.05v.56h-4.95v-.56Zm3.38-2.37a2.2,2.2,0,0,1,1.87.94,4.63,4.63,0,0,1,.7,2.79,4.66,4.66,0,0,1-.69,2.77,2.26,2.26,0,0,1-1.89.94,2.22,2.22,0,0,1-1.88-.93,4.66,4.66,0,0,1-.69-2.77,5.7,5.7,0,0,1,.32-2.07,2.6,2.6,0,0,1,.9-1.25A2.24,2.24,0,0,1-170.86,387.18Zm0,6.64a1.27,1.27,0,0,0,1.17-.68,4.61,4.61,0,0,0,.4-2.23,4.69,4.69,0,0,0-.4-2.26,1.28,1.28,0,0,0-1.17-.69,1.29,1.29,0,0,0-1.18.7,4.54,4.54,0,0,0-.41,2.25,4.46,4.46,0,0,0,.41,2.22A1.29,1.29,0,0,0-170.86,393.82Zm6-6.64a2.21,2.21,0,0,1,1.87.94,4.63,4.63,0,0,1,.7,2.79,4.58,4.58,0,0,1-.7,2.77,2.23,2.23,0,0,1-1.88.94,2.22,2.22,0,0,1-1.88-.93,4.58,4.58,0,0,1-.7-2.77,5.92,5.92,0,0,1,.32-2.07,2.74,2.74,0,0,1,.9-1.25A2.29,2.29,0,0,1-164.88,387.18Zm0,6.64a1.29,1.29,0,0,0,1.17-.68,4.73,4.73,0,0,0,.4-2.23,4.67,4.67,0,0,0-.41-2.26,1.26,1.26,0,0,0-1.17-.69,1.3,1.3,0,0,0-1.18.7,4.65,4.65,0,0,0-.41,2.25,4.57,4.57,0,0,0,.41,2.22A1.31,1.31,0,0,0-164.88,393.82Zm6.79-6.54h.94v4.57h1.2v.81h-1.2v1.85h-.9v-1.85h-3.41v-.84Zm-2.48,4.57h2.5v-3.36Z" transform="translate(248.75 -53.51)"/><path id="_1044" data-name="$1044" class="cls-12" d="M-65.55,394.64A5,5,0,0,1-68.3,394a2.71,2.71,0,0,1-1.21-2.1l2,0a1.54,1.54,0,0,0,.67,1,2.39,2.39,0,0,0,1.3.33,2.07,2.07,0,0,0,.82-.14,1.53,1.53,0,0,0,.58-.42A1,1,0,0,0-64,392a.92.92,0,0,0-.33-.77,2.59,2.59,0,0,0-1-.41l-1.54-.34a3.26,3.26,0,0,1-1.72-.85,2.37,2.37,0,0,1-.66-1.72,2.49,2.49,0,0,1,.48-1.53,3.14,3.14,0,0,1,1.32-1,4.88,4.88,0,0,1,1.88-.35,4.2,4.2,0,0,1,1.84.38,3.07,3.07,0,0,1,1.19,1,2.45,2.45,0,0,1,.41,1.41l-1.92,0a1.8,1.8,0,0,0-.41-1,1.41,1.41,0,0,0-1.08-.36,3,3,0,0,0-.7.08,1.79,1.79,0,0,0-.52.24,1.06,1.06,0,0,0-.34.36,1,1,0,0,0-.11.47.83.83,0,0,0,.27.65,3,3,0,0,0,1,.43l1.51.37a3.23,3.23,0,0,1,1.85,1,2.89,2.89,0,0,1,.57,1.8,2.31,2.31,0,0,1-.45,1.42,2.81,2.81,0,0,1-1.25.93A4.86,4.86,0,0,1-65.55,394.64Zm-.82-10.88h1.65v1.69h-1.65Zm0,10.3h1.64v1.69H-66.4Zm7.24.45v-7h-1.68v-1.08a4.59,4.59,0,0,0,1.3-.15,1.61,1.61,0,0,0,.75-.44,1.27,1.27,0,0,0,.29-.69h1.26v9.4Zm7.42-9.53a3.15,3.15,0,0,1,2.64,1.25,5.74,5.74,0,0,1,1,3.6,5.85,5.85,0,0,1-.95,3.58,3.17,3.17,0,0,1-2.66,1.24,3.18,3.18,0,0,1-2.67-1.24,5.76,5.76,0,0,1-1-3.58,7.07,7.07,0,0,1,.44-2.64,3.63,3.63,0,0,1,1.26-1.65A3.33,3.33,0,0,1-51.74,385Zm0,8.12a1.3,1.3,0,0,0,1.23-.75,5.87,5.87,0,0,0,.39-2.52,6.16,6.16,0,0,0-.4-2.58,1.29,1.29,0,0,0-1.23-.78,1.32,1.32,0,0,0-1.24.79,6,6,0,0,0-.4,2.57,5.67,5.67,0,0,0,.4,2.51A1.34,1.34,0,0,0-51.74,393.1Zm8.87-8H-41v5.72h1.45v1.6H-41v2.08h-1.83v-2.08h-4.33v-1.56Zm-2.53,5.72h2.58v-3.44Zm11-5.72h1.87v5.72h1.45v1.6h-1.45v2.08H-34.4v-2.08h-4.33v-1.56ZM-37,390.83h2.58v-3.44Z" transform="translate(248.75 -53.51)"/></g></g></g><g id="Group_36_Copy_6" data-name="Group 36 Copy 6"><g id="Rectangle_5" data-name="Rectangle 5"><rect class="cls-10" x="30" y="365" width="204" height="40" rx="5"/></g><g class="cls-27"><g id="Group_35_5" data-name="Group 35_5"><path id="Item_005" data-name="Item #005" class="cls-23" d="M-201.79,435.28h.92v7.23h-.92Zm5.21,2.73h-1.17v3.22a1,1,0,0,0,.06.4.28.28,0,0,0,.19.16,1.84,1.84,0,0,0,.38,0h.57v.62l-.29.06-.48,0a2,2,0,0,1-.83-.14.82.82,0,0,1-.41-.43,1.83,1.83,0,0,1-.12-.7V438h-.84v-.67h.87l.22-1.51h.68v1.5h1.17Zm1.77,2.13a2.35,2.35,0,0,0,.16.89,1.48,1.48,0,0,0,.5.63,1.45,1.45,0,0,0,.83.23,1.56,1.56,0,0,0,.85-.23A1,1,0,0,0-192,441h.88a1.86,1.86,0,0,1-.42.88,2.21,2.21,0,0,1-.79.55,2.64,2.64,0,0,1-1,.18,2.49,2.49,0,0,1-1.27-.32,2.14,2.14,0,0,1-.86-.9,3,3,0,0,1-.31-1.42,3.38,3.38,0,0,1,.28-1.43,2.12,2.12,0,0,1,.81-1,2.29,2.29,0,0,1,1.28-.34,2.31,2.31,0,0,1,1.24.31,2,2,0,0,1,.76.89,3.14,3.14,0,0,1,.27,1.36v.34Zm0-.63H-192a2,2,0,0,0-.15-.8,1.22,1.22,0,0,0-.46-.56,1.34,1.34,0,0,0-.77-.21,1.3,1.3,0,0,0-.81.23,1.33,1.33,0,0,0-.47.6A1.59,1.59,0,0,0-194.8,439.51Zm4.89,3v-5.17h.89v.75a2,2,0,0,1,.59-.6,1.68,1.68,0,0,1,1-.25,1.88,1.88,0,0,1,.57.09,1.57,1.57,0,0,1,.54.29,1.21,1.21,0,0,1,.38.46,1.81,1.81,0,0,1,.65-.61,1.83,1.83,0,0,1,.93-.23,1.85,1.85,0,0,1,.56.08,1.39,1.39,0,0,1,.55.29,1.41,1.41,0,0,1,.41.58,2.27,2.27,0,0,1,.16.94v3.38h-.93v-3.29a1.45,1.45,0,0,0-.15-.73.84.84,0,0,0-.39-.36,1.27,1.27,0,0,0-.52-.11,1.4,1.4,0,0,0-.51.1,1,1,0,0,0-.46.32,1,1,0,0,0-.19.61v3.46h-.92V439a.76.76,0,0,0-.16-.51,1,1,0,0,0-.41-.31,1.2,1.2,0,0,0-.48-.11,1.48,1.48,0,0,0-.53.11,1.06,1.06,0,0,0-.45.33.92.92,0,0,0-.18.59v3.46Zm12.88-7.18-1.09,7.19-.57-.08,1.09-7.18Zm2.05,0-1.09,7.19-.57-.08,1.09-7.18Zm.42,4.27v.56h-4.95v-.56Zm.32-2.05v.56h-4.95v-.56Zm3.38-2.37a2.2,2.2,0,0,1,1.87.94,4.63,4.63,0,0,1,.7,2.79,4.66,4.66,0,0,1-.69,2.77,2.26,2.26,0,0,1-1.89.94,2.22,2.22,0,0,1-1.88-.93,4.66,4.66,0,0,1-.69-2.77,5.7,5.7,0,0,1,.32-2.07,2.6,2.6,0,0,1,.9-1.25A2.24,2.24,0,0,1-170.86,435.18Zm0,6.64a1.27,1.27,0,0,0,1.17-.68,4.61,4.61,0,0,0,.4-2.23,4.69,4.69,0,0,0-.4-2.26,1.28,1.28,0,0,0-1.17-.69,1.29,1.29,0,0,0-1.18.7,4.54,4.54,0,0,0-.41,2.25,4.46,4.46,0,0,0,.41,2.22A1.29,1.29,0,0,0-170.86,441.82Zm6-6.64a2.21,2.21,0,0,1,1.87.94,4.63,4.63,0,0,1,.7,2.79,4.58,4.58,0,0,1-.7,2.77,2.23,2.23,0,0,1-1.88.94,2.22,2.22,0,0,1-1.88-.93,4.58,4.58,0,0,1-.7-2.77,5.92,5.92,0,0,1,.32-2.07,2.74,2.74,0,0,1,.9-1.25A2.29,2.29,0,0,1-164.88,435.18Zm0,6.64a1.29,1.29,0,0,0,1.17-.68,4.73,4.73,0,0,0,.4-2.23,4.67,4.67,0,0,0-.41-2.26,1.26,1.26,0,0,0-1.17-.69,1.3,1.3,0,0,0-1.18.7,4.65,4.65,0,0,0-.41,2.25,4.57,4.57,0,0,0,.41,2.22A1.31,1.31,0,0,0-164.88,441.82Zm4.15-6.54h4.31l0,.8h-3.5l-.19,2.33a2.15,2.15,0,0,1,.79-.47,2.83,2.83,0,0,1,.93-.15,2.65,2.65,0,0,1,1.2.27,2.12,2.12,0,0,1,.89.79,2.3,2.3,0,0,1,.34,1.29,2.52,2.52,0,0,1-.33,1.31,2.22,2.22,0,0,1-.91.86,3,3,0,0,1-1.39.31,3.19,3.19,0,0,1-1.24-.24,3,3,0,0,1-1-.65,2.7,2.7,0,0,1-.59-1l.8-.33a3.18,3.18,0,0,0,.45.73,2,2,0,0,0,.65.5,1.93,1.93,0,0,0,.85.18,1.69,1.69,0,0,0,1.23-.45,1.59,1.59,0,0,0,.47-1.22,1.49,1.49,0,0,0-.22-.83,1.45,1.45,0,0,0-.59-.56,1.63,1.63,0,0,0-.82-.2,2.39,2.39,0,0,0-.55.05,1.55,1.55,0,0,0-.51.2,2.32,2.32,0,0,0-.52.46h0l-.05,0-.78-.24Z" transform="translate(248.75 -53.51)"/><path id="_40" data-name="$40" class="cls-12" d="M-51.71,442.64a5,5,0,0,1-2.75-.68,2.68,2.68,0,0,1-1.2-2.1l2,0a1.54,1.54,0,0,0,.67,1,2.39,2.39,0,0,0,1.3.33,2.16,2.16,0,0,0,.83-.14,1.57,1.57,0,0,0,.57-.42,1,1,0,0,0,.21-.61.92.92,0,0,0-.34-.77,2.59,2.59,0,0,0-1-.41l-1.54-.34a3.26,3.26,0,0,1-1.72-.85,2.37,2.37,0,0,1-.66-1.72,2.49,2.49,0,0,1,.48-1.53,3.14,3.14,0,0,1,1.32-1,4.88,4.88,0,0,1,1.88-.35,4.2,4.2,0,0,1,1.84.38,3,3,0,0,1,1.19,1,2.45,2.45,0,0,1,.41,1.41l-1.92,0a1.73,1.73,0,0,0-.41-1,1.41,1.41,0,0,0-1.08-.36,3,3,0,0,0-.7.08,1.79,1.79,0,0,0-.52.24,1.06,1.06,0,0,0-.34.36,1,1,0,0,0-.11.47.83.83,0,0,0,.27.65,3,3,0,0,0,1,.43l1.51.37a3.2,3.2,0,0,1,1.85,1,2.89,2.89,0,0,1,.57,1.8,2.31,2.31,0,0,1-.45,1.42,2.81,2.81,0,0,1-1.25.93A4.86,4.86,0,0,1-51.71,442.64Zm-.82-10.88h1.65v1.69h-1.65Zm0,10.3h1.64v1.69h-1.64Zm9.84-8.95h1.87v5.72h1.45v1.6h-1.45v2.08h-1.83v-2.08H-47v-1.56Zm-2.53,5.72h2.58v-3.44ZM-34.93,433a3.19,3.19,0,0,1,2.65,1.25,5.8,5.8,0,0,1,1,3.6,5.78,5.78,0,0,1-1,3.58,3.17,3.17,0,0,1-2.66,1.24,3.18,3.18,0,0,1-2.67-1.24,5.76,5.76,0,0,1-1-3.58,6.87,6.87,0,0,1,.45-2.64,3.55,3.55,0,0,1,1.25-1.65A3.35,3.35,0,0,1-34.93,433Zm0,8.12a1.3,1.3,0,0,0,1.23-.75,5.87,5.87,0,0,0,.39-2.52,6,6,0,0,0-.4-2.58,1.29,1.29,0,0,0-1.23-.78,1.33,1.33,0,0,0-1.24.79,6,6,0,0,0-.4,2.57,5.67,5.67,0,0,0,.4,2.51A1.34,1.34,0,0,0-34.93,441.1Z" transform="translate(248.75 -53.51)"/></g></g></g><g id="Group_36_Copy_5" data-name="Group 36 Copy 5"><g id="Rectangle_6" data-name="Rectangle 6"><rect class="cls-10" x="30" y="413" width="204" height="40" rx="5"/></g><g class="cls-28"><g id="Group_35_6" data-name="Group 35_6"><path id="Item_006" data-name="Item #006" class="cls-23" d="M-201.79,483.28h.92v7.23h-.92Zm5.21,2.73h-1.17v3.22a1,1,0,0,0,.06.4.28.28,0,0,0,.19.16,1.84,1.84,0,0,0,.38,0h.57v.62l-.29.06-.48,0a2,2,0,0,1-.83-.14.82.82,0,0,1-.41-.43,1.83,1.83,0,0,1-.12-.7V486h-.84v-.67h.87l.22-1.51h.68v1.5h1.17Zm1.77,2.13a2.35,2.35,0,0,0,.16.89,1.48,1.48,0,0,0,.5.63,1.45,1.45,0,0,0,.83.23,1.56,1.56,0,0,0,.85-.23A1,1,0,0,0-192,489h.88a1.86,1.86,0,0,1-.42.88,2.21,2.21,0,0,1-.79.55,2.64,2.64,0,0,1-1,.18,2.49,2.49,0,0,1-1.27-.32,2.14,2.14,0,0,1-.86-.9,3,3,0,0,1-.31-1.42,3.38,3.38,0,0,1,.28-1.43,2.12,2.12,0,0,1,.81-1,2.29,2.29,0,0,1,1.28-.34,2.31,2.31,0,0,1,1.24.31,2,2,0,0,1,.76.89,3.14,3.14,0,0,1,.27,1.36v.34Zm0-.63H-192a2,2,0,0,0-.15-.8,1.22,1.22,0,0,0-.46-.56,1.34,1.34,0,0,0-.77-.21,1.3,1.3,0,0,0-.81.23,1.33,1.33,0,0,0-.47.6A1.59,1.59,0,0,0-194.8,487.51Zm4.89,3v-5.17h.89v.75a2,2,0,0,1,.59-.6,1.68,1.68,0,0,1,1-.25,1.88,1.88,0,0,1,.57.09,1.57,1.57,0,0,1,.54.29,1.21,1.21,0,0,1,.38.46,1.81,1.81,0,0,1,.65-.61,1.83,1.83,0,0,1,.93-.23,1.85,1.85,0,0,1,.56.08,1.39,1.39,0,0,1,.55.29,1.41,1.41,0,0,1,.41.58,2.27,2.27,0,0,1,.16.94v3.38h-.93v-3.29a1.45,1.45,0,0,0-.15-.73.84.84,0,0,0-.39-.36,1.27,1.27,0,0,0-.52-.11,1.4,1.4,0,0,0-.51.1,1,1,0,0,0-.46.32,1,1,0,0,0-.19.61v3.46h-.92V487a.76.76,0,0,0-.16-.51,1,1,0,0,0-.41-.31,1.2,1.2,0,0,0-.48-.11,1.48,1.48,0,0,0-.53.11,1.06,1.06,0,0,0-.45.33.92.92,0,0,0-.18.59v3.46Zm12.88-7.18-1.09,7.19-.57-.08,1.09-7.18Zm2.05,0-1.09,7.19-.57-.08,1.09-7.18Zm.42,4.27v.56h-4.95v-.56Zm.32-2.05v.56h-4.95v-.56Zm3.38-2.37a2.2,2.2,0,0,1,1.87.94,4.63,4.63,0,0,1,.7,2.79,4.66,4.66,0,0,1-.69,2.77,2.26,2.26,0,0,1-1.89.94,2.22,2.22,0,0,1-1.88-.93,4.66,4.66,0,0,1-.69-2.77,5.7,5.7,0,0,1,.32-2.07,2.6,2.6,0,0,1,.9-1.25A2.24,2.24,0,0,1-170.86,483.18Zm0,6.64a1.27,1.27,0,0,0,1.17-.68,4.61,4.61,0,0,0,.4-2.23,4.69,4.69,0,0,0-.4-2.26,1.28,1.28,0,0,0-1.17-.69,1.29,1.29,0,0,0-1.18.7,4.54,4.54,0,0,0-.41,2.25,4.46,4.46,0,0,0,.41,2.22A1.29,1.29,0,0,0-170.86,489.82Zm6-6.64a2.21,2.21,0,0,1,1.87.94,4.63,4.63,0,0,1,.7,2.79,4.58,4.58,0,0,1-.7,2.77,2.23,2.23,0,0,1-1.88.94,2.22,2.22,0,0,1-1.88-.93,4.58,4.58,0,0,1-.7-2.77,5.92,5.92,0,0,1,.32-2.07,2.74,2.74,0,0,1,.9-1.25A2.29,2.29,0,0,1-164.88,483.18Zm0,6.64a1.29,1.29,0,0,0,1.17-.68,4.73,4.73,0,0,0,.4-2.23,4.67,4.67,0,0,0-.41-2.26,1.26,1.26,0,0,0-1.17-.69,1.3,1.3,0,0,0-1.18.7,4.65,4.65,0,0,0-.41,2.25,4.57,4.57,0,0,0,.41,2.22A1.31,1.31,0,0,0-164.88,489.82Zm6.22-6.64a2.72,2.72,0,0,1,1.11.22,2.17,2.17,0,0,1,.84.65,2.09,2.09,0,0,1,.42,1h-.87a1.58,1.58,0,0,0-.53-.81,1.48,1.48,0,0,0-.95-.3,1.59,1.59,0,0,0-1.07.36,2,2,0,0,0-.62,1.06,5.23,5.23,0,0,0-.14,1.71,1.8,1.8,0,0,1,.41-.64,1.89,1.89,0,0,1,.65-.43,2.11,2.11,0,0,1,.8-.15,2.62,2.62,0,0,1,1.25.28,1.94,1.94,0,0,1,.84.79,2.35,2.35,0,0,1,.3,1.22,2.66,2.66,0,0,1-.31,1.28,2.27,2.27,0,0,1-.87.87,2.74,2.74,0,0,1-1.34.32,2.47,2.47,0,0,1-1.46-.44,2.74,2.74,0,0,1-1-1.24,5,5,0,0,1-.34-1.94,5.63,5.63,0,0,1,.33-2,2.91,2.91,0,0,1,1-1.33A2.45,2.45,0,0,1-158.66,483.18Zm-.1,3.43a1.59,1.59,0,0,0-.76.19,1.57,1.57,0,0,0-.59.49,1.08,1.08,0,0,0-.22.67,2.2,2.2,0,0,0,.19,1,1.6,1.6,0,0,0,.56.67,1.45,1.45,0,0,0,.83.24,1.48,1.48,0,0,0,.79-.21,1.44,1.44,0,0,0,.54-.58,1.86,1.86,0,0,0,.2-.87,1.87,1.87,0,0,0-.18-.85,1.18,1.18,0,0,0-.52-.54A1.68,1.68,0,0,0-158.76,486.61Z" transform="translate(248.75 -53.51)"/><path id="_2566" data-name="$2566" class="cls-12" d="M-68.75,490.64A5,5,0,0,1-71.5,490a2.71,2.71,0,0,1-1.21-2.1l2,0a1.54,1.54,0,0,0,.67,1,2.39,2.39,0,0,0,1.3.33,2.16,2.16,0,0,0,.83-.14,1.57,1.57,0,0,0,.57-.42,1,1,0,0,0,.21-.61.9.9,0,0,0-.34-.77,2.59,2.59,0,0,0-1-.41l-1.54-.34a3.26,3.26,0,0,1-1.72-.85,2.37,2.37,0,0,1-.66-1.72,2.49,2.49,0,0,1,.48-1.53,3.14,3.14,0,0,1,1.32-1,4.88,4.88,0,0,1,1.88-.35,4.2,4.2,0,0,1,1.84.38,2.93,2.93,0,0,1,1.19,1,2.45,2.45,0,0,1,.41,1.41l-1.92,0a1.8,1.8,0,0,0-.41-1,1.41,1.41,0,0,0-1.08-.36,3,3,0,0,0-.7.08,1.79,1.79,0,0,0-.52.24,1.06,1.06,0,0,0-.34.36,1,1,0,0,0-.11.47.83.83,0,0,0,.27.65,3,3,0,0,0,1.05.43l1.51.37a3.2,3.2,0,0,1,1.85,1,2.89,2.89,0,0,1,.57,1.8,2.31,2.31,0,0,1-.45,1.42,2.81,2.81,0,0,1-1.25.93A4.86,4.86,0,0,1-68.75,490.64Zm-.82-10.88h1.65v1.69h-1.65Zm0,10.3H-68v1.69H-69.6Zm5.73.45v-1.42a2.67,2.67,0,0,1,.27-1.24,3.12,3.12,0,0,1,.7-.91,6,6,0,0,1,1-.68c.35-.19.7-.38,1-.55s.67-.35,1-.52a3.05,3.05,0,0,0,.71-.59,1.16,1.16,0,0,0,.26-.77,1.19,1.19,0,0,0-.39-.92,1.52,1.52,0,0,0-1.07-.36,1.85,1.85,0,0,0-1.21.41,1.86,1.86,0,0,0-.61,1.23H-64a3.42,3.42,0,0,1,.42-1.62,2.8,2.8,0,0,1,1.22-1.16,4.28,4.28,0,0,1,2-.43,4.36,4.36,0,0,1,1.81.35,2.71,2.71,0,0,1,1.18,1,2.63,2.63,0,0,1,.42,1.49,2.71,2.71,0,0,1-.26,1.22,2.81,2.81,0,0,1-.69.88,5.14,5.14,0,0,1-.94.63c-.34.19-.69.36-1,.51s-.65.32-.93.48a2.29,2.29,0,0,0-.69.55,1.06,1.06,0,0,0-.26.73v.09H-57v1.6Zm9-9.4h6l-.07,1.55h-4.46l-.18,2.27a3.86,3.86,0,0,1,1-.42,3.85,3.85,0,0,1,1-.13,4,4,0,0,1,1.69.35,2.83,2.83,0,0,1,1.18,1,3,3,0,0,1,.44,1.66,3.29,3.29,0,0,1-.45,1.72A3,3,0,0,1-50,490.26a4.45,4.45,0,0,1-1.94.39,5,5,0,0,1-1.72-.29,4.37,4.37,0,0,1-1.37-.78,3.43,3.43,0,0,1-.88-1.14l1.49-.88a3.86,3.86,0,0,0,.57.8,2.34,2.34,0,0,0,.73.56,2.32,2.32,0,0,0,1,.2,2,2,0,0,0,1.36-.45,1.5,1.5,0,0,0,.52-1.17,1.43,1.43,0,0,0-.24-.81,1.58,1.58,0,0,0-.63-.57,2,2,0,0,0-.94-.21,3.31,3.31,0,0,0-.55,0,1.9,1.9,0,0,0-.52.18,5.11,5.11,0,0,0-.58.38.3.3,0,0,1-.13,0l-.13,0-1.37-.64Zm11.64-.13a4.12,4.12,0,0,1,1.63.32,2.91,2.91,0,0,1,1.22.93,2.55,2.55,0,0,1,.52,1.46h-1.74a1.6,1.6,0,0,0-.57-.9,1.61,1.61,0,0,0-1-.31,1.67,1.67,0,0,0-1.12.38,2.18,2.18,0,0,0-.65,1.07,4.38,4.38,0,0,0-.1,1.61,2,2,0,0,1,.54-.53,2.67,2.67,0,0,1,.75-.33,3,3,0,0,1,.85-.12,3.7,3.7,0,0,1,1.67.36,2.65,2.65,0,0,1,1.12,1,2.89,2.89,0,0,1,.4,1.52,3,3,0,0,1-.46,1.65,3.14,3.14,0,0,1-1.25,1.14,4,4,0,0,1-1.87.42,3.61,3.61,0,0,1-2.06-.58,3.71,3.71,0,0,1-1.34-1.62A6,6,0,0,1-47.2,486a7,7,0,0,1,.46-2.67,3.84,3.84,0,0,1,1.36-1.73A3.63,3.63,0,0,1-43.26,481Zm-.13,5a1.78,1.78,0,0,0-.78.18,1.81,1.81,0,0,0-.62.45.88.88,0,0,0-.23.56,2.8,2.8,0,0,0,.19,1.09,1.59,1.59,0,0,0,.58.69,1.51,1.51,0,0,0,.85.24,1.74,1.74,0,0,0,.82-.2,1.62,1.62,0,0,0,.59-.6,1.64,1.64,0,0,0,.22-.86,1.65,1.65,0,0,0-.21-.87,1.39,1.39,0,0,0-.59-.51A1.83,1.83,0,0,0-43.39,486Zm8.57-5a4.21,4.21,0,0,1,1.64.32,2.88,2.88,0,0,1,1.21.93,2.48,2.48,0,0,1,.52,1.46h-1.73a1.67,1.67,0,0,0-.58-.9,1.57,1.57,0,0,0-1-.31,1.69,1.69,0,0,0-1.12.38,2.17,2.17,0,0,0-.64,1.07,4.37,4.37,0,0,0-.11,1.61,2,2,0,0,1,.55-.53,2.61,2.61,0,0,1,.74-.33,3,3,0,0,1,.85-.12,3.67,3.67,0,0,1,1.67.36,2.59,2.59,0,0,1,1.12,1,2.8,2.8,0,0,1,.4,1.52,3.1,3.1,0,0,1-.45,1.65A3.17,3.17,0,0,1-33,490.23a4,4,0,0,1-1.86.42,3.62,3.62,0,0,1-2.07-.58,3.71,3.71,0,0,1-1.34-1.62,6,6,0,0,1-.46-2.46,7,7,0,0,1,.47-2.67,3.78,3.78,0,0,1,1.36-1.73A3.59,3.59,0,0,1-34.82,481Zm-.13,5a1.78,1.78,0,0,0-.78.18,1.76,1.76,0,0,0-.61.45.84.84,0,0,0-.24.56,2.62,2.62,0,0,0,.2,1.09,1.63,1.63,0,0,0,.57.69,1.53,1.53,0,0,0,.85.24,1.69,1.69,0,0,0,.82-.2,1.55,1.55,0,0,0,.59-.6,1.64,1.64,0,0,0,.22-.86,1.65,1.65,0,0,0-.21-.87,1.34,1.34,0,0,0-.59-.51A1.8,1.8,0,0,0-34.95,486Z" transform="translate(248.75 -53.51)"/></g></g></g><g id="Group_36_Copy_4" data-name="Group 36 Copy 4"><g id="Rectangle_7" data-name="Rectangle 7"><rect class="cls-10" x="30" y="461" width="204" height="40" rx="5"/></g><g class="cls-29"><g id="Group_35_7" data-name="Group 35_7"><path id="_4199" data-name="$4199" class="cls-12" d="M-65.8,538.64a5,5,0,0,1-2.74-.68,2.71,2.71,0,0,1-1.21-2.1l2,0a1.54,1.54,0,0,0,.67,1,2.37,2.37,0,0,0,1.3.33A2.07,2.07,0,0,0-65,537a1.53,1.53,0,0,0,.58-.42,1,1,0,0,0,.2-.61.92.92,0,0,0-.33-.77,2.59,2.59,0,0,0-1-.41l-1.54-.34a3.26,3.26,0,0,1-1.72-.85,2.37,2.37,0,0,1-.66-1.72,2.49,2.49,0,0,1,.48-1.53,3.06,3.06,0,0,1,1.32-1A4.83,4.83,0,0,1-65.8,529a4.16,4.16,0,0,1,1.84.38,3,3,0,0,1,1.2,1,2.45,2.45,0,0,1,.41,1.41l-1.92,0a1.8,1.8,0,0,0-.41-1,1.41,1.41,0,0,0-1.08-.36,2.93,2.93,0,0,0-.7.08,2,2,0,0,0-.53.24,1.13,1.13,0,0,0-.33.36.93.93,0,0,0-.11.47.83.83,0,0,0,.27.65,3,3,0,0,0,1,.43l1.51.37a3.23,3.23,0,0,1,1.85,1,2.89,2.89,0,0,1,.57,1.8,2.31,2.31,0,0,1-.45,1.42,2.86,2.86,0,0,1-1.25.93A4.92,4.92,0,0,1-65.8,538.64Zm-.81-10.88H-65v1.69h-1.65Zm0,10.3H-65v1.69h-1.64Zm9.84-8.95h1.87v5.72h1.44v1.6h-1.44v2.08h-1.83v-2.08h-4.33v-1.56Zm-2.53,5.72h2.58v-3.44Zm8.35,3.68v-7h-1.67v-1.08a4.64,4.64,0,0,0,1.3-.15,1.61,1.61,0,0,0,.75-.44,1.27,1.27,0,0,0,.29-.69H-49v9.4Zm7.25.14a3.87,3.87,0,0,1-1.63-.34,3.14,3.14,0,0,1-1.25-.95,2.59,2.59,0,0,1-.54-1.44h1.81a1.59,1.59,0,0,0,.52.89,1.51,1.51,0,0,0,1,.34,2.19,2.19,0,0,0,1.18-.32,1.86,1.86,0,0,0,.76-1,4.33,4.33,0,0,0,.19-1.82,1.82,1.82,0,0,1-.51.6,2.44,2.44,0,0,1-.75.4,3.12,3.12,0,0,1-1,.13,4,4,0,0,1-1.7-.35,2.9,2.9,0,0,1-1.16-1,3,3,0,0,1-.41-1.59,3,3,0,0,1,.44-1.64,3.06,3.06,0,0,1,1.23-1.13,3.92,3.92,0,0,1,1.86-.41,3.64,3.64,0,0,1,2.06.57,3.62,3.62,0,0,1,1.34,1.61,6,6,0,0,1,.46,2.45,7.2,7.2,0,0,1-.48,2.81,3.54,3.54,0,0,1-1.36,1.68A4,4,0,0,1-43.73,538.65Zm.17-5a1.73,1.73,0,0,0,.77-.17,1.83,1.83,0,0,0,.62-.46.84.84,0,0,0,.24-.56,2.54,2.54,0,0,0-.21-1.08,1.53,1.53,0,0,0-.57-.7,1.49,1.49,0,0,0-.85-.24,1.54,1.54,0,0,0-.8.21,1.43,1.43,0,0,0-.55.59,1.86,1.86,0,0,0-.2.87,1.48,1.48,0,0,0,.43,1.14A1.55,1.55,0,0,0-43.56,533.62Zm8.26,5a3.87,3.87,0,0,1-1.63-.34,3,3,0,0,1-1.24-.95,2.45,2.45,0,0,1-.54-1.44h1.8a1.59,1.59,0,0,0,.52.89,1.51,1.51,0,0,0,1,.34,2.19,2.19,0,0,0,1.18-.32,1.92,1.92,0,0,0,.77-1,4.52,4.52,0,0,0,.18-1.82,1.82,1.82,0,0,1-.51.6,2.44,2.44,0,0,1-.75.4,3.12,3.12,0,0,1-1,.13,4,4,0,0,1-1.7-.35,2.87,2.87,0,0,1-1.15-1,3,3,0,0,1-.42-1.59,3.12,3.12,0,0,1,.44-1.64A3.08,3.08,0,0,1-37,529.39a3.87,3.87,0,0,1,1.86-.41,3.68,3.68,0,0,1,2.06.57,3.6,3.6,0,0,1,1.33,1.61,6,6,0,0,1,.47,2.45,7.2,7.2,0,0,1-.48,2.81,3.61,3.61,0,0,1-1.37,1.68A3.93,3.93,0,0,1-35.3,538.65Zm.17-5a1.73,1.73,0,0,0,.77-.17,1.83,1.83,0,0,0,.62-.46.84.84,0,0,0,.24-.56,2.7,2.7,0,0,0-.2-1.08,1.67,1.67,0,0,0-.57-.7,1.54,1.54,0,0,0-.86-.24,1.54,1.54,0,0,0-.8.21,1.43,1.43,0,0,0-.55.59,1.86,1.86,0,0,0-.2.87,1.48,1.48,0,0,0,.43,1.14A1.57,1.57,0,0,0-35.13,533.62Z" transform="translate(248.75 -53.51)"/></g></g></g></g><rect id="Rectangle_8" data-name="Rectangle 8" class="cls-12" x="15.07" y="12.44" width="233" height="114"/></g><g class="cls-30"><g id="Group_26" data-name="Group 26"><g id="Rectangle_9" data-name="Rectangle 9"><rect class="cls-10" x="30" y="93" width="204" height="56" rx="5"/></g><path id="Total_payment" data-name="Total payment" class="cls-23" d="M-202,172.13v-.85h5.47v.85h-2.21v6.38h-.93v-6.38Zm7.76,6.48a2.49,2.49,0,0,1-1.25-.31,2.07,2.07,0,0,1-.83-.9,3.25,3.25,0,0,1-.3-1.46,3.33,3.33,0,0,1,.28-1.42,2.06,2.06,0,0,1,.8-.94,2.35,2.35,0,0,1,1.3-.34,2.38,2.38,0,0,1,1.24.31,2.11,2.11,0,0,1,.82.92,3.41,3.41,0,0,1,.29,1.47,3.35,3.35,0,0,1-.27,1.39,2.14,2.14,0,0,1-.79.94A2.38,2.38,0,0,1-194.29,178.61Zm0-.73a1.25,1.25,0,0,0,.78-.24A1.49,1.49,0,0,0-193,177a3.05,3.05,0,0,0,.16-1.05,3.33,3.33,0,0,0-.14-1,1.51,1.51,0,0,0-.47-.71,1.26,1.26,0,0,0-.82-.26,1.31,1.31,0,0,0-.8.24,1.33,1.33,0,0,0-.49.67,3,3,0,0,0-.17,1,3.12,3.12,0,0,0,.15,1,1.56,1.56,0,0,0,.47.71A1.3,1.3,0,0,0-194.29,177.88Zm5.94-3.87h-1.16v3.22a1,1,0,0,0,0,.4.27.27,0,0,0,.2.16,1.73,1.73,0,0,0,.37,0h.57v.62l-.29.06-.47,0a2.09,2.09,0,0,1-.84-.14.86.86,0,0,1-.41-.43,1.84,1.84,0,0,1-.11-.7V174h-.85v-.67h.87l.23-1.51h.68v1.5h1.16Zm2.64,4.6a2,2,0,0,1-.88-.18,1.46,1.46,0,0,1-.61-.51,1.53,1.53,0,0,1-.21-.81,1.45,1.45,0,0,1,.6-1.28,3.56,3.56,0,0,1,1.92-.45l.93,0V175a1,1,0,0,0-.29-.75,1.19,1.19,0,0,0-.88-.28,1.48,1.48,0,0,0-.79.21,1,1,0,0,0-.43.67h-.82a1.55,1.55,0,0,1,.29-.85,1.49,1.49,0,0,1,.71-.53,2.94,2.94,0,0,1,1.08-.18,2.78,2.78,0,0,1,1.12.19,1.29,1.29,0,0,1,.67.56,1.71,1.71,0,0,1,.23.91v3.61h-.79l-.07-1a1.8,1.8,0,0,1-.76.84A2.31,2.31,0,0,1-185.71,178.61Zm.28-.67a1.54,1.54,0,0,0,.52-.09,2,2,0,0,0,.47-.26,1.27,1.27,0,0,0,.34-.36.87.87,0,0,0,.14-.42v-.89l-.77,0a3.43,3.43,0,0,0-1,.12,1.13,1.13,0,0,0-.6.34.94.94,0,0,0-.19.62.84.84,0,0,0,.3.68A1.21,1.21,0,0,0-185.43,177.94Zm5.17.63a1.82,1.82,0,0,1-.68-.11,1,1,0,0,1-.4-.31,1.3,1.3,0,0,1-.19-.45,3,3,0,0,1,0-.52v-6.1h.91v6a.94.94,0,0,0,.15.58.6.6,0,0,0,.43.22h.28v.6l-.24.06Zm3.82,1.55v-6.78h.92v.9a2.92,2.92,0,0,1,.23-.34,1.8,1.8,0,0,1,.35-.32,1.82,1.82,0,0,1,.48-.25,2.11,2.11,0,0,1,.64-.09,2.06,2.06,0,0,1,1.09.28,1.86,1.86,0,0,1,.74.86,3.52,3.52,0,0,1,.26,1.47,3.78,3.78,0,0,1-.26,1.51,2,2,0,0,1-.74.93,2.09,2.09,0,0,1-1.17.32,1.9,1.9,0,0,1-.61-.1,2.09,2.09,0,0,1-.47-.25,2.1,2.1,0,0,1-.33-.34c-.08-.12-.15-.24-.21-.35v2.55Zm2.38-2.23a1.3,1.3,0,0,0,1-.49,2.36,2.36,0,0,0,.41-1.52,2.33,2.33,0,0,0-.37-1.4,1.24,1.24,0,0,0-1.08-.52,1.23,1.23,0,0,0-1.09.53,2.36,2.36,0,0,0-.37,1.39,2.93,2.93,0,0,0,.16,1,1.74,1.74,0,0,0,.49.73A1.24,1.24,0,0,0-174.06,177.89Zm4.84.72a2,2,0,0,1-.88-.18,1.46,1.46,0,0,1-.61-.51,1.53,1.53,0,0,1-.21-.81,1.45,1.45,0,0,1,.6-1.28,3.56,3.56,0,0,1,1.92-.45l.93,0V175a1,1,0,0,0-.29-.75,1.19,1.19,0,0,0-.88-.28,1.48,1.48,0,0,0-.79.21,1,1,0,0,0-.43.67h-.82a1.55,1.55,0,0,1,.29-.85,1.49,1.49,0,0,1,.71-.53,2.91,2.91,0,0,1,1.08-.18,2.82,2.82,0,0,1,1.12.19,1.33,1.33,0,0,1,.67.56,1.71,1.71,0,0,1,.23.91v3.61h-.79l-.07-1a1.8,1.8,0,0,1-.76.84A2.31,2.31,0,0,1-169.22,178.61Zm.28-.67a1.58,1.58,0,0,0,.52-.09,2,2,0,0,0,.47-.26,1.43,1.43,0,0,0,.34-.36.87.87,0,0,0,.14-.42v-.89l-.77,0a3.43,3.43,0,0,0-1,.12,1.1,1.1,0,0,0-.6.34.94.94,0,0,0-.19.62.84.84,0,0,0,.3.68A1.21,1.21,0,0,0-168.94,177.94Zm4.2,2.22a2,2,0,0,1-.62-.07l-.17-.06v-.6h.52a2.09,2.09,0,0,0,.48,0,1,1,0,0,0,.31-.14.75.75,0,0,0,.17-.19,1.36,1.36,0,0,0,.11-.2l.18-.49-2-5h.93l1.53,4,1.51-4h.91l-2.18,5.56a2.93,2.93,0,0,1-.45.76,1.55,1.55,0,0,1-.55.39A2,2,0,0,1-164.74,180.16Zm4.75-1.65v-5.17h.89v.75a2,2,0,0,1,.59-.6,1.68,1.68,0,0,1,1-.25,1.88,1.88,0,0,1,.57.09,1.57,1.57,0,0,1,.54.29,1.21,1.21,0,0,1,.38.46,1.81,1.81,0,0,1,.65-.61,1.81,1.81,0,0,1,.93-.23,1.85,1.85,0,0,1,.56.08,1.39,1.39,0,0,1,.55.29,1.41,1.41,0,0,1,.41.58,2.27,2.27,0,0,1,.16.94v3.38h-.93v-3.29a1.45,1.45,0,0,0-.15-.73.84.84,0,0,0-.39-.36,1.27,1.27,0,0,0-.52-.11,1.4,1.4,0,0,0-.51.1,1,1,0,0,0-.46.32,1,1,0,0,0-.19.61v3.46h-.92V175a.76.76,0,0,0-.16-.51,1,1,0,0,0-.41-.31,1.2,1.2,0,0,0-.48-.11,1.48,1.48,0,0,0-.53.11,1.06,1.06,0,0,0-.45.33.92.92,0,0,0-.18.59v3.46Zm9.23-2.37a2.56,2.56,0,0,0,.16.89,1.48,1.48,0,0,0,.5.63,1.45,1.45,0,0,0,.83.23,1.54,1.54,0,0,0,.85-.23A1,1,0,0,0-148,177h.88a1.86,1.86,0,0,1-.42.88,2.21,2.21,0,0,1-.79.55,2.56,2.56,0,0,1-1,.18,2.52,2.52,0,0,1-1.27-.32,2.14,2.14,0,0,1-.86-.9,3,3,0,0,1-.31-1.42,3.38,3.38,0,0,1,.28-1.43,2.12,2.12,0,0,1,.81-1,2.31,2.31,0,0,1,1.28-.34,2.31,2.31,0,0,1,1.24.31,2,2,0,0,1,.76.89,3.14,3.14,0,0,1,.27,1.36v.34Zm0-.63h2.81a2,2,0,0,0-.15-.8,1.22,1.22,0,0,0-.46-.56,1.34,1.34,0,0,0-.77-.21,1.32,1.32,0,0,0-.81.23,1.41,1.41,0,0,0-.47.6A1.59,1.59,0,0,0-150.75,175.51Zm4.89,3v-5.17h.9v.75a1.43,1.43,0,0,1,.34-.41,1.57,1.57,0,0,1,.54-.3,2.09,2.09,0,0,1,.74-.12,2.12,2.12,0,0,1,.9.2,1.54,1.54,0,0,1,.66.61,2.05,2.05,0,0,1,.25,1.06v3.38h-.93v-3.29a1.16,1.16,0,0,0-.32-.9,1.13,1.13,0,0,0-.82-.29,1.74,1.74,0,0,0-.65.11,1.12,1.12,0,0,0-.5.34.84.84,0,0,0-.19.57v3.46Zm8.08-4.5h-1.17v3.22a1,1,0,0,0,.06.4.28.28,0,0,0,.19.16,1.84,1.84,0,0,0,.38,0h.57v.62l-.29.06-.48,0a2.07,2.07,0,0,1-.83-.14.86.86,0,0,1-.41-.43,1.83,1.83,0,0,1-.12-.7V174h-.84v-.67h.87l.22-1.51h.68v1.5h1.17Z" transform="translate(248.75 -53.51)"/><path id="_9204" data-name="$9204" class="cls-16" d="M-88.49,181.71a7.71,7.71,0,0,1-4.22-1,4.17,4.17,0,0,1-1.86-3.23l3-.06a2.41,2.41,0,0,0,1,1.51,3.64,3.64,0,0,0,2,.51,3.34,3.34,0,0,0,1.27-.23,2.36,2.36,0,0,0,.88-.64,1.52,1.52,0,0,0,.32-.93,1.39,1.39,0,0,0-.51-1.19,4,4,0,0,0-1.57-.64l-2.37-.51A5.11,5.11,0,0,1-93.13,174a3.64,3.64,0,0,1-1-2.65,3.7,3.7,0,0,1,.73-2.35,4.74,4.74,0,0,1,2-1.54,7.41,7.41,0,0,1,2.89-.54,6.25,6.25,0,0,1,2.83.59A4.38,4.38,0,0,1-83.82,169a3.75,3.75,0,0,1,.63,2.17l-3,.05a2.84,2.84,0,0,0-.64-1.51,2.16,2.16,0,0,0-1.66-.55,3.87,3.87,0,0,0-1.07.13,2.33,2.33,0,0,0-.81.37,1.51,1.51,0,0,0-.52.55A1.42,1.42,0,0,0-91,171a1.27,1.27,0,0,0,.42,1,4.4,4.4,0,0,0,1.61.67l2.33.57a4.83,4.83,0,0,1,2.84,1.61,4.43,4.43,0,0,1,.88,2.77,3.57,3.57,0,0,1-.69,2.18,4.41,4.41,0,0,1-1.93,1.44A7.8,7.8,0,0,1-88.49,181.71ZM-89.74,165h2.53v2.6h-2.53Zm-.05,15.84h2.52v2.6h-2.52Zm13.88.91a6.21,6.21,0,0,1-2.52-.52,5.12,5.12,0,0,1-1.92-1.46,4,4,0,0,1-.83-2.22h2.78a2.51,2.51,0,0,0,.8,1.37,2.41,2.41,0,0,0,1.56.52,3.45,3.45,0,0,0,1.83-.49A2.93,2.93,0,0,0-73,177.37a6.75,6.75,0,0,0,.28-2.8,2.85,2.85,0,0,1-.78.93,3.65,3.65,0,0,1-1.14.61,4.88,4.88,0,0,1-1.47.21,6,6,0,0,1-2.61-.55,4.34,4.34,0,0,1-1.78-1.58,4.51,4.51,0,0,1-.64-2.44,4.76,4.76,0,0,1,.67-2.53,4.73,4.73,0,0,1,1.91-1.74,6.12,6.12,0,0,1,2.86-.63,5.61,5.61,0,0,1,3.17.88,5.55,5.55,0,0,1,2,2.48A9.09,9.09,0,0,1-69.8,174a11.13,11.13,0,0,1-.74,4.32,5.51,5.51,0,0,1-2.11,2.58A6.11,6.11,0,0,1-75.91,181.73Zm.26-7.73a2.67,2.67,0,0,0,1.17-.27,3.06,3.06,0,0,0,1-.7,1.34,1.34,0,0,0,.37-.87,4,4,0,0,0-.31-1.66,2.31,2.31,0,0,0-.89-1.07,2.26,2.26,0,0,0-1.3-.37,2.28,2.28,0,0,0-1.23.32,2.26,2.26,0,0,0-.86.9,2.85,2.85,0,0,0-.3,1.34,2.32,2.32,0,0,0,.66,1.76A2.41,2.41,0,0,0-75.65,174Zm7.7,7.51v-2.18a4.13,4.13,0,0,1,.41-1.9,4.81,4.81,0,0,1,1.08-1.4A9,9,0,0,1-65,175c.55-.3,1.08-.59,1.63-.85s1-.54,1.47-.8a4.21,4.21,0,0,0,1.09-.91,1.79,1.79,0,0,0,.41-1.18,1.8,1.8,0,0,0-.61-1.42,2.29,2.29,0,0,0-1.64-.55,2.83,2.83,0,0,0-1.86.63,3,3,0,0,0-.94,1.9h-2.78a5.1,5.1,0,0,1,.64-2.5,4.43,4.43,0,0,1,1.87-1.79,6.71,6.71,0,0,1,3.15-.66,6.49,6.49,0,0,1,2.79.55,4.14,4.14,0,0,1,1.81,1.53,4,4,0,0,1,.65,2.29,4.1,4.1,0,0,1-.41,1.88,4.32,4.32,0,0,1-1,1.35,9,9,0,0,1-1.45,1c-.53.28-1.06.54-1.58.78s-1,.48-1.45.74a3.47,3.47,0,0,0-1.05.84,1.67,1.67,0,0,0-.41,1.13v.13h7.38v2.46Zm17.88-14.66A4.86,4.86,0,0,1-46,168.78a8.88,8.88,0,0,1,1.49,5.53A8.93,8.93,0,0,1-46,179.82a4.89,4.89,0,0,1-4.09,1.91,4.9,4.9,0,0,1-4.11-1.91,8.89,8.89,0,0,1-1.47-5.5,10.66,10.66,0,0,1,.68-4.07A5.35,5.35,0,0,1-53,167.72,5.05,5.05,0,0,1-50.07,166.85Zm0,12.49a2,2,0,0,0,1.89-1.15,9.07,9.07,0,0,0,.6-3.87,9.48,9.48,0,0,0-.61-4,2,2,0,0,0-1.89-1.2A2,2,0,0,0-52,170.36a9.11,9.11,0,0,0-.62,4,8.67,8.67,0,0,0,.62,3.86A2,2,0,0,0-50.07,179.34Zm13.65-12.29h2.87v8.81h2.22v2.45h-2.22v3.2h-2.81v-3.2H-43v-2.4Zm-3.9,8.81h4v-5.3Z" transform="translate(248.75 -53.51)"/></g></g><g id="Group_27" data-name="Group 27"><path id="payapi" class="cls-1" d="M-74.7,104.93v-2.08h-.77v2.08Zm-53.13,16v-5h0a3.36,3.36,0,0,0,1.35,1.16,4.08,4.08,0,0,0,1.79.39,4.31,4.31,0,0,0,2-.44,4.36,4.36,0,0,0,1.43-1.19,5.06,5.06,0,0,0,.86-1.72,7.14,7.14,0,0,0,.28-2,7.88,7.88,0,0,0-.28-2.13,5.15,5.15,0,0,0-.87-1.79,4.31,4.31,0,0,0-1.47-1.24,4.55,4.55,0,0,0-2.13-.46,4.21,4.21,0,0,0-1.78.38,3.22,3.22,0,0,0-1.33,1.24h0v-1.34h-2.73v14.11Zm2.41-5.54a2.32,2.32,0,0,1-1.18-.28,2.28,2.28,0,0,1-.77-.74,3.15,3.15,0,0,1-.43-1.06,6.34,6.34,0,0,1-.13-1.23,6.56,6.56,0,0,1,.12-1.26,3.07,3.07,0,0,1,.42-1.07,2.33,2.33,0,0,1,.77-.76,2.24,2.24,0,0,1,1.18-.29,2.24,2.24,0,0,1,1.16.29,2.6,2.6,0,0,1,.78.77,3.22,3.22,0,0,1,.43,1.08,5.74,5.74,0,0,1,.13,1.24,6.33,6.33,0,0,1-.12,1.23,3.13,3.13,0,0,1-.41,1.06,2.37,2.37,0,0,1-.77.74A2.27,2.27,0,0,1-125.42,115.4Zm11.93,1.86a6.43,6.43,0,0,1-1.9.28,5.26,5.26,0,0,1-1.4-.18,3.24,3.24,0,0,1-1.13-.56,2.81,2.81,0,0,1-.76-1,3.36,3.36,0,0,1-.27-1.4,3.13,3.13,0,0,1,.31-1.46,2.59,2.59,0,0,1,.81-.92,3.77,3.77,0,0,1,1.13-.52q.65-.16,1.29-.27c.43-.07.85-.12,1.27-.16a6.38,6.38,0,0,0,1.11-.19,1.84,1.84,0,0,0,.77-.35.75.75,0,0,0,.26-.68,1.5,1.5,0,0,0-.15-.73,1,1,0,0,0-.4-.43,1.59,1.59,0,0,0-.59-.2,5.31,5.31,0,0,0-.72,0,2.19,2.19,0,0,0-1.33.36,1.68,1.68,0,0,0-.57,1.22h-2.86a3.18,3.18,0,0,1,.5-1.68A3.4,3.4,0,0,1-117,107.3a5.13,5.13,0,0,1,1.55-.58,9.14,9.14,0,0,1,1.73-.17,12.38,12.38,0,0,1,1.59.11,5,5,0,0,1,1.48.43,3,3,0,0,1,1.09.9,2.57,2.57,0,0,1,.42,1.53V115a11.67,11.67,0,0,0,.08,1.35,2.48,2.48,0,0,0,.29,1h-2.91a3,3,0,0,1-.13-.49,4.34,4.34,0,0,1-.08-.52A3.7,3.7,0,0,1-113.49,117.26Zm-.83-1.62a3.71,3.71,0,0,1-.67-.06,1.63,1.63,0,0,1-.56-.21,1.18,1.18,0,0,1-.39-.41,1.42,1.42,0,0,1-.14-.65,1.48,1.48,0,0,1,.14-.67,1.31,1.31,0,0,1,.38-.43,1.52,1.52,0,0,1,.54-.27,4.64,4.64,0,0,1,.64-.17l.69-.1a6.32,6.32,0,0,0,.65-.1,4.61,4.61,0,0,0,.59-.15,1.22,1.22,0,0,0,.45-.25v1.07a4.44,4.44,0,0,1,0,.65,2.06,2.06,0,0,1-.27.79,1.88,1.88,0,0,1-.69.68A2.53,2.53,0,0,1-114.32,115.64Zm11.12,4.75a4.1,4.1,0,0,1-2.3.55c-.3,0-.59,0-.88,0l-.88-.07v-2.37l.83.08a4.81,4.81,0,0,0,.85,0,1.13,1.13,0,0,0,.84-.44,1.46,1.46,0,0,0,.27-.85,1.78,1.78,0,0,0-.12-.65l-3.66-9.8h3l2.36,7.16h0l2.28-7.16h3l-4.36,11.74A3.54,3.54,0,0,1-103.2,120.39Zm9.51-2.87a5,5,0,0,0,1.37-.18,4.24,4.24,0,0,0,1.12-.5,4,4,0,0,0,.84-.74,3.5,3.5,0,0,0,.53-.88h0v.54a2.8,2.8,0,0,0,.05.6,1.13,1.13,0,0,0,.19.48,1,1,0,0,0,.41.32,1.91,1.91,0,0,0,.74.12,2.59,2.59,0,0,0,.63-.08v-.65a3.67,3.67,0,0,1-.57.06.6.6,0,0,1-.4-.11.55.55,0,0,1-.2-.29,1.29,1.29,0,0,1-.07-.4c0-.15,0-.3,0-.45v-6a2.42,2.42,0,0,0-.86-1.93,4.19,4.19,0,0,0-2.74-.74,4.38,4.38,0,0,0-2.9.86,3.38,3.38,0,0,0-1.1,2.58h.76a2.77,2.77,0,0,1,.94-2.09,3.58,3.58,0,0,1,2.26-.68,4.65,4.65,0,0,1,1.33.16,2.47,2.47,0,0,1,.89.44,1.84,1.84,0,0,1,.51.65,2.06,2.06,0,0,1,.16.79,5.84,5.84,0,0,1-.06.91,1,1,0,0,1-.31.59,1.64,1.64,0,0,1-.71.37,6.86,6.86,0,0,1-1.31.19l-1.19.1a12.86,12.86,0,0,0-1.3.2,4.21,4.21,0,0,0-1.24.48,2.76,2.76,0,0,0-.92.91,2.75,2.75,0,0,0-.36,1.48,2.65,2.65,0,0,0,.91,2.22A4.11,4.11,0,0,0-93.69,117.52Zm-2-1.22a3.21,3.21,0,0,0,2,.56,3.91,3.91,0,0,0,2.08-.48,3.75,3.75,0,0,0,1.17-1.09,3.49,3.49,0,0,0,.52-1.19,5.87,5.87,0,0,0,.11-.78v-1.94a1.46,1.46,0,0,1-.86.46,10.87,10.87,0,0,1-1.28.19l-1.3.12a11,11,0,0,0-1.13.17,3.26,3.26,0,0,0-1,.37,2.21,2.21,0,0,0-.74.72,2.19,2.19,0,0,0-.28,1.18A2,2,0,0,0-95.67,116.3Zm9.88,4.7v-5.88h.05A3.32,3.32,0,0,0-84.27,117a4.7,4.7,0,0,0,2.31.56,4.93,4.93,0,0,0,2.07-.4A3.93,3.93,0,0,0-78.44,116a4.75,4.75,0,0,0,.86-1.71,7.88,7.88,0,0,0,.28-2.18,7.59,7.59,0,0,0-.28-2.09,5,5,0,0,0-.86-1.73,4.25,4.25,0,0,0-1.45-1.2,4.64,4.64,0,0,0-2.07-.44,4.15,4.15,0,0,0-1.51.26,4.19,4.19,0,0,0-1.12.66,3.54,3.54,0,0,0-.75.86,3.75,3.75,0,0,0-.4.85h-.05v-2.39h-.76V121Zm2-4.54a3.87,3.87,0,0,0,1.83.4,3.66,3.66,0,0,0,1.74-.39,3.48,3.48,0,0,0,1.22-1,4.51,4.51,0,0,0,.7-1.5,6.85,6.85,0,0,0,.23-1.83,6.83,6.83,0,0,0-.22-1.75,4.67,4.67,0,0,0-.68-1.54,3.53,3.53,0,0,0-1.21-1.09,3.52,3.52,0,0,0-1.78-.41,3.55,3.55,0,0,0-1.76.4,3.51,3.51,0,0,0-1.19,1.07,4.57,4.57,0,0,0-.65,1.53,7.5,7.5,0,0,0-.2,1.79,8.76,8.76,0,0,0,.18,1.79,4.32,4.32,0,0,0,.61,1.51A3.08,3.08,0,0,0-83.79,116.46Zm8.32-9.57h.77v10.39h-.77Z" transform="translate(248.75 -53.51)"/><g id="Group_25" data-name="Group 25"><circle id="Oval-2" data-name="Oval" class="cls-31" cx="101.09" cy="49.16" r="1.89"/><circle id="Oval_Copy_6" data-name="Oval Copy 6" class="cls-31" cx="105.56" cy="53.62" r="1.89"/><circle id="Oval_Copy_7" data-name="Oval Copy 7" class="cls-31" cx="-138.73" cy="111.6" r="1.89" transform="translate(129.21 -118.92) rotate(-45)"/><circle id="Oval_Copy_10" data-name="Oval Copy 10" class="cls-31" cx="96.62" cy="53.62" r="1.89"/><circle id="Oval_Copy_9" data-name="Oval Copy 9" class="cls-32" cx="-147.66" cy="111.6" r="1.89" transform="translate(126.59 -125.23) rotate(-45)"/><circle id="Oval_Copy_8" data-name="Oval Copy 8" class="cls-32" cx="-143.19" cy="116.06" r="1.89" transform="translate(124.74 -120.77) rotate(-45)"/><circle id="Oval_Copy_13" data-name="Oval Copy 13" class="cls-31" cx="92.16" cy="58.09" r="1.89"/><circle id="Oval_Copy_12" data-name="Oval Copy 12" class="cls-32" cx="-152.13" cy="116.06" r="1.89" transform="translate(122.13 -127.08) rotate(-45)"/><circle id="Oval_Copy_11" data-name="Oval Copy 11" class="cls-33" cx="-147.66" cy="120.53" r="1.89" transform="translate(120.28 -122.62) rotate(-45)"/></g></g></g></g></g></svg>